<?xml version="1.0" encoding="utf-8" standalone="no"?>
<!DOCTYPE svg PUBLIC "-//W3C//DTD SVG 1.1//EN"
  "http://www.w3.org/Graphics/SVG/1.1/DTD/svg11.dtd">
<svg xmlns:xlink="http://www.w3.org/1999/xlink" width="420pt" height="252pt" viewBox="0 0 420 252" xmlns="http://www.w3.org/2000/svg" version="1.1">
 <metadata>
  <rdf:RDF xmlns:dc="http://purl.org/dc/elements/1.1/" xmlns:cc="http://creativecommons.org/ns#" xmlns:rdf="http://www.w3.org/1999/02/22-rdf-syntax-ns#">
   <cc:Work>
    <dc:type rdf:resource="http://purl.org/dc/dcmitype/StillImage"/>
    <dc:date>2026-09-17T21:59:26.417215</dc:date>
    <dc:format>image/svg+xml</dc:format>
    <dc:creator>
     <cc:Agent>
      <dc:title>Matplotlib v3.10.9, https://matplotlib.org/</dc:title>
     </cc:Agent>
    </dc:creator>
   </cc:Work>
  </rdf:RDF>
 </metadata>
 <defs>
  <style type="text/css">*{stroke-linejoin: round; stroke-linecap: butt}</style>
 </defs>
 <g id="figure_1">
  <g id="patch_1">
   <path d="M 0 252 
L 420 252 
L 420 0 
L 0 0 
z
" style="fill: #ffffff"/>
  </g>
  <g id="axes_1">
   <g id="patch_2">
    <path d="M 22.9026 199.12032 
L 84.6174 199.12032 
Q 87.7422 199.12032 87.7422 197.24544 
L 87.7422 78.19056 
Q 87.7422 76.31568 84.6174 76.31568 
L 22.9026 76.31568 
Q 19.7778 76.31568 19.7778 78.19056 
L 19.7778 197.24544 
Q 19.7778 199.12032 22.9026 199.12032 
z
" clip-path="url(#pe9cf6cca4f)" style="fill: #ffffff; stroke: #454545; stroke-width: 0.9; stroke-linejoin: miter"/>
   </g>
   <g id="patch_3">
    <path d="M 101.0226 199.12032 
L 162.7374 199.12032 
Q 165.8622 199.12032 165.8622 197.24544 
L 165.8622 78.19056 
Q 165.8622 76.31568 162.7374 76.31568 
L 101.0226 76.31568 
Q 97.8978 76.31568 97.8978 78.19056 
L 97.8978 197.24544 
Q 97.8978 199.12032 101.0226 199.12032 
z
" clip-path="url(#pe9cf6cca4f)" style="fill: #ffffff; stroke: #454545; stroke-width: 0.9; stroke-linejoin: miter"/>
   </g>
   <g id="patch_4">
    <path d="M 179.1426 199.12032 
L 240.8574 199.12032 
Q 243.9822 199.12032 243.9822 197.24544 
L 243.9822 78.19056 
Q 243.9822 76.31568 240.8574 76.31568 
L 179.1426 76.31568 
Q 176.0178 76.31568 176.0178 78.19056 
L 176.0178 197.24544 
Q 176.0178 199.12032 179.1426 199.12032 
z
" clip-path="url(#pe9cf6cca4f)" style="fill: #ffffff; stroke: #454545; stroke-width: 0.9; stroke-linejoin: miter"/>
   </g>
   <g id="patch_5">
    <path d="M 257.2626 199.12032 
L 318.9774 199.12032 
Q 322.1022 199.12032 322.1022 197.24544 
L 322.1022 78.19056 
Q 322.1022 76.31568 318.9774 76.31568 
L 257.2626 76.31568 
Q 254.1378 76.31568 254.1378 78.19056 
L 254.1378 197.24544 
Q 254.1378 199.12032 257.2626 199.12032 
z
" clip-path="url(#pe9cf6cca4f)" style="fill: #ffffff; stroke: #454545; stroke-width: 0.9; stroke-linejoin: miter"/>
   </g>
   <g id="patch_6">
    <path d="M 335.3826 199.12032 
L 397.0974 199.12032 
Q 400.2222 199.12032 400.2222 197.24544 
L 400.2222 78.19056 
Q 400.2222 76.31568 397.0974 76.31568 
L 335.3826 76.31568 
Q 332.2578 76.31568 332.2578 78.19056 
L 332.2578 197.24544 
Q 332.2578 199.12032 335.3826 199.12032 
z
" clip-path="url(#pe9cf6cca4f)" style="fill: #ffffff; stroke: #454545; stroke-width: 0.9; stroke-linejoin: miter"/>
   </g>
   <g id="text_1">
    <!-- 随机 -->
    <g style="fill: #252525" transform="translate(42.76 69.079294) scale(0.11 -0.11)">
     <defs>
      <path id="ArialUnicodeMS-968f" d="M 5844 4172 
L 4331 4172 
Q 4284 4009 4178 3809 
L 5594 3809 
L 5594 1094 
Q 5594 922 5487 803 
Q 5381 684 5216 684 
L 4647 684 
Q 4516 1028 4475 1178 
L 4991 1125 
Q 5106 1125 5106 1281 
L 5106 1644 
L 4025 1644 
L 4025 622 
L 3541 622 
L 3541 2772 
L 3391 2606 
L 3028 2975 
Q 3519 3409 3822 4172 
L 3059 4172 
L 3059 4641 
L 3975 4641 
Q 4084 5066 4122 5281 
L 4550 5106 
Q 4541 4884 4469 4641 
L 5844 4641 
L 5844 4172 
z
M 5106 2950 
L 5106 3341 
L 4025 3341 
L 4025 2950 
L 5106 2950 
z
M 5106 2088 
L 5106 2484 
L 4025 2484 
L 4025 2088 
L 5106 2088 
z
M 6028 341 
Q 5903 -6 5856 -178 
L 4091 -159 
Q 3359 -159 2853 500 
Q 2609 175 1997 -263 
L 1678 141 
Q 2278 606 2528 884 
L 2528 2503 
L 2181 2491 
Q 2328 2128 2328 1856 
Q 2328 1472 2122 1298 
Q 1916 1125 1684 1125 
Q 1556 1125 1428 1153 
L 1269 1684 
L 1638 1625 
Q 1875 1656 1875 1919 
Q 1875 2188 1203 3263 
L 1747 4556 
L 1119 4556 
L 1119 -409 
L 634 -409 
L 634 5025 
L 2278 5025 
L 2278 4609 
Q 1972 3703 1784 3291 
Q 1991 2953 2094 2669 
L 2100 2950 
L 2988 2950 
L 2988 1013 
Q 3281 606 3682 442 
Q 4084 278 4856 278 
Q 5313 278 6028 341 
z
M 3256 3553 
L 2834 3263 
Q 2625 3909 2272 4206 
L 2625 4475 
Q 3028 4138 3256 3553 
z
" transform="scale(0.015625)"/>
      <path id="ArialUnicodeMS-673a" d="M 2919 1978 
L 2456 1691 
Q 2338 2156 2009 2584 
L 2009 -409 
L 1497 -409 
L 1497 2272 
Q 1250 1691 722 1147 
L 347 1472 
Q 1181 2325 1459 3616 
L 538 3616 
L 538 4078 
L 1503 4078 
L 1503 5294 
L 2009 5294 
L 2009 4078 
L 2894 4078 
L 2894 3616 
L 2009 3616 
L 2009 2981 
L 2209 3103 
Q 2716 2606 2919 1978 
z
M 6241 972 
Q 6075 153 5940 -12 
Q 5806 -178 5575 -178 
L 5141 -178 
Q 4666 -178 4666 213 
L 4666 4544 
L 3669 4544 
L 3669 1638 
Q 3669 491 2644 -469 
L 2209 -109 
Q 3181 769 3181 1703 
L 3181 5006 
L 5153 5006 
L 5153 366 
Q 5153 281 5269 281 
L 5472 281 
Q 5550 281 5615 412 
Q 5681 544 5791 1275 
L 6241 972 
z
" transform="scale(0.015625)"/>
     </defs>
     <use xlink:href="#ArialUnicodeMS-968f"/>
     <use xlink:href="#ArialUnicodeMS-673a" transform="translate(100 0)"/>
    </g>
   </g>
   <g id="line2d_1">
    <defs>
     <path id="me0c0f2ec35" d="M 0 2.5 
C 0.663008 2.5 1.29895 2.236584 1.767767 1.767767 
C 2.236584 1.29895 2.5 0.663008 2.5 0 
C 2.5 -0.663008 2.236584 -1.29895 1.767767 -1.767767 
C 1.29895 -2.236584 0.663008 -2.5 0 -2.5 
C -0.663008 -2.5 -1.29895 -2.236584 -1.767767 -1.767767 
C -2.236584 -1.29895 -2.5 -0.663008 -2.5 0 
C -2.5 0.663008 -2.236584 1.29895 -1.767767 1.767767 
C -1.29895 2.236584 -0.663008 2.5 0 2.5 
z
" style="stroke: #454545; stroke-width: 0.7"/>
    </defs>
    <g clip-path="url(#pe9cf6cca4f)">
     <use xlink:href="#me0c0f2ec35" x="25.87116" y="174.27816" style="fill: #f9dec0; stroke: #454545; stroke-width: 0.7"/>
    </g>
   </g>
   <g id="line2d_2">
    <defs>
     <path id="mff38b8af3d" d="M 0 2.5 
C 0.663008 2.5 1.29895 2.236584 1.767767 1.767767 
C 2.236584 1.29895 2.5 0.663008 2.5 0 
C 2.5 -0.663008 2.236584 -1.29895 1.767767 -1.767767 
C 1.29895 -2.236584 0.663008 -2.5 0 -2.5 
C -0.663008 -2.5 -1.29895 -2.236584 -1.767767 -1.767767 
C -2.236584 -1.29895 -2.5 -0.663008 -2.5 0 
C -2.5 0.663008 -2.236584 1.29895 -1.767767 1.767767 
C -1.29895 2.236584 -0.663008 2.5 0 2.5 
z
" style="stroke: #454545; stroke-width: 0.7"/>
    </defs>
    <g clip-path="url(#pe9cf6cca4f)">
     <use xlink:href="#mff38b8af3d" x="39.81558" y="174.27816" style="fill: #cbe3f3; stroke: #454545; stroke-width: 0.7"/>
    </g>
   </g>
   <g id="line2d_3">
    <g clip-path="url(#pe9cf6cca4f)">
     <use xlink:href="#me0c0f2ec35" x="53.76" y="174.27816" style="fill: #f9dec0; stroke: #454545; stroke-width: 0.7"/>
    </g>
   </g>
   <g id="line2d_4">
    <g clip-path="url(#pe9cf6cca4f)">
     <use xlink:href="#mff38b8af3d" x="67.70442" y="174.27816" style="fill: #cbe3f3; stroke: #454545; stroke-width: 0.7"/>
    </g>
   </g>
   <g id="line2d_5">
    <g clip-path="url(#pe9cf6cca4f)">
     <use xlink:href="#me0c0f2ec35" x="81.64884" y="174.27816" style="fill: #f9dec0; stroke: #454545; stroke-width: 0.7"/>
    </g>
   </g>
   <g id="line2d_6">
    <g clip-path="url(#pe9cf6cca4f)">
     <use xlink:href="#mff38b8af3d" x="25.87116" y="149.90472" style="fill: #cbe3f3; stroke: #454545; stroke-width: 0.7"/>
    </g>
   </g>
   <g id="line2d_7">
    <g clip-path="url(#pe9cf6cca4f)">
     <use xlink:href="#me0c0f2ec35" x="39.81558" y="149.90472" style="fill: #f9dec0; stroke: #454545; stroke-width: 0.7"/>
    </g>
   </g>
   <g id="line2d_8">
    <g clip-path="url(#pe9cf6cca4f)">
     <use xlink:href="#mff38b8af3d" x="53.76" y="149.90472" style="fill: #cbe3f3; stroke: #454545; stroke-width: 0.7"/>
    </g>
   </g>
   <g id="line2d_9">
    <g clip-path="url(#pe9cf6cca4f)">
     <use xlink:href="#me0c0f2ec35" x="67.70442" y="149.90472" style="fill: #f9dec0; stroke: #454545; stroke-width: 0.7"/>
    </g>
   </g>
   <g id="line2d_10">
    <g clip-path="url(#pe9cf6cca4f)">
     <use xlink:href="#mff38b8af3d" x="81.64884" y="149.90472" style="fill: #cbe3f3; stroke: #454545; stroke-width: 0.7"/>
    </g>
   </g>
   <g id="line2d_11">
    <g clip-path="url(#pe9cf6cca4f)">
     <use xlink:href="#me0c0f2ec35" x="25.87116" y="125.53128" style="fill: #f9dec0; stroke: #454545; stroke-width: 0.7"/>
    </g>
   </g>
   <g id="line2d_12">
    <g clip-path="url(#pe9cf6cca4f)">
     <use xlink:href="#mff38b8af3d" x="39.81558" y="125.53128" style="fill: #cbe3f3; stroke: #454545; stroke-width: 0.7"/>
    </g>
   </g>
   <g id="line2d_13">
    <g clip-path="url(#pe9cf6cca4f)">
     <use xlink:href="#me0c0f2ec35" x="53.76" y="125.53128" style="fill: #f9dec0; stroke: #454545; stroke-width: 0.7"/>
    </g>
   </g>
   <g id="line2d_14">
    <g clip-path="url(#pe9cf6cca4f)">
     <use xlink:href="#mff38b8af3d" x="67.70442" y="125.53128" style="fill: #cbe3f3; stroke: #454545; stroke-width: 0.7"/>
    </g>
   </g>
   <g id="line2d_15">
    <g clip-path="url(#pe9cf6cca4f)">
     <use xlink:href="#me0c0f2ec35" x="81.64884" y="125.53128" style="fill: #f9dec0; stroke: #454545; stroke-width: 0.7"/>
    </g>
   </g>
   <g id="line2d_16">
    <g clip-path="url(#pe9cf6cca4f)">
     <use xlink:href="#mff38b8af3d" x="25.87116" y="101.15784" style="fill: #cbe3f3; stroke: #454545; stroke-width: 0.7"/>
    </g>
   </g>
   <g id="line2d_17">
    <g clip-path="url(#pe9cf6cca4f)">
     <use xlink:href="#me0c0f2ec35" x="39.81558" y="101.15784" style="fill: #f9dec0; stroke: #454545; stroke-width: 0.7"/>
    </g>
   </g>
   <g id="line2d_18">
    <g clip-path="url(#pe9cf6cca4f)">
     <use xlink:href="#mff38b8af3d" x="53.76" y="101.15784" style="fill: #cbe3f3; stroke: #454545; stroke-width: 0.7"/>
    </g>
   </g>
   <g id="line2d_19">
    <g clip-path="url(#pe9cf6cca4f)">
     <use xlink:href="#me0c0f2ec35" x="67.70442" y="101.15784" style="fill: #f9dec0; stroke: #454545; stroke-width: 0.7"/>
    </g>
   </g>
   <g id="line2d_20">
    <g clip-path="url(#pe9cf6cca4f)">
     <use xlink:href="#mff38b8af3d" x="81.64884" y="101.15784" style="fill: #cbe3f3; stroke: #454545; stroke-width: 0.7"/>
    </g>
   </g>
   <g id="text_2">
    <!-- 同分布内插 -->
    <g style="fill: #252525" transform="translate(26.26 212.038894) scale(0.11 -0.11)">
     <defs>
      <path id="ArialUnicodeMS-540c" d="M 5644 441 
Q 5644 13 5467 -157 
Q 5291 -328 4663 -328 
Q 4519 -328 4347 -319 
L 4172 206 
Q 4822 206 4981 250 
Q 5141 294 5141 544 
L 5141 4569 
L 1259 4569 
L 1259 -481 
L 756 -481 
L 756 5038 
L 5644 5038 
L 5644 441 
z
M 4941 3406 
L 1569 3406 
L 1569 3872 
L 4941 3872 
L 4941 3406 
z
M 4422 781 
L 1984 781 
L 1984 2700 
L 4422 2700 
L 4422 781 
z
M 3938 1247 
L 3938 2234 
L 2472 2234 
L 2472 1247 
L 3938 1247 
z
" transform="scale(0.015625)"/>
      <path id="ArialUnicodeMS-5206" d="M 5991 3003 
L 5684 2553 
Q 4856 3041 4451 3534 
Q 4047 4028 3781 4831 
L 4319 4984 
Q 4375 4356 4829 3825 
Q 5284 3294 5991 3003 
z
M 2613 4697 
Q 2169 3484 800 2547 
L 416 2919 
Q 1731 3741 2188 4934 
L 2613 4697 
z
M 4872 2931 
Q 4844 1956 4730 1092 
Q 4616 228 4430 7 
Q 4244 -213 3847 -213 
Q 3469 -213 2894 -78 
L 2747 481 
Q 3503 269 3834 269 
Q 4013 269 4128 639 
Q 4244 1009 4341 2463 
L 3138 2463 
Q 2869 263 831 -441 
L 525 -31 
Q 2372 478 2631 2463 
L 1556 2463 
L 1556 2931 
L 4872 2931 
z
" transform="scale(0.015625)"/>
      <path id="ArialUnicodeMS-5e03" d="M 5888 3944 
L 2597 3944 
Q 2300 3216 2053 2841 
L 3272 2841 
L 3272 3653 
L 3756 3653 
L 3756 2841 
L 5338 2841 
L 5338 941 
Q 5338 325 4878 325 
L 4294 325 
L 4141 819 
Q 4481 775 4628 775 
Q 4850 775 4850 941 
L 4850 2375 
L 3756 2375 
L 3756 -428 
L 3272 -428 
L 3272 2375 
L 2322 2375 
L 2322 153 
L 1838 153 
L 1825 2534 
Q 1516 2056 794 1288 
L 372 1581 
Q 1731 2919 2094 3944 
L 659 3944 
L 659 4409 
L 2266 4409 
Q 2378 4706 2553 5344 
L 3009 5203 
Q 2794 4444 2778 4409 
L 5888 4409 
L 5888 3944 
z
" transform="scale(0.015625)"/>
      <path id="ArialUnicodeMS-5185" d="M 5538 84 
Q 5538 -341 4872 -341 
Q 4713 -341 4481 -331 
L 4294 141 
Q 4619 116 4800 116 
Q 5075 116 5075 281 
L 5075 3725 
L 3450 3725 
Q 3450 3322 3413 2938 
Q 4216 2334 4819 1300 
L 4428 1006 
Q 3994 1759 3263 2413 
Q 2831 1444 1772 872 
L 1478 1281 
Q 2225 1684 2600 2196 
Q 2975 2709 2975 3725 
L 1325 3725 
L 1325 -409 
L 838 -409 
L 838 4191 
L 3009 4191 
L 3009 5275 
L 3469 5275 
L 3469 4191 
L 5538 4191 
L 5538 84 
z
" transform="scale(0.015625)"/>
      <path id="ArialUnicodeMS-63d2" d="M 6016 3525 
L 4281 3525 
L 4281 481 
L 5141 481 
L 5141 1394 
L 4538 1394 
L 4538 1863 
L 5141 1863 
L 5141 2631 
L 4409 2631 
L 4409 3097 
L 5625 3097 
L 5625 -428 
L 5141 -428 
L 5141 13 
L 2963 13 
L 2963 -453 
L 2478 -453 
L 2478 2809 
Q 3172 3000 3500 3456 
L 3794 3109 
L 3794 3525 
L 2241 3525 
L 2241 3559 
L 1753 3559 
L 1753 2472 
Q 1947 2569 2303 2766 
L 2303 2247 
L 1753 1997 
L 1753 134 
Q 1753 -94 1631 -245 
Q 1509 -397 1356 -417 
Q 1203 -438 813 -447 
L 616 19 
Q 763 28 828 28 
L 997 22 
Q 1269 22 1269 191 
L 1269 1772 
L 641 1478 
L 306 1844 
Q 672 1988 1269 2266 
L 1269 3559 
L 416 3559 
L 416 4025 
L 1269 4025 
L 1269 5247 
L 1753 5247 
L 1753 4025 
L 2241 4025 
L 2241 3994 
L 3794 3994 
L 3794 4447 
Q 2869 4363 2375 4341 
L 2119 4831 
Q 4447 4850 5466 5350 
L 5797 4972 
Q 5222 4691 4281 4525 
L 4281 3994 
L 6016 3994 
L 6016 3525 
z
M 3794 481 
L 3794 3078 
L 3781 3078 
Q 3594 2756 2963 2497 
L 2963 1863 
L 3584 1863 
L 3584 1394 
L 2963 1394 
L 2963 481 
L 3794 481 
z
" transform="scale(0.015625)"/>
     </defs>
     <use xlink:href="#ArialUnicodeMS-540c"/>
     <use xlink:href="#ArialUnicodeMS-5206" transform="translate(100 0)"/>
     <use xlink:href="#ArialUnicodeMS-5e03" transform="translate(200 0)"/>
     <use xlink:href="#ArialUnicodeMS-5185" transform="translate(300 0)"/>
     <use xlink:href="#ArialUnicodeMS-63d2" transform="translate(400 0)"/>
    </g>
   </g>
   <g id="text_3">
    <!-- 骨架 -->
    <g style="fill: #252525" transform="translate(120.88 69.079294) scale(0.11 -0.11)">
     <defs>
      <path id="ArialUnicodeMS-9aa8" d="M 5753 2175 
L 5269 2175 
L 5269 3028 
L 1131 3028 
L 1131 2131 
L 647 2131 
L 647 3494 
L 1528 3494 
L 1528 5159 
L 4909 5159 
L 4909 3494 
L 5753 3494 
L 5753 2175 
z
M 4422 4341 
L 4422 4691 
L 2016 4691 
L 2016 3488 
L 2875 3488 
L 2875 4341 
L 4422 4341 
z
M 4422 3488 
L 4422 3909 
L 3359 3909 
L 3359 3488 
L 4422 3488 
z
M 4891 197 
Q 4891 -22 4755 -170 
Q 4619 -319 4409 -319 
L 3609 -319 
L 3438 184 
L 4250 159 
Q 4403 150 4403 353 
L 4403 628 
L 1991 628 
L 1991 -353 
L 1509 -353 
L 1509 2766 
L 4891 2766 
L 4891 197 
z
M 4403 1913 
L 4403 2303 
L 1991 2303 
L 1991 1913 
L 4403 1913 
z
M 4403 1094 
L 4403 1447 
L 1991 1447 
L 1991 1094 
L 4403 1094 
z
" transform="scale(0.015625)"/>
      <path id="ArialUnicodeMS-67b6" d="M 3188 4569 
Q 3181 2991 3004 2708 
Q 2828 2425 2425 2425 
Q 2356 2425 1953 2463 
L 1759 2994 
Q 2338 2900 2472 2900 
Q 2563 2900 2602 3075 
Q 2641 3250 2700 4103 
L 2047 4103 
Q 1972 2894 744 2163 
L 366 2541 
Q 1422 3213 1556 4103 
L 684 4103 
L 684 4569 
L 1588 4569 
L 1619 5294 
L 2100 5294 
Q 2106 5047 2075 4569 
L 3188 4569 
z
M 5563 2450 
L 5075 2450 
L 5075 2816 
L 4031 2816 
L 4031 2431 
L 3547 2431 
L 3547 4922 
L 5563 4922 
L 5563 2450 
z
M 5075 3284 
L 5075 4453 
L 4031 4453 
L 4031 3284 
L 5075 3284 
z
M 6169 384 
L 5850 -56 
Q 4184 441 3469 1447 
L 3469 -422 
L 2944 -422 
L 2944 1434 
Q 2313 428 588 -122 
L 300 313 
Q 1778 747 2394 1522 
L 581 1522 
L 581 1991 
L 2950 1991 
L 2950 2591 
L 3475 2591 
L 3475 1991 
L 5778 1991 
L 5778 1522 
L 4038 1522 
Q 4841 731 6169 384 
z
" transform="scale(0.015625)"/>
     </defs>
     <use xlink:href="#ArialUnicodeMS-9aa8"/>
     <use xlink:href="#ArialUnicodeMS-67b6" transform="translate(100 0)"/>
    </g>
   </g>
   <g id="line2d_21">
    <g clip-path="url(#pe9cf6cca4f)">
     <use xlink:href="#mff38b8af3d" x="100.67106" y="176.715504" style="fill: #cbe3f3; stroke: #454545; stroke-width: 0.7"/>
    </g>
   </g>
   <g id="line2d_22">
    <g clip-path="url(#pe9cf6cca4f)">
     <use xlink:href="#mff38b8af3d" x="107.31126" y="175.496832" style="fill: #cbe3f3; stroke: #454545; stroke-width: 0.7"/>
    </g>
   </g>
   <g id="line2d_23">
    <g clip-path="url(#pe9cf6cca4f)">
     <use xlink:href="#mff38b8af3d" x="102.66312" y="165.747456" style="fill: #cbe3f3; stroke: #454545; stroke-width: 0.7"/>
    </g>
   </g>
   <g id="line2d_24">
    <g clip-path="url(#pe9cf6cca4f)">
     <use xlink:href="#mff38b8af3d" x="107.97528" y="165.747456" style="fill: #cbe3f3; stroke: #454545; stroke-width: 0.7"/>
    </g>
   </g>
   <g id="line2d_25">
    <g clip-path="url(#pe9cf6cca4f)">
     <use xlink:href="#mff38b8af3d" x="103.99116" y="171.840816" style="fill: #cbe3f3; stroke: #454545; stroke-width: 0.7"/>
    </g>
   </g>
   <g id="line2d_26">
    <g clip-path="url(#pe9cf6cca4f)">
     <use xlink:href="#mff38b8af3d" x="128.5599" y="120.656592" style="fill: #cbe3f3; stroke: #454545; stroke-width: 0.7"/>
    </g>
   </g>
   <g id="line2d_27">
    <g clip-path="url(#pe9cf6cca4f)">
     <use xlink:href="#mff38b8af3d" x="135.2001" y="119.43792" style="fill: #cbe3f3; stroke: #454545; stroke-width: 0.7"/>
    </g>
   </g>
   <g id="line2d_28">
    <g clip-path="url(#pe9cf6cca4f)">
     <use xlink:href="#mff38b8af3d" x="130.55196" y="109.688544" style="fill: #cbe3f3; stroke: #454545; stroke-width: 0.7"/>
    </g>
   </g>
   <g id="line2d_29">
    <g clip-path="url(#pe9cf6cca4f)">
     <use xlink:href="#mff38b8af3d" x="135.86412" y="109.688544" style="fill: #cbe3f3; stroke: #454545; stroke-width: 0.7"/>
    </g>
   </g>
   <g id="line2d_30">
    <g clip-path="url(#pe9cf6cca4f)">
     <use xlink:href="#mff38b8af3d" x="131.88" y="115.781904" style="fill: #cbe3f3; stroke: #454545; stroke-width: 0.7"/>
    </g>
   </g>
   <g id="line2d_31">
    <g clip-path="url(#pe9cf6cca4f)">
     <use xlink:href="#me0c0f2ec35" x="156.44874" y="157.216752" style="fill: #f9dec0; stroke: #454545; stroke-width: 0.7"/>
    </g>
   </g>
   <g id="line2d_32">
    <g clip-path="url(#pe9cf6cca4f)">
     <use xlink:href="#me0c0f2ec35" x="163.08894" y="155.99808" style="fill: #f9dec0; stroke: #454545; stroke-width: 0.7"/>
    </g>
   </g>
   <g id="line2d_33">
    <g clip-path="url(#pe9cf6cca4f)">
     <use xlink:href="#me0c0f2ec35" x="158.4408" y="146.248704" style="fill: #f9dec0; stroke: #454545; stroke-width: 0.7"/>
    </g>
   </g>
   <g id="line2d_34">
    <g clip-path="url(#pe9cf6cca4f)">
     <use xlink:href="#me0c0f2ec35" x="163.75296" y="146.248704" style="fill: #f9dec0; stroke: #454545; stroke-width: 0.7"/>
    </g>
   </g>
   <g id="line2d_35">
    <g clip-path="url(#pe9cf6cca4f)">
     <use xlink:href="#me0c0f2ec35" x="159.76884" y="152.342064" style="fill: #f9dec0; stroke: #454545; stroke-width: 0.7"/>
    </g>
   </g>
   <g id="text_4">
    <!-- 新骨架外推 -->
    <g style="fill: #252525" transform="translate(104.38 212.038894) scale(0.11 -0.11)">
     <defs>
      <path id="ArialUnicodeMS-65b0" d="M 6041 2938 
L 5300 2938 
L 5300 -397 
L 4813 -397 
L 4813 2938 
L 4109 2938 
L 4109 2216 
Q 4109 700 3334 -359 
L 2906 -72 
Q 3622 853 3622 2456 
L 3622 4709 
Q 4644 4825 5544 5313 
L 5850 4916 
Q 5141 4503 4109 4319 
L 4109 3406 
L 6041 3406 
L 6041 2938 
z
M 3353 4184 
L 525 4184 
L 525 4653 
L 1716 4653 
L 1716 5281 
L 2222 5281 
L 2222 4653 
L 3353 4653 
L 3353 4184 
z
M 3406 2719 
L 2203 2719 
L 2203 2144 
L 3250 2144 
L 3250 1678 
L 2203 1678 
L 2203 1428 
L 2456 1619 
Q 2981 1281 3309 744 
L 2950 416 
Q 2672 931 2203 1281 
L 2203 -397 
L 1716 -397 
L 1716 1253 
Q 1316 625 703 178 
L 347 550 
Q 1003 959 1409 1678 
L 628 1678 
L 628 2144 
L 1716 2144 
L 1716 2719 
L 453 2719 
L 453 3188 
L 1325 3188 
Q 1147 3659 884 3975 
L 1306 4147 
Q 1631 3813 1806 3188 
L 2228 3188 
Q 2422 3559 2584 4147 
L 3047 3969 
Q 2906 3544 2719 3188 
L 3406 3188 
L 3406 2719 
z
" transform="scale(0.015625)"/>
      <path id="ArialUnicodeMS-5916" d="M 3513 4275 
Q 3309 1172 603 -331 
L 263 63 
Q 1569 831 2125 1625 
Q 1791 1991 1247 2309 
L 1631 2688 
Q 2166 2338 2406 2047 
Q 2828 2797 2963 3809 
L 1875 3809 
Q 1450 2869 863 2228 
L 441 2509 
Q 1566 3747 1722 5350 
L 2228 5203 
Q 2166 4803 2034 4275 
L 3513 4275 
z
M 6188 1094 
L 5844 684 
Q 5184 1175 4563 1925 
L 4563 -416 
L 4072 -416 
L 4072 2566 
Q 3772 2997 3531 3450 
L 3944 3738 
L 4072 3500 
L 4072 5319 
L 4563 5319 
L 4563 2747 
Q 5300 1753 6188 1094 
z
" transform="scale(0.015625)"/>
      <path id="ArialUnicodeMS-63a8" d="M 6113 44 
L 3213 44 
L 3213 -416 
L 2719 -416 
L 2719 3231 
Q 2531 2919 2284 2631 
L 1831 2869 
Q 2800 3875 3138 5338 
L 3572 5184 
Q 3344 4319 3284 4178 
L 4078 4178 
Q 4322 4697 4469 5350 
L 4953 5222 
Q 4828 4744 4594 4178 
L 5925 4178 
L 5925 3713 
L 4666 3713 
L 4666 3009 
L 5594 3009 
L 5594 2541 
L 4666 2541 
L 4666 1791 
L 5594 1791 
L 5594 1325 
L 4666 1325 
L 4666 513 
L 6113 513 
L 6113 44 
z
M 4178 3009 
L 4178 3713 
L 3213 3713 
L 3213 3009 
L 4178 3009 
z
M 4178 1791 
L 4178 2541 
L 3213 2541 
L 3213 1791 
L 4178 1791 
z
M 4178 513 
L 4178 1325 
L 3213 1325 
L 3213 513 
L 4178 513 
z
M 2413 1978 
L 1741 1741 
L 1741 250 
Q 1741 -209 1517 -323 
Q 1294 -438 716 -428 
L 531 63 
Q 803 38 959 38 
Q 1253 38 1253 197 
L 1253 1575 
Q 850 1413 622 1344 
L 331 1747 
Q 881 1900 1253 2041 
L 1253 3584 
L 494 3584 
L 494 4050 
L 1253 4050 
L 1253 5288 
L 1741 5288 
L 1741 4050 
L 2381 4050 
L 2381 3584 
L 1741 3584 
L 1741 2234 
Q 2034 2322 2400 2491 
L 2413 1978 
z
" transform="scale(0.015625)"/>
     </defs>
     <use xlink:href="#ArialUnicodeMS-65b0"/>
     <use xlink:href="#ArialUnicodeMS-9aa8" transform="translate(100 0)"/>
     <use xlink:href="#ArialUnicodeMS-67b6" transform="translate(200 0)"/>
     <use xlink:href="#ArialUnicodeMS-5916" transform="translate(300 0)"/>
     <use xlink:href="#ArialUnicodeMS-63a8" transform="translate(400 0)"/>
    </g>
   </g>
   <g id="text_5">
    <!-- 单体 -->
    <g style="fill: #252525" transform="translate(199 69.079294) scale(0.11 -0.11)">
     <defs>
      <path id="ArialUnicodeMS-5355" d="M 5925 947 
L 3353 947 
L 3353 -372 
L 2869 -372 
L 2869 947 
L 347 947 
L 347 1388 
L 2869 1388 
L 2869 1919 
L 1234 1919 
L 1234 4213 
L 2234 4213 
Q 2041 4659 1550 5106 
L 1900 5381 
Q 2347 5050 2747 4359 
L 2547 4219 
L 2547 4213 
L 3328 4213 
Q 3750 4644 4000 5344 
L 4447 5131 
Q 4219 4559 3909 4213 
L 4984 4213 
L 4984 1919 
L 3353 1919 
L 3353 1388 
L 5925 1388 
L 5925 947 
z
M 4500 3316 
L 4500 3744 
L 3353 3744 
L 3353 3316 
L 4500 3316 
z
M 2869 3316 
L 2869 3744 
L 1722 3744 
L 1722 3316 
L 2869 3316 
z
M 4500 2363 
L 4500 2847 
L 3353 2847 
L 3353 2363 
L 4500 2363 
z
M 2869 2363 
L 2869 2847 
L 1722 2847 
L 1722 2363 
L 2869 2363 
z
" transform="scale(0.015625)"/>
      <path id="ArialUnicodeMS-4f53" d="M 2222 5113 
Q 2181 4706 1963 4103 
L 1741 3519 
L 1741 -384 
L 1247 -384 
L 1247 2650 
Q 1047 2381 666 1972 
L 238 2259 
Q 1303 3228 1797 5319 
L 2222 5113 
z
M 6181 1159 
L 5819 781 
Q 5259 1197 4886 1742 
Q 4513 2288 4184 3547 
L 4172 3547 
L 4172 1288 
L 5209 1288 
L 5209 819 
L 4172 819 
L 4172 -409 
L 3688 -409 
L 3688 819 
L 2675 819 
L 2675 1288 
L 3688 1288 
L 3688 3297 
Q 3322 1781 2106 809 
L 1753 1169 
Q 2356 1700 2659 2198 
Q 2963 2697 3200 3597 
L 1997 3597 
L 1997 4063 
L 3688 4063 
L 3688 5306 
L 4172 5306 
L 4172 4063 
L 5919 4063 
L 5919 3597 
L 4653 3597 
Q 4894 2622 5216 2133 
Q 5538 1644 6181 1159 
z
" transform="scale(0.015625)"/>
     </defs>
     <use xlink:href="#ArialUnicodeMS-5355"/>
     <use xlink:href="#ArialUnicodeMS-4f53" transform="translate(100 0)"/>
    </g>
   </g>
   <g id="line2d_36">
    <g clip-path="url(#pe9cf6cca4f)">
     <use xlink:href="#mff38b8af3d" x="178.79106" y="127.968624" style="fill: #cbe3f3; stroke: #454545; stroke-width: 0.7"/>
    </g>
   </g>
   <g id="line2d_37">
    <g clip-path="url(#pe9cf6cca4f)">
     <use xlink:href="#mff38b8af3d" x="185.43126" y="126.749952" style="fill: #cbe3f3; stroke: #454545; stroke-width: 0.7"/>
    </g>
   </g>
   <g id="line2d_38">
    <g clip-path="url(#pe9cf6cca4f)">
     <use xlink:href="#mff38b8af3d" x="180.78312" y="117.000576" style="fill: #cbe3f3; stroke: #454545; stroke-width: 0.7"/>
    </g>
   </g>
   <g id="line2d_39">
    <g clip-path="url(#pe9cf6cca4f)">
     <use xlink:href="#mff38b8af3d" x="186.09528" y="117.000576" style="fill: #cbe3f3; stroke: #454545; stroke-width: 0.7"/>
    </g>
   </g>
   <g id="line2d_40">
    <g clip-path="url(#pe9cf6cca4f)">
     <use xlink:href="#mff38b8af3d" x="182.11116" y="123.093936" style="fill: #cbe3f3; stroke: #454545; stroke-width: 0.7"/>
    </g>
   </g>
   <g id="line2d_41">
    <g clip-path="url(#pe9cf6cca4f)">
     <use xlink:href="#me0c0f2ec35" x="234.56874" y="127.968624" style="fill: #f9dec0; stroke: #454545; stroke-width: 0.7"/>
    </g>
   </g>
   <g id="line2d_42">
    <g clip-path="url(#pe9cf6cca4f)">
     <use xlink:href="#me0c0f2ec35" x="241.20894" y="126.749952" style="fill: #f9dec0; stroke: #454545; stroke-width: 0.7"/>
    </g>
   </g>
   <g id="line2d_43">
    <g clip-path="url(#pe9cf6cca4f)">
     <use xlink:href="#me0c0f2ec35" x="236.5608" y="117.000576" style="fill: #f9dec0; stroke: #454545; stroke-width: 0.7"/>
    </g>
   </g>
   <g id="line2d_44">
    <g clip-path="url(#pe9cf6cca4f)">
     <use xlink:href="#me0c0f2ec35" x="241.87296" y="117.000576" style="fill: #f9dec0; stroke: #454545; stroke-width: 0.7"/>
    </g>
   </g>
   <g id="line2d_45">
    <g clip-path="url(#pe9cf6cca4f)">
     <use xlink:href="#me0c0f2ec35" x="237.88884" y="123.093936" style="fill: #f9dec0; stroke: #454545; stroke-width: 0.7"/>
    </g>
   </g>
   <g id="line2d_46">
    <g clip-path="url(#pe9cf6cca4f)">
     <use xlink:href="#mff38b8af3d" x="206.6799" y="179.152848" style="fill: #cbe3f3; stroke: #454545; stroke-width: 0.7"/>
    </g>
   </g>
   <g id="line2d_47">
    <g clip-path="url(#pe9cf6cca4f)">
     <use xlink:href="#mff38b8af3d" x="213.3201" y="177.934176" style="fill: #cbe3f3; stroke: #454545; stroke-width: 0.7"/>
    </g>
   </g>
   <g id="line2d_48">
    <g clip-path="url(#pe9cf6cca4f)">
     <use xlink:href="#mff38b8af3d" x="208.67196" y="168.1848" style="fill: #cbe3f3; stroke: #454545; stroke-width: 0.7"/>
    </g>
   </g>
   <g id="line2d_49">
    <g clip-path="url(#pe9cf6cca4f)">
     <use xlink:href="#mff38b8af3d" x="213.98412" y="168.1848" style="fill: #cbe3f3; stroke: #454545; stroke-width: 0.7"/>
    </g>
   </g>
   <g id="line2d_50">
    <g clip-path="url(#pe9cf6cca4f)">
     <use xlink:href="#mff38b8af3d" x="210" y="174.27816" style="fill: #cbe3f3; stroke: #454545; stroke-width: 0.7"/>
    </g>
   </g>
   <g id="text_6">
    <!-- 新家族外推 -->
    <g style="fill: #252525" transform="translate(182.5 212.038894) scale(0.11 -0.11)">
     <defs>
      <path id="ArialUnicodeMS-5bb6" d="M 5722 3525 
L 5247 3525 
L 5247 4225 
L 1159 4225 
L 1159 3525 
L 678 3525 
L 678 4691 
L 2950 4691 
L 2950 5269 
L 3450 5269 
L 3450 4691 
L 5722 4691 
L 5722 3525 
z
M 6144 378 
L 5784 6 
Q 4088 975 3616 3200 
L 3500 3200 
Q 3191 2934 2988 2828 
Q 3806 2209 3806 944 
Q 3806 209 3576 -103 
Q 3347 -416 2919 -416 
Q 2616 -416 2303 -319 
L 2125 250 
Q 2569 81 2916 81 
Q 3309 81 3309 878 
Q 3309 997 3297 1094 
Q 2309 328 666 -38 
L 353 403 
Q 2072 675 3225 1631 
Q 3181 1828 3097 1972 
Q 2153 1313 788 1038 
L 481 1459 
Q 1988 1700 2847 2344 
Q 2766 2434 2566 2578 
Q 1853 2222 934 2047 
L 603 2472 
Q 1922 2669 2725 3200 
L 1300 3200 
L 1300 3669 
L 5113 3669 
L 5113 3200 
L 4128 3200 
Q 4259 2597 4409 2291 
Q 4859 2538 5241 3022 
L 5606 2663 
Q 5200 2203 4616 1863 
Q 5138 972 6144 378 
z
" transform="scale(0.015625)"/>
      <path id="ArialUnicodeMS-65cf" d="M 5978 4122 
L 3513 4122 
Q 3284 3513 2809 2969 
L 2381 3200 
Q 3156 4050 3347 5394 
L 3822 5269 
Q 3781 4950 3669 4588 
L 5978 4588 
L 5978 4122 
z
M 2772 3763 
L 1516 3763 
Q 1491 3250 1491 2869 
L 2613 2869 
Q 2578 1944 2467 1039 
Q 2356 134 2181 -48 
Q 2006 -231 1747 -231 
Q 1634 -231 1281 -153 
L 1197 325 
Q 1534 263 1697 263 
Q 1884 263 1968 784 
Q 2053 1306 2119 2400 
L 1484 2400 
Q 1475 809 641 -300 
L 225 13 
Q 653 572 814 1097 
Q 975 1622 1013 2778 
L 1044 3763 
L 428 3763 
L 428 4231 
L 1422 4231 
L 1422 5259 
L 1906 5259 
L 1906 4231 
L 2772 4231 
L 2772 3763 
z
M 6181 -38 
L 5850 -428 
Q 4759 209 4488 1544 
L 4475 1544 
Q 4234 366 2803 -397 
L 2497 -13 
Q 3747 678 3956 1575 
L 2778 1575 
L 2778 2041 
L 4072 2041 
Q 4150 2484 4159 2881 
L 3700 2881 
Q 3444 2416 3150 2131 
L 2741 2425 
Q 3338 2956 3559 3928 
L 4006 3853 
Q 3978 3588 3884 3347 
L 5644 3347 
L 5644 2881 
L 4666 2881 
Q 4644 2366 4575 2041 
L 5947 2041 
L 5947 1575 
L 4959 1575 
Q 5191 541 6181 -38 
z
" transform="scale(0.015625)"/>
     </defs>
     <use xlink:href="#ArialUnicodeMS-65b0"/>
     <use xlink:href="#ArialUnicodeMS-5bb6" transform="translate(100 0)"/>
     <use xlink:href="#ArialUnicodeMS-65cf" transform="translate(200 0)"/>
     <use xlink:href="#ArialUnicodeMS-5916" transform="translate(300 0)"/>
     <use xlink:href="#ArialUnicodeMS-63a8" transform="translate(400 0)"/>
    </g>
   </g>
   <g id="text_7">
    <!-- 化学类 -->
    <g style="fill: #252525" transform="translate(271.62 69.079294) scale(0.11 -0.11)">
     <defs>
      <path id="ArialUnicodeMS-5316" d="M 2431 5147 
Q 2322 4731 2081 4159 
L 1844 3603 
L 1844 -366 
L 1350 -366 
L 1350 2834 
Q 1006 2356 653 2075 
L 306 2444 
Q 1350 3319 2003 5350 
L 2431 5147 
z
M 6081 1325 
Q 5994 419 5786 114 
Q 5578 -191 5203 -191 
L 3872 -191 
Q 3534 -191 3339 -12 
Q 3144 166 3144 469 
L 3144 5178 
L 3628 5178 
L 3628 2853 
Q 4478 3413 5288 4488 
L 5709 4197 
Q 4800 2984 3628 2272 
L 3628 550 
Q 3628 288 3981 288 
L 5113 288 
Q 5553 288 5581 1503 
L 6081 1325 
z
" transform="scale(0.015625)"/>
      <path id="ArialUnicodeMS-5b66" d="M 5791 2822 
L 5306 2822 
L 5306 3431 
L 1081 3431 
L 1081 2822 
L 588 2822 
L 588 3897 
L 3956 3897 
Q 4378 4472 4603 5288 
L 5075 5094 
Q 4903 4397 4500 3897 
L 5791 3897 
L 5791 2822 
z
M 3578 4197 
L 3128 3975 
Q 2928 4609 2444 5063 
L 2847 5275 
Q 3313 4828 3578 4197 
z
M 2156 4197 
L 1728 3950 
Q 1603 4403 934 4928 
L 1350 5178 
Q 1881 4778 2156 4197 
z
M 5925 1259 
L 3500 1259 
L 3500 72 
Q 3500 -138 3344 -242 
Q 3188 -347 3103 -347 
L 2450 -347 
L 2266 159 
L 2944 134 
Q 3016 134 3016 263 
L 3016 1259 
L 475 1259 
L 475 1728 
L 3009 1728 
L 3009 1978 
Q 3488 2134 4006 2456 
L 1434 2456 
L 1434 2925 
L 4825 2925 
L 4825 2491 
Q 4109 1947 3525 1728 
L 5925 1728 
L 5925 1259 
z
" transform="scale(0.015625)"/>
      <path id="ArialUnicodeMS-7c7b" d="M 5663 3634 
L 3347 3634 
L 3347 2431 
L 2859 2431 
L 2859 3547 
L 2841 3547 
Q 2131 2678 581 2328 
L 288 2747 
Q 1594 3016 2272 3634 
L 544 3634 
L 544 4103 
L 2859 4103 
L 2859 5338 
L 3347 5338 
L 3347 4103 
L 5663 4103 
L 5663 3634 
z
M 5063 5013 
Q 4613 4425 4044 4197 
L 3681 4538 
Q 4403 4869 4672 5281 
L 5063 5013 
z
M 2509 4500 
L 2100 4166 
Q 1709 4666 1203 4941 
L 1569 5228 
Q 2069 5009 2509 4500 
z
M 5478 2766 
L 5228 2388 
Q 4450 2906 3456 3188 
L 3706 3541 
Q 4634 3341 5478 2766 
z
M 6069 56 
L 5778 -353 
Q 4766 -91 4192 284 
Q 3619 659 3278 1472 
L 3188 1472 
Q 2728 50 525 -397 
L 250 38 
Q 1353 219 1934 623 
Q 2516 1028 2681 1472 
L 403 1472 
L 403 1941 
L 2822 1941 
L 2881 2356 
L 3322 2328 
Q 3322 2175 3272 1941 
L 5850 1941 
L 5850 1472 
L 3744 1472 
Q 3894 1147 4225 847 
Q 4556 547 4840 437 
Q 5125 328 6069 56 
z
" transform="scale(0.015625)"/>
     </defs>
     <use xlink:href="#ArialUnicodeMS-5316"/>
     <use xlink:href="#ArialUnicodeMS-5b66" transform="translate(100 0)"/>
     <use xlink:href="#ArialUnicodeMS-7c7b" transform="translate(200 0)"/>
    </g>
   </g>
   <g id="line2d_51">
    <g clip-path="url(#pe9cf6cca4f)">
     <use xlink:href="#mff38b8af3d" x="264.8793" y="118.219248" style="fill: #cbe3f3; stroke: #454545; stroke-width: 0.7"/>
    </g>
   </g>
   <g id="line2d_52">
    <g clip-path="url(#pe9cf6cca4f)">
     <use xlink:href="#mff38b8af3d" x="271.5195" y="117.000576" style="fill: #cbe3f3; stroke: #454545; stroke-width: 0.7"/>
    </g>
   </g>
   <g id="line2d_53">
    <g clip-path="url(#pe9cf6cca4f)">
     <use xlink:href="#mff38b8af3d" x="266.87136" y="107.2512" style="fill: #cbe3f3; stroke: #454545; stroke-width: 0.7"/>
    </g>
   </g>
   <g id="line2d_54">
    <g clip-path="url(#pe9cf6cca4f)">
     <use xlink:href="#mff38b8af3d" x="272.18352" y="107.2512" style="fill: #cbe3f3; stroke: #454545; stroke-width: 0.7"/>
    </g>
   </g>
   <g id="line2d_55">
    <g clip-path="url(#pe9cf6cca4f)">
     <use xlink:href="#mff38b8af3d" x="268.1994" y="113.34456" style="fill: #cbe3f3; stroke: #454545; stroke-width: 0.7"/>
    </g>
   </g>
   <g id="line2d_56">
    <g clip-path="url(#pe9cf6cca4f)">
     <use xlink:href="#me0c0f2ec35" x="304.7205" y="118.219248" style="fill: #f9dec0; stroke: #454545; stroke-width: 0.7"/>
    </g>
   </g>
   <g id="line2d_57">
    <g clip-path="url(#pe9cf6cca4f)">
     <use xlink:href="#me0c0f2ec35" x="311.3607" y="117.000576" style="fill: #f9dec0; stroke: #454545; stroke-width: 0.7"/>
    </g>
   </g>
   <g id="line2d_58">
    <g clip-path="url(#pe9cf6cca4f)">
     <use xlink:href="#me0c0f2ec35" x="306.71256" y="107.2512" style="fill: #f9dec0; stroke: #454545; stroke-width: 0.7"/>
    </g>
   </g>
   <g id="line2d_59">
    <g clip-path="url(#pe9cf6cca4f)">
     <use xlink:href="#me0c0f2ec35" x="312.02472" y="107.2512" style="fill: #f9dec0; stroke: #454545; stroke-width: 0.7"/>
    </g>
   </g>
   <g id="line2d_60">
    <g clip-path="url(#pe9cf6cca4f)">
     <use xlink:href="#me0c0f2ec35" x="308.0406" y="113.34456" style="fill: #f9dec0; stroke: #454545; stroke-width: 0.7"/>
    </g>
   </g>
   <g id="line2d_61">
    <g clip-path="url(#pe9cf6cca4f)">
     <use xlink:href="#mff38b8af3d" x="264.8793" y="173.059488" style="fill: #cbe3f3; stroke: #454545; stroke-width: 0.7"/>
    </g>
   </g>
   <g id="line2d_62">
    <g clip-path="url(#pe9cf6cca4f)">
     <use xlink:href="#mff38b8af3d" x="271.5195" y="171.840816" style="fill: #cbe3f3; stroke: #454545; stroke-width: 0.7"/>
    </g>
   </g>
   <g id="line2d_63">
    <g clip-path="url(#pe9cf6cca4f)">
     <use xlink:href="#mff38b8af3d" x="266.87136" y="162.09144" style="fill: #cbe3f3; stroke: #454545; stroke-width: 0.7"/>
    </g>
   </g>
   <g id="line2d_64">
    <g clip-path="url(#pe9cf6cca4f)">
     <use xlink:href="#mff38b8af3d" x="272.18352" y="162.09144" style="fill: #cbe3f3; stroke: #454545; stroke-width: 0.7"/>
    </g>
   </g>
   <g id="line2d_65">
    <g clip-path="url(#pe9cf6cca4f)">
     <use xlink:href="#mff38b8af3d" x="268.1994" y="168.1848" style="fill: #cbe3f3; stroke: #454545; stroke-width: 0.7"/>
    </g>
   </g>
   <g id="line2d_66">
    <g clip-path="url(#pe9cf6cca4f)">
     <use xlink:href="#mff38b8af3d" x="304.7205" y="173.059488" style="fill: #cbe3f3; stroke: #454545; stroke-width: 0.7"/>
    </g>
   </g>
   <g id="line2d_67">
    <g clip-path="url(#pe9cf6cca4f)">
     <use xlink:href="#mff38b8af3d" x="311.3607" y="171.840816" style="fill: #cbe3f3; stroke: #454545; stroke-width: 0.7"/>
    </g>
   </g>
   <g id="line2d_68">
    <g clip-path="url(#pe9cf6cca4f)">
     <use xlink:href="#mff38b8af3d" x="306.71256" y="162.09144" style="fill: #cbe3f3; stroke: #454545; stroke-width: 0.7"/>
    </g>
   </g>
   <g id="line2d_69">
    <g clip-path="url(#pe9cf6cca4f)">
     <use xlink:href="#mff38b8af3d" x="312.02472" y="162.09144" style="fill: #cbe3f3; stroke: #454545; stroke-width: 0.7"/>
    </g>
   </g>
   <g id="line2d_70">
    <g clip-path="url(#pe9cf6cca4f)">
     <use xlink:href="#mff38b8af3d" x="308.0406" y="168.1848" style="fill: #cbe3f3; stroke: #454545; stroke-width: 0.7"/>
    </g>
   </g>
   <g id="text_8">
    <!-- 跨类外推 -->
    <g style="fill: #252525" transform="translate(266.12 212.038894) scale(0.11 -0.11)">
     <defs>
      <path id="ArialUnicodeMS-8de8" d="M 6156 2906 
L 5797 2534 
Q 5466 2741 5044 3128 
L 5044 2900 
L 3378 2900 
L 3378 3150 
Q 3056 2794 2559 2516 
L 2194 2869 
Q 3078 3334 3494 4141 
L 2578 4141 
L 2578 4609 
L 3669 4609 
Q 3684 4647 3847 5381 
L 4325 5269 
Q 4303 5084 4178 4609 
L 5919 4609 
L 5919 4141 
L 4863 4141 
Q 5206 3491 6156 2906 
z
M 4844 3366 
Q 4544 3691 4366 4141 
L 4038 4141 
Q 3781 3622 3572 3366 
L 4844 3366 
z
M 2650 609 
Q 1181 84 531 -166 
L 250 269 
L 594 372 
L 594 2681 
L 1081 2681 
L 1081 525 
Q 1209 559 1441 659 
L 1441 3169 
L 709 3169 
L 709 5088 
L 2394 5088 
L 2394 3169 
L 1925 3169 
L 1925 2388 
L 2547 2388 
L 2547 1953 
L 1925 1953 
L 1925 844 
L 2650 1106 
L 2650 609 
z
M 1906 3634 
L 1906 4622 
L 1166 4622 
L 1166 3634 
L 1906 3634 
z
M 5753 1984 
L 3938 1984 
L 3822 1544 
L 5394 1544 
Q 5338 138 5159 -135 
Q 4981 -409 4544 -409 
Q 4203 -409 3803 -331 
L 3719 166 
Q 4356 38 4494 38 
Q 4625 38 4700 109 
Q 4775 181 4826 537 
Q 4878 894 4878 1088 
L 3725 1088 
L 3641 813 
L 3138 863 
L 3431 1984 
L 2675 1984 
L 2675 2450 
L 5753 2450 
L 5753 1984 
z
" transform="scale(0.015625)"/>
     </defs>
     <use xlink:href="#ArialUnicodeMS-8de8"/>
     <use xlink:href="#ArialUnicodeMS-7c7b" transform="translate(100 0)"/>
     <use xlink:href="#ArialUnicodeMS-5916" transform="translate(200 0)"/>
     <use xlink:href="#ArialUnicodeMS-63a8" transform="translate(300 0)"/>
    </g>
   </g>
   <g id="text_9">
    <!-- 时间 -->
    <g style="fill: #252525" transform="translate(355.24 69.079294) scale(0.11 -0.11)">
     <defs>
      <path id="ArialUnicodeMS-65f6" d="M 5931 3481 
L 5259 3481 
L 5259 72 
Q 5259 -122 5142 -259 
Q 5025 -397 4863 -397 
L 4281 -397 
L 4097 122 
L 4672 78 
Q 4775 66 4775 191 
L 4775 3481 
L 2784 3481 
L 2784 3950 
L 4775 3950 
L 4775 5306 
L 5259 5306 
L 5259 3950 
L 5931 3950 
L 5931 3481 
z
M 2463 97 
L 1978 97 
L 1978 569 
L 1147 569 
L 1147 97 
L 659 97 
L 659 4313 
L 2463 4313 
L 2463 97 
z
M 1978 2675 
L 1978 3847 
L 1147 3847 
L 1147 2675 
L 1978 2675 
z
M 1978 1038 
L 1978 2209 
L 1147 2209 
L 1147 1038 
L 1978 1038 
z
M 4306 1575 
L 3903 1300 
Q 3594 2103 2888 2725 
L 3272 2994 
Q 3997 2375 4306 1575 
z
" transform="scale(0.015625)"/>
      <path id="ArialUnicodeMS-95f4" d="M 2463 4313 
L 2088 4006 
Q 1600 4669 1094 4984 
L 1484 5247 
Q 2044 4888 2463 4313 
z
M 5497 178 
Q 5497 -50 5353 -181 
Q 5209 -313 4853 -313 
Q 4753 -313 4506 -300 
L 4366 147 
Q 4631 106 4806 106 
Q 4991 106 5002 142 
Q 5013 178 5013 275 
L 5013 4453 
L 2841 4453 
L 2841 4922 
L 5497 4922 
L 5497 178 
z
M 1125 -384 
L 641 -384 
L 641 4197 
L 1125 4197 
L 1125 -384 
z
M 4306 481 
L 3822 481 
L 3822 813 
L 2375 813 
L 2375 481 
L 1888 481 
L 1888 3669 
L 4306 3669 
L 4306 481 
z
M 3822 2559 
L 3822 3200 
L 2375 3200 
L 2375 2559 
L 3822 2559 
z
M 3822 1281 
L 3822 2094 
L 2375 2094 
L 2375 1281 
L 3822 1281 
z
" transform="scale(0.015625)"/>
     </defs>
     <use xlink:href="#ArialUnicodeMS-65f6"/>
     <use xlink:href="#ArialUnicodeMS-95f4" transform="translate(100 0)"/>
    </g>
   </g>
   <g id="line2d_71">
    <g clip-path="url(#pe9cf6cca4f)">
     <use xlink:href="#mff38b8af3d" x="338.35116" y="174.27816" style="fill: #cbe3f3; stroke: #454545; stroke-width: 0.7"/>
    </g>
   </g>
   <g id="line2d_72">
    <g clip-path="url(#pe9cf6cca4f)">
     <use xlink:href="#mff38b8af3d" x="338.35116" y="159.654096" style="fill: #cbe3f3; stroke: #454545; stroke-width: 0.7"/>
    </g>
   </g>
   <g id="line2d_73">
    <g clip-path="url(#pe9cf6cca4f)">
     <use xlink:href="#mff38b8af3d" x="338.35116" y="145.030032" style="fill: #cbe3f3; stroke: #454545; stroke-width: 0.7"/>
    </g>
   </g>
   <g id="line2d_74">
    <g clip-path="url(#pe9cf6cca4f)">
     <use xlink:href="#mff38b8af3d" x="338.35116" y="130.405968" style="fill: #cbe3f3; stroke: #454545; stroke-width: 0.7"/>
    </g>
   </g>
   <g id="line2d_75">
    <g clip-path="url(#pe9cf6cca4f)">
     <use xlink:href="#mff38b8af3d" x="338.35116" y="115.781904" style="fill: #cbe3f3; stroke: #454545; stroke-width: 0.7"/>
    </g>
   </g>
   <g id="line2d_76">
    <g clip-path="url(#pe9cf6cca4f)">
     <use xlink:href="#mff38b8af3d" x="338.35116" y="101.15784" style="fill: #cbe3f3; stroke: #454545; stroke-width: 0.7"/>
    </g>
   </g>
   <g id="line2d_77">
    <g clip-path="url(#pe9cf6cca4f)">
     <use xlink:href="#mff38b8af3d" x="366.24" y="174.27816" style="fill: #cbe3f3; stroke: #454545; stroke-width: 0.7"/>
    </g>
   </g>
   <g id="line2d_78">
    <g clip-path="url(#pe9cf6cca4f)">
     <use xlink:href="#mff38b8af3d" x="366.24" y="159.654096" style="fill: #cbe3f3; stroke: #454545; stroke-width: 0.7"/>
    </g>
   </g>
   <g id="line2d_79">
    <g clip-path="url(#pe9cf6cca4f)">
     <use xlink:href="#mff38b8af3d" x="366.24" y="145.030032" style="fill: #cbe3f3; stroke: #454545; stroke-width: 0.7"/>
    </g>
   </g>
   <g id="line2d_80">
    <g clip-path="url(#pe9cf6cca4f)">
     <use xlink:href="#mff38b8af3d" x="366.24" y="130.405968" style="fill: #cbe3f3; stroke: #454545; stroke-width: 0.7"/>
    </g>
   </g>
   <g id="line2d_81">
    <g clip-path="url(#pe9cf6cca4f)">
     <use xlink:href="#mff38b8af3d" x="366.24" y="115.781904" style="fill: #cbe3f3; stroke: #454545; stroke-width: 0.7"/>
    </g>
   </g>
   <g id="line2d_82">
    <g clip-path="url(#pe9cf6cca4f)">
     <use xlink:href="#mff38b8af3d" x="366.24" y="101.15784" style="fill: #cbe3f3; stroke: #454545; stroke-width: 0.7"/>
    </g>
   </g>
   <g id="line2d_83">
    <g clip-path="url(#pe9cf6cca4f)">
     <use xlink:href="#me0c0f2ec35" x="394.12884" y="174.27816" style="fill: #f9dec0; stroke: #454545; stroke-width: 0.7"/>
    </g>
   </g>
   <g id="line2d_84">
    <g clip-path="url(#pe9cf6cca4f)">
     <use xlink:href="#me0c0f2ec35" x="394.12884" y="159.654096" style="fill: #f9dec0; stroke: #454545; stroke-width: 0.7"/>
    </g>
   </g>
   <g id="line2d_85">
    <g clip-path="url(#pe9cf6cca4f)">
     <use xlink:href="#me0c0f2ec35" x="394.12884" y="145.030032" style="fill: #f9dec0; stroke: #454545; stroke-width: 0.7"/>
    </g>
   </g>
   <g id="line2d_86">
    <g clip-path="url(#pe9cf6cca4f)">
     <use xlink:href="#me0c0f2ec35" x="394.12884" y="130.405968" style="fill: #f9dec0; stroke: #454545; stroke-width: 0.7"/>
    </g>
   </g>
   <g id="line2d_87">
    <g clip-path="url(#pe9cf6cca4f)">
     <use xlink:href="#me0c0f2ec35" x="394.12884" y="115.781904" style="fill: #f9dec0; stroke: #454545; stroke-width: 0.7"/>
    </g>
   </g>
   <g id="line2d_88">
    <g clip-path="url(#pe9cf6cca4f)">
     <use xlink:href="#me0c0f2ec35" x="394.12884" y="101.15784" style="fill: #f9dec0; stroke: #454545; stroke-width: 0.7"/>
    </g>
   </g>
   <g id="text_10">
    <!-- 跨年份外推 -->
    <g style="fill: #252525" transform="translate(338.74 212.038894) scale(0.11 -0.11)">
     <defs>
      <path id="ArialUnicodeMS-5e74" d="M 5869 1409 
L 3659 1409 
L 3659 -434 
L 3156 -434 
L 3156 1409 
L 659 1409 
L 659 1875 
L 1459 1875 
L 1459 3384 
L 3156 3384 
L 3156 4219 
L 1838 4219 
Q 1425 3363 953 2931 
L 550 3256 
Q 1381 3994 1734 5381 
L 2144 5184 
Q 2122 4997 2022 4684 
L 5606 4684 
L 5606 4219 
L 3659 4219 
L 3659 3384 
L 5294 3384 
L 5294 2919 
L 3659 2919 
L 3659 1875 
L 5869 1875 
L 5869 1409 
z
M 3156 1875 
L 3156 2919 
L 1947 2919 
L 1947 1875 
L 3156 1875 
z
" transform="scale(0.015625)"/>
      <path id="ArialUnicodeMS-4efd" d="M 6194 2875 
L 5778 2553 
Q 5528 2697 5294 2969 
Q 5269 1894 5181 1111 
Q 5094 328 4944 25 
Q 4794 -278 4372 -278 
Q 4047 -278 3609 -166 
L 3456 372 
Q 4003 178 4359 178 
Q 4475 178 4525 333 
Q 4575 488 4667 1075 
Q 4759 1663 4781 2559 
L 3916 2559 
Q 3822 219 2234 -447 
L 1888 -78 
Q 3416 516 3444 2559 
L 2625 2559 
L 2625 2975 
Q 2409 2722 2150 2484 
L 1813 2759 
L 1813 -475 
L 1325 -475 
L 1325 2816 
L 1319 2828 
Q 1319 2813 1131 2617 
Q 944 2422 738 2253 
L 319 2534 
Q 1466 3466 2009 5300 
L 2450 5094 
Q 2328 4681 2069 4116 
L 1813 3572 
L 1813 2834 
Q 2794 3716 3103 4897 
L 3475 4678 
Q 3244 3744 2669 3028 
L 5241 3028 
Q 4750 3606 4459 4494 
L 3506 4494 
L 3500 4953 
L 4825 4953 
Q 5241 3419 6194 2875 
z
" transform="scale(0.015625)"/>
     </defs>
     <use xlink:href="#ArialUnicodeMS-8de8"/>
     <use xlink:href="#ArialUnicodeMS-5e74" transform="translate(100 0)"/>
     <use xlink:href="#ArialUnicodeMS-4efd" transform="translate(200 0)"/>
     <use xlink:href="#ArialUnicodeMS-5916" transform="translate(300 0)"/>
     <use xlink:href="#ArialUnicodeMS-63a8" transform="translate(400 0)"/>
    </g>
   </g>
  </g>
  <g id="patch_7">
   <path d="M 381.06 19.44 
L 413.04 19.44 
Q 416.4 19.44 416.4 17.424 
L 416.4 5.616 
Q 416.4 3.6 413.04 3.6 
L 381.06 3.6 
Q 377.7 3.6 377.7 5.616 
L 377.7 17.424 
Q 377.7 19.44 381.06 19.44 
z
" style="fill: #eeeeee; stroke: #454545; stroke-width: 0.9; stroke-linejoin: miter"/>
  </g>
  <g id="text_11">
   <!-- 示意图 -->
   <g style="fill: #252525" transform="translate(380.55 14.361094) scale(0.11 -0.11)">
    <defs>
     <path id="ArialUnicodeMS-793a" d="M 5253 4378 
L 1269 4378 
L 1269 4844 
L 5253 4844 
L 5253 4378 
z
M 5663 2988 
L 3525 2988 
L 3525 72 
Q 3525 -188 3342 -311 
Q 3159 -434 2876 -425 
Q 2594 -416 2259 -422 
L 2069 128 
Q 2475 81 2756 81 
Q 3022 81 3022 275 
L 3022 2988 
L 831 2988 
L 831 3456 
L 5663 3456 
L 5663 2988 
z
M 2369 2344 
Q 1934 1300 922 366 
L 581 716 
Q 984 1047 1406 1620 
Q 1828 2194 1959 2613 
L 2369 2344 
z
M 5966 697 
L 5569 366 
Q 4938 1575 4019 2253 
L 4397 2584 
Q 5231 2019 5966 697 
z
" transform="scale(0.015625)"/>
     <path id="ArialUnicodeMS-610f" d="M 5875 3278 
L 531 3278 
L 531 3744 
L 2247 3744 
Q 1875 4191 1819 4225 
L 2003 4341 
L 959 4341 
L 959 4806 
L 2956 4806 
L 2956 5375 
L 3444 5375 
L 3444 4806 
L 5441 4806 
L 5441 4341 
L 4422 4341 
L 4531 4263 
Q 4403 3984 4172 3744 
L 5875 3744 
L 5875 3278 
z
M 4000 4341 
L 2356 4341 
Q 2619 4113 2778 3744 
L 3584 3744 
Q 3863 3994 4000 4341 
z
M 5006 1222 
L 3244 1222 
Q 3597 1084 3903 738 
L 3525 416 
Q 3291 769 2675 1025 
L 2888 1222 
L 1403 1222 
L 1403 3028 
L 5006 3028 
L 5006 1222 
z
M 4525 2363 
L 4525 2584 
L 1881 2584 
L 1881 2363 
L 4525 2363 
z
M 4525 1691 
L 4525 1966 
L 1881 1966 
L 1881 1691 
L 4525 1691 
z
M 6138 153 
L 5772 -191 
Q 5372 419 4709 678 
L 5094 1006 
Q 5622 822 6138 153 
z
M 1806 653 
Q 1369 122 550 -178 
L 275 256 
Q 1081 459 1478 978 
L 1806 653 
z
M 4647 494 
Q 4525 28 4365 -139 
Q 4206 -306 3853 -306 
L 2503 -306 
Q 2009 -250 2009 372 
L 2009 884 
L 2491 884 
L 2491 341 
Q 2491 159 2650 159 
L 3891 159 
Q 4031 159 4097 366 
L 4191 672 
L 4647 494 
z
" transform="scale(0.015625)"/>
     <path id="ArialUnicodeMS-56fe" d="M 5544 -422 
L 5056 -422 
L 5056 19 
L 1184 19 
L 1184 -422 
L 703 -422 
L 703 5019 
L 5544 5019 
L 5544 -422 
z
M 5056 2400 
L 5056 4550 
L 2625 4550 
L 2625 4538 
L 2906 4416 
Q 2863 4322 2778 4178 
L 4513 4178 
L 4513 3781 
Q 4203 3203 3675 2778 
Q 4228 2456 5056 2400 
z
M 5056 459 
L 5056 2163 
L 5044 2163 
L 4831 1850 
Q 4013 1963 3188 2463 
Q 2713 2188 1516 1900 
L 1281 2388 
Q 2341 2584 2784 2834 
Q 2544 3022 2259 3413 
Q 1941 3031 1575 2869 
L 1253 3297 
Q 2072 3656 2419 4550 
L 1191 4550 
L 1191 459 
L 3231 459 
Q 2769 950 2125 1228 
L 2400 1606 
Q 3019 1372 3694 716 
L 3488 459 
L 5056 459 
z
M 3994 1491 
L 3628 1131 
Q 3197 1638 2613 1906 
L 2963 2241 
Q 3434 2072 3994 1491 
z
M 3903 3713 
L 2584 3713 
Q 2709 3513 3250 3053 
Q 3647 3328 3903 3713 
z
" transform="scale(0.015625)"/>
    </defs>
    <use xlink:href="#ArialUnicodeMS-793a"/>
    <use xlink:href="#ArialUnicodeMS-610f" transform="translate(100 0)"/>
    <use xlink:href="#ArialUnicodeMS-56fe" transform="translate(200 0)"/>
   </g>
  </g>
 </g>
 <defs>
  <clipPath id="pe9cf6cca4f">
   <rect x="14.7" y="8.82" width="390.6" height="234.36"/>
  </clipPath>
 </defs>
</svg>
