<?xml version="1.0" encoding="utf-8" standalone="no"?>
<!DOCTYPE svg PUBLIC "-//W3C//DTD SVG 1.1//EN"
  "http://www.w3.org/Graphics/SVG/1.1/DTD/svg11.dtd">
<svg xmlns:xlink="http://www.w3.org/1999/xlink" width="420pt" height="259.2pt" viewBox="0 0 420 259.2" xmlns="http://www.w3.org/2000/svg" version="1.1">
 <metadata>
  <rdf:RDF xmlns:dc="http://purl.org/dc/elements/1.1/" xmlns:cc="http://creativecommons.org/ns#" xmlns:rdf="http://www.w3.org/1999/02/22-rdf-syntax-ns#">
   <cc:Work>
    <dc:type rdf:resource="http://purl.org/dc/dcmitype/StillImage"/>
    <dc:date>2026-09-17T21:59:27.462438</dc:date>
    <dc:format>image/svg+xml</dc:format>
    <dc:creator>
     <cc:Agent>
      <dc:title>Matplotlib v3.10.9, https://matplotlib.org/</dc:title>
     </cc:Agent>
    </dc:creator>
   </cc:Work>
  </rdf:RDF>
 </metadata>
 <defs>
  <style type="text/css">*{stroke-linejoin: round; stroke-linecap: butt}</style>
 </defs>
 <g id="figure_1">
  <g id="patch_1">
   <path d="M 0 259.2 
L 420 259.2 
L 420 0 
L 0 0 
z
" style="fill: #ffffff"/>
  </g>
  <g id="axes_1">
   <g id="patch_2">
    <path d="M 67.2 207.36 
L 399 207.36 
L 399 18.144 
L 67.2 18.144 
z
" style="fill: #ffffff"/>
   </g>
   <g id="FillBetweenPolyCollection_1">
    <defs>
     <path id="me5da661598" d="M 77.323998 -101.200696 
L 77.323998 -51.84 
L 78.891019 -51.84 
L 80.458039 -51.84 
L 82.02506 -51.84 
L 83.59208 -51.84 
L 85.159101 -51.84 
L 86.726121 -51.84 
L 88.293141 -51.84 
L 89.860162 -51.84 
L 91.427182 -51.84 
L 92.994203 -51.84 
L 94.561223 -51.84 
L 96.128244 -51.84 
L 97.695264 -51.84 
L 99.262285 -51.84 
L 100.829305 -51.84 
L 102.396326 -51.84 
L 103.963346 -51.84 
L 105.530367 -51.84 
L 107.097387 -51.84 
L 108.664408 -51.84 
L 110.231428 -51.84 
L 111.798448 -51.84 
L 113.365469 -51.84 
L 114.932489 -51.84 
L 116.49951 -51.84 
L 118.06653 -51.84 
L 119.633551 -51.84 
L 121.200571 -51.84 
L 122.767592 -51.84 
L 124.334612 -51.84 
L 125.901633 -51.84 
L 127.468653 -51.84 
L 129.035674 -51.84 
L 130.602694 -51.84 
L 132.169714 -51.84 
L 133.736735 -51.84 
L 135.303755 -51.84 
L 136.870776 -51.84 
L 138.437796 -51.84 
L 140.004817 -51.84 
L 141.571837 -51.84 
L 143.138858 -51.84 
L 144.705878 -51.84 
L 146.272899 -51.84 
L 147.839919 -51.84 
L 149.40694 -51.84 
L 150.97396 -51.84 
L 152.540981 -51.84 
L 154.108001 -51.84 
L 155.675021 -51.84 
L 157.242042 -51.84 
L 158.809062 -51.84 
L 160.376083 -51.84 
L 161.943103 -51.84 
L 163.510124 -51.84 
L 165.077144 -51.84 
L 166.644165 -51.84 
L 168.211185 -51.84 
L 169.778206 -51.84 
L 171.345226 -51.84 
L 172.912247 -51.84 
L 174.479267 -51.84 
L 176.046288 -51.84 
L 177.613308 -51.84 
L 179.180328 -51.84 
L 180.747349 -51.84 
L 182.314369 -51.84 
L 183.88139 -51.84 
L 185.44841 -51.84 
L 187.015431 -51.84 
L 188.582451 -51.84 
L 190.149472 -51.84 
L 191.716492 -51.84 
L 193.283513 -51.84 
L 194.850533 -51.84 
L 196.417554 -51.84 
L 197.984574 -51.84 
L 199.551594 -51.84 
L 201.118615 -51.84 
L 202.685635 -51.84 
L 204.252656 -51.84 
L 205.819676 -51.84 
L 207.386697 -51.84 
L 208.953717 -51.84 
L 210.520738 -51.84 
L 212.087758 -51.84 
L 213.654779 -51.84 
L 215.221799 -51.84 
L 216.78882 -51.84 
L 218.35584 -51.84 
L 219.922861 -51.84 
L 221.489881 -51.84 
L 223.056901 -51.84 
L 224.623922 -51.84 
L 226.190942 -51.84 
L 227.757963 -51.84 
L 229.324983 -51.84 
L 230.892004 -51.84 
L 232.459024 -51.84 
L 234.026045 -51.84 
L 235.593065 -51.84 
L 237.160086 -51.84 
L 238.727106 -51.84 
L 240.294127 -51.84 
L 241.861147 -51.84 
L 243.428167 -51.84 
L 244.995188 -51.84 
L 246.562208 -51.84 
L 248.129229 -51.84 
L 249.696249 -51.84 
L 251.26327 -51.84 
L 252.83029 -51.84 
L 254.397311 -51.84 
L 255.964331 -51.84 
L 257.531352 -51.84 
L 259.098372 -51.84 
L 260.665393 -51.84 
L 262.232413 -51.84 
L 263.799434 -51.84 
L 265.366454 -51.84 
L 266.933474 -51.84 
L 268.500495 -51.84 
L 270.067515 -51.84 
L 271.634536 -51.84 
L 273.201556 -51.84 
L 274.768577 -51.84 
L 276.335597 -51.84 
L 277.902618 -51.84 
L 279.469638 -51.84 
L 281.036659 -51.84 
L 282.603679 -51.84 
L 284.1707 -51.84 
L 285.73772 -51.84 
L 287.30474 -51.84 
L 288.871761 -51.84 
L 290.438781 -51.84 
L 292.005802 -51.84 
L 293.572822 -51.84 
L 295.139843 -51.84 
L 296.706863 -51.84 
L 298.273884 -51.84 
L 299.840904 -51.84 
L 301.407925 -51.84 
L 302.974945 -51.84 
L 304.541966 -51.84 
L 306.108986 -51.84 
L 307.676007 -51.84 
L 309.243027 -51.84 
L 310.810047 -51.84 
L 312.377068 -51.84 
L 313.944088 -51.84 
L 315.511109 -51.84 
L 317.078129 -51.84 
L 318.64515 -51.84 
L 320.21217 -51.84 
L 321.779191 -51.84 
L 323.346211 -51.84 
L 324.913232 -51.84 
L 326.480252 -51.84 
L 328.047273 -51.84 
L 329.614293 -51.84 
L 331.181313 -51.84 
L 332.748334 -51.84 
L 334.315354 -51.84 
L 335.882375 -51.84 
L 337.449395 -51.84 
L 339.016416 -51.84 
L 340.583436 -51.84 
L 342.150457 -51.84 
L 343.717477 -51.84 
L 345.284498 -51.84 
L 346.851518 -51.84 
L 348.418539 -51.84 
L 349.985559 -51.84 
L 351.55258 -51.84 
L 353.1196 -51.84 
L 354.68662 -51.84 
L 356.253641 -51.84 
L 357.820661 -51.84 
L 359.387682 -51.84 
L 360.954702 -51.84 
L 362.521723 -51.84 
L 364.088743 -51.84 
L 365.655764 -51.84 
L 367.222784 -51.84 
L 368.789805 -51.84 
L 370.356825 -51.84 
L 371.923846 -51.84 
L 373.490866 -51.84 
L 375.057886 -51.84 
L 376.624907 -51.84 
L 378.191927 -51.84 
L 379.758948 -51.84 
L 381.325968 -51.84 
L 382.892989 -51.84 
L 384.460009 -51.84 
L 386.02703 -51.84 
L 387.59405 -51.84 
L 389.161071 -51.84 
L 390.728091 -51.84 
L 390.728091 -216.260477 
L 390.728091 -216.260477 
L 389.161071 -216.25643 
L 387.59405 -216.25224 
L 386.02703 -216.247903 
L 384.460009 -216.243414 
L 382.892989 -216.238766 
L 381.325968 -216.233956 
L 379.758948 -216.228977 
L 378.191927 -216.223822 
L 376.624907 -216.218486 
L 375.057886 -216.212963 
L 373.490866 -216.207246 
L 371.923846 -216.201328 
L 370.356825 -216.195202 
L 368.789805 -216.18886 
L 367.222784 -216.182296 
L 365.655764 -216.175501 
L 364.088743 -216.168467 
L 362.521723 -216.161186 
L 360.954702 -216.15365 
L 359.387682 -216.145848 
L 357.820661 -216.137772 
L 356.253641 -216.129412 
L 354.68662 -216.120759 
L 353.1196 -216.111802 
L 351.55258 -216.102529 
L 349.985559 -216.092931 
L 348.418539 -216.082996 
L 346.851518 -216.072711 
L 345.284498 -216.062065 
L 343.717477 -216.051045 
L 342.150457 -216.039638 
L 340.583436 -216.027829 
L 339.016416 -216.015606 
L 337.449395 -216.002953 
L 335.882375 -215.989856 
L 334.315354 -215.976298 
L 332.748334 -215.962264 
L 331.181313 -215.947737 
L 329.614293 -215.932699 
L 328.047273 -215.917132 
L 326.480252 -215.901019 
L 324.913232 -215.884339 
L 323.346211 -215.867074 
L 321.779191 -215.849201 
L 320.21217 -215.8307 
L 318.64515 -215.81155 
L 317.078129 -215.791726 
L 315.511109 -215.771205 
L 313.944088 -215.749964 
L 312.377068 -215.727976 
L 310.810047 -215.705215 
L 309.243027 -215.681654 
L 307.676007 -215.657266 
L 306.108986 -215.63202 
L 304.541966 -215.605887 
L 302.974945 -215.578836 
L 301.407925 -215.550834 
L 299.840904 -215.521848 
L 298.273884 -215.491844 
L 296.706863 -215.460785 
L 295.139843 -215.428635 
L 293.572822 -215.395354 
L 292.005802 -215.360905 
L 290.438781 -215.325244 
L 288.871761 -215.28833 
L 287.30474 -215.25012 
L 285.73772 -215.210566 
L 284.1707 -215.169622 
L 282.603679 -215.12724 
L 281.036659 -215.083368 
L 279.469638 -215.037954 
L 277.902618 -214.990945 
L 276.335597 -214.942283 
L 274.768577 -214.891911 
L 273.201556 -214.839769 
L 271.634536 -214.785795 
L 270.067515 -214.729924 
L 268.500495 -214.67209 
L 266.933474 -214.612223 
L 265.366454 -214.550252 
L 263.799434 -214.486104 
L 262.232413 -214.419701 
L 260.665393 -214.350964 
L 259.098372 -214.279813 
L 257.531352 -214.20616 
L 255.964331 -214.12992 
L 254.397311 -214.051 
L 252.83029 -213.969306 
L 251.26327 -213.884742 
L 249.696249 -213.797206 
L 248.129229 -213.706594 
L 246.562208 -213.612797 
L 244.995188 -213.515705 
L 243.428167 -213.4152 
L 241.861147 -213.311163 
L 240.294127 -213.20347 
L 238.727106 -213.091993 
L 237.160086 -212.976598 
L 235.593065 -212.857148 
L 234.026045 -212.7335 
L 232.459024 -212.605507 
L 230.892004 -212.473016 
L 229.324983 -212.335869 
L 227.757963 -212.193902 
L 226.190942 -212.046947 
L 224.623922 -211.894826 
L 223.056901 -211.73736 
L 221.489881 -211.574361 
L 219.922861 -211.405633 
L 218.35584 -211.230976 
L 216.78882 -211.050181 
L 215.221799 -210.863032 
L 213.654779 -210.669307 
L 212.087758 -210.468773 
L 210.520738 -210.261193 
L 208.953717 -210.046318 
L 207.386697 -209.823891 
L 205.819676 -209.593648 
L 204.252656 -209.355314 
L 202.685635 -209.108604 
L 201.118615 -208.853224 
L 199.551594 -208.588869 
L 197.984574 -208.315225 
L 196.417554 -208.031964 
L 194.850533 -207.738749 
L 193.283513 -207.435229 
L 191.716492 -207.121044 
L 190.149472 -206.795817 
L 188.582451 -206.45916 
L 187.015431 -206.110673 
L 185.44841 -205.74994 
L 183.88139 -205.376529 
L 182.314369 -204.989996 
L 180.747349 -204.58988 
L 179.180328 -204.175702 
L 177.613308 -203.746969 
L 176.046288 -203.30317 
L 174.479267 -202.843775 
L 172.912247 -202.368235 
L 171.345226 -201.875984 
L 169.778206 -201.366434 
L 168.211185 -200.838978 
L 166.644165 -200.292986 
L 165.077144 -199.727806 
L 163.510124 -199.142765 
L 161.943103 -198.537163 
L 160.376083 -197.91028 
L 158.809062 -197.261367 
L 157.242042 -196.58965 
L 155.675021 -195.894327 
L 154.108001 -195.174569 
L 152.540981 -194.429517 
L 150.97396 -193.658282 
L 149.40694 -192.859944 
L 147.839919 -192.033551 
L 146.272899 -191.178117 
L 144.705878 -190.292621 
L 143.138858 -189.376007 
L 141.571837 -188.427181 
L 140.004817 -187.445011 
L 138.437796 -186.428326 
L 136.870776 -185.375912 
L 135.303755 -184.286514 
L 133.736735 -183.158832 
L 132.169714 -181.991521 
L 130.602694 -180.783188 
L 129.035674 -179.532392 
L 127.468653 -178.23764 
L 125.901633 -176.897387 
L 124.334612 -175.510035 
L 122.767592 -174.073929 
L 121.200571 -172.587355 
L 119.633551 -171.048539 
L 118.06653 -169.455646 
L 116.49951 -167.806776 
L 114.932489 -166.09996 
L 113.365469 -164.333163 
L 111.798448 -162.504278 
L 110.231428 -160.611121 
L 108.664408 -158.651434 
L 107.097387 -156.62288 
L 105.530367 -154.523038 
L 103.963346 -152.349404 
L 102.396326 -150.099382 
L 100.829305 -147.770291 
L 99.262285 -145.35935 
L 97.695264 -142.863683 
L 96.128244 -140.280313 
L 94.561223 -137.606158 
L 92.994203 -134.838027 
L 91.427182 -131.972618 
L 89.860162 -129.006513 
L 88.293141 -125.936172 
L 86.726121 -122.757933 
L 85.159101 -119.468003 
L 83.59208 -116.062459 
L 82.02506 -112.537236 
L 80.458039 -108.888129 
L 78.891019 -105.110784 
L 77.323998 -101.200696 
z
" style="stroke: #cfe8db"/>
    </defs>
    <g clip-path="url(#p861519cb72)">
     <use xlink:href="#me5da661598" x="0" y="259.2" style="fill: #cfe8db; stroke: #cfe8db"/>
    </g>
   </g>
   <g id="line2d_1">
    <path d="M 67.2 108.638609 
L 399 108.638609 
" clip-path="url(#p861519cb72)" style="fill: none; stroke-dasharray: 3.7,1.6; stroke-dashoffset: 0; stroke: #eeeeee"/>
   </g>
   <g id="line2d_2">
    <path d="M 223.364038 207.36 
L 223.364038 18.144 
" clip-path="url(#p861519cb72)" style="fill: none; stroke-dasharray: 1,1.65; stroke-dashoffset: 0; stroke: #eeeeee"/>
   </g>
   <g id="matplotlib.axis_1">
    <g id="xtick_1">
     <g id="line2d_3">
      <defs>
       <path id="m72e5b642a9" d="M 0 0 
L 0 3.5 
" style="stroke: #252525; stroke-width: 0.8"/>
      </defs>
      <g>
       <use xlink:href="#m72e5b642a9" x="77.323998" y="207.36" style="fill: #252525; stroke: #252525; stroke-width: 0.8"/>
      </g>
     </g>
     <g id="text_1">
      <!-- 10³ -->
      <g style="fill: #252525" transform="translate(69.375639 222.233594) scale(0.11 -0.11)">
       <defs>
        <path id="ArialUnicodeMS-31" d="M 2400 0 
L 1838 0 
L 1838 3584 
Q 1416 3184 709 2906 
L 709 3450 
Q 1681 3916 2034 4603 
L 2400 4603 
L 2400 0 
z
" transform="scale(0.015625)"/>
        <path id="ArialUnicodeMS-30" d="M 1778 4603 
Q 3272 4603 3272 2259 
Q 3272 1075 2886 498 
Q 2500 -78 1778 -78 
Q 288 -78 288 2259 
Q 288 3444 673 4023 
Q 1059 4603 1778 4603 
z
M 1778 384 
Q 2231 384 2462 823 
Q 2694 1263 2694 2259 
Q 2694 2953 2592 3351 
Q 2491 3750 2286 3945 
Q 2081 4141 1772 4141 
Q 1319 4141 1091 3694 
Q 863 3247 863 2259 
Q 863 1575 966 1175 
Q 1069 775 1272 579 
Q 1475 384 1778 384 
z
" transform="scale(0.015625)"/>
        <path id="ArialUnicodeMS-b3" d="M 1478 3527 
Q 1747 3465 1881 3316 
Q 2016 3168 2016 2937 
Q 2016 2631 1761 2423 
Q 1506 2215 1069 2215 
Q 650 2215 409 2382 
Q 169 2549 103 2887 
L 556 2931 
Q 609 2756 729 2668 
Q 850 2581 1038 2581 
Q 1250 2581 1389 2698 
Q 1528 2815 1528 2996 
Q 1528 3168 1414 3255 
Q 1300 3343 1075 3343 
Q 1056 3343 863 3334 
L 928 3674 
Q 1144 3674 1283 3755 
Q 1422 3837 1422 3993 
Q 1422 4109 1326 4188 
Q 1231 4268 1044 4268 
Q 878 4268 767 4190 
Q 656 4112 603 3956 
L 153 4024 
Q 278 4362 483 4491 
Q 688 4621 1050 4621 
Q 1450 4621 1678 4471 
Q 1906 4321 1906 4040 
Q 1906 3849 1798 3724 
Q 1691 3599 1478 3540 
L 1478 3527 
z
" transform="scale(0.015625)"/>
       </defs>
       <use xlink:href="#ArialUnicodeMS-31"/>
       <use xlink:href="#ArialUnicodeMS-30" transform="translate(55.615234 0)"/>
       <use xlink:href="#ArialUnicodeMS-b3" transform="translate(111.230469 0)"/>
      </g>
     </g>
    </g>
    <g id="xtick_2">
     <g id="line2d_4">
      <g>
       <use xlink:href="#m72e5b642a9" x="181.792029" y="207.36" style="fill: #252525; stroke: #252525; stroke-width: 0.8"/>
      </g>
     </g>
     <g id="text_2">
      <!-- 10⁴ -->
      <g style="fill: #252525" transform="translate(173.84367 222.233594) scale(0.11 -0.11)">
       <defs>
        <path id="ArialUnicodeMS-2074" d="M 2041 2752 
L 1716 2752 
L 1716 2271 
L 1269 2271 
L 1269 2752 
L 72 2752 
L 72 3137 
L 1331 4621 
L 1716 4621 
L 1716 3090 
L 2041 3090 
L 2041 2752 
z
M 1269 3090 
L 1269 4012 
L 488 3090 
L 1269 3090 
z
" transform="scale(0.015625)"/>
       </defs>
       <use xlink:href="#ArialUnicodeMS-31"/>
       <use xlink:href="#ArialUnicodeMS-30" transform="translate(55.615234 0)"/>
       <use xlink:href="#ArialUnicodeMS-2074" transform="translate(111.230469 0)"/>
      </g>
     </g>
    </g>
    <g id="xtick_3">
     <g id="line2d_5">
      <g>
       <use xlink:href="#m72e5b642a9" x="286.26006" y="207.36" style="fill: #252525; stroke: #252525; stroke-width: 0.8"/>
      </g>
     </g>
     <g id="text_3">
      <!-- 10⁵ -->
      <g style="fill: #252525" transform="translate(278.311701 222.233594) scale(0.11 -0.11)">
       <defs>
        <path id="ArialUnicodeMS-2075" d="M 634 3687 
Q 888 3859 1159 3859 
Q 1513 3859 1758 3626 
Q 2003 3393 2003 3065 
Q 2003 2696 1720 2455 
Q 1438 2215 1019 2215 
Q 659 2215 418 2385 
Q 178 2556 103 2874 
L 550 2931 
Q 597 2768 712 2687 
Q 828 2606 1013 2606 
Q 1247 2606 1395 2734 
Q 1544 2862 1544 3065 
Q 1544 3243 1408 3376 
Q 1272 3509 1063 3509 
Q 847 3509 634 3309 
L 191 3387 
L 441 4562 
L 1906 4562 
L 1906 4187 
L 744 4187 
L 634 3687 
z
" transform="scale(0.015625)"/>
       </defs>
       <use xlink:href="#ArialUnicodeMS-31"/>
       <use xlink:href="#ArialUnicodeMS-30" transform="translate(55.615234 0)"/>
       <use xlink:href="#ArialUnicodeMS-2075" transform="translate(111.230469 0)"/>
      </g>
     </g>
    </g>
    <g id="xtick_4">
     <g id="line2d_6">
      <g>
       <use xlink:href="#m72e5b642a9" x="390.728091" y="207.36" style="fill: #252525; stroke: #252525; stroke-width: 0.8"/>
      </g>
     </g>
     <g id="text_4">
      <!-- 10⁶ -->
      <g style="fill: #252525" transform="translate(382.779732 222.233594) scale(0.11 -0.11)">
       <defs>
        <path id="ArialUnicodeMS-2076" d="M 525 3474 
Q 781 3790 1191 3790 
Q 1544 3790 1780 3571 
Q 2016 3352 2016 3034 
Q 2016 2693 1752 2454 
Q 1488 2215 1075 2215 
Q 597 2215 326 2519 
Q 56 2824 56 3352 
Q 56 3943 351 4282 
Q 647 4621 1172 4621 
Q 1506 4621 1711 4483 
Q 1916 4346 1991 4071 
L 1497 4006 
Q 1422 4231 1113 4231 
Q 825 4231 678 4041 
Q 531 3852 525 3474 
z
M 1056 2606 
Q 1272 2606 1400 2723 
Q 1528 2840 1528 3021 
Q 1528 3199 1406 3318 
Q 1284 3437 1088 3437 
Q 881 3437 742 3310 
Q 603 3184 603 2984 
Q 603 2818 725 2712 
Q 847 2606 1056 2606 
z
" transform="scale(0.015625)"/>
       </defs>
       <use xlink:href="#ArialUnicodeMS-31"/>
       <use xlink:href="#ArialUnicodeMS-30" transform="translate(55.615234 0)"/>
       <use xlink:href="#ArialUnicodeMS-2076" transform="translate(111.230469 0)"/>
      </g>
     </g>
    </g>
    <g id="xtick_5">
     <g id="line2d_7">
      <defs>
       <path id="m4cc9cb5a26" d="M 0 0 
L 0 2 
" style="stroke: #252525; stroke-width: 0.6"/>
      </defs>
      <g>
       <use xlink:href="#m4cc9cb5a26" x="67.2" y="207.36" style="fill: #252525; stroke: #252525; stroke-width: 0.6"/>
      </g>
     </g>
    </g>
    <g id="xtick_6">
     <g id="line2d_8">
      <g>
       <use xlink:href="#m4cc9cb5a26" x="72.543803" y="207.36" style="fill: #252525; stroke: #252525; stroke-width: 0.6"/>
      </g>
     </g>
    </g>
    <g id="xtick_7">
     <g id="line2d_9">
      <g>
       <use xlink:href="#m4cc9cb5a26" x="108.772009" y="207.36" style="fill: #252525; stroke: #252525; stroke-width: 0.6"/>
      </g>
     </g>
    </g>
    <g id="xtick_8">
     <g id="line2d_10">
      <g>
       <use xlink:href="#m4cc9cb5a26" x="127.167916" y="207.36" style="fill: #252525; stroke: #252525; stroke-width: 0.6"/>
      </g>
     </g>
    </g>
    <g id="xtick_9">
     <g id="line2d_11">
      <g>
       <use xlink:href="#m4cc9cb5a26" x="140.22002" y="207.36" style="fill: #252525; stroke: #252525; stroke-width: 0.6"/>
      </g>
     </g>
    </g>
    <g id="xtick_10">
     <g id="line2d_12">
      <g>
       <use xlink:href="#m4cc9cb5a26" x="150.344018" y="207.36" style="fill: #252525; stroke: #252525; stroke-width: 0.6"/>
      </g>
     </g>
    </g>
    <g id="xtick_11">
     <g id="line2d_13">
      <g>
       <use xlink:href="#m4cc9cb5a26" x="158.615927" y="207.36" style="fill: #252525; stroke: #252525; stroke-width: 0.6"/>
      </g>
     </g>
    </g>
    <g id="xtick_12">
     <g id="line2d_14">
      <g>
       <use xlink:href="#m4cc9cb5a26" x="165.609726" y="207.36" style="fill: #252525; stroke: #252525; stroke-width: 0.6"/>
      </g>
     </g>
    </g>
    <g id="xtick_13">
     <g id="line2d_15">
      <g>
       <use xlink:href="#m4cc9cb5a26" x="171.668031" y="207.36" style="fill: #252525; stroke: #252525; stroke-width: 0.6"/>
      </g>
     </g>
    </g>
    <g id="xtick_14">
     <g id="line2d_16">
      <g>
       <use xlink:href="#m4cc9cb5a26" x="177.011834" y="207.36" style="fill: #252525; stroke: #252525; stroke-width: 0.6"/>
      </g>
     </g>
    </g>
    <g id="xtick_15">
     <g id="line2d_17">
      <g>
       <use xlink:href="#m4cc9cb5a26" x="213.24004" y="207.36" style="fill: #252525; stroke: #252525; stroke-width: 0.6"/>
      </g>
     </g>
    </g>
    <g id="xtick_16">
     <g id="line2d_18">
      <g>
       <use xlink:href="#m4cc9cb5a26" x="231.635947" y="207.36" style="fill: #252525; stroke: #252525; stroke-width: 0.6"/>
      </g>
     </g>
    </g>
    <g id="xtick_17">
     <g id="line2d_19">
      <g>
       <use xlink:href="#m4cc9cb5a26" x="244.688051" y="207.36" style="fill: #252525; stroke: #252525; stroke-width: 0.6"/>
      </g>
     </g>
    </g>
    <g id="xtick_18">
     <g id="line2d_20">
      <g>
       <use xlink:href="#m4cc9cb5a26" x="254.812049" y="207.36" style="fill: #252525; stroke: #252525; stroke-width: 0.6"/>
      </g>
     </g>
    </g>
    <g id="xtick_19">
     <g id="line2d_21">
      <g>
       <use xlink:href="#m4cc9cb5a26" x="263.083958" y="207.36" style="fill: #252525; stroke: #252525; stroke-width: 0.6"/>
      </g>
     </g>
    </g>
    <g id="xtick_20">
     <g id="line2d_22">
      <g>
       <use xlink:href="#m4cc9cb5a26" x="270.077757" y="207.36" style="fill: #252525; stroke: #252525; stroke-width: 0.6"/>
      </g>
     </g>
    </g>
    <g id="xtick_21">
     <g id="line2d_23">
      <g>
       <use xlink:href="#m4cc9cb5a26" x="276.136062" y="207.36" style="fill: #252525; stroke: #252525; stroke-width: 0.6"/>
      </g>
     </g>
    </g>
    <g id="xtick_22">
     <g id="line2d_24">
      <g>
       <use xlink:href="#m4cc9cb5a26" x="281.479865" y="207.36" style="fill: #252525; stroke: #252525; stroke-width: 0.6"/>
      </g>
     </g>
    </g>
    <g id="xtick_23">
     <g id="line2d_25">
      <g>
       <use xlink:href="#m4cc9cb5a26" x="317.708071" y="207.36" style="fill: #252525; stroke: #252525; stroke-width: 0.6"/>
      </g>
     </g>
    </g>
    <g id="xtick_24">
     <g id="line2d_26">
      <g>
       <use xlink:href="#m4cc9cb5a26" x="336.103978" y="207.36" style="fill: #252525; stroke: #252525; stroke-width: 0.6"/>
      </g>
     </g>
    </g>
    <g id="xtick_25">
     <g id="line2d_27">
      <g>
       <use xlink:href="#m4cc9cb5a26" x="349.156082" y="207.36" style="fill: #252525; stroke: #252525; stroke-width: 0.6"/>
      </g>
     </g>
    </g>
    <g id="xtick_26">
     <g id="line2d_28">
      <g>
       <use xlink:href="#m4cc9cb5a26" x="359.28008" y="207.36" style="fill: #252525; stroke: #252525; stroke-width: 0.6"/>
      </g>
     </g>
    </g>
    <g id="xtick_27">
     <g id="line2d_29">
      <g>
       <use xlink:href="#m4cc9cb5a26" x="367.551989" y="207.36" style="fill: #252525; stroke: #252525; stroke-width: 0.6"/>
      </g>
     </g>
    </g>
    <g id="xtick_28">
     <g id="line2d_30">
      <g>
       <use xlink:href="#m4cc9cb5a26" x="374.545788" y="207.36" style="fill: #252525; stroke: #252525; stroke-width: 0.6"/>
      </g>
     </g>
    </g>
    <g id="xtick_29">
     <g id="line2d_31">
      <g>
       <use xlink:href="#m4cc9cb5a26" x="380.604093" y="207.36" style="fill: #252525; stroke: #252525; stroke-width: 0.6"/>
      </g>
     </g>
    </g>
    <g id="xtick_30">
     <g id="line2d_32">
      <g>
       <use xlink:href="#m4cc9cb5a26" x="385.947896" y="207.36" style="fill: #252525; stroke: #252525; stroke-width: 0.6"/>
      </g>
     </g>
    </g>
    <g id="text_5">
     <!-- 数均分子量 $M_n$（g/mol） -->
     <g style="fill: #252525" transform="translate(166.74 238.505) scale(0.12 -0.12)">
      <defs>
       <path id="ArialUnicodeMS-6570" d="M 6138 19 
L 5806 -378 
Q 5031 194 4697 716 
Q 4344 144 3328 -441 
L 2981 -50 
Q 3966 434 4403 1153 
Q 4038 1834 3866 2753 
Q 3678 2356 3353 1919 
L 2950 2203 
Q 3838 3172 3963 5253 
L 4409 5125 
Q 4341 4384 4269 4006 
L 5984 4006 
L 5984 3547 
L 5619 3541 
L 5594 3341 
Q 5441 2113 4978 1191 
Q 5281 672 6138 19 
z
M 5166 3541 
L 4172 3541 
Q 4297 2419 4691 1650 
Q 5038 2513 5166 3541 
z
M 3438 3653 
L 2209 3653 
L 2209 2338 
L 1919 2338 
Q 1900 2269 1753 1931 
L 3225 1931 
L 3225 1472 
L 2913 1472 
Q 2763 991 2503 666 
Q 2947 353 3103 184 
L 2747 -172 
Q 2463 138 2150 313 
Q 1322 -225 563 -428 
L 269 6 
Q 1106 163 1684 563 
Q 1291 756 703 884 
L 1038 1472 
L 403 1472 
L 403 1931 
L 1259 1931 
Q 1328 2056 1466 2553 
L 1747 2484 
L 1747 3653 
L 1716 3653 
Q 1413 2881 678 2456 
L 378 2803 
Q 938 3091 1241 3653 
L 403 3653 
L 403 4122 
L 1747 4122 
L 1747 5228 
L 2209 5228 
L 2209 4122 
L 3438 4122 
L 3438 3653 
z
M 2406 1472 
L 1538 1472 
Q 1422 1241 1369 1153 
Q 1388 1159 2069 884 
Q 2219 1031 2406 1472 
z
M 1625 4441 
L 1288 4159 
Q 1022 4547 575 4813 
L 878 5075 
Q 1394 4844 1625 4441 
z
M 3384 4844 
Q 3097 4409 2669 4172 
L 2322 4481 
Q 2806 4759 3047 5069 
L 3384 4844 
z
M 3303 2888 
L 2944 2578 
Q 2706 3025 2291 3297 
L 2584 3566 
Q 2988 3359 3303 2888 
z
" transform="scale(0.015625)"/>
       <path id="ArialUnicodeMS-5747" d="M 5797 4459 
Q 5772 1716 5730 978 
Q 5688 241 5458 -81 
Q 5228 -403 4744 -403 
Q 4606 -403 4006 -306 
L 3847 250 
Q 4413 128 4788 128 
Q 5022 128 5133 340 
Q 5244 553 5283 1968 
Q 5322 3384 5306 3994 
L 3347 3994 
Q 3056 3181 2559 2650 
L 2156 2944 
Q 2253 3025 2344 3128 
L 1728 3128 
L 1728 1441 
L 2541 1766 
L 2541 1259 
L 641 538 
L 319 978 
L 1241 1288 
L 1241 3128 
L 488 3128 
L 488 3597 
L 1241 3597 
L 1241 5100 
L 1728 5100 
L 1728 3597 
L 2413 3597 
L 2413 3231 
Q 3006 4097 3194 5319 
L 3675 5166 
Q 3572 4644 3494 4459 
L 5797 4459 
z
M 4813 2566 
L 2888 2566 
L 2888 3041 
L 4813 3041 
L 4813 2566 
z
M 4959 1900 
L 4959 1409 
Q 4266 1156 2706 709 
L 2431 1153 
Q 4391 1697 4959 1900 
z
" transform="scale(0.015625)"/>
       <path id="ArialUnicodeMS-5206" d="M 5991 3003 
L 5684 2553 
Q 4856 3041 4451 3534 
Q 4047 4028 3781 4831 
L 4319 4984 
Q 4375 4356 4829 3825 
Q 5284 3294 5991 3003 
z
M 2613 4697 
Q 2169 3484 800 2547 
L 416 2919 
Q 1731 3741 2188 4934 
L 2613 4697 
z
M 4872 2931 
Q 4844 1956 4730 1092 
Q 4616 228 4430 7 
Q 4244 -213 3847 -213 
Q 3469 -213 2894 -78 
L 2747 481 
Q 3503 269 3834 269 
Q 4013 269 4128 639 
Q 4244 1009 4341 2463 
L 3138 2463 
Q 2869 263 831 -441 
L 525 -31 
Q 2372 478 2631 2463 
L 1556 2463 
L 1556 2931 
L 4872 2931 
z
" transform="scale(0.015625)"/>
       <path id="ArialUnicodeMS-5b50" d="M 5894 2328 
L 3566 2328 
L 3566 191 
Q 3566 -31 3425 -172 
Q 3284 -313 3034 -313 
L 2247 -313 
L 2016 184 
L 2822 147 
Q 3078 138 3078 447 
L 3078 2328 
L 628 2328 
L 628 2797 
L 3078 2797 
L 3078 3438 
Q 3856 3947 4403 4569 
L 1416 4569 
L 1416 5038 
L 5100 5038 
L 5100 4678 
Q 4438 3794 3566 3200 
L 3566 2797 
L 5894 2797 
L 5894 2328 
z
" transform="scale(0.015625)"/>
       <path id="ArialUnicodeMS-91cf" d="M 5056 3378 
L 1313 3378 
L 1313 5050 
L 5056 5050 
L 5056 3378 
z
M 4569 4403 
L 4569 4609 
L 1797 4609 
L 1797 4403 
L 4569 4403 
z
M 4569 3794 
L 4569 4031 
L 1797 4031 
L 1797 3794 
L 4569 3794 
z
M 5797 2816 
L 581 2816 
L 581 3231 
L 5797 3231 
L 5797 2816 
z
M 6059 -191 
L 341 -191 
L 341 275 
L 2950 275 
L 2950 459 
L 897 459 
L 897 878 
L 2950 878 
L 2950 1044 
L 1125 1044 
L 1125 2669 
L 5269 2669 
L 5269 1044 
L 3438 1044 
L 3438 878 
L 5509 878 
L 5509 459 
L 3438 459 
L 3438 275 
L 6059 275 
L 6059 -191 
z
M 4781 2053 
L 4781 2253 
L 3438 2253 
L 3438 2053 
L 4781 2053 
z
M 2950 2053 
L 2950 2253 
L 1613 2253 
L 1613 2053 
L 2950 2053 
z
M 4781 1459 
L 4781 1697 
L 3438 1697 
L 3438 1459 
L 4781 1459 
z
M 2950 1459 
L 2950 1697 
L 1613 1697 
L 1613 1459 
L 2950 1459 
z
" transform="scale(0.015625)"/>
       <path id="ArialUnicodeMS-20" transform="scale(0.015625)"/>
       <path id="DejaVuSans-Oblique-4d" d="M 1081 4666 
L 2028 4666 
L 2572 1522 
L 4378 4666 
L 5350 4666 
L 4441 0 
L 3828 0 
L 4622 4091 
L 2791 897 
L 2175 897 
L 1581 4103 
L 788 0 
L 172 0 
L 1081 4666 
z
" transform="scale(0.015625)"/>
       <path id="DejaVuSans-Oblique-6e" d="M 3566 2113 
L 3156 0 
L 2578 0 
L 2988 2091 
Q 3016 2238 3031 2350 
Q 3047 2463 3047 2528 
Q 3047 2791 2881 2937 
Q 2716 3084 2419 3084 
Q 1956 3084 1622 2776 
Q 1288 2469 1184 1941 
L 800 0 
L 225 0 
L 903 3500 
L 1478 3500 
L 1363 2950 
Q 1603 3253 1940 3418 
Q 2278 3584 2650 3584 
Q 3113 3584 3367 3334 
Q 3622 3084 3622 2631 
Q 3622 2519 3608 2391 
Q 3594 2263 3566 2113 
z
" transform="scale(0.015625)"/>
       <path id="ArialUnicodeMS-ff08" d="M 3964 -1344 
L 3561 -1344 
Q 3042 -681 2745 103 
Q 2448 888 2448 1656 
Q 2448 2528 2764 3275 
Q 3080 4022 3561 4659 
L 3964 4659 
Q 3408 3747 3219 3059 
Q 3030 2372 3030 1663 
Q 3030 153 3964 -1344 
z
" transform="scale(0.015625)"/>
       <path id="ArialUnicodeMS-67" d="M 3144 447 
Q 3144 -259 3003 -607 
Q 2863 -956 2503 -1150 
Q 2144 -1344 1644 -1344 
Q 1081 -1344 706 -1094 
Q 331 -844 331 -275 
L 878 -359 
Q 909 -622 1098 -753 
Q 1288 -884 1638 -884 
Q 2075 -884 2278 -706 
Q 2481 -528 2526 -272 
Q 2572 -16 2572 434 
Q 2206 0 1650 0 
Q 1003 0 611 478 
Q 219 956 219 1684 
Q 219 2416 600 2903 
Q 981 3391 1656 3391 
Q 2244 3391 2613 2919 
L 2625 2919 
L 2625 3316 
L 3144 3316 
L 3144 447 
z
M 1703 459 
Q 2063 459 2341 745 
Q 2619 1031 2619 1703 
Q 2619 2297 2353 2614 
Q 2088 2931 1697 2931 
Q 1297 2931 1045 2606 
Q 794 2281 794 1716 
Q 794 1063 1058 761 
Q 1322 459 1703 459 
z
" transform="scale(0.015625)"/>
       <path id="ArialUnicodeMS-2f" d="M 1778 4581 
L 453 -153 
L 0 -153 
L 1325 4581 
L 1778 4581 
z
" transform="scale(0.015625)"/>
       <path id="ArialUnicodeMS-6d" d="M 4922 0 
L 4359 0 
L 4359 2094 
Q 4359 2325 4328 2489 
Q 4297 2653 4167 2779 
Q 4038 2906 3763 2906 
Q 3431 2906 3190 2675 
Q 2950 2444 2950 1925 
L 2950 0 
L 2388 0 
L 2388 2156 
Q 2388 2588 2236 2747 
Q 2084 2906 1806 2906 
Q 1444 2906 1211 2656 
Q 978 2406 978 1722 
L 978 0 
L 416 0 
L 416 3316 
L 922 3316 
L 922 2853 
L 934 2853 
Q 1272 3391 1925 3391 
Q 2291 3391 2527 3245 
Q 2763 3100 2869 2809 
Q 3238 3391 3891 3391 
Q 4406 3391 4664 3112 
Q 4922 2834 4922 2278 
L 4922 0 
z
" transform="scale(0.015625)"/>
       <path id="ArialUnicodeMS-6f" d="M 1778 3391 
Q 2450 3391 2892 2953 
Q 3334 2516 3334 1709 
Q 3334 731 2856 326 
Q 2378 -78 1778 -78 
Q 1150 -78 687 337 
Q 225 753 225 1656 
Q 225 2531 672 2961 
Q 1119 3391 1778 3391 
z
M 1778 384 
Q 2259 384 2509 740 
Q 2759 1097 2759 1678 
Q 2759 2300 2476 2615 
Q 2194 2931 1778 2931 
Q 1350 2931 1075 2611 
Q 800 2291 800 1656 
Q 800 1025 1079 704 
Q 1359 384 1778 384 
z
" transform="scale(0.015625)"/>
       <path id="ArialUnicodeMS-6c" d="M 991 0 
L 428 0 
L 428 4581 
L 991 4581 
L 991 0 
z
" transform="scale(0.015625)"/>
       <path id="ArialUnicodeMS-ff09" d="M 2850 4659 
Q 3369 3997 3666 3212 
Q 3963 2428 3963 1656 
Q 3963 788 3647 41 
Q 3332 -706 2850 -1344 
L 2447 -1344 
Q 3004 -431 3193 255 
Q 3382 941 3382 1650 
Q 3382 3163 2447 4659 
L 2850 4659 
z
" transform="scale(0.015625)"/>
      </defs>
      <use xlink:href="#ArialUnicodeMS-6570" transform="translate(0 0.890625)"/>
      <use xlink:href="#ArialUnicodeMS-5747" transform="translate(100 0.890625)"/>
      <use xlink:href="#ArialUnicodeMS-5206" transform="translate(200 0.890625)"/>
      <use xlink:href="#ArialUnicodeMS-5b50" transform="translate(300 0.890625)"/>
      <use xlink:href="#ArialUnicodeMS-91cf" transform="translate(400 0.890625)"/>
      <use xlink:href="#ArialUnicodeMS-20" transform="translate(500 0.890625)"/>
      <use xlink:href="#DejaVuSans-Oblique-4d" transform="translate(527.783203 0.890625)"/>
      <use xlink:href="#DejaVuSans-Oblique-6e" transform="translate(614.0625 -15.515625) scale(0.7)"/>
      <use xlink:href="#ArialUnicodeMS-ff08" transform="translate(661.162109 0.890625)"/>
      <use xlink:href="#ArialUnicodeMS-67" transform="translate(761.162109 0.890625)"/>
      <use xlink:href="#ArialUnicodeMS-2f" transform="translate(816.777344 0.890625)"/>
      <use xlink:href="#ArialUnicodeMS-6d" transform="translate(844.560547 0.890625)"/>
      <use xlink:href="#ArialUnicodeMS-6f" transform="translate(927.861328 0.890625)"/>
      <use xlink:href="#ArialUnicodeMS-6c" transform="translate(983.476562 0.890625)"/>
      <use xlink:href="#ArialUnicodeMS-ff09" transform="translate(1005.693359 0.890625)"/>
     </g>
    </g>
   </g>
   <g id="matplotlib.axis_2">
    <g id="ytick_1">
     <g id="line2d_33">
      <defs>
       <path id="m373b1c823a" d="M 0 0 
L -3.5 0 
" style="stroke: #252525; stroke-width: 0.8"/>
      </defs>
      <g>
       <use xlink:href="#m373b1c823a" x="67.2" y="190.906435" style="fill: #252525; stroke: #252525; stroke-width: 0.8"/>
      </g>
     </g>
     <g id="text_6">
      <!-- 300 -->
      <g style="fill: #252525" transform="translate(41.848906 194.843232) scale(0.11 -0.11)">
       <defs>
        <path id="ArialUnicodeMS-33" d="M 2425 2478 
Q 2850 2397 3067 2067 
Q 3284 1738 3284 1350 
Q 3284 725 2829 323 
Q 2375 -78 1741 -78 
Q 1134 -78 740 275 
Q 347 628 281 1209 
L 844 1288 
Q 928 834 1151 609 
Q 1375 384 1741 384 
Q 2134 384 2407 661 
Q 2681 938 2681 1338 
Q 2681 1722 2432 1975 
Q 2184 2228 1784 2228 
Q 1622 2228 1388 2169 
L 1453 2663 
Q 1678 2663 1809 2684 
Q 1941 2706 2103 2790 
Q 2266 2875 2372 3033 
Q 2478 3191 2478 3425 
Q 2478 3766 2251 3953 
Q 2025 4141 1728 4141 
Q 1388 4141 1173 3925 
Q 959 3709 903 3309 
L 341 3413 
Q 450 4009 823 4306 
Q 1197 4603 1716 4603 
Q 2288 4603 2670 4258 
Q 3053 3913 3053 3413 
Q 3053 2772 2425 2491 
L 2425 2478 
z
" transform="scale(0.015625)"/>
       </defs>
       <use xlink:href="#ArialUnicodeMS-33"/>
       <use xlink:href="#ArialUnicodeMS-30" transform="translate(55.615234 0)"/>
       <use xlink:href="#ArialUnicodeMS-30" transform="translate(111.230469 0)"/>
      </g>
     </g>
    </g>
    <g id="ytick_2">
     <g id="line2d_34">
      <g>
       <use xlink:href="#m373b1c823a" x="67.2" y="149.772522" style="fill: #252525; stroke: #252525; stroke-width: 0.8"/>
      </g>
     </g>
     <g id="text_7">
      <!-- 350 -->
      <g style="fill: #252525" transform="translate(41.848906 153.709319) scale(0.11 -0.11)">
       <defs>
        <path id="ArialUnicodeMS-35" d="M 1013 2753 
Q 1431 3041 1881 3041 
Q 2453 3041 2878 2636 
Q 3303 2231 3303 1556 
Q 3303 875 2872 398 
Q 2441 -78 1741 -78 
Q 1169 -78 750 245 
Q 331 569 269 1203 
L 856 1247 
Q 928 813 1162 598 
Q 1397 384 1741 384 
Q 2169 384 2434 707 
Q 2700 1031 2700 1503 
Q 2700 1984 2428 2262 
Q 2156 2541 1728 2541 
Q 1188 2541 897 2100 
L 366 2163 
L 813 4519 
L 3084 4519 
L 3084 3975 
L 1259 3975 
L 1013 2753 
z
" transform="scale(0.015625)"/>
       </defs>
       <use xlink:href="#ArialUnicodeMS-33"/>
       <use xlink:href="#ArialUnicodeMS-35" transform="translate(55.615234 0)"/>
       <use xlink:href="#ArialUnicodeMS-30" transform="translate(111.230469 0)"/>
      </g>
     </g>
    </g>
    <g id="ytick_3">
     <g id="line2d_35">
      <g>
       <use xlink:href="#m373b1c823a" x="67.2" y="108.638609" style="fill: #252525; stroke: #252525; stroke-width: 0.8"/>
      </g>
     </g>
     <g id="text_8">
      <!-- 400 -->
      <g style="fill: #252525" transform="translate(41.848906 112.575406) scale(0.11 -0.11)">
       <defs>
        <path id="ArialUnicodeMS-34" d="M 3263 1094 
L 2644 1094 
L 2644 0 
L 2081 0 
L 2081 1094 
L 97 1094 
L 97 1613 
L 2181 4581 
L 2644 4581 
L 2644 1613 
L 3263 1613 
L 3263 1094 
z
M 2081 1613 
L 2081 3681 
L 2069 3681 
L 647 1613 
L 2081 1613 
z
" transform="scale(0.015625)"/>
       </defs>
       <use xlink:href="#ArialUnicodeMS-34"/>
       <use xlink:href="#ArialUnicodeMS-30" transform="translate(55.615234 0)"/>
       <use xlink:href="#ArialUnicodeMS-30" transform="translate(111.230469 0)"/>
      </g>
     </g>
    </g>
    <g id="ytick_4">
     <g id="line2d_36">
      <g>
       <use xlink:href="#m373b1c823a" x="67.2" y="67.504696" style="fill: #252525; stroke: #252525; stroke-width: 0.8"/>
      </g>
     </g>
     <g id="text_9">
      <!-- 450 -->
      <g style="fill: #252525" transform="translate(41.848906 71.441493) scale(0.11 -0.11)">
       <use xlink:href="#ArialUnicodeMS-34"/>
       <use xlink:href="#ArialUnicodeMS-35" transform="translate(55.615234 0)"/>
       <use xlink:href="#ArialUnicodeMS-30" transform="translate(111.230469 0)"/>
      </g>
     </g>
    </g>
    <g id="ytick_5">
     <g id="line2d_37">
      <g>
       <use xlink:href="#m373b1c823a" x="67.2" y="26.370783" style="fill: #252525; stroke: #252525; stroke-width: 0.8"/>
      </g>
     </g>
     <g id="text_10">
      <!-- 500 -->
      <g style="fill: #252525" transform="translate(41.848906 30.307579) scale(0.11 -0.11)">
       <use xlink:href="#ArialUnicodeMS-35"/>
       <use xlink:href="#ArialUnicodeMS-30" transform="translate(55.615234 0)"/>
       <use xlink:href="#ArialUnicodeMS-30" transform="translate(111.230469 0)"/>
      </g>
     </g>
    </g>
    <g id="text_11">
     <!-- 玻璃化转变温度 $T_g$（K） -->
     <g style="fill: #252525" transform="translate(34.128906 178.932) rotate(-90) scale(0.12 -0.12)">
      <defs>
       <path id="ArialUnicodeMS-73bb" d="M 6203 6 
L 5881 -409 
Q 4903 -100 4353 500 
Q 3975 159 2994 -403 
L 2650 38 
Q 3522 400 4019 878 
Q 3525 1566 3372 2400 
L 3188 2400 
L 3188 2869 
L 3950 2869 
L 3950 3988 
L 3078 3988 
L 3078 1997 
Q 3078 738 2484 -50 
L 2228 -391 
L 1784 -97 
Q 2128 263 2328 658 
Q 2528 1053 2564 1423 
Q 2600 1794 2600 2675 
L 2591 4453 
L 3950 4453 
L 3950 5313 
L 4434 5313 
L 4434 4453 
L 5931 4453 
Q 5747 3559 5625 3144 
L 5141 3219 
Q 5288 3734 5319 3988 
L 4434 3988 
L 4434 2869 
L 5491 2869 
Q 5403 1650 4691 850 
Q 5191 325 6203 6 
z
M 4941 2400 
L 3822 2400 
Q 3972 1809 4378 1241 
Q 4834 1841 4941 2400 
z
M 2472 1197 
L 666 653 
L 409 1081 
L 1288 1325 
L 1288 2784 
L 691 2784 
L 691 3250 
L 1288 3250 
L 1288 4359 
L 519 4359 
L 519 4825 
L 2438 4825 
L 2438 4359 
L 1772 4359 
L 1772 3250 
L 2350 3250 
L 2350 2784 
L 1772 2784 
L 1772 1472 
L 2472 1663 
L 2472 1197 
z
" transform="scale(0.015625)"/>
       <path id="ArialUnicodeMS-7483" d="M 6034 4341 
L 2278 4341 
L 2278 4806 
L 3803 4806 
L 3803 5331 
L 4319 5331 
L 4319 4806 
L 6034 4806 
L 6034 4341 
z
M 2253 953 
L 500 519 
L 250 984 
L 1113 1172 
L 1113 2706 
L 513 2706 
L 513 3175 
L 1113 3175 
L 1113 4441 
L 469 4441 
L 469 4909 
L 2175 4909 
L 2175 4441 
L 1600 4441 
L 1600 3175 
L 2125 3175 
L 2125 2706 
L 1600 2706 
L 1600 1288 
L 2253 1459 
L 2253 953 
z
M 5013 3156 
L 4666 2853 
Q 4472 3106 4172 3309 
Q 3913 3103 3322 2847 
L 3053 3238 
Q 3625 3441 3756 3559 
Q 3413 3709 3066 3803 
L 3419 4134 
Q 3813 4019 4122 3859 
Q 4353 4059 4500 4306 
L 4884 4031 
Q 4709 3809 4513 3622 
Q 4750 3472 5013 3156 
z
M 5728 116 
Q 5728 -125 5587 -264 
Q 5447 -403 5209 -403 
L 4728 -403 
L 4581 84 
Q 4856 56 5050 56 
Q 5166 56 5203 84 
Q 5241 113 5241 225 
L 5241 1503 
L 4072 1503 
Q 3938 1081 3788 819 
Q 4434 872 4469 878 
Q 4422 991 4178 1234 
L 4594 1369 
Q 4972 944 5147 366 
L 4716 184 
L 4622 488 
L 3156 306 
L 2931 763 
L 3291 794 
L 3584 1503 
L 2834 1503 
L 2834 -441 
L 2350 -441 
L 2350 1972 
L 3700 1972 
Q 3734 2066 3769 2338 
L 2509 2338 
L 2509 4128 
L 2994 4128 
L 2994 2803 
L 5050 2803 
L 5050 4078 
L 5538 4078 
L 5538 2338 
L 4244 2338 
Q 4213 2141 4172 1972 
L 5728 1972 
L 5728 116 
z
" transform="scale(0.015625)"/>
       <path id="ArialUnicodeMS-5316" d="M 2431 5147 
Q 2322 4731 2081 4159 
L 1844 3603 
L 1844 -366 
L 1350 -366 
L 1350 2834 
Q 1006 2356 653 2075 
L 306 2444 
Q 1350 3319 2003 5350 
L 2431 5147 
z
M 6081 1325 
Q 5994 419 5786 114 
Q 5578 -191 5203 -191 
L 3872 -191 
Q 3534 -191 3339 -12 
Q 3144 166 3144 469 
L 3144 5178 
L 3628 5178 
L 3628 2853 
Q 4478 3413 5288 4488 
L 5709 4197 
Q 4800 2984 3628 2272 
L 3628 550 
Q 3628 288 3981 288 
L 5113 288 
Q 5553 288 5581 1503 
L 6081 1325 
z
" transform="scale(0.015625)"/>
       <path id="ArialUnicodeMS-8f6c" d="M 3047 1306 
L 2163 1069 
L 2163 -397 
L 1678 -397 
L 1678 947 
L 575 678 
Q 425 959 341 1147 
Q 819 1203 1678 1416 
L 1678 2150 
L 709 2150 
L 709 2613 
Q 994 3197 1172 3859 
L 469 3859 
L 469 4300 
L 1288 4300 
Q 1400 4688 1509 5288 
L 2003 5172 
L 1806 4300 
L 2894 4300 
L 2894 3859 
L 1684 3859 
Q 1538 3369 1228 2619 
L 1678 2619 
L 1678 3353 
L 2163 3353 
L 2163 2619 
L 3047 2619 
L 3047 2150 
L 2163 2150 
L 2163 1550 
L 3047 1766 
L 3047 1306 
z
M 5984 2753 
L 4109 2753 
Q 3963 2263 3903 2138 
L 5663 2138 
L 5663 1709 
Q 5438 1394 4825 641 
Q 5125 378 5528 -72 
L 5166 -422 
Q 4631 303 3566 909 
L 3872 1241 
L 4422 928 
Q 4850 1434 5019 1672 
L 3384 1672 
L 3384 2088 
Q 3531 2409 3628 2753 
L 2975 2753 
L 2975 3219 
L 3738 3219 
Q 3803 3453 3884 3963 
L 3144 3963 
L 3144 4422 
L 3922 4434 
Q 3975 4722 4006 5281 
L 4513 5184 
L 4434 4428 
L 5663 4428 
L 5663 3963 
L 4391 3963 
Q 4334 3441 4263 3219 
L 5984 3219 
L 5984 2753 
z
" transform="scale(0.015625)"/>
       <path id="ArialUnicodeMS-53d8" d="M 5813 4050 
L 3938 4050 
L 3938 2350 
L 3469 2350 
L 3481 4050 
L 2719 4050 
L 2719 2350 
L 2266 2350 
L 2266 4050 
L 372 4050 
L 372 4494 
L 3009 4494 
Q 2856 4744 2400 5031 
L 2694 5331 
Q 3203 5041 3513 4634 
L 3341 4513 
L 3341 4494 
L 5813 4494 
L 5813 4050 
z
M 1947 3519 
Q 1559 2866 775 2059 
L 416 2425 
Q 1016 2938 1594 3809 
L 1947 3519 
z
M 5838 2484 
L 5409 2209 
Q 5081 2878 4306 3488 
L 4653 3756 
Q 5550 3047 5838 2484 
z
M 5978 78 
L 5691 -366 
Q 5153 -297 4609 -142 
Q 4066 13 3188 481 
Q 2103 -150 519 -378 
Q 438 -222 244 63 
Q 1741 225 2753 775 
Q 2309 1069 1819 1784 
L 1350 1784 
L 1350 2253 
L 4603 2253 
L 4603 1791 
Q 4038 1091 3597 775 
Q 4497 263 5978 78 
z
M 3975 1784 
L 2413 1784 
Q 2641 1425 3188 1044 
Q 3763 1481 3975 1784 
z
" transform="scale(0.015625)"/>
       <path id="ArialUnicodeMS-6e29" d="M 2138 4116 
L 1753 3756 
Q 1431 4325 672 4684 
L 1019 4997 
Q 1838 4634 2138 4116 
z
M 5281 2444 
L 2272 2444 
L 2272 4909 
L 5281 4909 
L 5281 2444 
z
M 4794 3928 
L 4794 4441 
L 2759 4441 
L 2759 3928 
L 4794 3928 
z
M 4794 2913 
L 4794 3463 
L 2759 3463 
L 2759 2913 
L 4794 2913 
z
M 1778 2875 
L 1403 2516 
Q 1028 3053 231 3378 
L 556 3719 
Q 1250 3509 1778 2875 
z
M 1753 2075 
Q 1438 447 716 -391 
L 244 -134 
Q 1013 722 1338 2278 
L 1753 2075 
z
M 6034 -275 
L 1528 -275 
L 1528 191 
L 1947 191 
L 1947 2059 
L 5606 2059 
L 5606 191 
L 6034 191 
L 6034 -275 
z
M 5119 191 
L 5119 1594 
L 4544 1594 
L 4544 191 
L 5119 191 
z
M 4056 191 
L 4056 1594 
L 3488 1594 
L 3488 191 
L 4056 191 
z
M 3003 191 
L 3003 1594 
L 2431 1594 
L 2431 191 
L 3003 191 
z
" transform="scale(0.015625)"/>
       <path id="ArialUnicodeMS-5ea6" d="M 5913 4269 
L 1363 4269 
L 1363 2278 
Q 1363 1144 1180 528 
Q 997 -88 684 -434 
L 294 -147 
Q 669 378 773 940 
Q 878 1503 878 2350 
L 878 4738 
L 3200 4738 
L 3200 5288 
L 3706 5288 
L 3706 4738 
L 5913 4738 
L 5913 4269 
z
M 5778 3194 
L 4728 3194 
L 4728 2303 
L 2350 2303 
L 2350 3194 
L 1472 3194 
L 1472 3659 
L 2350 3659 
L 2350 4147 
L 2828 4147 
L 2828 3659 
L 4244 3659 
L 4244 4147 
L 4728 4147 
L 4728 3659 
L 5778 3659 
L 5778 3194 
z
M 4244 2747 
L 4244 3194 
L 2834 3194 
L 2834 2747 
L 4244 2747 
z
M 6081 72 
L 5819 -397 
Q 4484 -216 3531 263 
Q 2494 -234 1388 -397 
L 1088 44 
Q 2078 134 3034 550 
Q 2509 934 2113 1528 
L 1625 1528 
L 1625 1972 
L 5159 1972 
L 5159 1544 
Q 4819 1025 4044 538 
Q 4963 166 6081 72 
z
M 4544 1528 
L 2700 1528 
Q 3125 1038 3531 781 
Q 4194 1159 4544 1528 
z
" transform="scale(0.015625)"/>
       <path id="DejaVuSans-Oblique-54" d="M 378 4666 
L 4325 4666 
L 4225 4134 
L 2559 4134 
L 1759 0 
L 1125 0 
L 1925 4134 
L 275 4134 
L 378 4666 
z
" transform="scale(0.015625)"/>
       <path id="DejaVuSans-Oblique-67" d="M 3816 3500 
L 3219 434 
Q 3047 -456 2561 -893 
Q 2075 -1331 1253 -1331 
Q 950 -1331 690 -1286 
Q 431 -1241 206 -1147 
L 313 -588 
Q 525 -725 762 -790 
Q 1000 -856 1269 -856 
Q 1816 -856 2167 -557 
Q 2519 -259 2631 300 
L 2681 563 
Q 2441 288 2122 144 
Q 1803 0 1434 0 
Q 903 0 598 351 
Q 294 703 294 1319 
Q 294 1803 478 2267 
Q 663 2731 997 3091 
Q 1219 3328 1514 3456 
Q 1809 3584 2131 3584 
Q 2484 3584 2746 3420 
Q 3009 3256 3138 2956 
L 3238 3500 
L 3816 3500 
z
M 2950 2216 
Q 2950 2641 2750 2872 
Q 2550 3103 2181 3103 
Q 1953 3103 1747 3012 
Q 1541 2922 1394 2759 
Q 1156 2491 1023 2127 
Q 891 1763 891 1375 
Q 891 944 1092 712 
Q 1294 481 1672 481 
Q 2219 481 2584 976 
Q 2950 1472 2950 2216 
z
" transform="scale(0.015625)"/>
       <path id="ArialUnicodeMS-4b" d="M 4256 0 
L 3456 0 
L 1831 2316 
L 1075 1588 
L 1075 0 
L 469 0 
L 469 4581 
L 1075 4581 
L 1075 2309 
L 3353 4581 
L 4172 4581 
L 2253 2725 
L 4256 0 
z
" transform="scale(0.015625)"/>
      </defs>
      <use xlink:href="#ArialUnicodeMS-73bb" transform="translate(0 0.40625)"/>
      <use xlink:href="#ArialUnicodeMS-7483" transform="translate(100 0.40625)"/>
      <use xlink:href="#ArialUnicodeMS-5316" transform="translate(200 0.40625)"/>
      <use xlink:href="#ArialUnicodeMS-8f6c" transform="translate(300 0.40625)"/>
      <use xlink:href="#ArialUnicodeMS-53d8" transform="translate(400 0.40625)"/>
      <use xlink:href="#ArialUnicodeMS-6e29" transform="translate(500 0.40625)"/>
      <use xlink:href="#ArialUnicodeMS-5ea6" transform="translate(600 0.40625)"/>
      <use xlink:href="#ArialUnicodeMS-20" transform="translate(700 0.40625)"/>
      <use xlink:href="#DejaVuSans-Oblique-54" transform="translate(727.783203 0.40625)"/>
      <use xlink:href="#DejaVuSans-Oblique-67" transform="translate(788.867188 -16) scale(0.7)"/>
      <use xlink:href="#ArialUnicodeMS-ff08" transform="translate(836.035156 0.40625)"/>
      <use xlink:href="#ArialUnicodeMS-4b" transform="translate(936.035156 0.40625)"/>
      <use xlink:href="#ArialUnicodeMS-ff09" transform="translate(1002.734375 0.40625)"/>
     </g>
    </g>
   </g>
   <g id="FillBetweenPolyCollection_2">
    <defs>
     <path id="m508a5ac622" d="M 77.323998 -68.293565 
L 77.323998 -51.84 
L 78.891019 -51.84 
L 80.458039 -51.84 
L 82.02506 -51.84 
L 83.59208 -51.84 
L 85.159101 -51.84 
L 86.726121 -51.84 
L 88.293141 -51.84 
L 89.860162 -51.84 
L 91.427182 -51.84 
L 92.994203 -51.84 
L 94.561223 -51.84 
L 96.128244 -51.84 
L 97.695264 -51.84 
L 99.262285 -51.84 
L 100.829305 -51.84 
L 102.396326 -51.84 
L 103.963346 -51.84 
L 105.530367 -51.84 
L 107.097387 -51.84 
L 108.664408 -51.84 
L 110.231428 -51.84 
L 111.798448 -51.84 
L 113.365469 -51.84 
L 114.932489 -51.84 
L 116.49951 -51.84 
L 118.06653 -51.84 
L 119.633551 -51.84 
L 121.200571 -51.84 
L 122.767592 -51.84 
L 124.334612 -51.84 
L 125.901633 -51.84 
L 127.468653 -51.84 
L 129.035674 -51.84 
L 130.602694 -51.84 
L 132.169714 -51.84 
L 133.736735 -51.84 
L 135.303755 -51.84 
L 136.870776 -51.84 
L 138.437796 -51.84 
L 140.004817 -51.84 
L 141.571837 -51.84 
L 143.138858 -51.84 
L 144.705878 -51.84 
L 146.272899 -51.84 
L 147.839919 -51.84 
L 149.40694 -51.84 
L 150.97396 -51.84 
L 152.540981 -51.84 
L 154.108001 -51.84 
L 155.675021 -51.84 
L 157.242042 -51.84 
L 158.809062 -51.84 
L 160.376083 -51.84 
L 161.943103 -51.84 
L 163.510124 -51.84 
L 165.077144 -51.84 
L 166.644165 -51.84 
L 168.211185 -51.84 
L 169.778206 -51.84 
L 171.345226 -51.84 
L 172.912247 -51.84 
L 174.479267 -51.84 
L 176.046288 -51.84 
L 177.613308 -51.84 
L 179.180328 -51.84 
L 180.747349 -51.84 
L 182.314369 -51.84 
L 183.88139 -51.84 
L 185.44841 -51.84 
L 187.015431 -51.84 
L 188.582451 -51.84 
L 190.149472 -51.84 
L 191.716492 -51.84 
L 193.283513 -51.84 
L 194.850533 -51.84 
L 196.417554 -51.84 
L 197.984574 -51.84 
L 199.551594 -51.84 
L 201.118615 -51.84 
L 202.685635 -51.84 
L 204.252656 -51.84 
L 205.819676 -51.84 
L 207.386697 -51.84 
L 208.953717 -51.84 
L 210.520738 -51.84 
L 212.087758 -51.84 
L 213.654779 -51.84 
L 215.221799 -51.84 
L 216.78882 -51.84 
L 218.35584 -51.84 
L 219.922861 -51.84 
L 221.489881 -51.84 
L 223.056901 -51.84 
L 224.623922 -51.84 
L 226.190942 -51.84 
L 227.757963 -51.84 
L 229.324983 -51.84 
L 230.892004 -51.84 
L 232.459024 -51.84 
L 234.026045 -51.84 
L 235.593065 -51.84 
L 237.160086 -51.84 
L 238.727106 -51.84 
L 240.294127 -51.84 
L 241.861147 -51.84 
L 243.428167 -51.84 
L 244.995188 -51.84 
L 246.562208 -51.84 
L 248.129229 -51.84 
L 249.696249 -51.84 
L 251.26327 -51.84 
L 252.83029 -51.84 
L 254.397311 -51.84 
L 255.964331 -51.84 
L 257.531352 -51.84 
L 259.098372 -51.84 
L 260.665393 -51.84 
L 262.232413 -51.84 
L 263.799434 -51.84 
L 265.366454 -51.84 
L 266.933474 -51.84 
L 268.500495 -51.84 
L 270.067515 -51.84 
L 271.634536 -51.84 
L 273.201556 -51.84 
L 274.768577 -51.84 
L 276.335597 -51.84 
L 277.902618 -51.84 
L 279.469638 -51.84 
L 281.036659 -51.84 
L 282.603679 -51.84 
L 284.1707 -51.84 
L 285.73772 -51.84 
L 287.30474 -51.84 
L 288.871761 -51.84 
L 290.438781 -51.84 
L 292.005802 -51.84 
L 293.572822 -51.84 
L 295.139843 -51.84 
L 296.706863 -51.84 
L 298.273884 -51.84 
L 299.840904 -51.84 
L 301.407925 -51.84 
L 302.974945 -51.84 
L 304.541966 -51.84 
L 306.108986 -51.84 
L 307.676007 -51.84 
L 309.243027 -51.84 
L 310.810047 -51.84 
L 312.377068 -51.84 
L 313.944088 -51.84 
L 315.511109 -51.84 
L 317.078129 -51.84 
L 318.64515 -51.84 
L 320.21217 -51.84 
L 321.779191 -51.84 
L 323.346211 -51.84 
L 324.913232 -51.84 
L 326.480252 -51.84 
L 328.047273 -51.84 
L 329.614293 -51.84 
L 331.181313 -51.84 
L 332.748334 -51.84 
L 334.315354 -51.84 
L 335.882375 -51.84 
L 337.449395 -51.84 
L 339.016416 -51.84 
L 340.583436 -51.84 
L 342.150457 -51.84 
L 343.717477 -51.84 
L 345.284498 -51.84 
L 346.851518 -51.84 
L 348.418539 -51.84 
L 349.985559 -51.84 
L 351.55258 -51.84 
L 353.1196 -51.84 
L 354.68662 -51.84 
L 356.253641 -51.84 
L 357.820661 -51.84 
L 359.387682 -51.84 
L 360.954702 -51.84 
L 362.521723 -51.84 
L 364.088743 -51.84 
L 365.655764 -51.84 
L 367.222784 -51.84 
L 368.789805 -51.84 
L 370.356825 -51.84 
L 371.923846 -51.84 
L 373.490866 -51.84 
L 375.057886 -51.84 
L 376.624907 -51.84 
L 378.191927 -51.84 
L 379.758948 -51.84 
L 381.325968 -51.84 
L 382.892989 -51.84 
L 384.460009 -51.84 
L 386.02703 -51.84 
L 387.59405 -51.84 
L 389.161071 -51.84 
L 390.728091 -51.84 
L 390.728091 -150.479123 
L 390.728091 -150.479123 
L 389.161071 -150.476232 
L 387.59405 -150.47324 
L 386.02703 -150.470142 
L 384.460009 -150.466935 
L 382.892989 -150.463616 
L 381.325968 -150.46018 
L 379.758948 -150.456623 
L 378.191927 -150.452941 
L 376.624907 -150.44913 
L 375.057886 -150.445185 
L 373.490866 -150.441101 
L 371.923846 -150.436874 
L 370.356825 -150.432498 
L 368.789805 -150.427969 
L 367.222784 -150.42328 
L 365.655764 -150.418426 
L 364.088743 -150.413402 
L 362.521723 -150.408201 
L 360.954702 -150.402818 
L 359.387682 -150.397245 
L 357.820661 -150.391477 
L 356.253641 -150.385506 
L 354.68662 -150.379325 
L 353.1196 -150.372927 
L 351.55258 -150.366304 
L 349.985559 -150.359448 
L 348.418539 -150.352351 
L 346.851518 -150.345005 
L 345.284498 -150.337401 
L 343.717477 -150.329529 
L 342.150457 -150.321381 
L 340.583436 -150.312946 
L 339.016416 -150.304216 
L 337.449395 -150.295178 
L 335.882375 -150.285823 
L 334.315354 -150.276138 
L 332.748334 -150.266114 
L 331.181313 -150.255737 
L 329.614293 -150.244996 
L 328.047273 -150.233877 
L 326.480252 -150.222368 
L 324.913232 -150.210454 
L 323.346211 -150.198121 
L 321.779191 -150.185355 
L 320.21217 -150.17214 
L 318.64515 -150.158461 
L 317.078129 -150.144301 
L 315.511109 -150.129644 
L 313.944088 -150.114471 
L 312.377068 -150.098765 
L 310.810047 -150.082508 
L 309.243027 -150.065679 
L 307.676007 -150.048258 
L 306.108986 -150.030226 
L 304.541966 -150.011559 
L 302.974945 -149.992237 
L 301.407925 -149.972236 
L 299.840904 -149.951531 
L 298.273884 -149.9301 
L 296.706863 -149.907915 
L 295.139843 -149.88495 
L 293.572822 -149.861179 
L 292.005802 -149.836572 
L 290.438781 -149.8111 
L 288.871761 -149.784733 
L 287.30474 -149.757439 
L 285.73772 -149.729187 
L 284.1707 -149.699941 
L 282.603679 -149.669668 
L 281.036659 -149.638331 
L 279.469638 -149.605893 
L 277.902618 -149.572314 
L 276.335597 -149.537556 
L 274.768577 -149.501576 
L 273.201556 -149.464332 
L 271.634536 -149.425779 
L 270.067515 -149.385871 
L 268.500495 -149.344561 
L 266.933474 -149.301799 
L 265.366454 -149.257534 
L 263.799434 -149.211714 
L 262.232413 -149.164283 
L 260.665393 -149.115186 
L 259.098372 -149.064363 
L 257.531352 -149.011754 
L 255.964331 -148.957297 
L 254.397311 -148.900925 
L 252.83029 -148.842573 
L 251.26327 -148.78217 
L 249.696249 -148.719644 
L 248.129229 -148.654921 
L 246.562208 -148.587924 
L 244.995188 -148.518572 
L 243.428167 -148.446783 
L 241.861147 -148.372471 
L 240.294127 -148.295547 
L 238.727106 -148.215921 
L 237.160086 -148.133496 
L 235.593065 -148.048174 
L 234.026045 -147.959854 
L 232.459024 -147.868431 
L 230.892004 -147.773794 
L 229.324983 -147.675832 
L 227.757963 -147.574427 
L 226.190942 -147.469459 
L 224.623922 -147.360801 
L 223.056901 -147.248326 
L 221.489881 -147.131898 
L 219.922861 -147.011378 
L 218.35584 -146.886622 
L 216.78882 -146.757483 
L 215.221799 -146.623806 
L 213.654779 -146.48543 
L 212.087758 -146.342192 
L 210.520738 -146.19392 
L 208.953717 -146.040438 
L 207.386697 -145.881562 
L 205.819676 -145.717103 
L 204.252656 -145.546864 
L 202.685635 -145.370642 
L 201.118615 -145.188228 
L 199.551594 -144.999404 
L 197.984574 -144.803943 
L 196.417554 -144.601614 
L 194.850533 -144.392175 
L 193.283513 -144.175375 
L 191.716492 -143.950957 
L 190.149472 -143.718652 
L 188.582451 -143.478183 
L 187.015431 -143.229264 
L 185.44841 -142.971597 
L 183.88139 -142.704875 
L 182.314369 -142.42878 
L 180.747349 -142.142982 
L 179.180328 -141.847141 
L 177.613308 -141.540904 
L 176.046288 -141.223904 
L 174.479267 -140.895765 
L 172.912247 -140.556093 
L 171.345226 -140.204486 
L 169.778206 -139.840522 
L 168.211185 -139.463767 
L 166.644165 -139.073772 
L 165.077144 -138.670073 
L 163.510124 -138.252186 
L 161.943103 -137.819614 
L 160.376083 -137.37184 
L 158.809062 -136.908331 
L 157.242042 -136.428532 
L 155.675021 -135.931873 
L 154.108001 -135.41776 
L 152.540981 -134.88558 
L 150.97396 -134.334698 
L 149.40694 -133.764457 
L 147.839919 -133.174176 
L 146.272899 -132.563152 
L 144.705878 -131.930655 
L 143.138858 -131.27593 
L 141.571837 -130.598198 
L 140.004817 -129.896648 
L 138.437796 -129.170444 
L 136.870776 -128.41872 
L 135.303755 -127.640578 
L 133.736735 -126.835091 
L 132.169714 -126.001297 
L 130.602694 -125.138203 
L 129.035674 -124.244777 
L 127.468653 -123.319954 
L 125.901633 -122.362631 
L 124.334612 -121.371665 
L 122.767592 -120.345875 
L 121.200571 -119.284036 
L 119.633551 -118.184882 
L 118.06653 -117.047101 
L 116.49951 -115.869337 
L 114.932489 -114.650183 
L 113.365469 -113.388185 
L 111.798448 -112.081838 
L 110.231428 -110.729583 
L 108.664408 -109.329807 
L 107.097387 -107.88084 
L 105.530367 -106.380953 
L 103.963346 -104.828357 
L 102.396326 -103.221199 
L 100.829305 -101.557562 
L 99.262285 -99.835461 
L 97.695264 -98.052842 
L 96.128244 -96.207578 
L 94.561223 -94.297467 
L 92.994203 -92.320231 
L 91.427182 -90.27351 
L 89.860162 -88.154863 
L 88.293141 -85.961763 
L 86.726121 -83.691592 
L 85.159101 -81.341642 
L 83.59208 -78.90911 
L 82.02506 -76.391094 
L 80.458039 -73.784589 
L 78.891019 -71.086486 
L 77.323998 -68.293565 
z
" style="stroke: #cbe3f3"/>
    </defs>
    <g clip-path="url(#p861519cb72)">
     <use xlink:href="#m508a5ac622" x="0" y="259.2" style="fill: #cbe3f3; stroke: #cbe3f3"/>
    </g>
   </g>
   <g id="patch_3">
    <path d="M 67.2 207.36 
L 67.2 18.144 
" style="fill: none; stroke: #454545; stroke-width: 0.8; stroke-linejoin: miter; stroke-linecap: square"/>
   </g>
   <g id="patch_4">
    <path d="M 67.2 207.36 
L 399 207.36 
" style="fill: none; stroke: #454545; stroke-width: 0.8; stroke-linejoin: miter; stroke-linecap: square"/>
   </g>
   <g id="line2d_38">
    <path d="M 77.323998 157.999304 
L 80.458039 150.311871 
L 83.59208 143.137541 
L 86.726121 136.442067 
L 89.860162 130.193487 
L 92.994203 124.361973 
L 96.128244 118.919687 
L 99.262285 113.84065 
L 102.396326 109.100618 
L 105.530367 104.676962 
L 108.664408 100.548566 
L 111.798448 96.695722 
L 114.932489 93.10004 
L 118.06653 89.744354 
L 121.200571 86.612645 
L 125.901633 82.302613 
L 130.602694 78.416812 
L 135.303755 74.913486 
L 140.004817 71.754989 
L 144.705878 68.907379 
L 149.40694 66.340056 
L 154.108001 64.025431 
L 158.809062 61.938633 
L 163.510124 60.057235 
L 169.778206 57.833566 
L 176.046288 55.89683 
L 182.314369 54.210004 
L 188.582451 52.74084 
L 196.417554 51.168036 
L 204.252656 49.844686 
L 212.087758 48.731227 
L 221.489881 47.625639 
L 232.459024 46.594493 
L 243.428167 45.7848 
L 255.964331 45.07008 
L 271.634536 44.414205 
L 290.438781 43.874756 
L 313.944088 43.450036 
L 343.717477 43.148955 
L 387.59405 42.94776 
L 390.728091 42.939523 
L 390.728091 42.939523 
" clip-path="url(#p861519cb72)" style="fill: none; stroke: #454545; stroke-width: 1.4; stroke-linecap: square"/>
   </g>
   <g id="text_12">
    <!-- 平台 $T_{g,\infty}$ = 400 K -->
    <g style="fill: #252525" transform="translate(89.227436 103.702539) scale(0.11 -0.11)">
     <defs>
      <path id="ArialUnicodeMS-5e73" d="M 5888 1875 
L 3419 1875 
L 3419 -447 
L 2931 -447 
L 2931 1875 
L 453 1875 
L 453 2344 
L 2931 2344 
L 2931 4569 
L 856 4569 
L 856 5038 
L 5453 5038 
L 5453 4569 
L 3419 4569 
L 3419 2344 
L 5888 2344 
L 5888 1875 
z
M 5241 4197 
Q 4981 3381 4134 2522 
L 3700 2803 
Q 4584 3606 4819 4422 
L 5241 4197 
z
M 2528 2753 
L 2081 2509 
Q 1700 3606 953 4153 
L 1428 4384 
Q 2109 3784 2528 2753 
z
" transform="scale(0.015625)"/>
      <path id="ArialUnicodeMS-53f0" d="M 5784 2656 
L 5369 2322 
Q 5228 2594 4928 3016 
L 978 2834 
L 794 3334 
L 1697 3359 
Q 2372 4347 2797 5375 
L 3322 5147 
Q 2744 3988 2272 3372 
L 4575 3463 
Q 4197 3850 3719 4166 
L 4109 4469 
Q 5166 3766 5784 2656 
z
M 5044 -325 
L 4556 -325 
L 4556 159 
L 1791 159 
L 1791 -325 
L 1288 -325 
L 1288 2322 
L 5044 2322 
L 5044 -325 
z
M 4556 628 
L 4556 1856 
L 1791 1856 
L 1791 628 
L 4556 628 
z
" transform="scale(0.015625)"/>
      <path id="DejaVuSans-2c" d="M 750 794 
L 1409 794 
L 1409 256 
L 897 -744 
L 494 -744 
L 750 256 
L 750 794 
z
" transform="scale(0.015625)"/>
      <path id="DejaVuSans-221e" d="M 2916 1091 
Q 2819 1203 2666 1466 
Q 2456 1091 2272 925 
Q 2041 725 1681 725 
Q 1259 725 981 1041 
Q 688 1372 688 1919 
Q 688 2444 981 2800 
Q 1244 3116 1688 3116 
Q 1916 3116 2084 3022 
Q 2281 2919 2416 2741 
Q 2541 2581 2666 2366 
Q 2875 2741 3059 2906 
Q 3291 3106 3650 3106 
Q 4072 3106 4350 2791 
Q 4644 2459 4644 1913 
Q 4644 1388 4350 1031 
Q 4088 716 3644 716 
Q 3416 716 3247 809 
Q 3078 894 2916 1091 
z
M 1647 1134 
Q 2163 1134 2472 1884 
Q 2075 2703 1647 2703 
Q 1334 2703 1175 2478 
Q 1003 2238 1003 1919 
Q 1003 1569 1175 1353 
Q 1350 1134 1647 1134 
z
M 3684 2697 
Q 3219 2697 2859 1947 
Q 3253 1128 3684 1128 
Q 3997 1128 4156 1353 
Q 4328 1594 4328 1913 
Q 4328 2263 4156 2478 
Q 3981 2697 3684 2697 
z
" transform="scale(0.015625)"/>
      <path id="ArialUnicodeMS-3d" d="M 3384 2694 
L 353 2694 
L 353 3219 
L 3384 3219 
L 3384 2694 
z
M 3384 1300 
L 353 1300 
L 353 1825 
L 3384 1825 
L 3384 1300 
z
" transform="scale(0.015625)"/>
     </defs>
     <use xlink:href="#ArialUnicodeMS-5e73" transform="translate(0 0.015625)"/>
     <use xlink:href="#ArialUnicodeMS-53f0" transform="translate(100 0.015625)"/>
     <use xlink:href="#ArialUnicodeMS-20" transform="translate(200 0.015625)"/>
     <use xlink:href="#DejaVuSans-Oblique-54" transform="translate(227.783203 0.015625)"/>
     <use xlink:href="#DejaVuSans-Oblique-67" transform="translate(288.867188 -16.390625) scale(0.7)"/>
     <use xlink:href="#DejaVuSans-2c" transform="translate(333.300781 -16.390625) scale(0.7)"/>
     <use xlink:href="#DejaVuSans-221e" transform="translate(369.189453 -16.390625) scale(0.7)"/>
     <use xlink:href="#ArialUnicodeMS-20" transform="translate(430.234375 0.015625)"/>
     <use xlink:href="#ArialUnicodeMS-3d" transform="translate(458.017578 0.015625)"/>
     <use xlink:href="#ArialUnicodeMS-20" transform="translate(516.416016 0.015625)"/>
     <use xlink:href="#ArialUnicodeMS-34" transform="translate(544.199219 0.015625)"/>
     <use xlink:href="#ArialUnicodeMS-30" transform="translate(599.814453 0.015625)"/>
     <use xlink:href="#ArialUnicodeMS-30" transform="translate(655.429688 0.015625)"/>
     <use xlink:href="#ArialUnicodeMS-20" transform="translate(711.044922 0.015625)"/>
     <use xlink:href="#ArialUnicodeMS-4b" transform="translate(738.828125 0.015625)"/>
    </g>
   </g>
   <g id="patch_5">
    <path d="M 303.628272 129.029671 
Q 264.474718 120.68798 225.321165 112.346289 
" style="fill: none; stroke: #454545; stroke-width: 0.9; stroke-linecap: round"/>
   </g>
   <g id="text_13">
    <!-- $M_n$≈2.5×10⁴ g/mol -->
    <g style="fill: #252525" transform="translate(307.584073 136.368853) scale(0.11 -0.11)">
     <defs>
      <path id="ArialUnicodeMS-2248" d="M 3384 2822 
Q 3047 2491 2572 2491 
Q 2391 2491 1884 2678 
Q 1338 2881 1125 2881 
Q 728 2881 353 2484 
L 353 3059 
Q 681 3406 1172 3406 
Q 1391 3406 1984 3191 
Q 2478 3016 2631 3016 
Q 3047 3016 3384 3413 
L 3384 2822 
z
M 3384 1434 
Q 3047 1100 2572 1100 
Q 2391 1100 1884 1288 
Q 1338 1491 1125 1491 
Q 728 1491 353 1094 
L 353 1672 
Q 681 2016 1172 2016 
Q 1391 2016 1984 1803 
Q 2478 1625 2631 1625 
Q 3047 1625 3384 2022 
L 3384 1434 
z
" transform="scale(0.015625)"/>
      <path id="ArialUnicodeMS-32" d="M 3231 0 
L 197 0 
Q 197 388 467 784 
Q 738 1181 1478 1778 
Q 1931 2141 2287 2539 
Q 2644 2938 2644 3341 
Q 2644 3688 2398 3914 
Q 2153 4141 1778 4141 
Q 1400 4141 1144 3908 
Q 888 3675 884 3213 
L 306 3278 
Q 359 3922 764 4262 
Q 1169 4603 1791 4603 
Q 2466 4603 2842 4229 
Q 3219 3856 3219 3328 
Q 3219 2888 2901 2436 
Q 2584 1984 1638 1228 
Q 1141 831 978 544 
L 3231 544 
L 3231 0 
z
" transform="scale(0.015625)"/>
      <path id="ArialUnicodeMS-2e" d="M 1209 0 
L 569 0 
L 569 641 
L 1209 641 
L 1209 0 
z
" transform="scale(0.015625)"/>
      <path id="ArialUnicodeMS-d7" d="M 3231 1288 
L 2853 903 
L 1869 1888 
L 884 903 
L 506 1281 
L 1491 2259 
L 513 3244 
L 891 3628 
L 1875 2644 
L 2853 3622 
L 3225 3244 
L 2253 2266 
L 3231 1288 
z
" transform="scale(0.015625)"/>
     </defs>
     <use xlink:href="#DejaVuSans-Oblique-4d" transform="translate(0 0.09375)"/>
     <use xlink:href="#DejaVuSans-Oblique-6e" transform="translate(86.279297 -16.3125) scale(0.7)"/>
     <use xlink:href="#ArialUnicodeMS-2248" transform="translate(133.378906 0.09375)"/>
     <use xlink:href="#ArialUnicodeMS-32" transform="translate(191.777344 0.09375)"/>
     <use xlink:href="#ArialUnicodeMS-2e" transform="translate(247.392578 0.09375)"/>
     <use xlink:href="#ArialUnicodeMS-35" transform="translate(275.175781 0.09375)"/>
     <use xlink:href="#ArialUnicodeMS-d7" transform="translate(330.791016 0.09375)"/>
     <use xlink:href="#ArialUnicodeMS-31" transform="translate(389.189453 0.09375)"/>
     <use xlink:href="#ArialUnicodeMS-30" transform="translate(444.804688 0.09375)"/>
     <use xlink:href="#ArialUnicodeMS-2074" transform="translate(500.419922 0.09375)"/>
     <use xlink:href="#ArialUnicodeMS-20" transform="translate(533.720703 0.09375)"/>
     <use xlink:href="#ArialUnicodeMS-67" transform="translate(561.503906 0.09375)"/>
     <use xlink:href="#ArialUnicodeMS-2f" transform="translate(617.119141 0.09375)"/>
     <use xlink:href="#ArialUnicodeMS-6d" transform="translate(644.902344 0.09375)"/>
     <use xlink:href="#ArialUnicodeMS-6f" transform="translate(728.203125 0.09375)"/>
     <use xlink:href="#ArialUnicodeMS-6c" transform="translate(783.818359 0.09375)"/>
    </g>
    <!-- 后进入平台 -->
    <g style="fill: #252525" transform="translate(307.584073 148.127165) scale(0.11 -0.11)">
     <defs>
      <path id="ArialUnicodeMS-540e" d="M 5925 3138 
L 1631 3138 
L 1631 1850 
Q 1631 747 709 -384 
L 281 -56 
Q 1147 881 1147 1869 
L 1147 4666 
Q 3191 4666 5275 5403 
L 5613 5025 
Q 3828 4219 1631 4178 
L 1631 3603 
L 5925 3603 
L 5925 3138 
z
M 5388 -409 
L 4903 -409 
L 4903 97 
L 2644 97 
L 2644 -409 
L 2156 -409 
L 2156 2338 
L 5388 2338 
L 5388 -409 
z
M 4903 563 
L 4903 1869 
L 2644 1869 
L 2644 563 
L 4903 563 
z
" transform="scale(0.015625)"/>
      <path id="ArialUnicodeMS-8fdb" d="M 5766 2291 
L 4728 2291 
L 4728 475 
L 4244 475 
L 4244 2291 
L 3334 2291 
Q 3338 1563 3169 1189 
Q 3000 816 2644 513 
L 2253 856 
Q 2850 1294 2859 2291 
L 1875 2291 
L 1875 2753 
L 2859 2753 
L 2859 3738 
L 2016 3738 
L 2016 4197 
L 2859 4197 
L 2859 5228 
L 3347 5228 
L 3347 4197 
L 4244 4197 
L 4244 5228 
L 4728 5228 
L 4728 4197 
L 5509 4197 
L 5509 3738 
L 4728 3738 
L 4728 2753 
L 5766 2753 
L 5766 2291 
z
M 4244 2753 
L 4244 3738 
L 3347 3738 
L 3347 2753 
L 4244 2753 
z
M 1900 4084 
L 1503 3763 
Q 1106 4491 513 4884 
L 856 5184 
Q 1456 4781 1900 4084 
z
M 5984 372 
L 5806 -122 
L 3181 -122 
Q 2144 -122 1478 616 
Q 1169 197 494 -238 
L 153 103 
Q 819 500 1294 1050 
L 1294 2778 
L 325 2778 
L 325 3238 
L 1753 3238 
L 1753 947 
Q 1959 731 2317 551 
Q 2675 372 2956 337 
Q 3238 303 3981 303 
Q 4609 303 5984 372 
z
" transform="scale(0.015625)"/>
      <path id="ArialUnicodeMS-5165" d="M 5972 184 
L 5663 -238 
Q 3931 872 3406 2478 
Q 2675 722 844 -244 
L 544 178 
Q 1822 844 2483 1855 
Q 3144 2866 3144 3194 
L 3128 4453 
L 1991 4453 
L 1991 4922 
L 3609 4922 
L 3603 4575 
Q 3575 3106 4158 2050 
Q 4741 994 5972 184 
z
" transform="scale(0.015625)"/>
     </defs>
     <use xlink:href="#ArialUnicodeMS-540e"/>
     <use xlink:href="#ArialUnicodeMS-8fdb" transform="translate(100 0)"/>
     <use xlink:href="#ArialUnicodeMS-5165" transform="translate(200 0)"/>
     <use xlink:href="#ArialUnicodeMS-5e73" transform="translate(300 0)"/>
     <use xlink:href="#ArialUnicodeMS-53f0" transform="translate(400 0)"/>
    </g>
   </g>
   <g id="text_14">
    <!-- 较刚链（示意） -->
    <g style="fill: #252525" transform="translate(294.531969 32.952209) scale(0.11 -0.11)">
     <defs>
      <path id="ArialUnicodeMS-8f83" d="M 5869 4031 
L 2669 4031 
L 2669 4494 
L 4072 4494 
Q 3747 4875 3322 5050 
L 3681 5344 
Q 4153 5141 4556 4697 
L 4341 4494 
L 5869 4494 
L 5869 4031 
z
M 2975 1325 
L 2100 1088 
L 2100 -441 
L 1613 -441 
L 1613 984 
L 603 738 
L 347 1153 
Q 1278 1356 1613 1453 
L 1613 2144 
L 609 2144 
L 609 2619 
Q 966 3238 1125 3950 
L 397 3950 
L 397 4409 
L 1228 4409 
Q 1288 4619 1356 5269 
L 1813 5131 
Q 1797 4866 1703 4409 
L 2553 4409 
L 2553 3950 
L 1600 3950 
Q 1466 3294 1131 2606 
L 1613 2606 
L 1613 3438 
L 2100 3438 
L 2100 2606 
L 2675 2606 
L 2675 2144 
L 2100 2144 
L 2100 1569 
L 2975 1806 
L 2975 1325 
z
M 3956 3738 
Q 3653 2953 2881 2456 
L 2522 2841 
Q 3219 3200 3572 3969 
L 3956 3738 
z
M 5919 2753 
L 5538 2450 
Q 5100 3181 4475 3659 
L 4813 3916 
Q 5569 3438 5919 2753 
z
M 6069 -6 
L 5716 -416 
Q 4797 34 4197 738 
Q 3469 -69 2491 -416 
L 2156 13 
Q 3309 391 3897 1131 
Q 3434 1828 3284 2619 
L 3738 2791 
Q 3850 2150 4206 1588 
Q 4531 2131 4666 2847 
L 5106 2638 
Q 5009 1978 4506 1131 
Q 5034 478 6069 -6 
z
" transform="scale(0.015625)"/>
      <path id="ArialUnicodeMS-521a" d="M 5588 97 
Q 5588 -22 5456 -194 
Q 5325 -366 5131 -366 
L 4481 -366 
Q 4438 -206 4319 122 
Q 4913 81 5013 81 
Q 5100 81 5100 391 
L 5100 5313 
L 5588 5313 
L 5588 97 
z
M 3775 422 
Q 3775 88 3711 -45 
Q 3647 -178 3528 -239 
Q 3409 -300 2791 -300 
L 2619 172 
Q 3141 134 3213 134 
Q 3247 134 3269 173 
Q 3291 213 3291 219 
L 3291 4603 
L 1063 4603 
L 1063 1269 
Q 1553 1747 2009 2463 
Q 1775 2972 1119 3866 
L 1516 4134 
Q 1913 3644 2272 2994 
Q 2566 3466 2847 4263 
L 3231 4019 
Q 3119 3781 2912 3264 
Q 2706 2747 2553 2503 
Q 3013 1769 3244 1119 
L 2809 838 
Q 2722 1156 2272 2034 
Q 1775 1263 1253 738 
L 1063 934 
L 1063 -384 
L 575 -384 
L 575 5044 
L 3775 5044 
L 3775 422 
z
M 4709 1094 
L 4225 1094 
L 4225 4206 
L 4709 4206 
L 4709 1094 
z
" transform="scale(0.015625)"/>
      <path id="ArialUnicodeMS-94fe" d="M 5888 1428 
L 4800 1428 
L 4800 325 
L 4313 325 
L 4313 1428 
L 3188 1428 
L 3188 1894 
L 4313 1894 
L 4313 2528 
L 3278 2528 
L 3278 2913 
Q 3619 3653 3719 4078 
L 3188 4084 
L 3188 4569 
L 3841 4556 
Q 3850 4613 3912 4850 
Q 3975 5088 4006 5281 
L 4488 5159 
Q 4400 4766 4331 4556 
L 5753 4569 
L 5753 4084 
L 4206 4084 
Q 4122 3719 3828 2994 
L 4313 2994 
L 4313 3719 
L 4800 3719 
L 4800 2994 
L 5831 2994 
L 5831 2528 
L 4800 2528 
L 4800 1894 
L 5888 1894 
L 5888 1428 
z
M 2419 2975 
L 1522 2975 
L 1522 2309 
L 2356 2309 
L 2356 1844 
L 1522 1844 
L 1522 756 
L 2356 1191 
L 2356 659 
Q 2253 597 1933 439 
Q 1613 281 1438 156 
Q 1263 31 1159 -19 
L 941 441 
Q 1038 538 1038 769 
L 1038 1844 
L 447 1844 
L 447 2309 
L 1038 2309 
L 1038 2975 
L 903 2975 
Q 722 2681 581 2547 
L 206 2841 
Q 988 3722 1197 5241 
L 1672 5044 
Q 1619 4578 1497 4331 
L 2322 4331 
L 2322 3866 
L 1363 3866 
Q 1244 3544 1178 3444 
L 2419 3444 
L 2419 2975 
z
M 3225 3706 
L 2816 3506 
Q 2550 4272 2209 4616 
L 2584 4813 
Q 3016 4291 3225 3706 
z
M 6034 244 
L 5875 -269 
L 4494 -269 
Q 3375 -269 2875 319 
Q 2591 22 2106 -359 
L 1772 78 
Q 2491 603 2553 672 
L 2553 2425 
L 2016 2425 
L 2016 2894 
L 3041 2894 
L 3041 788 
Q 3341 391 3675 294 
Q 4009 197 4659 197 
L 5478 197 
Q 5694 197 6034 244 
z
" transform="scale(0.015625)"/>
      <path id="ArialUnicodeMS-793a" d="M 5253 4378 
L 1269 4378 
L 1269 4844 
L 5253 4844 
L 5253 4378 
z
M 5663 2988 
L 3525 2988 
L 3525 72 
Q 3525 -188 3342 -311 
Q 3159 -434 2876 -425 
Q 2594 -416 2259 -422 
L 2069 128 
Q 2475 81 2756 81 
Q 3022 81 3022 275 
L 3022 2988 
L 831 2988 
L 831 3456 
L 5663 3456 
L 5663 2988 
z
M 2369 2344 
Q 1934 1300 922 366 
L 581 716 
Q 984 1047 1406 1620 
Q 1828 2194 1959 2613 
L 2369 2344 
z
M 5966 697 
L 5569 366 
Q 4938 1575 4019 2253 
L 4397 2584 
Q 5231 2019 5966 697 
z
" transform="scale(0.015625)"/>
      <path id="ArialUnicodeMS-610f" d="M 5875 3278 
L 531 3278 
L 531 3744 
L 2247 3744 
Q 1875 4191 1819 4225 
L 2003 4341 
L 959 4341 
L 959 4806 
L 2956 4806 
L 2956 5375 
L 3444 5375 
L 3444 4806 
L 5441 4806 
L 5441 4341 
L 4422 4341 
L 4531 4263 
Q 4403 3984 4172 3744 
L 5875 3744 
L 5875 3278 
z
M 4000 4341 
L 2356 4341 
Q 2619 4113 2778 3744 
L 3584 3744 
Q 3863 3994 4000 4341 
z
M 5006 1222 
L 3244 1222 
Q 3597 1084 3903 738 
L 3525 416 
Q 3291 769 2675 1025 
L 2888 1222 
L 1403 1222 
L 1403 3028 
L 5006 3028 
L 5006 1222 
z
M 4525 2363 
L 4525 2584 
L 1881 2584 
L 1881 2363 
L 4525 2363 
z
M 4525 1691 
L 4525 1966 
L 1881 1966 
L 1881 1691 
L 4525 1691 
z
M 6138 153 
L 5772 -191 
Q 5372 419 4709 678 
L 5094 1006 
Q 5622 822 6138 153 
z
M 1806 653 
Q 1369 122 550 -178 
L 275 256 
Q 1081 459 1478 978 
L 1806 653 
z
M 4647 494 
Q 4525 28 4365 -139 
Q 4206 -306 3853 -306 
L 2503 -306 
Q 2009 -250 2009 372 
L 2009 884 
L 2491 884 
L 2491 341 
Q 2491 159 2650 159 
L 3891 159 
Q 4031 159 4097 366 
L 4191 672 
L 4647 494 
z
" transform="scale(0.015625)"/>
     </defs>
     <use xlink:href="#ArialUnicodeMS-8f83"/>
     <use xlink:href="#ArialUnicodeMS-521a" transform="translate(100 0)"/>
     <use xlink:href="#ArialUnicodeMS-94fe" transform="translate(200 0)"/>
     <use xlink:href="#ArialUnicodeMS-ff08" transform="translate(300 0)"/>
     <use xlink:href="#ArialUnicodeMS-793a" transform="translate(400 0)"/>
     <use xlink:href="#ArialUnicodeMS-610f" transform="translate(500 0)"/>
     <use xlink:href="#ArialUnicodeMS-ff09" transform="translate(600 0)"/>
    </g>
   </g>
   <g id="text_15">
    <!-- 基准链 -->
    <g style="fill: #252525" transform="translate(87.447996 172.807513) scale(0.11 -0.11)">
     <defs>
      <path id="ArialUnicodeMS-57fa" d="M 6272 1063 
L 5984 622 
Q 5247 847 4744 1147 
L 4738 744 
L 3450 744 
L 3450 281 
L 5831 281 
L 5831 -178 
L 666 -178 
L 666 281 
L 2963 281 
L 2963 744 
L 1759 744 
L 1759 1106 
Q 1269 772 544 563 
L 231 1006 
Q 1356 1247 1863 1778 
L 603 1778 
L 603 2241 
L 1613 2241 
L 1613 4341 
L 722 4341 
L 722 4775 
L 1613 4775 
L 1613 5306 
L 2100 5306 
L 2100 4775 
L 4313 4775 
L 4313 5325 
L 4800 5325 
L 4800 4775 
L 5691 4775 
L 5691 4341 
L 4800 4341 
L 4800 2241 
L 5831 2241 
L 5831 1778 
L 4628 1778 
Q 5178 1247 6272 1063 
z
M 4313 3950 
L 4313 4341 
L 2100 4341 
L 2100 3950 
L 4313 3950 
z
M 4313 3103 
L 4313 3513 
L 2100 3513 
L 2100 3103 
L 4313 3103 
z
M 4313 2241 
L 4313 2669 
L 2100 2669 
L 2100 2241 
L 4313 2241 
z
M 4697 1178 
Q 4294 1444 4072 1778 
L 2413 1778 
Q 2194 1425 1850 1178 
L 2963 1178 
L 2963 1650 
L 3450 1650 
L 3450 1178 
L 4697 1178 
z
" transform="scale(0.015625)"/>
      <path id="ArialUnicodeMS-51c6" d="M 6081 56 
L 2944 56 
L 2944 -416 
L 2450 -416 
L 2450 3181 
Q 2297 2922 2028 2638 
L 1538 2859 
Q 2488 3813 2900 5344 
L 3353 5172 
Q 3178 4503 3028 4197 
L 4072 4197 
Q 4394 4750 4500 5338 
L 4972 5172 
Q 4900 4766 4641 4197 
L 5869 4197 
L 5869 3731 
L 4563 3731 
L 4563 3034 
L 5672 3034 
L 5672 2566 
L 4563 2566 
L 4563 1813 
L 5672 1813 
L 5672 1344 
L 4563 1344 
L 4563 525 
L 6081 525 
L 6081 56 
z
M 4078 3034 
L 4078 3731 
L 2944 3731 
L 2944 3034 
L 4078 3034 
z
M 4078 1813 
L 4078 2566 
L 2944 2566 
L 2944 1813 
L 4078 1813 
z
M 4078 525 
L 4078 1344 
L 2944 1344 
L 2944 525 
L 4078 525 
z
M 1931 3878 
L 1503 3603 
Q 1103 4347 581 4684 
L 1025 4947 
Q 1456 4669 1931 3878 
z
M 1825 2413 
Q 1728 1144 825 -97 
L 366 172 
Q 1266 1400 1331 2572 
L 1825 2413 
z
" transform="scale(0.015625)"/>
     </defs>
     <use xlink:href="#ArialUnicodeMS-57fa"/>
     <use xlink:href="#ArialUnicodeMS-51c6" transform="translate(100 0)"/>
     <use xlink:href="#ArialUnicodeMS-94fe" transform="translate(200 0)"/>
    </g>
   </g>
   <g id="text_16">
    <!-- 示意参数（非拟合） -->
    <g style="fill: #252525" transform="translate(293.364 182.5432) scale(0.11 -0.11)">
     <defs>
      <path id="ArialUnicodeMS-53c2" d="M 6209 2028 
L 5900 1588 
Q 4266 1959 3347 3034 
L 2881 3034 
Q 2119 2103 434 1478 
L 116 1894 
Q 1394 2225 2259 3034 
L 459 3034 
L 459 3500 
L 2644 3500 
Q 2809 3663 2906 3884 
L 1131 3841 
L 991 4313 
L 1672 4306 
Q 2172 4644 2822 5428 
L 3250 5178 
Q 2769 4638 2303 4294 
L 4269 4313 
Q 4191 4391 3706 4703 
L 4025 5006 
Q 4903 4497 5369 3859 
L 4928 3572 
Q 4841 3719 4634 3922 
L 3194 3878 
L 3194 3866 
L 3419 3744 
Q 3350 3638 3225 3500 
L 5888 3500 
L 5888 3034 
L 3956 3034 
Q 4688 2363 6209 2028 
z
M 3628 2419 
Q 2878 1494 1350 1119 
L 1063 1509 
Q 1925 1700 2381 1958 
Q 2838 2216 3297 2706 
L 3628 2419 
z
M 4319 1947 
Q 3516 816 1434 366 
L 1147 794 
Q 3072 1159 3969 2209 
L 4319 1947 
z
M 5125 1516 
Q 3713 -253 1006 -475 
L 738 -13 
Q 3397 141 4763 1791 
L 5125 1516 
z
" transform="scale(0.015625)"/>
      <path id="ArialUnicodeMS-975e" d="M 6041 1069 
L 4206 1069 
L 4206 -416 
L 3700 -416 
L 3700 5288 
L 4206 5288 
L 4206 4250 
L 5900 4250 
L 5900 3788 
L 4206 3788 
L 4206 2881 
L 5672 2881 
L 5672 2413 
L 4206 2413 
L 4206 1538 
L 6041 1538 
L 6041 1069 
z
M 3272 1491 
L 2894 1416 
Q 2781 88 984 -397 
L 684 56 
Q 2103 306 2356 1300 
L 544 928 
L 313 1416 
L 2394 1784 
L 2394 2456 
L 856 2456 
L 856 2925 
L 2394 2925 
L 2394 3769 
L 678 3769 
L 678 4238 
L 2400 4238 
L 2400 5288 
L 2906 5288 
L 2906 1888 
L 3272 1966 
L 3272 1491 
z
" transform="scale(0.015625)"/>
      <path id="ArialUnicodeMS-62df" d="M 5997 281 
L 5613 -6 
Q 5219 828 4750 1203 
Q 4222 241 2900 -359 
L 2597 31 
Q 3203 297 3689 686 
Q 4175 1075 4404 1548 
Q 4634 2022 4634 2706 
L 4634 5313 
L 5094 5313 
L 5094 2753 
Q 5094 2109 4941 1625 
Q 5600 1128 5997 281 
z
M 2247 2444 
L 1606 2069 
L 1606 141 
Q 1606 -94 1512 -233 
Q 1419 -372 1209 -381 
Q 1000 -391 581 -391 
L 441 91 
Q 809 63 1063 63 
Q 1119 63 1119 178 
L 1119 1759 
L 556 1422 
L 263 1888 
Q 728 2091 1119 2322 
L 1119 3609 
L 397 3609 
L 397 4078 
L 1119 4078 
L 1119 5281 
L 1606 5281 
L 1606 4078 
L 2209 4078 
L 2209 3609 
L 1606 3609 
L 1606 2584 
Q 2038 2850 2247 2994 
L 2247 2444 
z
M 4300 3547 
L 3872 3263 
Q 3478 4356 2925 4703 
L 3334 4959 
Q 4034 4428 4300 3547 
z
M 4153 1478 
L 2559 475 
L 2272 891 
Q 2325 928 2348 1020 
Q 2372 1113 2394 1147 
L 2394 4575 
L 2881 4575 
L 2881 1241 
L 4153 2016 
L 4153 1478 
z
" transform="scale(0.015625)"/>
      <path id="ArialUnicodeMS-5408" d="M 6119 2925 
L 5797 2497 
Q 5525 2603 5015 2934 
Q 4506 3266 4200 3555 
Q 3894 3844 3200 4659 
Q 2319 3578 603 2419 
L 256 2803 
Q 2228 4103 3175 5497 
L 3647 5178 
L 3450 4978 
Q 3994 4306 4803 3698 
Q 5613 3091 6119 2925 
z
M 4691 2597 
L 1638 2597 
L 1638 3084 
L 4691 3084 
L 4691 2597 
z
M 5063 -434 
L 4556 -434 
L 4556 -38 
L 1838 -38 
L 1838 -469 
L 1331 -469 
L 1331 1906 
L 5063 1906 
L 5063 -434 
z
M 4556 447 
L 4556 1441 
L 1838 1441 
L 1838 447 
L 4556 447 
z
" transform="scale(0.015625)"/>
     </defs>
     <use xlink:href="#ArialUnicodeMS-793a"/>
     <use xlink:href="#ArialUnicodeMS-610f" transform="translate(100 0)"/>
     <use xlink:href="#ArialUnicodeMS-53c2" transform="translate(200 0)"/>
     <use xlink:href="#ArialUnicodeMS-6570" transform="translate(300 0)"/>
     <use xlink:href="#ArialUnicodeMS-ff08" transform="translate(400 0)"/>
     <use xlink:href="#ArialUnicodeMS-975e" transform="translate(500 0)"/>
     <use xlink:href="#ArialUnicodeMS-62df" transform="translate(600 0)"/>
     <use xlink:href="#ArialUnicodeMS-5408" transform="translate(700 0)"/>
     <use xlink:href="#ArialUnicodeMS-ff09" transform="translate(800 0)"/>
    </g>
    <!-- $T_{g,\infty}$=400 K，$K$=10⁵ K·g/mol -->
    <g style="fill: #252525" transform="translate(253.984 194.4892) scale(0.11 -0.11)">
     <defs>
      <path id="ArialUnicodeMS-ff0c" d="M 3544 0 
Q 3544 -397 3392 -606 
Q 3241 -816 3019 -903 
L 2866 -666 
Q 3216 -516 3219 0 
L 2903 0 
L 2903 641 
L 3544 641 
L 3544 0 
z
" transform="scale(0.015625)"/>
      <path id="DejaVuSans-Oblique-4b" d="M 1081 4666 
L 1716 4666 
L 1331 2700 
L 3781 4666 
L 4622 4666 
L 1850 2438 
L 3878 0 
L 3109 0 
L 1247 2272 
L 806 0 
L 172 0 
L 1081 4666 
z
" transform="scale(0.015625)"/>
      <path id="ArialUnicodeMS-b7" d="M 1209 1931 
L 569 1931 
L 569 2572 
L 1209 2572 
L 1209 1931 
z
" transform="scale(0.015625)"/>
     </defs>
     <use xlink:href="#DejaVuSans-Oblique-54" transform="translate(0 0.09375)"/>
     <use xlink:href="#DejaVuSans-Oblique-67" transform="translate(61.083984 -16.3125) scale(0.7)"/>
     <use xlink:href="#DejaVuSans-2c" transform="translate(105.517578 -16.3125) scale(0.7)"/>
     <use xlink:href="#DejaVuSans-221e" transform="translate(141.40625 -16.3125) scale(0.7)"/>
     <use xlink:href="#ArialUnicodeMS-3d" transform="translate(202.451172 0.09375)"/>
     <use xlink:href="#ArialUnicodeMS-34" transform="translate(260.849609 0.09375)"/>
     <use xlink:href="#ArialUnicodeMS-30" transform="translate(316.464844 0.09375)"/>
     <use xlink:href="#ArialUnicodeMS-30" transform="translate(372.080078 0.09375)"/>
     <use xlink:href="#ArialUnicodeMS-20" transform="translate(427.695312 0.09375)"/>
     <use xlink:href="#ArialUnicodeMS-4b" transform="translate(455.478516 0.09375)"/>
     <use xlink:href="#ArialUnicodeMS-ff0c" transform="translate(522.177734 0.09375)"/>
     <use xlink:href="#DejaVuSans-Oblique-4b" transform="translate(622.177734 0.09375)"/>
     <use xlink:href="#ArialUnicodeMS-3d" transform="translate(687.753906 0.09375)"/>
     <use xlink:href="#ArialUnicodeMS-31" transform="translate(746.152344 0.09375)"/>
     <use xlink:href="#ArialUnicodeMS-30" transform="translate(801.767578 0.09375)"/>
     <use xlink:href="#ArialUnicodeMS-2075" transform="translate(857.382812 0.09375)"/>
     <use xlink:href="#ArialUnicodeMS-20" transform="translate(890.683594 0.09375)"/>
     <use xlink:href="#ArialUnicodeMS-4b" transform="translate(918.466797 0.09375)"/>
     <use xlink:href="#ArialUnicodeMS-b7" transform="translate(985.166016 0.09375)"/>
     <use xlink:href="#ArialUnicodeMS-67" transform="translate(1012.949219 0.09375)"/>
     <use xlink:href="#ArialUnicodeMS-2f" transform="translate(1068.564453 0.09375)"/>
     <use xlink:href="#ArialUnicodeMS-6d" transform="translate(1096.347656 0.09375)"/>
     <use xlink:href="#ArialUnicodeMS-6f" transform="translate(1179.648438 0.09375)"/>
     <use xlink:href="#ArialUnicodeMS-6c" transform="translate(1235.263672 0.09375)"/>
    </g>
   </g>
   <g id="line2d_39">
    <path d="M 77.323998 190.906435 
L 80.458039 185.415411 
L 83.59208 180.29089 
L 86.726121 175.508408 
L 89.860162 171.045137 
L 92.994203 166.879769 
L 96.128244 162.992422 
L 99.262285 159.364539 
L 102.396326 155.978801 
L 105.530367 152.819047 
L 110.231428 148.470417 
L 114.932489 144.549817 
L 119.633551 141.015118 
L 124.334612 137.828335 
L 129.035674 134.955223 
L 133.736735 132.364909 
L 138.437796 130.029556 
L 143.138858 127.92407 
L 147.839919 126.025824 
L 154.108001 123.78224 
L 160.376083 121.82816 
L 166.644165 120.126228 
L 172.912247 118.643907 
L 180.747349 117.057018 
L 188.582451 115.721817 
L 196.417554 114.598386 
L 205.819676 113.482897 
L 216.78882 112.442517 
L 227.757963 111.625573 
L 240.294127 110.904453 
L 255.964331 110.242703 
L 274.768577 109.698424 
L 296.706863 109.292085 
L 326.480252 108.977632 
L 368.789805 108.772031 
L 390.728091 108.720877 
L 390.728091 108.720877 
" clip-path="url(#p861519cb72)" style="fill: none; stroke: #454545; stroke-width: 1.6; stroke-linecap: square"/>
   </g>
   <g id="line2d_40">
    <defs>
     <path id="mbfd8a5ad68" d="M 0 2.5 
C 0.663008 2.5 1.29895 2.236584 1.767767 1.767767 
C 2.236584 1.29895 2.5 0.663008 2.5 0 
C 2.5 -0.663008 2.236584 -1.29895 1.767767 -1.767767 
C 1.29895 -2.236584 0.663008 -2.5 0 -2.5 
C -0.663008 -2.5 -1.29895 -2.236584 -1.767767 -1.767767 
C -2.236584 -1.29895 -2.5 -0.663008 -2.5 0 
C -2.5 0.663008 -2.236584 1.29895 -1.767767 1.767767 
C -1.29895 2.236584 -0.663008 2.5 0 2.5 
z
" style="stroke: #454545; stroke-width: 1.2"/>
    </defs>
    <g clip-path="url(#p861519cb72)">
     <use xlink:href="#mbfd8a5ad68" x="77.323998" y="190.906435" style="fill: #ffffff; stroke: #454545; stroke-width: 1.2"/>
     <use xlink:href="#mbfd8a5ad68" x="181.792029" y="116.865391" style="fill: #ffffff; stroke: #454545; stroke-width: 1.2"/>
     <use xlink:href="#mbfd8a5ad68" x="286.26006" y="109.461287" style="fill: #ffffff; stroke: #454545; stroke-width: 1.2"/>
    </g>
   </g>
   <g id="line2d_41">
    <path d="M 223.364038 111.929322 
" clip-path="url(#p861519cb72)" style="fill: none; stroke: #ff7f0e; stroke-width: 1.5; stroke-linecap: square"/>
    <defs>
     <path id="m46b6720a55" d="M 0 3.5 
C 0.928211 3.5 1.81853 3.131218 2.474874 2.474874 
C 3.131218 1.81853 3.5 0.928211 3.5 0 
C 3.5 -0.928211 3.131218 -1.81853 2.474874 -2.474874 
C 1.81853 -3.131218 0.928211 -3.5 0 -3.5 
C -0.928211 -3.5 -1.81853 -3.131218 -2.474874 -2.474874 
C -3.131218 -1.81853 -3.5 -0.928211 -3.5 0 
C -3.5 0.928211 -3.131218 1.81853 -2.474874 2.474874 
C -1.81853 3.131218 -0.928211 3.5 0 3.5 
z
" style="stroke: #454545"/>
    </defs>
    <g clip-path="url(#p861519cb72)">
     <use xlink:href="#m46b6720a55" x="223.364038" y="111.929322" style="fill: #f9dec0; stroke: #454545"/>
    </g>
   </g>
  </g>
  <g id="patch_6">
   <path d="M 381.06 19.44 
L 413.04 19.44 
Q 416.4 19.44 416.4 17.3664 
L 416.4 5.6736 
Q 416.4 3.6 413.04 3.6 
L 381.06 3.6 
Q 377.7 3.6 377.7 5.6736 
L 377.7 17.3664 
Q 377.7 19.44 381.06 19.44 
z
" style="fill: #eeeeee; stroke: #454545; stroke-width: 0.9; stroke-linejoin: miter"/>
  </g>
  <g id="text_17">
   <!-- 示意图 -->
   <g style="fill: #252525" transform="translate(380.55 14.361094) scale(0.11 -0.11)">
    <defs>
     <path id="ArialUnicodeMS-56fe" d="M 5544 -422 
L 5056 -422 
L 5056 19 
L 1184 19 
L 1184 -422 
L 703 -422 
L 703 5019 
L 5544 5019 
L 5544 -422 
z
M 5056 2400 
L 5056 4550 
L 2625 4550 
L 2625 4538 
L 2906 4416 
Q 2863 4322 2778 4178 
L 4513 4178 
L 4513 3781 
Q 4203 3203 3675 2778 
Q 4228 2456 5056 2400 
z
M 5056 459 
L 5056 2163 
L 5044 2163 
L 4831 1850 
Q 4013 1963 3188 2463 
Q 2713 2188 1516 1900 
L 1281 2388 
Q 2341 2584 2784 2834 
Q 2544 3022 2259 3413 
Q 1941 3031 1575 2869 
L 1253 3297 
Q 2072 3656 2419 4550 
L 1191 4550 
L 1191 459 
L 3231 459 
Q 2769 950 2125 1228 
L 2400 1606 
Q 3019 1372 3694 716 
L 3488 459 
L 5056 459 
z
M 3994 1491 
L 3628 1131 
Q 3197 1638 2613 1906 
L 2963 2241 
Q 3434 2072 3994 1491 
z
M 3903 3713 
L 2584 3713 
Q 2709 3513 3250 3053 
Q 3647 3328 3903 3713 
z
" transform="scale(0.015625)"/>
    </defs>
    <use xlink:href="#ArialUnicodeMS-793a"/>
    <use xlink:href="#ArialUnicodeMS-610f" transform="translate(100 0)"/>
    <use xlink:href="#ArialUnicodeMS-56fe" transform="translate(200 0)"/>
   </g>
  </g>
 </g>
 <defs>
  <clipPath id="p861519cb72">
   <rect x="67.2" y="18.144" width="331.8" height="189.216"/>
  </clipPath>
 </defs>
</svg>
