<?xml version="1.0" encoding="utf-8" standalone="no"?>
<!DOCTYPE svg PUBLIC "-//W3C//DTD SVG 1.1//EN"
  "http://www.w3.org/Graphics/SVG/1.1/DTD/svg11.dtd">
<svg xmlns:xlink="http://www.w3.org/1999/xlink" width="420pt" height="259.2pt" viewBox="0 0 420 259.2" xmlns="http://www.w3.org/2000/svg" version="1.1">
 <metadata>
  <rdf:RDF xmlns:dc="http://purl.org/dc/elements/1.1/" xmlns:cc="http://creativecommons.org/ns#" xmlns:rdf="http://www.w3.org/1999/02/22-rdf-syntax-ns#">
   <cc:Work>
    <dc:type rdf:resource="http://purl.org/dc/dcmitype/StillImage"/>
    <dc:date>2026-09-17T22:00:17.990361</dc:date>
    <dc:format>image/svg+xml</dc:format>
    <dc:creator>
     <cc:Agent>
      <dc:title>Matplotlib v3.10.9, https://matplotlib.org/</dc:title>
     </cc:Agent>
    </dc:creator>
   </cc:Work>
  </rdf:RDF>
 </metadata>
 <defs>
  <style type="text/css">*{stroke-linejoin: round; stroke-linecap: butt}</style>
 </defs>
 <g id="figure_1">
  <g id="patch_1">
   <path d="M 0 259.2 
L 420 259.2 
L 420 0 
L 0 0 
z
" style="fill: #ffffff"/>
  </g>
  <g id="axes_1">
   <g id="patch_2">
    <path d="M 126 202.176 
L 399 202.176 
L 399 18.144 
L 126 18.144 
z
" style="fill: #ffffff"/>
   </g>
   <g id="patch_3">
    <path d="M -49717.702066 74.30961 
L 160.621695 74.30961 
L 160.621695 26.509091 
L -49717.702066 26.509091 
z
" clip-path="url(#p8cba358f3a)" style="fill: #cfe8db; stroke: #454545; stroke-width: 0.9; stroke-linejoin: miter"/>
   </g>
   <g id="patch_4">
    <path d="M -49717.702066 134.06026 
L 276.962824 134.06026 
L 276.962824 86.25974 
L -49717.702066 86.25974 
z
" clip-path="url(#p8cba358f3a)" style="fill: #f9dec0; stroke: #454545; stroke-width: 0.9; stroke-linejoin: miter"/>
   </g>
   <g id="patch_5">
    <path d="M -49717.702066 193.810909 
L 313.866107 193.810909 
L 313.866107 146.01039 
L -49717.702066 146.01039 
z
" clip-path="url(#p8cba358f3a)" style="fill: #ddcde8; stroke: #454545; stroke-width: 0.9; stroke-linejoin: miter"/>
   </g>
   <g id="matplotlib.axis_1">
    <g id="xtick_1">
     <g id="line2d_1">
      <defs>
       <path id="m6a5f54ac27" d="M 0 0 
L 0 3.5 
" style="stroke: #252525; stroke-width: 0.8"/>
      </defs>
      <g>
       <use xlink:href="#m6a5f54ac27" x="126" y="202.176" style="fill: #252525; stroke: #252525; stroke-width: 0.8"/>
      </g>
     </g>
     <g id="text_1">
      <!-- $\mathdefault{10^{0}}$ -->
      <g style="fill: #252525" transform="translate(117.53 217.049594) scale(0.11 -0.11)">
       <defs>
        <path id="ArialUnicodeMS-31" d="M 2400 0 
L 1838 0 
L 1838 3584 
Q 1416 3184 709 2906 
L 709 3450 
Q 1681 3916 2034 4603 
L 2400 4603 
L 2400 0 
z
" transform="scale(0.015625)"/>
        <path id="ArialUnicodeMS-30" d="M 1778 4603 
Q 3272 4603 3272 2259 
Q 3272 1075 2886 498 
Q 2500 -78 1778 -78 
Q 288 -78 288 2259 
Q 288 3444 673 4023 
Q 1059 4603 1778 4603 
z
M 1778 384 
Q 2231 384 2462 823 
Q 2694 1263 2694 2259 
Q 2694 2953 2592 3351 
Q 2491 3750 2286 3945 
Q 2081 4141 1772 4141 
Q 1319 4141 1091 3694 
Q 863 3247 863 2259 
Q 863 1575 966 1175 
Q 1069 775 1272 579 
Q 1475 384 1778 384 
z
" transform="scale(0.015625)"/>
       </defs>
       <use xlink:href="#ArialUnicodeMS-31" transform="translate(0 0.385938)"/>
       <use xlink:href="#ArialUnicodeMS-30" transform="translate(55.615234 0.385938)"/>
       <use xlink:href="#ArialUnicodeMS-30" transform="translate(112.137187 36.654688) scale(0.7)"/>
      </g>
     </g>
    </g>
    <g id="xtick_2">
     <g id="line2d_2">
      <g>
       <use xlink:href="#m6a5f54ac27" x="175.843702" y="202.176" style="fill: #252525; stroke: #252525; stroke-width: 0.8"/>
      </g>
     </g>
     <g id="text_2">
      <!-- $\mathdefault{10^{1}}$ -->
      <g style="fill: #252525" transform="translate(167.373702 217.049594) scale(0.11 -0.11)">
       <use xlink:href="#ArialUnicodeMS-31" transform="translate(0 0.385938)"/>
       <use xlink:href="#ArialUnicodeMS-30" transform="translate(55.615234 0.385938)"/>
       <use xlink:href="#ArialUnicodeMS-31" transform="translate(112.137187 36.654688) scale(0.7)"/>
      </g>
     </g>
    </g>
    <g id="xtick_3">
     <g id="line2d_3">
      <g>
       <use xlink:href="#m6a5f54ac27" x="225.687404" y="202.176" style="fill: #252525; stroke: #252525; stroke-width: 0.8"/>
      </g>
     </g>
     <g id="text_3">
      <!-- $\mathdefault{10^{2}}$ -->
      <g style="fill: #252525" transform="translate(217.217404 217.049594) scale(0.11 -0.11)">
       <defs>
        <path id="ArialUnicodeMS-32" d="M 3231 0 
L 197 0 
Q 197 388 467 784 
Q 738 1181 1478 1778 
Q 1931 2141 2287 2539 
Q 2644 2938 2644 3341 
Q 2644 3688 2398 3914 
Q 2153 4141 1778 4141 
Q 1400 4141 1144 3908 
Q 888 3675 884 3213 
L 306 3278 
Q 359 3922 764 4262 
Q 1169 4603 1791 4603 
Q 2466 4603 2842 4229 
Q 3219 3856 3219 3328 
Q 3219 2888 2901 2436 
Q 2584 1984 1638 1228 
Q 1141 831 978 544 
L 3231 544 
L 3231 0 
z
" transform="scale(0.015625)"/>
       </defs>
       <use xlink:href="#ArialUnicodeMS-31" transform="translate(0 0.385938)"/>
       <use xlink:href="#ArialUnicodeMS-30" transform="translate(55.615234 0.385938)"/>
       <use xlink:href="#ArialUnicodeMS-32" transform="translate(112.137187 36.654688) scale(0.7)"/>
      </g>
     </g>
    </g>
    <g id="xtick_4">
     <g id="line2d_4">
      <g>
       <use xlink:href="#m6a5f54ac27" x="275.531106" y="202.176" style="fill: #252525; stroke: #252525; stroke-width: 0.8"/>
      </g>
     </g>
     <g id="text_4">
      <!-- $\mathdefault{10^{3}}$ -->
      <g style="fill: #252525" transform="translate(267.061106 217.049594) scale(0.11 -0.11)">
       <defs>
        <path id="ArialUnicodeMS-33" d="M 2425 2478 
Q 2850 2397 3067 2067 
Q 3284 1738 3284 1350 
Q 3284 725 2829 323 
Q 2375 -78 1741 -78 
Q 1134 -78 740 275 
Q 347 628 281 1209 
L 844 1288 
Q 928 834 1151 609 
Q 1375 384 1741 384 
Q 2134 384 2407 661 
Q 2681 938 2681 1338 
Q 2681 1722 2432 1975 
Q 2184 2228 1784 2228 
Q 1622 2228 1388 2169 
L 1453 2663 
Q 1678 2663 1809 2684 
Q 1941 2706 2103 2790 
Q 2266 2875 2372 3033 
Q 2478 3191 2478 3425 
Q 2478 3766 2251 3953 
Q 2025 4141 1728 4141 
Q 1388 4141 1173 3925 
Q 959 3709 903 3309 
L 341 3413 
Q 450 4009 823 4306 
Q 1197 4603 1716 4603 
Q 2288 4603 2670 4258 
Q 3053 3913 3053 3413 
Q 3053 2772 2425 2491 
L 2425 2478 
z
" transform="scale(0.015625)"/>
       </defs>
       <use xlink:href="#ArialUnicodeMS-31" transform="translate(0 0.385938)"/>
       <use xlink:href="#ArialUnicodeMS-30" transform="translate(55.615234 0.385938)"/>
       <use xlink:href="#ArialUnicodeMS-33" transform="translate(112.137187 36.654688) scale(0.7)"/>
      </g>
     </g>
    </g>
    <g id="xtick_5">
     <g id="line2d_5">
      <g>
       <use xlink:href="#m6a5f54ac27" x="325.374808" y="202.176" style="fill: #252525; stroke: #252525; stroke-width: 0.8"/>
      </g>
     </g>
     <g id="text_5">
      <!-- $\mathdefault{10^{4}}$ -->
      <g style="fill: #252525" transform="translate(316.904808 217.049594) scale(0.11 -0.11)">
       <defs>
        <path id="ArialUnicodeMS-34" d="M 3263 1094 
L 2644 1094 
L 2644 0 
L 2081 0 
L 2081 1094 
L 97 1094 
L 97 1613 
L 2181 4581 
L 2644 4581 
L 2644 1613 
L 3263 1613 
L 3263 1094 
z
M 2081 1613 
L 2081 3681 
L 2069 3681 
L 647 1613 
L 2081 1613 
z
" transform="scale(0.015625)"/>
       </defs>
       <use xlink:href="#ArialUnicodeMS-31" transform="translate(0 0.626563)"/>
       <use xlink:href="#ArialUnicodeMS-30" transform="translate(55.615234 0.626563)"/>
       <use xlink:href="#ArialUnicodeMS-34" transform="translate(112.137187 36.895313) scale(0.7)"/>
      </g>
     </g>
    </g>
    <g id="xtick_6">
     <g id="line2d_6">
      <g>
       <use xlink:href="#m6a5f54ac27" x="375.21851" y="202.176" style="fill: #252525; stroke: #252525; stroke-width: 0.8"/>
      </g>
     </g>
     <g id="text_6">
      <!-- $\mathdefault{10^{5}}$ -->
      <g style="fill: #252525" transform="translate(366.74851 217.049594) scale(0.11 -0.11)">
       <defs>
        <path id="ArialUnicodeMS-35" d="M 1013 2753 
Q 1431 3041 1881 3041 
Q 2453 3041 2878 2636 
Q 3303 2231 3303 1556 
Q 3303 875 2872 398 
Q 2441 -78 1741 -78 
Q 1169 -78 750 245 
Q 331 569 269 1203 
L 856 1247 
Q 928 813 1162 598 
Q 1397 384 1741 384 
Q 2169 384 2434 707 
Q 2700 1031 2700 1503 
Q 2700 1984 2428 2262 
Q 2156 2541 1728 2541 
Q 1188 2541 897 2100 
L 366 2163 
L 813 4519 
L 3084 4519 
L 3084 3975 
L 1259 3975 
L 1013 2753 
z
" transform="scale(0.015625)"/>
       </defs>
       <use xlink:href="#ArialUnicodeMS-31" transform="translate(0 0.304688)"/>
       <use xlink:href="#ArialUnicodeMS-30" transform="translate(55.615234 0.304688)"/>
       <use xlink:href="#ArialUnicodeMS-35" transform="translate(112.137187 36.573437) scale(0.7)"/>
      </g>
     </g>
    </g>
    <g id="xtick_7">
     <g id="line2d_7">
      <defs>
       <path id="m5aeac158c9" d="M 0 0 
L 0 2 
" style="stroke: #252525; stroke-width: 0.6"/>
      </defs>
      <g>
       <use xlink:href="#m5aeac158c9" x="141.004449" y="202.176" style="fill: #252525; stroke: #252525; stroke-width: 0.6"/>
      </g>
     </g>
    </g>
    <g id="xtick_8">
     <g id="line2d_8">
      <g>
       <use xlink:href="#m5aeac158c9" x="149.78149" y="202.176" style="fill: #252525; stroke: #252525; stroke-width: 0.6"/>
      </g>
     </g>
    </g>
    <g id="xtick_9">
     <g id="line2d_9">
      <g>
       <use xlink:href="#m5aeac158c9" x="156.008899" y="202.176" style="fill: #252525; stroke: #252525; stroke-width: 0.6"/>
      </g>
     </g>
    </g>
    <g id="xtick_10">
     <g id="line2d_10">
      <g>
       <use xlink:href="#m5aeac158c9" x="160.839253" y="202.176" style="fill: #252525; stroke: #252525; stroke-width: 0.6"/>
      </g>
     </g>
    </g>
    <g id="xtick_11">
     <g id="line2d_11">
      <g>
       <use xlink:href="#m5aeac158c9" x="164.785939" y="202.176" style="fill: #252525; stroke: #252525; stroke-width: 0.6"/>
      </g>
     </g>
    </g>
    <g id="xtick_12">
     <g id="line2d_12">
      <g>
       <use xlink:href="#m5aeac158c9" x="168.122815" y="202.176" style="fill: #252525; stroke: #252525; stroke-width: 0.6"/>
      </g>
     </g>
    </g>
    <g id="xtick_13">
     <g id="line2d_13">
      <g>
       <use xlink:href="#m5aeac158c9" x="171.013348" y="202.176" style="fill: #252525; stroke: #252525; stroke-width: 0.6"/>
      </g>
     </g>
    </g>
    <g id="xtick_14">
     <g id="line2d_14">
      <g>
       <use xlink:href="#m5aeac158c9" x="173.562979" y="202.176" style="fill: #252525; stroke: #252525; stroke-width: 0.6"/>
      </g>
     </g>
    </g>
    <g id="xtick_15">
     <g id="line2d_15">
      <g>
       <use xlink:href="#m5aeac158c9" x="190.848151" y="202.176" style="fill: #252525; stroke: #252525; stroke-width: 0.6"/>
      </g>
     </g>
    </g>
    <g id="xtick_16">
     <g id="line2d_16">
      <g>
       <use xlink:href="#m5aeac158c9" x="199.625192" y="202.176" style="fill: #252525; stroke: #252525; stroke-width: 0.6"/>
      </g>
     </g>
    </g>
    <g id="xtick_17">
     <g id="line2d_17">
      <g>
       <use xlink:href="#m5aeac158c9" x="205.852601" y="202.176" style="fill: #252525; stroke: #252525; stroke-width: 0.6"/>
      </g>
     </g>
    </g>
    <g id="xtick_18">
     <g id="line2d_18">
      <g>
       <use xlink:href="#m5aeac158c9" x="210.682955" y="202.176" style="fill: #252525; stroke: #252525; stroke-width: 0.6"/>
      </g>
     </g>
    </g>
    <g id="xtick_19">
     <g id="line2d_19">
      <g>
       <use xlink:href="#m5aeac158c9" x="214.629641" y="202.176" style="fill: #252525; stroke: #252525; stroke-width: 0.6"/>
      </g>
     </g>
    </g>
    <g id="xtick_20">
     <g id="line2d_20">
      <g>
       <use xlink:href="#m5aeac158c9" x="217.966517" y="202.176" style="fill: #252525; stroke: #252525; stroke-width: 0.6"/>
      </g>
     </g>
    </g>
    <g id="xtick_21">
     <g id="line2d_21">
      <g>
       <use xlink:href="#m5aeac158c9" x="220.85705" y="202.176" style="fill: #252525; stroke: #252525; stroke-width: 0.6"/>
      </g>
     </g>
    </g>
    <g id="xtick_22">
     <g id="line2d_22">
      <g>
       <use xlink:href="#m5aeac158c9" x="223.406681" y="202.176" style="fill: #252525; stroke: #252525; stroke-width: 0.6"/>
      </g>
     </g>
    </g>
    <g id="xtick_23">
     <g id="line2d_23">
      <g>
       <use xlink:href="#m5aeac158c9" x="240.691854" y="202.176" style="fill: #252525; stroke: #252525; stroke-width: 0.6"/>
      </g>
     </g>
    </g>
    <g id="xtick_24">
     <g id="line2d_24">
      <g>
       <use xlink:href="#m5aeac158c9" x="249.468894" y="202.176" style="fill: #252525; stroke: #252525; stroke-width: 0.6"/>
      </g>
     </g>
    </g>
    <g id="xtick_25">
     <g id="line2d_25">
      <g>
       <use xlink:href="#m5aeac158c9" x="255.696303" y="202.176" style="fill: #252525; stroke: #252525; stroke-width: 0.6"/>
      </g>
     </g>
    </g>
    <g id="xtick_26">
     <g id="line2d_26">
      <g>
       <use xlink:href="#m5aeac158c9" x="260.526657" y="202.176" style="fill: #252525; stroke: #252525; stroke-width: 0.6"/>
      </g>
     </g>
    </g>
    <g id="xtick_27">
     <g id="line2d_27">
      <g>
       <use xlink:href="#m5aeac158c9" x="264.473343" y="202.176" style="fill: #252525; stroke: #252525; stroke-width: 0.6"/>
      </g>
     </g>
    </g>
    <g id="xtick_28">
     <g id="line2d_28">
      <g>
       <use xlink:href="#m5aeac158c9" x="267.810219" y="202.176" style="fill: #252525; stroke: #252525; stroke-width: 0.6"/>
      </g>
     </g>
    </g>
    <g id="xtick_29">
     <g id="line2d_29">
      <g>
       <use xlink:href="#m5aeac158c9" x="270.700752" y="202.176" style="fill: #252525; stroke: #252525; stroke-width: 0.6"/>
      </g>
     </g>
    </g>
    <g id="xtick_30">
     <g id="line2d_30">
      <g>
       <use xlink:href="#m5aeac158c9" x="273.250383" y="202.176" style="fill: #252525; stroke: #252525; stroke-width: 0.6"/>
      </g>
     </g>
    </g>
    <g id="xtick_31">
     <g id="line2d_31">
      <g>
       <use xlink:href="#m5aeac158c9" x="290.535556" y="202.176" style="fill: #252525; stroke: #252525; stroke-width: 0.6"/>
      </g>
     </g>
    </g>
    <g id="xtick_32">
     <g id="line2d_32">
      <g>
       <use xlink:href="#m5aeac158c9" x="299.312596" y="202.176" style="fill: #252525; stroke: #252525; stroke-width: 0.6"/>
      </g>
     </g>
    </g>
    <g id="xtick_33">
     <g id="line2d_33">
      <g>
       <use xlink:href="#m5aeac158c9" x="305.540005" y="202.176" style="fill: #252525; stroke: #252525; stroke-width: 0.6"/>
      </g>
     </g>
    </g>
    <g id="xtick_34">
     <g id="line2d_34">
      <g>
       <use xlink:href="#m5aeac158c9" x="310.370359" y="202.176" style="fill: #252525; stroke: #252525; stroke-width: 0.6"/>
      </g>
     </g>
    </g>
    <g id="xtick_35">
     <g id="line2d_35">
      <g>
       <use xlink:href="#m5aeac158c9" x="314.317045" y="202.176" style="fill: #252525; stroke: #252525; stroke-width: 0.6"/>
      </g>
     </g>
    </g>
    <g id="xtick_36">
     <g id="line2d_36">
      <g>
       <use xlink:href="#m5aeac158c9" x="317.653921" y="202.176" style="fill: #252525; stroke: #252525; stroke-width: 0.6"/>
      </g>
     </g>
    </g>
    <g id="xtick_37">
     <g id="line2d_37">
      <g>
       <use xlink:href="#m5aeac158c9" x="320.544454" y="202.176" style="fill: #252525; stroke: #252525; stroke-width: 0.6"/>
      </g>
     </g>
    </g>
    <g id="xtick_38">
     <g id="line2d_38">
      <g>
       <use xlink:href="#m5aeac158c9" x="323.094086" y="202.176" style="fill: #252525; stroke: #252525; stroke-width: 0.6"/>
      </g>
     </g>
    </g>
    <g id="xtick_39">
     <g id="line2d_39">
      <g>
       <use xlink:href="#m5aeac158c9" x="340.379258" y="202.176" style="fill: #252525; stroke: #252525; stroke-width: 0.6"/>
      </g>
     </g>
    </g>
    <g id="xtick_40">
     <g id="line2d_40">
      <g>
       <use xlink:href="#m5aeac158c9" x="349.156298" y="202.176" style="fill: #252525; stroke: #252525; stroke-width: 0.6"/>
      </g>
     </g>
    </g>
    <g id="xtick_41">
     <g id="line2d_41">
      <g>
       <use xlink:href="#m5aeac158c9" x="355.383707" y="202.176" style="fill: #252525; stroke: #252525; stroke-width: 0.6"/>
      </g>
     </g>
    </g>
    <g id="xtick_42">
     <g id="line2d_42">
      <g>
       <use xlink:href="#m5aeac158c9" x="360.214061" y="202.176" style="fill: #252525; stroke: #252525; stroke-width: 0.6"/>
      </g>
     </g>
    </g>
    <g id="xtick_43">
     <g id="line2d_43">
      <g>
       <use xlink:href="#m5aeac158c9" x="364.160747" y="202.176" style="fill: #252525; stroke: #252525; stroke-width: 0.6"/>
      </g>
     </g>
    </g>
    <g id="xtick_44">
     <g id="line2d_44">
      <g>
       <use xlink:href="#m5aeac158c9" x="367.497623" y="202.176" style="fill: #252525; stroke: #252525; stroke-width: 0.6"/>
      </g>
     </g>
    </g>
    <g id="xtick_45">
     <g id="line2d_45">
      <g>
       <use xlink:href="#m5aeac158c9" x="370.388157" y="202.176" style="fill: #252525; stroke: #252525; stroke-width: 0.6"/>
      </g>
     </g>
    </g>
    <g id="xtick_46">
     <g id="line2d_46">
      <g>
       <use xlink:href="#m5aeac158c9" x="372.937788" y="202.176" style="fill: #252525; stroke: #252525; stroke-width: 0.6"/>
      </g>
     </g>
    </g>
    <g id="xtick_47">
     <g id="line2d_47">
      <g>
       <use xlink:href="#m5aeac158c9" x="390.22296" y="202.176" style="fill: #252525; stroke: #252525; stroke-width: 0.6"/>
      </g>
     </g>
    </g>
    <g id="xtick_48">
     <g id="line2d_48">
      <g>
       <use xlink:href="#m5aeac158c9" x="399" y="202.176" style="fill: #252525; stroke: #252525; stroke-width: 0.6"/>
      </g>
     </g>
    </g>
    <g id="text_7">
     <!-- 理论估算（GPU·秒，对数轴） -->
     <g style="fill: #252525" transform="translate(181.830938 233.330375) scale(0.12 -0.12)">
      <defs>
       <path id="ArialUnicodeMS-7406" d="M 6047 -103 
L 2163 -103 
L 2163 366 
L 3853 366 
L 3853 1094 
L 2572 1094 
L 2572 1563 
L 3853 1563 
L 3853 2163 
L 2528 2163 
L 2528 4959 
L 5656 4959 
L 5656 2163 
L 4341 2163 
L 4341 1563 
L 5613 1563 
L 5613 1094 
L 4341 1094 
L 4341 366 
L 6047 366 
L 6047 -103 
z
M 5191 4494 
L 4341 4494 
L 4341 3822 
L 5178 3822 
L 5191 4494 
z
M 3853 3822 
L 3853 4494 
L 3016 4494 
L 3016 3822 
L 3853 3822 
z
M 5172 2631 
L 5172 3353 
L 4341 3353 
L 4341 2631 
L 5172 2631 
z
M 3853 2631 
L 3853 3353 
L 3016 3353 
L 3016 2631 
L 3853 2631 
z
M 2456 1153 
L 647 409 
L 225 794 
Q 553 891 1191 1131 
L 1191 2606 
L 544 2606 
L 544 3072 
L 1191 3072 
L 1191 4319 
L 416 4319 
L 416 4788 
L 2400 4788 
L 2400 4319 
L 1678 4319 
L 1678 3072 
L 2309 3072 
L 2309 2606 
L 1678 2606 
L 1678 1319 
Q 2200 1538 2456 1631 
L 2456 1153 
z
" transform="scale(0.015625)"/>
       <path id="ArialUnicodeMS-8bba" d="M 6169 2809 
L 5806 2406 
Q 4478 3422 4006 4341 
Q 3475 3256 2203 2356 
L 1863 2741 
Q 2438 3113 2852 3559 
Q 3266 4006 3441 4301 
Q 3616 4597 3909 5300 
L 4353 5081 
L 4244 4813 
Q 4669 3881 6169 2809 
z
M 1984 4244 
L 1575 3909 
Q 1247 4531 691 4922 
L 1063 5241 
Q 1563 4963 1984 4244 
z
M 2463 519 
L 1216 -122 
L 991 275 
Q 1050 322 1050 403 
L 1050 2875 
L 331 2875 
L 331 3341 
L 1528 3341 
L 1528 550 
L 2463 1031 
L 2463 519 
z
M 5959 775 
Q 5719 -191 5313 -191 
L 3603 -191 
Q 2981 -191 2981 384 
L 2981 2731 
L 3463 2731 
L 3463 1691 
Q 4366 1950 5178 2656 
L 5522 2291 
Q 4625 1550 3463 1222 
L 3463 416 
Q 3463 250 3597 250 
L 5147 250 
Q 5278 250 5350 415 
Q 5422 581 5484 1044 
L 5959 775 
z
" transform="scale(0.015625)"/>
       <path id="ArialUnicodeMS-4f30" d="M 2406 5153 
Q 2200 4194 1753 3578 
L 1753 -428 
L 1269 -428 
L 1269 2913 
Q 988 2594 641 2284 
L 244 2578 
Q 1531 3753 1966 5344 
L 2406 5153 
z
M 6088 3463 
L 4306 3463 
L 4306 2175 
L 5550 2175 
L 5550 -409 
L 5063 -409 
L 5063 31 
L 3122 31 
L 3122 -428 
L 2638 -428 
L 2638 2175 
L 3803 2175 
L 3803 3463 
L 2203 3463 
L 2203 3950 
L 3803 3950 
L 3803 5325 
L 4306 5325 
L 4306 3950 
L 6088 3950 
L 6088 3463 
z
M 5063 500 
L 5063 1709 
L 3122 1709 
L 3122 500 
L 5063 500 
z
" transform="scale(0.015625)"/>
       <path id="ArialUnicodeMS-7b97" d="M 5984 4384 
L 5063 4384 
Q 5272 4134 5288 4044 
L 4856 3853 
Q 4700 4228 4525 4384 
L 3903 4384 
Q 3669 4003 3469 3803 
L 3028 4063 
Q 3672 4650 3756 5381 
L 4172 5209 
Q 4153 4972 4084 4850 
L 5984 4850 
L 5984 4384 
z
M 3272 4359 
L 2534 4359 
Q 2694 4169 2753 4025 
L 2316 3822 
Q 2156 4219 2016 4359 
L 1516 4359 
Q 1278 3906 750 3494 
L 319 3803 
Q 1238 4394 1344 5369 
L 1772 5216 
Q 1753 4941 1697 4825 
L 3272 4825 
L 3272 4359 
z
M 5913 641 
L 4269 641 
L 4269 -469 
L 3781 -469 
L 3781 641 
L 2741 641 
Q 2275 -334 588 -481 
L 331 6 
Q 1859 63 2234 641 
L 647 641 
L 647 1106 
L 2309 1106 
L 2309 1388 
L 1325 1388 
L 1325 3775 
L 5113 3775 
L 5113 1388 
L 4269 1388 
L 4269 1106 
L 5913 1106 
L 5913 641 
z
M 4628 3109 
L 4628 3334 
L 1813 3334 
L 1813 3109 
L 4628 3109 
z
M 4628 2497 
L 4628 2706 
L 1813 2706 
L 1813 2497 
L 4628 2497 
z
M 4628 1831 
L 4628 2094 
L 1813 2094 
L 1813 1831 
L 4628 1831 
z
M 3781 1106 
L 3781 1388 
L 2797 1388 
L 2797 1106 
L 3781 1106 
z
" transform="scale(0.015625)"/>
       <path id="ArialUnicodeMS-ff08" d="M 3964 -1344 
L 3561 -1344 
Q 3042 -681 2745 103 
Q 2448 888 2448 1656 
Q 2448 2528 2764 3275 
Q 3080 4022 3561 4659 
L 3964 4659 
Q 3408 3747 3219 3059 
Q 3030 2372 3030 1663 
Q 3030 153 3964 -1344 
z
" transform="scale(0.015625)"/>
       <path id="ArialUnicodeMS-47" d="M 4569 641 
Q 3703 -78 2675 -78 
Q 1622 -78 976 564 
Q 331 1206 331 2272 
Q 331 2922 595 3483 
Q 859 4044 1373 4351 
Q 1888 4659 2631 4659 
Q 3403 4659 3870 4320 
Q 4338 3981 4500 3303 
L 3956 3150 
Q 3828 3644 3497 3892 
Q 3166 4141 2631 4141 
Q 1803 4141 1381 3634 
Q 959 3128 959 2309 
Q 959 1697 1164 1290 
Q 1369 884 1770 676 
Q 2172 469 2644 469 
Q 3363 469 3981 941 
L 3981 1791 
L 2631 1791 
L 2631 2338 
L 4569 2338 
L 4569 641 
z
" transform="scale(0.015625)"/>
       <path id="ArialUnicodeMS-50" d="M 494 4581 
L 2222 4581 
Q 2631 4581 2926 4540 
Q 3222 4500 3475 4329 
Q 3728 4159 3858 3867 
Q 3988 3575 3988 3256 
Q 3988 2622 3580 2239 
Q 3172 1856 2272 1856 
L 1100 1856 
L 1100 0 
L 494 0 
L 494 4581 
z
M 1100 2400 
L 2278 2400 
Q 3359 2400 3359 3238 
Q 3359 3513 3218 3723 
Q 3078 3934 2873 3986 
Q 2669 4038 2266 4038 
L 1100 4038 
L 1100 2400 
z
" transform="scale(0.015625)"/>
       <path id="ArialUnicodeMS-55" d="M 4109 1931 
Q 4109 1578 4070 1278 
Q 4031 978 3864 661 
Q 3697 344 3320 133 
Q 2944 -78 2316 -78 
Q 1703 -78 1328 109 
Q 953 297 778 594 
Q 603 891 554 1212 
Q 506 1534 506 1931 
L 506 4581 
L 1113 4581 
L 1113 1941 
Q 1113 1528 1172 1229 
Q 1231 931 1484 700 
Q 1738 469 2266 469 
Q 2800 469 3069 653 
Q 3338 838 3419 1145 
Q 3500 1453 3500 1941 
L 3500 4581 
L 4109 4581 
L 4109 1931 
z
" transform="scale(0.015625)"/>
       <path id="ArialUnicodeMS-b7" d="M 1209 1931 
L 569 1931 
L 569 2572 
L 1209 2572 
L 1209 1931 
z
" transform="scale(0.015625)"/>
       <path id="ArialUnicodeMS-79d2" d="M 4500 2075 
Q 4500 1875 4375 1709 
Q 4250 1544 4050 1544 
L 3397 1544 
L 3219 2053 
Q 3541 2022 3719 2022 
Q 3919 2022 3969 2069 
Q 4019 2116 4019 2216 
L 4019 5294 
L 4500 5294 
L 4500 2075 
z
M 3009 1703 
L 2606 1394 
Q 2347 2103 1972 2381 
L 1972 -447 
L 1491 -447 
L 1491 1959 
L 1478 1959 
Q 1247 1513 666 916 
L 275 1209 
Q 1347 2288 1459 3188 
L 513 3188 
L 513 3647 
L 1491 3647 
L 1491 4453 
Q 941 4388 672 4403 
L 378 4872 
Q 531 4863 678 4863 
Q 1678 4863 2516 5222 
L 2809 4856 
Q 2391 4659 1972 4550 
L 1972 3647 
L 2706 3647 
L 2713 3188 
L 1972 3188 
L 1972 2644 
L 2216 2797 
Q 2703 2397 3009 1703 
z
M 6138 2847 
L 5709 2553 
Q 5334 3653 4647 4178 
L 5056 4459 
Q 5594 4063 6138 2847 
z
M 3750 4244 
Q 3656 3372 2944 2450 
L 2522 2713 
Q 3238 3600 3309 4447 
L 3750 4244 
z
M 5631 2413 
Q 4909 128 2522 -447 
L 2203 0 
Q 4588 513 5191 2591 
L 5631 2413 
z
" transform="scale(0.015625)"/>
       <path id="ArialUnicodeMS-ff0c" d="M 3544 0 
Q 3544 -397 3392 -606 
Q 3241 -816 3019 -903 
L 2866 -666 
Q 3216 -516 3219 0 
L 2903 0 
L 2903 641 
L 3544 641 
L 3544 0 
z
" transform="scale(0.015625)"/>
       <path id="ArialUnicodeMS-5bf9" d="M 5856 3616 
L 5247 3616 
L 5247 38 
Q 5206 -163 5042 -273 
Q 4878 -384 4806 -384 
L 4103 -384 
L 3944 103 
Q 4438 63 4678 63 
Q 4716 63 4763 134 
L 4763 3616 
L 2988 3616 
L 2988 4084 
L 4763 4084 
L 4763 5306 
L 5247 5306 
L 5247 4084 
L 5856 4084 
L 5856 3616 
z
M 3175 366 
L 2694 153 
Q 2422 1059 2100 1538 
Q 1609 353 525 -384 
L 153 -13 
Q 1288 719 1813 1984 
Q 1306 2706 628 3256 
L 984 3541 
Q 1794 2828 2009 2497 
Q 2341 3403 2381 4116 
L 359 4116 
L 359 4556 
L 2869 4556 
Q 2844 3303 2328 2028 
Q 2866 1222 3175 366 
z
M 4441 1453 
L 3988 1178 
Q 3663 2072 3091 2700 
L 3444 2950 
Q 4084 2334 4441 1453 
z
" transform="scale(0.015625)"/>
       <path id="ArialUnicodeMS-6570" d="M 6138 19 
L 5806 -378 
Q 5031 194 4697 716 
Q 4344 144 3328 -441 
L 2981 -50 
Q 3966 434 4403 1153 
Q 4038 1834 3866 2753 
Q 3678 2356 3353 1919 
L 2950 2203 
Q 3838 3172 3963 5253 
L 4409 5125 
Q 4341 4384 4269 4006 
L 5984 4006 
L 5984 3547 
L 5619 3541 
L 5594 3341 
Q 5441 2113 4978 1191 
Q 5281 672 6138 19 
z
M 5166 3541 
L 4172 3541 
Q 4297 2419 4691 1650 
Q 5038 2513 5166 3541 
z
M 3438 3653 
L 2209 3653 
L 2209 2338 
L 1919 2338 
Q 1900 2269 1753 1931 
L 3225 1931 
L 3225 1472 
L 2913 1472 
Q 2763 991 2503 666 
Q 2947 353 3103 184 
L 2747 -172 
Q 2463 138 2150 313 
Q 1322 -225 563 -428 
L 269 6 
Q 1106 163 1684 563 
Q 1291 756 703 884 
L 1038 1472 
L 403 1472 
L 403 1931 
L 1259 1931 
Q 1328 2056 1466 2553 
L 1747 2484 
L 1747 3653 
L 1716 3653 
Q 1413 2881 678 2456 
L 378 2803 
Q 938 3091 1241 3653 
L 403 3653 
L 403 4122 
L 1747 4122 
L 1747 5228 
L 2209 5228 
L 2209 4122 
L 3438 4122 
L 3438 3653 
z
M 2406 1472 
L 1538 1472 
Q 1422 1241 1369 1153 
Q 1388 1159 2069 884 
Q 2219 1031 2406 1472 
z
M 1625 4441 
L 1288 4159 
Q 1022 4547 575 4813 
L 878 5075 
Q 1394 4844 1625 4441 
z
M 3384 4844 
Q 3097 4409 2669 4172 
L 2322 4481 
Q 2806 4759 3047 5069 
L 3384 4844 
z
M 3303 2888 
L 2944 2578 
Q 2706 3025 2291 3297 
L 2584 3566 
Q 2988 3359 3303 2888 
z
" transform="scale(0.015625)"/>
       <path id="ArialUnicodeMS-8f74" d="M 5778 -475 
L 5294 -475 
L 5294 0 
L 3603 0 
L 3603 -475 
L 3194 -475 
L 3194 3909 
L 4244 3909 
L 4244 5253 
L 4728 5253 
L 4728 3909 
L 5778 3909 
L 5778 -475 
z
M 5294 2247 
L 5294 3444 
L 4728 3444 
L 4728 2247 
L 5294 2247 
z
M 4244 2247 
L 4244 3444 
L 3681 3444 
L 3681 2247 
L 4244 2247 
z
M 5294 469 
L 5294 1778 
L 4728 1778 
L 4728 469 
L 5294 469 
z
M 4244 469 
L 4244 1778 
L 3681 1778 
L 3681 469 
L 4244 469 
z
M 3041 3909 
L 1644 3909 
Q 1425 2963 1216 2584 
L 1656 2584 
L 1656 3406 
L 2144 3406 
L 2144 2584 
L 2969 2584 
L 2969 2119 
L 2144 2119 
L 2144 1528 
L 3003 1772 
L 3003 1294 
L 2144 1063 
L 2144 -475 
L 1656 -475 
L 1656 953 
L 641 703 
L 378 1119 
Q 1647 1419 1656 1422 
L 1656 2119 
L 684 2119 
L 684 2584 
Q 959 2963 1166 3909 
L 434 3909 
L 434 4378 
L 1269 4378 
Q 1334 4619 1388 5234 
L 1850 5100 
Q 1844 4950 1747 4378 
L 3041 4378 
L 3041 3909 
z
" transform="scale(0.015625)"/>
       <path id="ArialUnicodeMS-ff09" d="M 2850 4659 
Q 3369 3997 3666 3212 
Q 3963 2428 3963 1656 
Q 3963 788 3647 41 
Q 3332 -706 2850 -1344 
L 2447 -1344 
Q 3004 -431 3193 255 
Q 3382 941 3382 1650 
Q 3382 3163 2447 4659 
L 2850 4659 
z
" transform="scale(0.015625)"/>
      </defs>
      <use xlink:href="#ArialUnicodeMS-7406"/>
      <use xlink:href="#ArialUnicodeMS-8bba" transform="translate(100 0)"/>
      <use xlink:href="#ArialUnicodeMS-4f30" transform="translate(200 0)"/>
      <use xlink:href="#ArialUnicodeMS-7b97" transform="translate(300 0)"/>
      <use xlink:href="#ArialUnicodeMS-ff08" transform="translate(400 0)"/>
      <use xlink:href="#ArialUnicodeMS-47" transform="translate(500 0)"/>
      <use xlink:href="#ArialUnicodeMS-50" transform="translate(577.783203 0)"/>
      <use xlink:href="#ArialUnicodeMS-55" transform="translate(644.482422 0)"/>
      <use xlink:href="#ArialUnicodeMS-b7" transform="translate(716.699219 0)"/>
      <use xlink:href="#ArialUnicodeMS-79d2" transform="translate(744.482422 0)"/>
      <use xlink:href="#ArialUnicodeMS-ff0c" transform="translate(844.482422 0)"/>
      <use xlink:href="#ArialUnicodeMS-5bf9" transform="translate(944.482422 0)"/>
      <use xlink:href="#ArialUnicodeMS-6570" transform="translate(1044.482422 0)"/>
      <use xlink:href="#ArialUnicodeMS-8f74" transform="translate(1144.482422 0)"/>
      <use xlink:href="#ArialUnicodeMS-ff09" transform="translate(1244.482422 0)"/>
     </g>
    </g>
   </g>
   <g id="matplotlib.axis_2">
    <g id="ytick_1">
     <g id="line2d_49">
      <defs>
       <path id="mb83725ac58" d="M 0 0 
L -3.5 0 
" style="stroke: #252525; stroke-width: 0.8"/>
      </defs>
      <g>
       <use xlink:href="#mb83725ac58" x="126" y="50.409351" style="fill: #252525; stroke: #252525; stroke-width: 0.8"/>
      </g>
     </g>
     <g id="text_8">
      <!-- 经典力场 MD -->
      <g style="fill: #252525" transform="translate(54.837344 54.346148) scale(0.11 -0.11)">
       <defs>
        <path id="ArialUnicodeMS-7ecf" d="M 2828 3713 
Q 1481 1931 1125 1625 
L 1141 1613 
L 2516 1900 
L 2516 1472 
L 588 1038 
L 366 1466 
Q 622 1703 981 2126 
Q 1341 2550 1497 2725 
Q 1250 2694 581 2553 
L 366 2981 
Q 925 3763 1703 5241 
L 2100 4966 
Q 1428 3766 978 3091 
Q 1022 3091 1345 3145 
Q 1669 3200 1881 3213 
Q 2056 3450 2425 4000 
L 2828 3713 
z
M 6003 2328 
L 5672 1991 
Q 4900 2625 4097 2956 
Q 3525 2397 2503 2059 
L 2194 2472 
Q 3884 3034 4659 4500 
L 2509 4500 
L 2509 4941 
L 5288 4941 
L 5288 4531 
Q 4906 3850 4428 3322 
Q 5606 2741 6003 2328 
z
M 5991 -213 
L 2169 -213 
L 2169 231 
L 3794 231 
L 3794 1544 
L 2650 1544 
L 2650 2009 
L 5422 2009 
L 5422 1544 
L 4281 1544 
L 4281 231 
L 5991 231 
L 5991 -213 
z
M 2694 659 
L 647 -128 
L 372 347 
Q 950 519 1694 789 
Q 2438 1059 2694 1147 
L 2694 659 
z
" transform="scale(0.015625)"/>
        <path id="ArialUnicodeMS-5178" d="M 5966 1306 
L 506 1306 
L 506 1772 
L 1056 1772 
L 1056 4525 
L 2344 4525 
L 2344 5319 
L 2828 5319 
L 2828 4525 
L 3609 4525 
L 3609 5331 
L 4097 5331 
L 4097 4525 
L 5409 4525 
L 5409 1772 
L 5966 1772 
L 5966 1306 
z
M 4922 3188 
L 4922 4056 
L 4097 4056 
L 4097 3188 
L 4922 3188 
z
M 3609 3188 
L 3609 4056 
L 2828 4056 
L 2828 3188 
L 3609 3188 
z
M 2344 3188 
L 2344 4056 
L 1544 4056 
L 1544 3188 
L 2344 3188 
z
M 4922 1772 
L 4922 2719 
L 4097 2719 
L 4097 1772 
L 4922 1772 
z
M 3609 1772 
L 3609 2719 
L 2828 2719 
L 2828 1772 
L 3609 1772 
z
M 2344 1772 
L 2344 2719 
L 1544 2719 
L 1544 1772 
L 2344 1772 
z
M 2772 844 
Q 2019 -34 709 -453 
L 331 -50 
Q 947 84 1548 428 
Q 2150 772 2438 1172 
L 2772 844 
z
M 6034 -72 
L 5703 -434 
Q 4772 466 3578 806 
L 3916 1153 
Q 4934 916 6034 -72 
z
" transform="scale(0.015625)"/>
        <path id="ArialUnicodeMS-529b" d="M 5522 3841 
Q 5506 2991 5420 2125 
Q 5334 1259 5246 807 
Q 5159 356 5067 193 
Q 4975 31 4764 -61 
Q 4553 -153 4281 -153 
Q 3966 -153 3244 56 
L 3138 616 
Q 4041 322 4372 322 
Q 4578 322 4701 584 
Q 4825 847 4917 2014 
Q 5009 3181 5006 3372 
L 3397 3372 
Q 3353 1906 2750 1039 
Q 2147 172 813 -359 
L 447 109 
Q 1713 531 2283 1297 
Q 2853 2063 2888 3372 
L 1306 3372 
L 1306 3841 
L 2906 3841 
L 2906 5275 
L 3391 5275 
L 3391 3841 
L 5522 3841 
z
" transform="scale(0.015625)"/>
        <path id="ArialUnicodeMS-573a" d="M 2413 1441 
L 469 738 
L 184 1172 
Q 506 1247 1147 1453 
L 1147 3138 
L 359 3138 
L 359 3603 
L 1147 3603 
L 1147 5172 
L 1600 5172 
L 1600 3603 
L 2413 3603 
L 2413 3138 
L 1600 3138 
L 1600 1619 
L 2413 1900 
L 2413 1441 
z
M 5741 3091 
Q 5709 2600 5642 2001 
Q 5575 1403 5489 862 
Q 5403 322 5350 100 
Q 5297 -122 5175 -215 
Q 5053 -309 4901 -350 
Q 4750 -391 4659 -366 
L 4084 -206 
L 4000 313 
Q 4700 103 4775 103 
Q 4872 103 4939 398 
Q 5006 694 5104 1339 
Q 5203 1984 5253 2650 
L 4844 2650 
Q 4428 791 2797 -403 
L 2456 -44 
Q 4069 1181 4378 2650 
L 3859 2650 
Q 3697 1994 3198 1378 
Q 2700 763 2094 428 
L 1772 788 
Q 3078 1553 3378 2650 
L 2675 2650 
L 2675 3091 
Q 3497 3641 4469 4469 
L 2363 4469 
L 2363 4934 
L 5241 4934 
L 5241 4531 
Q 4103 3544 3450 3097 
L 3450 3091 
L 5741 3091 
z
" transform="scale(0.015625)"/>
        <path id="ArialUnicodeMS-20" transform="scale(0.015625)"/>
        <path id="ArialUnicodeMS-4d" d="M 4844 0 
L 4269 0 
L 4269 3834 
L 4256 3834 
L 2938 0 
L 2394 0 
L 1081 3897 
L 1063 3897 
L 1063 0 
L 488 0 
L 488 4581 
L 1394 4581 
L 2478 1338 
Q 2659 797 2688 659 
L 2700 659 
Q 2784 925 2944 1394 
L 4038 4581 
L 4844 4581 
L 4844 0 
z
" transform="scale(0.015625)"/>
        <path id="ArialUnicodeMS-44" d="M 513 4581 
L 2094 4581 
Q 2509 4581 2809 4539 
Q 3109 4497 3382 4333 
Q 3656 4169 3861 3881 
Q 4066 3594 4183 3220 
Q 4300 2847 4300 2316 
Q 4300 1303 3819 651 
Q 3338 0 2163 0 
L 513 0 
L 513 4581 
z
M 1119 544 
L 2100 544 
Q 2400 544 2636 581 
Q 2872 619 3114 784 
Q 3356 950 3515 1328 
Q 3675 1706 3675 2328 
Q 3675 2672 3614 2970 
Q 3553 3269 3389 3514 
Q 3225 3759 3012 3873 
Q 2800 3988 2598 4013 
Q 2397 4038 2081 4038 
L 1119 4038 
L 1119 544 
z
" transform="scale(0.015625)"/>
       </defs>
       <use xlink:href="#ArialUnicodeMS-7ecf"/>
       <use xlink:href="#ArialUnicodeMS-5178" transform="translate(100 0)"/>
       <use xlink:href="#ArialUnicodeMS-529b" transform="translate(200 0)"/>
       <use xlink:href="#ArialUnicodeMS-573a" transform="translate(300 0)"/>
       <use xlink:href="#ArialUnicodeMS-20" transform="translate(400 0)"/>
       <use xlink:href="#ArialUnicodeMS-4d" transform="translate(427.783203 0)"/>
       <use xlink:href="#ArialUnicodeMS-44" transform="translate(511.083984 0)"/>
      </g>
     </g>
    </g>
    <g id="ytick_2">
     <g id="line2d_50">
      <g>
       <use xlink:href="#mb83725ac58" x="126" y="110.16" style="fill: #252525; stroke: #252525; stroke-width: 0.8"/>
      </g>
     </g>
     <g id="text_9">
      <!-- DFT 参数化 -->
      <g style="fill: #252525" transform="translate(61.562812 114.137188) scale(0.11 -0.11)">
       <defs>
        <path id="ArialUnicodeMS-46" d="M 3603 4038 
L 1119 4038 
L 1119 2619 
L 3272 2619 
L 3272 2075 
L 1119 2075 
L 1119 0 
L 513 0 
L 513 4581 
L 3603 4581 
L 3603 4038 
z
" transform="scale(0.015625)"/>
        <path id="ArialUnicodeMS-54" d="M 3769 4038 
L 2253 4038 
L 2253 0 
L 1644 0 
L 1644 4038 
L 141 4038 
L 141 4581 
L 3769 4581 
L 3769 4038 
z
" transform="scale(0.015625)"/>
        <path id="ArialUnicodeMS-53c2" d="M 6209 2028 
L 5900 1588 
Q 4266 1959 3347 3034 
L 2881 3034 
Q 2119 2103 434 1478 
L 116 1894 
Q 1394 2225 2259 3034 
L 459 3034 
L 459 3500 
L 2644 3500 
Q 2809 3663 2906 3884 
L 1131 3841 
L 991 4313 
L 1672 4306 
Q 2172 4644 2822 5428 
L 3250 5178 
Q 2769 4638 2303 4294 
L 4269 4313 
Q 4191 4391 3706 4703 
L 4025 5006 
Q 4903 4497 5369 3859 
L 4928 3572 
Q 4841 3719 4634 3922 
L 3194 3878 
L 3194 3866 
L 3419 3744 
Q 3350 3638 3225 3500 
L 5888 3500 
L 5888 3034 
L 3956 3034 
Q 4688 2363 6209 2028 
z
M 3628 2419 
Q 2878 1494 1350 1119 
L 1063 1509 
Q 1925 1700 2381 1958 
Q 2838 2216 3297 2706 
L 3628 2419 
z
M 4319 1947 
Q 3516 816 1434 366 
L 1147 794 
Q 3072 1159 3969 2209 
L 4319 1947 
z
M 5125 1516 
Q 3713 -253 1006 -475 
L 738 -13 
Q 3397 141 4763 1791 
L 5125 1516 
z
" transform="scale(0.015625)"/>
        <path id="ArialUnicodeMS-5316" d="M 2431 5147 
Q 2322 4731 2081 4159 
L 1844 3603 
L 1844 -366 
L 1350 -366 
L 1350 2834 
Q 1006 2356 653 2075 
L 306 2444 
Q 1350 3319 2003 5350 
L 2431 5147 
z
M 6081 1325 
Q 5994 419 5786 114 
Q 5578 -191 5203 -191 
L 3872 -191 
Q 3534 -191 3339 -12 
Q 3144 166 3144 469 
L 3144 5178 
L 3628 5178 
L 3628 2853 
Q 4478 3413 5288 4488 
L 5709 4197 
Q 4800 2984 3628 2272 
L 3628 550 
Q 3628 288 3981 288 
L 5113 288 
Q 5553 288 5581 1503 
L 6081 1325 
z
" transform="scale(0.015625)"/>
       </defs>
       <use xlink:href="#ArialUnicodeMS-44"/>
       <use xlink:href="#ArialUnicodeMS-46" transform="translate(72.216797 0)"/>
       <use xlink:href="#ArialUnicodeMS-54" transform="translate(133.300781 0)"/>
       <use xlink:href="#ArialUnicodeMS-20" transform="translate(194.384766 0)"/>
       <use xlink:href="#ArialUnicodeMS-53c2" transform="translate(222.167969 0)"/>
       <use xlink:href="#ArialUnicodeMS-6570" transform="translate(322.167969 0)"/>
       <use xlink:href="#ArialUnicodeMS-5316" transform="translate(422.167969 0)"/>
      </g>
     </g>
    </g>
    <g id="ytick_3">
     <g id="line2d_51">
      <g>
       <use xlink:href="#mb83725ac58" x="126" y="169.910649" style="fill: #252525; stroke: #252525; stroke-width: 0.8"/>
      </g>
     </g>
     <g id="text_10">
      <!-- 机器学习势 MD -->
      <g style="fill: #252525" transform="translate(43.837344 173.847446) scale(0.11 -0.11)">
       <defs>
        <path id="ArialUnicodeMS-673a" d="M 2919 1978 
L 2456 1691 
Q 2338 2156 2009 2584 
L 2009 -409 
L 1497 -409 
L 1497 2272 
Q 1250 1691 722 1147 
L 347 1472 
Q 1181 2325 1459 3616 
L 538 3616 
L 538 4078 
L 1503 4078 
L 1503 5294 
L 2009 5294 
L 2009 4078 
L 2894 4078 
L 2894 3616 
L 2009 3616 
L 2009 2981 
L 2209 3103 
Q 2716 2606 2919 1978 
z
M 6241 972 
Q 6075 153 5940 -12 
Q 5806 -178 5575 -178 
L 5141 -178 
Q 4666 -178 4666 213 
L 4666 4544 
L 3669 4544 
L 3669 1638 
Q 3669 491 2644 -469 
L 2209 -109 
Q 3181 769 3181 1703 
L 3181 5006 
L 5153 5006 
L 5153 366 
Q 5153 281 5269 281 
L 5472 281 
Q 5550 281 5615 412 
Q 5681 544 5791 1275 
L 6241 972 
z
" transform="scale(0.015625)"/>
        <path id="ArialUnicodeMS-5668" d="M 5588 3481 
L 3450 3481 
L 3450 5106 
L 5588 5106 
L 5588 3481 
z
M 5081 3950 
L 5081 4616 
L 3938 4616 
L 3938 3950 
L 5081 3950 
z
M 2944 3481 
L 800 3481 
L 800 5081 
L 2944 5081 
L 2944 3481 
z
M 2438 3950 
L 2438 4616 
L 1288 4616 
L 1288 3950 
L 2438 3950 
z
M 6119 2119 
Q 5944 1722 5881 1625 
Q 3825 1731 3231 2619 
L 3097 2619 
Q 2488 1741 481 1638 
L 313 2125 
Q 1838 2153 2472 2619 
L 588 2619 
L 588 3091 
L 2828 3091 
Q 2950 3347 2969 3659 
L 3431 3566 
Q 3400 3263 3328 3091 
L 5813 3091 
L 5813 2619 
L 3859 2619 
Q 4391 2109 6119 2119 
z
M 5528 -397 
L 5025 -397 
L 5025 0 
L 3956 0 
L 3956 -397 
L 3469 -397 
L 3469 1619 
L 5528 1619 
L 5528 -397 
z
M 5025 459 
L 5025 1153 
L 3956 1153 
L 3956 459 
L 5025 459 
z
M 2944 -397 
L 2438 -397 
L 2438 -25 
L 1363 -25 
L 1363 -397 
L 856 -397 
L 856 1619 
L 2944 1619 
L 2944 -397 
z
M 2438 459 
L 2438 1153 
L 1363 1153 
L 1363 459 
L 2438 459 
z
" transform="scale(0.015625)"/>
        <path id="ArialUnicodeMS-5b66" d="M 5791 2822 
L 5306 2822 
L 5306 3431 
L 1081 3431 
L 1081 2822 
L 588 2822 
L 588 3897 
L 3956 3897 
Q 4378 4472 4603 5288 
L 5075 5094 
Q 4903 4397 4500 3897 
L 5791 3897 
L 5791 2822 
z
M 3578 4197 
L 3128 3975 
Q 2928 4609 2444 5063 
L 2847 5275 
Q 3313 4828 3578 4197 
z
M 2156 4197 
L 1728 3950 
Q 1603 4403 934 4928 
L 1350 5178 
Q 1881 4778 2156 4197 
z
M 5925 1259 
L 3500 1259 
L 3500 72 
Q 3500 -138 3344 -242 
Q 3188 -347 3103 -347 
L 2450 -347 
L 2266 159 
L 2944 134 
Q 3016 134 3016 263 
L 3016 1259 
L 475 1259 
L 475 1728 
L 3009 1728 
L 3009 1978 
Q 3488 2134 4006 2456 
L 1434 2456 
L 1434 2925 
L 4825 2925 
L 4825 2491 
Q 4109 1947 3525 1728 
L 5925 1728 
L 5925 1259 
z
" transform="scale(0.015625)"/>
        <path id="ArialUnicodeMS-4e60" d="M 5234 4922 
Q 5209 3741 5146 2572 
Q 5084 1403 4996 767 
Q 4909 131 4829 -44 
Q 4750 -219 4575 -308 
Q 4400 -397 4159 -397 
Q 3934 -397 3547 -313 
L 3438 197 
Q 3556 178 3818 114 
Q 4081 50 4238 50 
Q 4300 50 4398 261 
Q 4497 472 4603 1880 
Q 4709 3288 4750 4453 
L 756 4453 
L 756 4922 
L 5234 4922 
z
M 3034 2881 
L 2578 2625 
Q 2353 3391 1684 4000 
L 2100 4231 
Q 2806 3569 3034 2881 
z
M 4294 1925 
L 1125 775 
L 788 1209 
Q 3625 2134 4294 2400 
L 4294 1925 
z
" transform="scale(0.015625)"/>
        <path id="ArialUnicodeMS-52bf" d="M 6088 2772 
Q 5925 2363 5792 2206 
Q 5659 2050 5516 2050 
Q 5228 2050 5017 2598 
Q 4806 3147 4806 4134 
L 4213 4134 
Q 4172 3519 4025 3219 
Q 4241 3056 4563 2753 
L 4231 2431 
Q 3809 2825 3794 2828 
Q 3459 2425 2619 2100 
L 2322 2497 
Q 3125 2731 3391 3109 
Q 3103 3331 2834 3425 
L 3091 3788 
Q 3234 3734 3406 3628 
Q 3578 3522 3628 3500 
Q 3725 3688 3750 4134 
L 2869 4134 
L 2869 4603 
L 3750 4603 
L 3750 5331 
L 4213 5331 
L 4213 4603 
L 5269 4603 
Q 5284 3666 5318 3314 
Q 5353 2963 5538 2619 
Q 5616 2834 5672 3084 
L 6088 2772 
z
M 2694 3450 
L 2034 3278 
L 2034 2566 
Q 2034 2369 1921 2228 
Q 1809 2088 1625 2088 
L 1069 2088 
L 916 2559 
L 1428 2534 
Q 1463 2534 1506 2570 
Q 1550 2606 1550 2644 
L 1550 3163 
L 647 2950 
L 372 3397 
Q 981 3500 1550 3641 
L 1550 4238 
L 609 4238 
L 609 4703 
L 1550 4703 
L 1550 5331 
L 2034 5331 
L 2034 4703 
L 2656 4703 
L 2656 4238 
L 2034 4238 
L 2034 3731 
L 2694 3897 
L 2694 3450 
z
M 5434 1825 
Q 5434 1313 5343 689 
Q 5253 66 5083 -139 
Q 4913 -344 4634 -344 
Q 4488 -344 3928 -263 
L 3769 250 
L 4231 134 
Q 4403 128 4519 128 
Q 4666 128 4692 137 
Q 4719 147 4776 278 
Q 4834 409 4863 672 
L 4941 1356 
L 3450 1356 
Q 3038 -91 781 -366 
L 569 116 
Q 2350 209 2950 1356 
L 728 1356 
L 728 1825 
L 3041 1825 
L 3078 2181 
L 3553 2100 
L 3506 1825 
L 5434 1825 
z
" transform="scale(0.015625)"/>
       </defs>
       <use xlink:href="#ArialUnicodeMS-673a"/>
       <use xlink:href="#ArialUnicodeMS-5668" transform="translate(100 0)"/>
       <use xlink:href="#ArialUnicodeMS-5b66" transform="translate(200 0)"/>
       <use xlink:href="#ArialUnicodeMS-4e60" transform="translate(300 0)"/>
       <use xlink:href="#ArialUnicodeMS-52bf" transform="translate(400 0)"/>
       <use xlink:href="#ArialUnicodeMS-20" transform="translate(500 0)"/>
       <use xlink:href="#ArialUnicodeMS-4d" transform="translate(527.783203 0)"/>
       <use xlink:href="#ArialUnicodeMS-44" transform="translate(611.083984 0)"/>
      </g>
     </g>
    </g>
   </g>
   <g id="patch_6">
    <path d="M 126 202.176 
L 126 18.144 
" style="fill: none; stroke: #454545; stroke-width: 0.8; stroke-linejoin: miter; stroke-linecap: square"/>
   </g>
   <g id="patch_7">
    <path d="M 126 202.176 
L 399 202.176 
" style="fill: none; stroke: #454545; stroke-width: 0.8; stroke-linejoin: miter; stroke-linecap: square"/>
   </g>
   <g id="text_11">
    <!-- 4.95 -->
    <g style="fill: #252525" transform="translate(167.905257 53.250444) scale(0.11 -0.11)">
     <defs>
      <path id="ArialUnicodeMS-2e" d="M 1209 0 
L 569 0 
L 569 641 
L 1209 641 
L 1209 0 
z
" transform="scale(0.015625)"/>
      <path id="ArialUnicodeMS-39" d="M 2713 2156 
Q 2547 1888 2258 1722 
Q 1969 1556 1631 1556 
Q 1066 1556 670 1970 
Q 275 2384 275 3053 
Q 275 3734 678 4168 
Q 1081 4603 1716 4603 
Q 2353 4603 2818 4106 
Q 3284 3609 3284 2388 
Q 3284 1147 2859 534 
Q 2434 -78 1644 -78 
Q 1128 -78 781 205 
Q 434 488 359 1063 
L 897 1106 
Q 1025 384 1656 384 
Q 2175 384 2450 857 
Q 2725 1331 2725 2156 
L 2713 2156 
z
M 1766 2047 
Q 2178 2047 2420 2339 
Q 2663 2631 2663 3078 
Q 2663 3531 2414 3836 
Q 2166 4141 1778 4141 
Q 1388 4141 1119 3817 
Q 850 3494 850 3034 
Q 850 2600 1114 2323 
Q 1378 2047 1766 2047 
z
" transform="scale(0.015625)"/>
     </defs>
     <use xlink:href="#ArialUnicodeMS-34"/>
     <use xlink:href="#ArialUnicodeMS-2e" transform="translate(55.615234 0)"/>
     <use xlink:href="#ArialUnicodeMS-39" transform="translate(83.398438 0)"/>
     <use xlink:href="#ArialUnicodeMS-35" transform="translate(139.013672 0)"/>
    </g>
   </g>
   <g id="text_12">
    <!-- 1.07e+03 -->
    <g style="fill: #252525" transform="translate(284.246387 113.001094) scale(0.11 -0.11)">
     <defs>
      <path id="ArialUnicodeMS-37" d="M 3272 4084 
Q 2597 3344 2103 2253 
Q 1609 1163 1522 0 
L 947 0 
Q 969 934 1408 2051 
Q 1847 3169 2547 3975 
L 306 3975 
L 306 4519 
L 3272 4519 
L 3272 4084 
z
" transform="scale(0.015625)"/>
      <path id="ArialUnicodeMS-65" d="M 3309 1516 
L 825 1516 
Q 859 966 1139 675 
Q 1419 384 1838 384 
Q 2159 384 2378 554 
Q 2597 725 2713 1069 
L 3291 997 
Q 3150 478 2775 200 
Q 2400 -78 1838 -78 
Q 1091 -78 670 380 
Q 250 838 250 1631 
Q 250 2416 658 2903 
Q 1066 3391 1806 3391 
Q 2169 3391 2505 3231 
Q 2841 3072 3075 2689 
Q 3309 2306 3309 1516 
z
M 2731 1978 
Q 2697 2484 2417 2707 
Q 2138 2931 1806 2931 
Q 1409 2931 1153 2665 
Q 897 2400 856 1978 
L 2731 1978 
z
" transform="scale(0.015625)"/>
      <path id="ArialUnicodeMS-2b" d="M 3384 1997 
L 2131 1997 
L 2131 744 
L 1606 744 
L 1606 1997 
L 353 1997 
L 353 2522 
L 1606 2522 
L 1606 3775 
L 2131 3775 
L 2131 2522 
L 3384 2522 
L 3384 1997 
z
" transform="scale(0.015625)"/>
     </defs>
     <use xlink:href="#ArialUnicodeMS-31"/>
     <use xlink:href="#ArialUnicodeMS-2e" transform="translate(55.615234 0)"/>
     <use xlink:href="#ArialUnicodeMS-30" transform="translate(83.398438 0)"/>
     <use xlink:href="#ArialUnicodeMS-37" transform="translate(139.013672 0)"/>
     <use xlink:href="#ArialUnicodeMS-65" transform="translate(194.628906 0)"/>
     <use xlink:href="#ArialUnicodeMS-2b" transform="translate(250.244141 0)"/>
     <use xlink:href="#ArialUnicodeMS-30" transform="translate(308.642578 0)"/>
     <use xlink:href="#ArialUnicodeMS-33" transform="translate(364.257812 0)"/>
    </g>
   </g>
   <g id="text_13">
    <!-- 5.88e+03 -->
    <g style="fill: #252525" transform="translate(321.14967 172.751743) scale(0.11 -0.11)">
     <defs>
      <path id="ArialUnicodeMS-38" d="M 2425 2478 
Q 3284 2203 3284 1306 
Q 3284 716 2862 319 
Q 2441 -78 1778 -78 
Q 1109 -78 689 322 
Q 269 722 269 1325 
Q 269 1759 505 2084 
Q 741 2409 1141 2478 
L 1141 2491 
Q 453 2703 453 3419 
Q 453 3925 815 4264 
Q 1178 4603 1766 4603 
Q 2363 4603 2730 4253 
Q 3097 3903 3097 3406 
Q 3097 2731 2425 2491 
L 2425 2478 
z
M 1778 2700 
Q 2094 2700 2308 2901 
Q 2522 3103 2522 3406 
Q 2522 3716 2305 3928 
Q 2088 4141 1772 4141 
Q 1450 4141 1240 3931 
Q 1031 3722 1031 3438 
Q 1031 3097 1247 2898 
Q 1463 2700 1778 2700 
z
M 1778 384 
Q 2175 384 2440 640 
Q 2706 897 2706 1306 
Q 2706 1716 2432 1978 
Q 2159 2241 1766 2241 
Q 1356 2241 1100 1970 
Q 844 1700 844 1319 
Q 844 922 1108 653 
Q 1372 384 1778 384 
z
" transform="scale(0.015625)"/>
     </defs>
     <use xlink:href="#ArialUnicodeMS-35"/>
     <use xlink:href="#ArialUnicodeMS-2e" transform="translate(55.615234 0)"/>
     <use xlink:href="#ArialUnicodeMS-38" transform="translate(83.398438 0)"/>
     <use xlink:href="#ArialUnicodeMS-38" transform="translate(139.013672 0)"/>
     <use xlink:href="#ArialUnicodeMS-65" transform="translate(194.628906 0)"/>
     <use xlink:href="#ArialUnicodeMS-2b" transform="translate(250.244141 0)"/>
     <use xlink:href="#ArialUnicodeMS-30" transform="translate(308.642578 0)"/>
     <use xlink:href="#ArialUnicodeMS-33" transform="translate(364.257812 0)"/>
    </g>
   </g>
  </g>
  <g id="patch_8">
   <path d="M 359.1 19.44 
L 413.04 19.44 
Q 416.4 19.44 416.4 17.3664 
L 416.4 5.6736 
Q 416.4 3.6 413.04 3.6 
L 359.1 3.6 
Q 355.74 3.6 355.74 5.6736 
L 355.74 17.3664 
Q 355.74 19.44 359.1 19.44 
z
" style="fill: #f9dec0; stroke: #454545; stroke-width: 0.9; stroke-linejoin: miter"/>
  </g>
  <g id="text_14">
   <!-- 复算结果图 -->
   <g style="fill: #252525" transform="translate(358.57 14.36625) scale(0.11 -0.11)">
    <defs>
     <path id="ArialUnicodeMS-590d" d="M 6106 84 
L 5819 -391 
Q 4316 -269 3419 72 
Q 2341 -347 659 -416 
L 353 103 
Q 1988 91 2859 372 
Q 2338 700 2075 966 
Q 1744 719 1369 525 
L 1025 884 
Q 2088 1463 2291 1991 
L 1581 1991 
L 1581 3609 
Q 963 3019 763 2900 
L 359 3219 
Q 1472 3894 1931 5306 
L 2375 5113 
Q 2341 4950 2209 4684 
L 5691 4684 
L 5684 4219 
L 1978 4219 
Q 1947 4178 1883 4068 
Q 1819 3959 1784 3916 
L 5050 3916 
L 5050 1991 
L 2656 1991 
L 2656 1978 
L 2822 1875 
L 2663 1650 
L 5056 1650 
L 5056 1209 
Q 4731 819 4025 372 
Q 4581 163 6106 84 
z
M 4550 3200 
L 4550 3463 
L 2075 3463 
L 2075 3200 
L 4550 3200 
z
M 4550 2463 
L 4550 2731 
L 2075 2731 
L 2075 2463 
L 4550 2463 
z
M 4325 1184 
L 2516 1184 
Q 2953 794 3438 609 
Q 4066 931 4325 1184 
z
" transform="scale(0.015625)"/>
     <path id="ArialUnicodeMS-7ed3" d="M 5972 3847 
L 4434 3847 
L 4434 2969 
L 5650 2969 
L 5650 2509 
L 2753 2509 
L 2753 2969 
L 3950 2969 
L 3950 3847 
L 2516 3847 
L 2516 4306 
L 3950 4306 
L 3950 5356 
L 4434 5356 
L 4434 4306 
L 5972 4306 
L 5972 3847 
z
M 2613 1728 
Q 2266 1631 1628 1482 
Q 991 1334 684 1234 
L 453 1663 
Q 1106 2319 1363 2725 
Q 863 2600 672 2534 
L 428 2975 
Q 925 3784 1503 5259 
L 1941 5056 
Q 1375 3766 1013 3116 
Q 1150 3134 1684 3250 
Q 1888 3556 2088 3956 
L 2516 3725 
Q 1875 2516 1247 1894 
L 1259 1881 
L 2613 2188 
L 2613 1728 
z
M 5466 -422 
L 4978 -422 
L 4978 19 
L 3413 19 
L 3413 -422 
L 2925 -422 
L 2925 1894 
L 5466 1894 
L 5466 -422 
z
M 4978 481 
L 4978 1434 
L 3413 1434 
L 3413 481 
L 4978 481 
z
M 2700 709 
L 703 31 
L 469 475 
Q 2447 1119 2700 1197 
L 2700 709 
z
" transform="scale(0.015625)"/>
     <path id="ArialUnicodeMS-679c" d="M 6144 331 
L 5850 -78 
Q 4253 453 3456 1538 
L 3456 -428 
L 2963 -416 
L 2963 1522 
Q 2291 447 641 -91 
L 306 300 
Q 1672 672 2413 1528 
L 609 1528 
L 609 1997 
L 2969 1997 
L 2969 2450 
L 1241 2450 
L 1241 5044 
L 5197 5044 
L 5197 2450 
L 3456 2450 
L 3456 1997 
L 5813 1997 
L 5813 1528 
L 4063 1528 
Q 4731 747 6144 331 
z
M 4709 3981 
L 4709 4575 
L 3456 4575 
L 3456 3981 
L 4709 3981 
z
M 2969 3981 
L 2969 4575 
L 1728 4575 
L 1728 3981 
L 2969 3981 
z
M 4709 2919 
L 4709 3513 
L 3456 3513 
L 3456 2919 
L 4709 2919 
z
M 2969 2919 
L 2969 3513 
L 1728 3513 
L 1728 2919 
L 2969 2919 
z
" transform="scale(0.015625)"/>
     <path id="ArialUnicodeMS-56fe" d="M 5544 -422 
L 5056 -422 
L 5056 19 
L 1184 19 
L 1184 -422 
L 703 -422 
L 703 5019 
L 5544 5019 
L 5544 -422 
z
M 5056 2400 
L 5056 4550 
L 2625 4550 
L 2625 4538 
L 2906 4416 
Q 2863 4322 2778 4178 
L 4513 4178 
L 4513 3781 
Q 4203 3203 3675 2778 
Q 4228 2456 5056 2400 
z
M 5056 459 
L 5056 2163 
L 5044 2163 
L 4831 1850 
Q 4013 1963 3188 2463 
Q 2713 2188 1516 1900 
L 1281 2388 
Q 2341 2584 2784 2834 
Q 2544 3022 2259 3413 
Q 1941 3031 1575 2869 
L 1253 3297 
Q 2072 3656 2419 4550 
L 1191 4550 
L 1191 459 
L 3231 459 
Q 2769 950 2125 1228 
L 2400 1606 
Q 3019 1372 3694 716 
L 3488 459 
L 5056 459 
z
M 3994 1491 
L 3628 1131 
Q 3197 1638 2613 1906 
L 2963 2241 
Q 3434 2072 3994 1491 
z
M 3903 3713 
L 2584 3713 
Q 2709 3513 3250 3053 
Q 3647 3328 3903 3713 
z
" transform="scale(0.015625)"/>
    </defs>
    <use xlink:href="#ArialUnicodeMS-590d"/>
    <use xlink:href="#ArialUnicodeMS-7b97" transform="translate(100 0)"/>
    <use xlink:href="#ArialUnicodeMS-7ed3" transform="translate(200 0)"/>
    <use xlink:href="#ArialUnicodeMS-679c" transform="translate(300 0)"/>
    <use xlink:href="#ArialUnicodeMS-56fe" transform="translate(400 0)"/>
   </g>
  </g>
 </g>
 <defs>
  <clipPath id="p8cba358f3a">
   <rect x="126" y="18.144" width="273" height="184.032"/>
  </clipPath>
 </defs>
</svg>
