<?xml version="1.0" encoding="utf-8" standalone="no"?>
<!DOCTYPE svg PUBLIC "-//W3C//DTD SVG 1.1//EN"
  "http://www.w3.org/Graphics/SVG/1.1/DTD/svg11.dtd">
<svg xmlns:xlink="http://www.w3.org/1999/xlink" width="420pt" height="259.2pt" viewBox="0 0 420 259.2" xmlns="http://www.w3.org/2000/svg" version="1.1">
 <metadata>
  <rdf:RDF xmlns:dc="http://purl.org/dc/elements/1.1/" xmlns:cc="http://creativecommons.org/ns#" xmlns:rdf="http://www.w3.org/1999/02/22-rdf-syntax-ns#">
   <cc:Work>
    <dc:type rdf:resource="http://purl.org/dc/dcmitype/StillImage"/>
    <dc:date>2026-09-17T21:59:24.751695</dc:date>
    <dc:format>image/svg+xml</dc:format>
    <dc:creator>
     <cc:Agent>
      <dc:title>Matplotlib v3.10.9, https://matplotlib.org/</dc:title>
     </cc:Agent>
    </dc:creator>
   </cc:Work>
  </rdf:RDF>
 </metadata>
 <defs>
  <style type="text/css">*{stroke-linejoin: round; stroke-linecap: butt}</style>
 </defs>
 <g id="figure_1">
  <g id="patch_1">
   <path d="M 0 259.2 
L 420 259.2 
L 420 0 
L 0 0 
z
" style="fill: #ffffff"/>
  </g>
  <g id="axes_1">
   <g id="patch_2">
    <path d="M 67.2 204.768 
L 399 204.768 
L 399 18.144 
L 67.2 18.144 
z
" style="fill: #ffffff"/>
   </g>
   <g id="matplotlib.axis_1">
    <g id="xtick_1">
     <g id="line2d_1">
      <defs>
       <path id="m3841c28e2d" d="M 0 0 
L 0 3.5 
" style="stroke: #252525; stroke-width: 0.8"/>
      </defs>
      <g>
       <use xlink:href="#m3841c28e2d" x="67.2" y="204.768" style="fill: #252525; stroke: #252525; stroke-width: 0.8"/>
      </g>
     </g>
     <g id="text_1">
      <!-- 5 -->
      <g style="fill: #252525" transform="translate(64.141484 219.641594) scale(0.11 -0.11)">
       <defs>
        <path id="ArialUnicodeMS-35" d="M 1013 2753 
Q 1431 3041 1881 3041 
Q 2453 3041 2878 2636 
Q 3303 2231 3303 1556 
Q 3303 875 2872 398 
Q 2441 -78 1741 -78 
Q 1169 -78 750 245 
Q 331 569 269 1203 
L 856 1247 
Q 928 813 1162 598 
Q 1397 384 1741 384 
Q 2169 384 2434 707 
Q 2700 1031 2700 1503 
Q 2700 1984 2428 2262 
Q 2156 2541 1728 2541 
Q 1188 2541 897 2100 
L 366 2163 
L 813 4519 
L 3084 4519 
L 3084 3975 
L 1259 3975 
L 1013 2753 
z
" transform="scale(0.015625)"/>
       </defs>
       <use xlink:href="#ArialUnicodeMS-35"/>
      </g>
     </g>
    </g>
    <g id="xtick_2">
     <g id="line2d_2">
      <g>
       <use xlink:href="#m3841c28e2d" x="117.140876" y="204.768" style="fill: #252525; stroke: #252525; stroke-width: 0.8"/>
      </g>
     </g>
     <g id="text_2">
      <!-- 10 -->
      <g style="fill: #252525" transform="translate(111.023845 219.641594) scale(0.11 -0.11)">
       <defs>
        <path id="ArialUnicodeMS-31" d="M 2400 0 
L 1838 0 
L 1838 3584 
Q 1416 3184 709 2906 
L 709 3450 
Q 1681 3916 2034 4603 
L 2400 4603 
L 2400 0 
z
" transform="scale(0.015625)"/>
        <path id="ArialUnicodeMS-30" d="M 1778 4603 
Q 3272 4603 3272 2259 
Q 3272 1075 2886 498 
Q 2500 -78 1778 -78 
Q 288 -78 288 2259 
Q 288 3444 673 4023 
Q 1059 4603 1778 4603 
z
M 1778 384 
Q 2231 384 2462 823 
Q 2694 1263 2694 2259 
Q 2694 2953 2592 3351 
Q 2491 3750 2286 3945 
Q 2081 4141 1772 4141 
Q 1319 4141 1091 3694 
Q 863 3247 863 2259 
Q 863 1575 966 1175 
Q 1069 775 1272 579 
Q 1475 384 1778 384 
z
" transform="scale(0.015625)"/>
       </defs>
       <use xlink:href="#ArialUnicodeMS-31"/>
       <use xlink:href="#ArialUnicodeMS-30" transform="translate(55.615234 0)"/>
      </g>
     </g>
    </g>
    <g id="xtick_3">
     <g id="line2d_3">
      <g>
       <use xlink:href="#m3841c28e2d" x="183.159124" y="204.768" style="fill: #252525; stroke: #252525; stroke-width: 0.8"/>
      </g>
     </g>
     <g id="text_3">
      <!-- 25 -->
      <g style="fill: #252525" transform="translate(177.042092 219.641594) scale(0.11 -0.11)">
       <defs>
        <path id="ArialUnicodeMS-32" d="M 3231 0 
L 197 0 
Q 197 388 467 784 
Q 738 1181 1478 1778 
Q 1931 2141 2287 2539 
Q 2644 2938 2644 3341 
Q 2644 3688 2398 3914 
Q 2153 4141 1778 4141 
Q 1400 4141 1144 3908 
Q 888 3675 884 3213 
L 306 3278 
Q 359 3922 764 4262 
Q 1169 4603 1791 4603 
Q 2466 4603 2842 4229 
Q 3219 3856 3219 3328 
Q 3219 2888 2901 2436 
Q 2584 1984 1638 1228 
Q 1141 831 978 544 
L 3231 544 
L 3231 0 
z
" transform="scale(0.015625)"/>
       </defs>
       <use xlink:href="#ArialUnicodeMS-32"/>
       <use xlink:href="#ArialUnicodeMS-35" transform="translate(55.615234 0)"/>
      </g>
     </g>
    </g>
    <g id="xtick_4">
     <g id="line2d_4">
      <g>
       <use xlink:href="#m3841c28e2d" x="233.1" y="204.768" style="fill: #252525; stroke: #252525; stroke-width: 0.8"/>
      </g>
     </g>
     <g id="text_4">
      <!-- 50 -->
      <g style="fill: #252525" transform="translate(226.982969 219.641594) scale(0.11 -0.11)">
       <use xlink:href="#ArialUnicodeMS-35"/>
       <use xlink:href="#ArialUnicodeMS-30" transform="translate(55.615234 0)"/>
      </g>
     </g>
    </g>
    <g id="xtick_5">
     <g id="line2d_5">
      <g>
       <use xlink:href="#m3841c28e2d" x="283.040876" y="204.768" style="fill: #252525; stroke: #252525; stroke-width: 0.8"/>
      </g>
     </g>
     <g id="text_5">
      <!-- 100 -->
      <g style="fill: #252525" transform="translate(273.865329 219.641594) scale(0.11 -0.11)">
       <use xlink:href="#ArialUnicodeMS-31"/>
       <use xlink:href="#ArialUnicodeMS-30" transform="translate(55.615234 0)"/>
       <use xlink:href="#ArialUnicodeMS-30" transform="translate(111.230469 0)"/>
      </g>
     </g>
    </g>
    <g id="xtick_6">
     <g id="line2d_6">
      <g>
       <use xlink:href="#m3841c28e2d" x="332.981753" y="204.768" style="fill: #252525; stroke: #252525; stroke-width: 0.8"/>
      </g>
     </g>
     <g id="text_6">
      <!-- 200 -->
      <g style="fill: #252525" transform="translate(323.806206 219.641594) scale(0.11 -0.11)">
       <use xlink:href="#ArialUnicodeMS-32"/>
       <use xlink:href="#ArialUnicodeMS-30" transform="translate(55.615234 0)"/>
       <use xlink:href="#ArialUnicodeMS-30" transform="translate(111.230469 0)"/>
      </g>
     </g>
    </g>
    <g id="xtick_7">
     <g id="line2d_7">
      <g>
       <use xlink:href="#m3841c28e2d" x="399" y="204.768" style="fill: #252525; stroke: #252525; stroke-width: 0.8"/>
      </g>
     </g>
     <g id="text_7">
      <!-- 500 -->
      <g style="fill: #252525" transform="translate(389.824453 219.641594) scale(0.11 -0.11)">
       <use xlink:href="#ArialUnicodeMS-35"/>
       <use xlink:href="#ArialUnicodeMS-30" transform="translate(55.615234 0)"/>
       <use xlink:href="#ArialUnicodeMS-30" transform="translate(111.230469 0)"/>
      </g>
     </g>
    </g>
    <g id="xtick_8">
     <g id="line2d_8">
      <defs>
       <path id="m14e2488234" d="M 0 0 
L 0 2 
" style="stroke: #252525; stroke-width: 0.6"/>
      </defs>
      <g>
       <use xlink:href="#m14e2488234" x="80.336169" y="204.768" style="fill: #252525; stroke: #252525; stroke-width: 0.6"/>
      </g>
     </g>
    </g>
    <g id="xtick_9">
     <g id="line2d_9">
      <g>
       <use xlink:href="#m14e2488234" x="91.442641" y="204.768" style="fill: #252525; stroke: #252525; stroke-width: 0.6"/>
      </g>
     </g>
    </g>
    <g id="xtick_10">
     <g id="line2d_10">
      <g>
       <use xlink:href="#m14e2488234" x="101.063505" y="204.768" style="fill: #252525; stroke: #252525; stroke-width: 0.6"/>
      </g>
     </g>
    </g>
    <g id="xtick_11">
     <g id="line2d_11">
      <g>
       <use xlink:href="#m14e2488234" x="109.549709" y="204.768" style="fill: #252525; stroke: #252525; stroke-width: 0.6"/>
      </g>
     </g>
    </g>
    <g id="xtick_12">
     <g id="line2d_12">
      <g>
       <use xlink:href="#m14e2488234" x="167.081753" y="204.768" style="fill: #252525; stroke: #252525; stroke-width: 0.6"/>
      </g>
     </g>
    </g>
    <g id="xtick_13">
     <g id="line2d_13">
      <g>
       <use xlink:href="#m14e2488234" x="196.295292" y="204.768" style="fill: #252525; stroke: #252525; stroke-width: 0.6"/>
      </g>
     </g>
    </g>
    <g id="xtick_14">
     <g id="line2d_14">
      <g>
       <use xlink:href="#m14e2488234" x="217.022629" y="204.768" style="fill: #252525; stroke: #252525; stroke-width: 0.6"/>
      </g>
     </g>
    </g>
    <g id="xtick_15">
     <g id="line2d_15">
      <g>
       <use xlink:href="#m14e2488234" x="246.236169" y="204.768" style="fill: #252525; stroke: #252525; stroke-width: 0.6"/>
      </g>
     </g>
    </g>
    <g id="xtick_16">
     <g id="line2d_16">
      <g>
       <use xlink:href="#m14e2488234" x="257.342641" y="204.768" style="fill: #252525; stroke: #252525; stroke-width: 0.6"/>
      </g>
     </g>
    </g>
    <g id="xtick_17">
     <g id="line2d_17">
      <g>
       <use xlink:href="#m14e2488234" x="266.963505" y="204.768" style="fill: #252525; stroke: #252525; stroke-width: 0.6"/>
      </g>
     </g>
    </g>
    <g id="xtick_18">
     <g id="line2d_18">
      <g>
       <use xlink:href="#m14e2488234" x="275.449709" y="204.768" style="fill: #252525; stroke: #252525; stroke-width: 0.6"/>
      </g>
     </g>
    </g>
    <g id="xtick_19">
     <g id="line2d_19">
      <g>
       <use xlink:href="#m14e2488234" x="362.195292" y="204.768" style="fill: #252525; stroke: #252525; stroke-width: 0.6"/>
      </g>
     </g>
    </g>
    <g id="xtick_20">
     <g id="line2d_20">
      <g>
       <use xlink:href="#m14e2488234" x="382.922629" y="204.768" style="fill: #252525; stroke: #252525; stroke-width: 0.6"/>
      </g>
     </g>
    </g>
    <g id="text_8">
     <!-- 分子量 M（kg/mol） -->
     <g style="fill: #252525" transform="translate(178.764375 235.30175) scale(0.12 -0.12)">
      <defs>
       <path id="ArialUnicodeMS-5206" d="M 5991 3003 
L 5684 2553 
Q 4856 3041 4451 3534 
Q 4047 4028 3781 4831 
L 4319 4984 
Q 4375 4356 4829 3825 
Q 5284 3294 5991 3003 
z
M 2613 4697 
Q 2169 3484 800 2547 
L 416 2919 
Q 1731 3741 2188 4934 
L 2613 4697 
z
M 4872 2931 
Q 4844 1956 4730 1092 
Q 4616 228 4430 7 
Q 4244 -213 3847 -213 
Q 3469 -213 2894 -78 
L 2747 481 
Q 3503 269 3834 269 
Q 4013 269 4128 639 
Q 4244 1009 4341 2463 
L 3138 2463 
Q 2869 263 831 -441 
L 525 -31 
Q 2372 478 2631 2463 
L 1556 2463 
L 1556 2931 
L 4872 2931 
z
" transform="scale(0.015625)"/>
       <path id="ArialUnicodeMS-5b50" d="M 5894 2328 
L 3566 2328 
L 3566 191 
Q 3566 -31 3425 -172 
Q 3284 -313 3034 -313 
L 2247 -313 
L 2016 184 
L 2822 147 
Q 3078 138 3078 447 
L 3078 2328 
L 628 2328 
L 628 2797 
L 3078 2797 
L 3078 3438 
Q 3856 3947 4403 4569 
L 1416 4569 
L 1416 5038 
L 5100 5038 
L 5100 4678 
Q 4438 3794 3566 3200 
L 3566 2797 
L 5894 2797 
L 5894 2328 
z
" transform="scale(0.015625)"/>
       <path id="ArialUnicodeMS-91cf" d="M 5056 3378 
L 1313 3378 
L 1313 5050 
L 5056 5050 
L 5056 3378 
z
M 4569 4403 
L 4569 4609 
L 1797 4609 
L 1797 4403 
L 4569 4403 
z
M 4569 3794 
L 4569 4031 
L 1797 4031 
L 1797 3794 
L 4569 3794 
z
M 5797 2816 
L 581 2816 
L 581 3231 
L 5797 3231 
L 5797 2816 
z
M 6059 -191 
L 341 -191 
L 341 275 
L 2950 275 
L 2950 459 
L 897 459 
L 897 878 
L 2950 878 
L 2950 1044 
L 1125 1044 
L 1125 2669 
L 5269 2669 
L 5269 1044 
L 3438 1044 
L 3438 878 
L 5509 878 
L 5509 459 
L 3438 459 
L 3438 275 
L 6059 275 
L 6059 -191 
z
M 4781 2053 
L 4781 2253 
L 3438 2253 
L 3438 2053 
L 4781 2053 
z
M 2950 2053 
L 2950 2253 
L 1613 2253 
L 1613 2053 
L 2950 2053 
z
M 4781 1459 
L 4781 1697 
L 3438 1697 
L 3438 1459 
L 4781 1459 
z
M 2950 1459 
L 2950 1697 
L 1613 1697 
L 1613 1459 
L 2950 1459 
z
" transform="scale(0.015625)"/>
       <path id="ArialUnicodeMS-20" transform="scale(0.015625)"/>
       <path id="ArialUnicodeMS-4d" d="M 4844 0 
L 4269 0 
L 4269 3834 
L 4256 3834 
L 2938 0 
L 2394 0 
L 1081 3897 
L 1063 3897 
L 1063 0 
L 488 0 
L 488 4581 
L 1394 4581 
L 2478 1338 
Q 2659 797 2688 659 
L 2700 659 
Q 2784 925 2944 1394 
L 4038 4581 
L 4844 4581 
L 4844 0 
z
" transform="scale(0.015625)"/>
       <path id="ArialUnicodeMS-ff08" d="M 3964 -1344 
L 3561 -1344 
Q 3042 -681 2745 103 
Q 2448 888 2448 1656 
Q 2448 2528 2764 3275 
Q 3080 4022 3561 4659 
L 3964 4659 
Q 3408 3747 3219 3059 
Q 3030 2372 3030 1663 
Q 3030 153 3964 -1344 
z
" transform="scale(0.015625)"/>
       <path id="ArialUnicodeMS-6b" d="M 3175 0 
L 2484 0 
L 1381 1697 
L 984 1319 
L 984 0 
L 422 0 
L 422 4581 
L 984 4581 
L 984 1972 
L 2316 3316 
L 3047 3316 
L 1778 2088 
L 3175 0 
z
" transform="scale(0.015625)"/>
       <path id="ArialUnicodeMS-67" d="M 3144 447 
Q 3144 -259 3003 -607 
Q 2863 -956 2503 -1150 
Q 2144 -1344 1644 -1344 
Q 1081 -1344 706 -1094 
Q 331 -844 331 -275 
L 878 -359 
Q 909 -622 1098 -753 
Q 1288 -884 1638 -884 
Q 2075 -884 2278 -706 
Q 2481 -528 2526 -272 
Q 2572 -16 2572 434 
Q 2206 0 1650 0 
Q 1003 0 611 478 
Q 219 956 219 1684 
Q 219 2416 600 2903 
Q 981 3391 1656 3391 
Q 2244 3391 2613 2919 
L 2625 2919 
L 2625 3316 
L 3144 3316 
L 3144 447 
z
M 1703 459 
Q 2063 459 2341 745 
Q 2619 1031 2619 1703 
Q 2619 2297 2353 2614 
Q 2088 2931 1697 2931 
Q 1297 2931 1045 2606 
Q 794 2281 794 1716 
Q 794 1063 1058 761 
Q 1322 459 1703 459 
z
" transform="scale(0.015625)"/>
       <path id="ArialUnicodeMS-2f" d="M 1778 4581 
L 453 -153 
L 0 -153 
L 1325 4581 
L 1778 4581 
z
" transform="scale(0.015625)"/>
       <path id="ArialUnicodeMS-6d" d="M 4922 0 
L 4359 0 
L 4359 2094 
Q 4359 2325 4328 2489 
Q 4297 2653 4167 2779 
Q 4038 2906 3763 2906 
Q 3431 2906 3190 2675 
Q 2950 2444 2950 1925 
L 2950 0 
L 2388 0 
L 2388 2156 
Q 2388 2588 2236 2747 
Q 2084 2906 1806 2906 
Q 1444 2906 1211 2656 
Q 978 2406 978 1722 
L 978 0 
L 416 0 
L 416 3316 
L 922 3316 
L 922 2853 
L 934 2853 
Q 1272 3391 1925 3391 
Q 2291 3391 2527 3245 
Q 2763 3100 2869 2809 
Q 3238 3391 3891 3391 
Q 4406 3391 4664 3112 
Q 4922 2834 4922 2278 
L 4922 0 
z
" transform="scale(0.015625)"/>
       <path id="ArialUnicodeMS-6f" d="M 1778 3391 
Q 2450 3391 2892 2953 
Q 3334 2516 3334 1709 
Q 3334 731 2856 326 
Q 2378 -78 1778 -78 
Q 1150 -78 687 337 
Q 225 753 225 1656 
Q 225 2531 672 2961 
Q 1119 3391 1778 3391 
z
M 1778 384 
Q 2259 384 2509 740 
Q 2759 1097 2759 1678 
Q 2759 2300 2476 2615 
Q 2194 2931 1778 2931 
Q 1350 2931 1075 2611 
Q 800 2291 800 1656 
Q 800 1025 1079 704 
Q 1359 384 1778 384 
z
" transform="scale(0.015625)"/>
       <path id="ArialUnicodeMS-6c" d="M 991 0 
L 428 0 
L 428 4581 
L 991 4581 
L 991 0 
z
" transform="scale(0.015625)"/>
       <path id="ArialUnicodeMS-ff09" d="M 2850 4659 
Q 3369 3997 3666 3212 
Q 3963 2428 3963 1656 
Q 3963 788 3647 41 
Q 3332 -706 2850 -1344 
L 2447 -1344 
Q 3004 -431 3193 255 
Q 3382 941 3382 1650 
Q 3382 3163 2447 4659 
L 2850 4659 
z
" transform="scale(0.015625)"/>
      </defs>
      <use xlink:href="#ArialUnicodeMS-5206"/>
      <use xlink:href="#ArialUnicodeMS-5b50" transform="translate(100 0)"/>
      <use xlink:href="#ArialUnicodeMS-91cf" transform="translate(200 0)"/>
      <use xlink:href="#ArialUnicodeMS-20" transform="translate(300 0)"/>
      <use xlink:href="#ArialUnicodeMS-4d" transform="translate(327.783203 0)"/>
      <use xlink:href="#ArialUnicodeMS-ff08" transform="translate(411.083984 0)"/>
      <use xlink:href="#ArialUnicodeMS-6b" transform="translate(511.083984 0)"/>
      <use xlink:href="#ArialUnicodeMS-67" transform="translate(561.083984 0)"/>
      <use xlink:href="#ArialUnicodeMS-2f" transform="translate(616.699219 0)"/>
      <use xlink:href="#ArialUnicodeMS-6d" transform="translate(644.482422 0)"/>
      <use xlink:href="#ArialUnicodeMS-6f" transform="translate(727.783203 0)"/>
      <use xlink:href="#ArialUnicodeMS-6c" transform="translate(783.398438 0)"/>
      <use xlink:href="#ArialUnicodeMS-ff09" transform="translate(805.615234 0)"/>
     </g>
    </g>
   </g>
   <g id="matplotlib.axis_2">
    <g id="ytick_1">
     <g id="line2d_21">
      <defs>
       <path id="m8a7c7589b4" d="M 0 0 
L -3.5 0 
" style="stroke: #252525; stroke-width: 0.8"/>
      </defs>
      <g>
       <use xlink:href="#m8a7c7589b4" x="67.2" y="204.768" style="fill: #252525; stroke: #252525; stroke-width: 0.8"/>
      </g>
     </g>
     <g id="text_9">
      <!-- 0.0 -->
      <g style="fill: #252525" transform="translate(44.91 208.704797) scale(0.11 -0.11)">
       <defs>
        <path id="ArialUnicodeMS-2e" d="M 1209 0 
L 569 0 
L 569 641 
L 1209 641 
L 1209 0 
z
" transform="scale(0.015625)"/>
       </defs>
       <use xlink:href="#ArialUnicodeMS-30"/>
       <use xlink:href="#ArialUnicodeMS-2e" transform="translate(55.615234 0)"/>
       <use xlink:href="#ArialUnicodeMS-30" transform="translate(83.398438 0)"/>
      </g>
     </g>
    </g>
    <g id="ytick_2">
     <g id="line2d_22">
      <g>
       <use xlink:href="#m8a7c7589b4" x="67.2" y="172.311652" style="fill: #252525; stroke: #252525; stroke-width: 0.8"/>
      </g>
     </g>
     <g id="text_10">
      <!-- 0.2 -->
      <g style="fill: #252525" transform="translate(44.91 176.248449) scale(0.11 -0.11)">
       <use xlink:href="#ArialUnicodeMS-30"/>
       <use xlink:href="#ArialUnicodeMS-2e" transform="translate(55.615234 0)"/>
       <use xlink:href="#ArialUnicodeMS-32" transform="translate(83.398438 0)"/>
      </g>
     </g>
    </g>
    <g id="ytick_3">
     <g id="line2d_23">
      <g>
       <use xlink:href="#m8a7c7589b4" x="67.2" y="139.855304" style="fill: #252525; stroke: #252525; stroke-width: 0.8"/>
      </g>
     </g>
     <g id="text_11">
      <!-- 0.4 -->
      <g style="fill: #252525" transform="translate(44.91 143.792101) scale(0.11 -0.11)">
       <defs>
        <path id="ArialUnicodeMS-34" d="M 3263 1094 
L 2644 1094 
L 2644 0 
L 2081 0 
L 2081 1094 
L 97 1094 
L 97 1613 
L 2181 4581 
L 2644 4581 
L 2644 1613 
L 3263 1613 
L 3263 1094 
z
M 2081 1613 
L 2081 3681 
L 2069 3681 
L 647 1613 
L 2081 1613 
z
" transform="scale(0.015625)"/>
       </defs>
       <use xlink:href="#ArialUnicodeMS-30"/>
       <use xlink:href="#ArialUnicodeMS-2e" transform="translate(55.615234 0)"/>
       <use xlink:href="#ArialUnicodeMS-34" transform="translate(83.398438 0)"/>
      </g>
     </g>
    </g>
    <g id="ytick_4">
     <g id="line2d_24">
      <g>
       <use xlink:href="#m8a7c7589b4" x="67.2" y="107.398957" style="fill: #252525; stroke: #252525; stroke-width: 0.8"/>
      </g>
     </g>
     <g id="text_12">
      <!-- 0.6 -->
      <g style="fill: #252525" transform="translate(44.91 111.335753) scale(0.11 -0.11)">
       <defs>
        <path id="ArialUnicodeMS-36" d="M 838 2363 
Q 1225 2969 1941 2969 
Q 2503 2969 2897 2553 
Q 3291 2138 3291 1491 
Q 3291 838 2898 380 
Q 2506 -78 1856 -78 
Q 1197 -78 733 409 
Q 269 897 269 2144 
Q 269 3369 689 3986 
Q 1109 4603 1906 4603 
Q 2422 4603 2778 4315 
Q 3134 4028 3213 3463 
L 2650 3413 
Q 2497 4141 1875 4141 
Q 1444 4141 1134 3712 
Q 825 3284 825 2363 
L 838 2363 
z
M 1844 384 
Q 2231 384 2472 696 
Q 2713 1009 2713 1453 
Q 2713 1897 2472 2187 
Q 2231 2478 1825 2478 
Q 1453 2478 1184 2204 
Q 916 1931 916 1484 
Q 916 1028 1180 706 
Q 1444 384 1844 384 
z
" transform="scale(0.015625)"/>
       </defs>
       <use xlink:href="#ArialUnicodeMS-30"/>
       <use xlink:href="#ArialUnicodeMS-2e" transform="translate(55.615234 0)"/>
       <use xlink:href="#ArialUnicodeMS-36" transform="translate(83.398438 0)"/>
      </g>
     </g>
    </g>
    <g id="ytick_5">
     <g id="line2d_25">
      <g>
       <use xlink:href="#m8a7c7589b4" x="67.2" y="74.942609" style="fill: #252525; stroke: #252525; stroke-width: 0.8"/>
      </g>
     </g>
     <g id="text_13">
      <!-- 0.8 -->
      <g style="fill: #252525" transform="translate(44.91 78.879406) scale(0.11 -0.11)">
       <defs>
        <path id="ArialUnicodeMS-38" d="M 2425 2478 
Q 3284 2203 3284 1306 
Q 3284 716 2862 319 
Q 2441 -78 1778 -78 
Q 1109 -78 689 322 
Q 269 722 269 1325 
Q 269 1759 505 2084 
Q 741 2409 1141 2478 
L 1141 2491 
Q 453 2703 453 3419 
Q 453 3925 815 4264 
Q 1178 4603 1766 4603 
Q 2363 4603 2730 4253 
Q 3097 3903 3097 3406 
Q 3097 2731 2425 2491 
L 2425 2478 
z
M 1778 2700 
Q 2094 2700 2308 2901 
Q 2522 3103 2522 3406 
Q 2522 3716 2305 3928 
Q 2088 4141 1772 4141 
Q 1450 4141 1240 3931 
Q 1031 3722 1031 3438 
Q 1031 3097 1247 2898 
Q 1463 2700 1778 2700 
z
M 1778 384 
Q 2175 384 2440 640 
Q 2706 897 2706 1306 
Q 2706 1716 2432 1978 
Q 2159 2241 1766 2241 
Q 1356 2241 1100 1970 
Q 844 1700 844 1319 
Q 844 922 1108 653 
Q 1372 384 1778 384 
z
" transform="scale(0.015625)"/>
       </defs>
       <use xlink:href="#ArialUnicodeMS-30"/>
       <use xlink:href="#ArialUnicodeMS-2e" transform="translate(55.615234 0)"/>
       <use xlink:href="#ArialUnicodeMS-38" transform="translate(83.398438 0)"/>
      </g>
     </g>
    </g>
    <g id="ytick_6">
     <g id="line2d_26">
      <g>
       <use xlink:href="#m8a7c7589b4" x="67.2" y="42.486261" style="fill: #252525; stroke: #252525; stroke-width: 0.8"/>
      </g>
     </g>
     <g id="text_14">
      <!-- 1.0 -->
      <g style="fill: #252525" transform="translate(44.91 46.423058) scale(0.11 -0.11)">
       <use xlink:href="#ArialUnicodeMS-31"/>
       <use xlink:href="#ArialUnicodeMS-2e" transform="translate(55.615234 0)"/>
       <use xlink:href="#ArialUnicodeMS-30" transform="translate(83.398438 0)"/>
      </g>
     </g>
    </g>
    <g id="text_15">
     <!-- 重量分布 w(M)（归一化） -->
     <g style="fill: #252525" transform="translate(38.39 180.449437) rotate(-90) scale(0.12 -0.12)">
      <defs>
       <path id="ArialUnicodeMS-91cd" d="M 6059 -219 
L 441 -219 
L 441 250 
L 3022 250 
L 3022 609 
L 1100 609 
L 1100 1075 
L 3022 1075 
L 3022 1381 
L 1269 1381 
L 1269 3513 
L 3022 3513 
L 3022 3822 
L 653 3822 
L 653 4288 
L 3009 4288 
L 3009 4550 
L 1106 4500 
L 825 4953 
Q 1153 4941 1534 4941 
Q 3866 4941 5247 5319 
L 5528 4916 
Q 4928 4763 3506 4594 
L 3506 4288 
L 5856 4288 
L 5856 3822 
L 3506 3822 
L 3506 3513 
L 5269 3513 
L 5269 1381 
L 3506 1381 
L 3506 1075 
L 5356 1075 
L 5356 609 
L 3506 609 
L 3506 250 
L 6059 250 
L 6059 -219 
z
M 4781 2669 
L 4781 3047 
L 3506 3047 
L 3506 2669 
L 4781 2669 
z
M 3022 2669 
L 3022 3047 
L 1753 3047 
L 1753 2669 
L 3022 2669 
z
M 4781 1825 
L 4781 2228 
L 3506 2228 
L 3506 1825 
L 4781 1825 
z
M 3022 1825 
L 3022 2228 
L 1753 2228 
L 1753 1825 
L 3022 1825 
z
" transform="scale(0.015625)"/>
       <path id="ArialUnicodeMS-5e03" d="M 5888 3944 
L 2597 3944 
Q 2300 3216 2053 2841 
L 3272 2841 
L 3272 3653 
L 3756 3653 
L 3756 2841 
L 5338 2841 
L 5338 941 
Q 5338 325 4878 325 
L 4294 325 
L 4141 819 
Q 4481 775 4628 775 
Q 4850 775 4850 941 
L 4850 2375 
L 3756 2375 
L 3756 -428 
L 3272 -428 
L 3272 2375 
L 2322 2375 
L 2322 153 
L 1838 153 
L 1825 2534 
Q 1516 2056 794 1288 
L 372 1581 
Q 1731 2919 2094 3944 
L 659 3944 
L 659 4409 
L 2266 4409 
Q 2378 4706 2553 5344 
L 3009 5203 
Q 2794 4444 2778 4409 
L 5888 4409 
L 5888 3944 
z
" transform="scale(0.015625)"/>
       <path id="ArialUnicodeMS-77" d="M 4588 3316 
L 3547 0 
L 2963 0 
L 2438 1991 
Q 2434 1991 2371 2259 
Q 2309 2528 2309 2553 
L 2297 2553 
L 1638 0 
L 1050 0 
L 31 3316 
L 616 3316 
L 1338 691 
L 1450 1138 
L 2041 3316 
L 2619 3316 
L 3066 1578 
Q 3253 859 3272 763 
L 3284 763 
L 4038 3316 
L 4588 3316 
z
" transform="scale(0.015625)"/>
       <path id="ArialUnicodeMS-28" d="M 1900 -1344 
L 1497 -1344 
Q 978 -681 681 103 
Q 384 888 384 1656 
Q 384 2528 700 3275 
Q 1016 4022 1497 4659 
L 1900 4659 
Q 1344 3747 1155 3059 
Q 966 2372 966 1663 
Q 966 153 1900 -1344 
z
" transform="scale(0.015625)"/>
       <path id="ArialUnicodeMS-29" d="M 634 4659 
Q 1153 3997 1450 3212 
Q 1747 2428 1747 1656 
Q 1747 788 1431 41 
Q 1116 -706 634 -1344 
L 231 -1344 
Q 788 -431 977 255 
Q 1166 941 1166 1650 
Q 1166 3163 231 4659 
L 634 4659 
z
" transform="scale(0.015625)"/>
       <path id="ArialUnicodeMS-5f52" d="M 2450 5325 
Q 2463 4616 2463 3953 
Q 2463 2844 2439 2359 
Q 2416 1875 2173 1336 
Q 1931 797 1501 345 
Q 1072 -106 544 -397 
L 172 -72 
Q 1978 1047 1978 2572 
L 1978 5325 
L 2450 5325 
z
M 5509 -244 
L 5056 -244 
L 5056 184 
L 2022 184 
L 2022 653 
L 5056 653 
L 5056 2350 
L 2747 2350 
L 2747 2816 
L 5056 2816 
L 5056 4469 
L 2619 4469 
L 2619 4934 
L 5509 4934 
L 5509 -244 
z
M 1209 1088 
L 756 1088 
L 756 4763 
L 1209 4763 
L 1209 1088 
z
" transform="scale(0.015625)"/>
       <path id="ArialUnicodeMS-4e00" d="M 5734 2278 
L 775 2278 
L 775 2809 
L 5734 2809 
L 5734 2278 
z
" transform="scale(0.015625)"/>
       <path id="ArialUnicodeMS-5316" d="M 2431 5147 
Q 2322 4731 2081 4159 
L 1844 3603 
L 1844 -366 
L 1350 -366 
L 1350 2834 
Q 1006 2356 653 2075 
L 306 2444 
Q 1350 3319 2003 5350 
L 2431 5147 
z
M 6081 1325 
Q 5994 419 5786 114 
Q 5578 -191 5203 -191 
L 3872 -191 
Q 3534 -191 3339 -12 
Q 3144 166 3144 469 
L 3144 5178 
L 3628 5178 
L 3628 2853 
Q 4478 3413 5288 4488 
L 5709 4197 
Q 4800 2984 3628 2272 
L 3628 550 
Q 3628 288 3981 288 
L 5113 288 
Q 5553 288 5581 1503 
L 6081 1325 
z
" transform="scale(0.015625)"/>
      </defs>
      <use xlink:href="#ArialUnicodeMS-91cd"/>
      <use xlink:href="#ArialUnicodeMS-91cf" transform="translate(100 0)"/>
      <use xlink:href="#ArialUnicodeMS-5206" transform="translate(200 0)"/>
      <use xlink:href="#ArialUnicodeMS-5e03" transform="translate(300 0)"/>
      <use xlink:href="#ArialUnicodeMS-20" transform="translate(400 0)"/>
      <use xlink:href="#ArialUnicodeMS-77" transform="translate(427.783203 0)"/>
      <use xlink:href="#ArialUnicodeMS-28" transform="translate(500 0)"/>
      <use xlink:href="#ArialUnicodeMS-4d" transform="translate(533.300781 0)"/>
      <use xlink:href="#ArialUnicodeMS-29" transform="translate(616.601562 0)"/>
      <use xlink:href="#ArialUnicodeMS-ff08" transform="translate(649.902344 0)"/>
      <use xlink:href="#ArialUnicodeMS-5f52" transform="translate(749.902344 0)"/>
      <use xlink:href="#ArialUnicodeMS-4e00" transform="translate(849.902344 0)"/>
      <use xlink:href="#ArialUnicodeMS-5316" transform="translate(949.902344 0)"/>
      <use xlink:href="#ArialUnicodeMS-ff09" transform="translate(1049.902344 0)"/>
     </g>
    </g>
   </g>
   <g id="line2d_27">
    <path d="M 67.2 204.624288 
L 81.025 204.342918 
L 90.7025 203.907611 
L 97.615 203.382542 
L 103.145 202.772675 
L 108.675 201.935798 
L 112.8225 201.119904 
L 116.97 200.107216 
L 121.1175 198.861879 
L 125.265 197.344709 
L 129.4125 195.513748 
L 132.1775 194.097141 
L 134.9425 192.508297 
L 137.7075 190.733948 
L 140.4725 188.761044 
L 143.2375 186.576984 
L 146.0025 184.169875 
L 148.7675 181.528812 
L 151.5325 178.644176 
L 154.2975 175.507949 
L 157.0625 172.114033 
L 159.8275 168.458576 
L 162.5925 164.540291 
L 166.74 158.174378 
L 170.8875 151.24033 
L 175.035 143.774871 
L 179.1825 135.833887 
L 184.7125 124.640037 
L 191.625 110.013848 
L 201.3025 89.4294 
L 205.45 80.988398 
L 209.5975 73.010851 
L 212.3625 68.03109 
L 215.1275 63.377617 
L 217.8925 59.095855 
L 220.6575 55.228579 
L 223.4225 51.815208 
L 226.1875 48.891137 
L 228.9525 46.487125 
L 230.335 45.488352 
L 231.7175 44.62876 
L 233.1 43.910663 
L 234.4825 43.336004 
L 235.865 42.906338 
L 237.2475 42.622833 
L 238.63 42.486261 
L 240.0125 42.496992 
L 241.395 42.654999 
L 242.7775 42.95985 
L 244.16 43.410717 
L 245.5425 44.006375 
L 246.925 44.745211 
L 248.3075 45.625228 
L 251.0725 47.798967 
L 253.8375 50.504356 
L 256.6025 53.712786 
L 259.3675 57.390769 
L 262.1325 61.500528 
L 264.8975 66.000636 
L 267.6625 70.846713 
L 271.81 78.662136 
L 275.9575 86.987972 
L 281.4875 98.598683 
L 295.3125 127.905977 
L 300.8425 138.918168 
L 304.99 146.685411 
L 309.1375 153.953463 
L 313.285 160.67388 
L 317.4325 166.816924 
L 320.1975 170.584657 
L 322.9625 174.089967 
L 325.7275 177.335649 
L 328.4925 180.326882 
L 331.2575 183.070902 
L 334.0225 185.576683 
L 336.7875 187.854619 
L 339.5525 189.916216 
L 342.3175 191.773806 
L 345.0825 193.440277 
L 349.23 195.610546 
L 353.3775 197.425269 
L 357.525 198.928292 
L 361.6725 200.161454 
L 365.82 201.163788 
L 369.9675 201.970977 
L 375.4975 202.798501 
L 381.0275 203.401198 
L 387.94 203.919758 
L 396.235 204.30361 
L 399 204.390849 
L 399 204.390849 
" clip-path="url(#p0a1e7d942b)" style="fill: none; stroke: #cbe3f3; stroke-width: 2.2; stroke-linecap: square"/>
   </g>
   <g id="line2d_28">
    <path d="M 67.2 194.495473 
L 71.3475 192.71244 
L 75.495 190.687396 
L 79.6425 188.400627 
L 83.79 185.833211 
L 87.9375 182.967536 
L 92.085 179.787863 
L 96.2325 176.280936 
L 100.38 172.436612 
L 104.5275 168.248501 
L 108.675 163.714606 
L 112.8225 158.837929 
L 116.97 153.62703 
L 121.1175 148.096514 
L 126.6475 140.26264 
L 132.1775 131.967231 
L 139.09 121.088194 
L 148.7675 105.316741 
L 158.445 89.609467 
L 163.975 80.99872 
L 168.1225 74.847352 
L 172.27 69.040675 
L 176.4175 63.650721 
L 180.565 58.74647 
L 183.33 55.778871 
L 186.095 53.073614 
L 188.86 50.647049 
L 191.625 48.514019 
L 194.39 46.687702 
L 197.155 45.179481 
L 199.92 43.998825 
L 202.685 43.153187 
L 205.45 42.647928 
L 208.215 42.486261 
L 210.98 42.669214 
L 213.745 43.195624 
L 216.51 44.062143 
L 219.275 45.26328 
L 222.04 46.791454 
L 224.805 48.637074 
L 227.57 50.788645 
L 230.335 53.232879 
L 233.1 55.954838 
L 235.865 58.938082 
L 238.63 62.164836 
L 242.7775 67.419859 
L 246.925 73.112137 
L 251.0725 79.170377 
L 256.6025 87.690515 
L 263.515 98.806565 
L 280.105 125.766348 
L 285.635 134.33921 
L 291.165 142.513142 
L 296.695 150.204121 
L 300.8425 155.617041 
L 304.99 160.70414 
L 309.1375 165.453126 
L 313.285 169.857584 
L 317.4325 173.916452 
L 321.58 177.633446 
L 325.7275 181.016436 
L 329.875 184.076807 
L 334.0225 186.828818 
L 338.17 189.288977 
L 342.3175 191.475452 
L 346.465 193.407518 
L 350.6125 195.105065 
L 354.76 196.588154 
L 358.9075 197.876639 
L 364.4375 199.325206 
L 369.9675 200.505664 
L 375.4975 201.458347 
L 382.41 202.384251 
L 389.3225 203.073775 
L 397.6175 203.662875 
L 399 203.740747 
L 399 203.740747 
" clip-path="url(#p0a1e7d942b)" style="fill: none; stroke: #cfe8db; stroke-width: 2.2; stroke-linecap: square"/>
   </g>
   <g id="line2d_29">
    <path d="M 67.2 84.884018 
L 74.1125 77.45888 
L 79.6425 71.826064 
L 85.1725 66.532697 
L 89.32 62.821211 
L 93.4675 59.358066 
L 97.615 56.166061 
L 101.7625 53.266555 
L 105.91 50.679237 
L 110.0575 48.421896 
L 114.205 46.510226 
L 116.97 45.434539 
L 119.735 44.521871 
L 122.5 43.775099 
L 125.265 43.196586 
L 128.03 42.788167 
L 130.795 42.55114 
L 133.56 42.486261 
L 136.325 42.593735 
L 139.09 42.873221 
L 141.855 43.323829 
L 144.62 43.944127 
L 147.385 44.732148 
L 150.15 45.685402 
L 152.915 46.800885 
L 157.0625 48.770507 
L 161.21 51.083366 
L 165.3575 53.723411 
L 169.505 56.672523 
L 173.6525 59.910723 
L 177.8 63.416398 
L 181.9475 67.166537 
L 187.4775 72.505119 
L 193.0075 78.175671 
L 199.92 85.637243 
L 208.215 94.979377 
L 224.805 114.15991 
L 234.4825 125.17916 
L 242.7775 134.285078 
L 249.69 141.53579 
L 256.6025 148.416017 
L 262.1325 153.622236 
L 267.6625 158.544309 
L 273.1925 163.169846 
L 278.7225 167.491255 
L 284.2525 171.505385 
L 289.7825 175.213115 
L 295.3125 178.618906 
L 300.8425 181.730333 
L 306.3725 184.557603 
L 311.9025 187.113083 
L 317.4325 189.410837 
L 322.9625 191.466189 
L 328.4925 193.295315 
L 334.0225 194.914879 
L 339.5525 196.341697 
L 346.465 197.87956 
L 353.3775 199.174018 
L 360.29 200.255288 
L 368.585 201.311066 
L 376.88 202.145037 
L 386.5575 202.890145 
L 397.6175 203.506526 
L 399 203.56916 
L 399 203.56916 
" clip-path="url(#p0a1e7d942b)" style="fill: none; stroke: #f9dec0; stroke-width: 2.2; stroke-linecap: square"/>
   </g>
   <g id="line2d_30">
    <path d="M 283.040876 204.768 
L 283.040876 18.144 
" clip-path="url(#p0a1e7d942b)" style="fill: none; stroke-dasharray: 3.7,1.6; stroke-dashoffset: 0; stroke: #454545"/>
   </g>
   <g id="patch_3">
    <path d="M 67.2 204.768 
L 67.2 18.144 
" style="fill: none; stroke: #454545; stroke-width: 0.8; stroke-linejoin: miter; stroke-linecap: square"/>
   </g>
   <g id="patch_4">
    <path d="M 67.2 204.768 
L 399 204.768 
" style="fill: none; stroke: #454545; stroke-width: 0.8; stroke-linejoin: miter; stroke-linecap: square"/>
   </g>
   <g id="text_16">
    <!-- M_n = 100 kg/mol -->
    <g style="fill: #252525" transform="translate(288.585877 39.240626) scale(0.11 -0.11)">
     <defs>
      <path id="ArialUnicodeMS-5f" d="M 3238 -800 
L -38 -800 
L -38 -481 
L 3238 -481 
L 3238 -800 
z
" transform="scale(0.015625)"/>
      <path id="ArialUnicodeMS-6e" d="M 3138 0 
L 2572 0 
L 2572 2016 
Q 2572 2525 2389 2715 
Q 2206 2906 1881 2906 
Q 1631 2906 1407 2784 
Q 1184 2663 1090 2441 
Q 997 2219 997 1813 
L 997 0 
L 434 0 
L 434 3316 
L 941 3316 
L 941 2847 
L 953 2847 
Q 1131 3119 1392 3255 
Q 1653 3391 1997 3391 
Q 2259 3391 2515 3297 
Q 2772 3203 2917 3015 
Q 3063 2828 3100 2615 
Q 3138 2403 3138 2041 
L 3138 0 
z
" transform="scale(0.015625)"/>
      <path id="ArialUnicodeMS-3d" d="M 3384 2694 
L 353 2694 
L 353 3219 
L 3384 3219 
L 3384 2694 
z
M 3384 1300 
L 353 1300 
L 353 1825 
L 3384 1825 
L 3384 1300 
z
" transform="scale(0.015625)"/>
     </defs>
     <use xlink:href="#ArialUnicodeMS-4d"/>
     <use xlink:href="#ArialUnicodeMS-5f" transform="translate(83.300781 0)"/>
     <use xlink:href="#ArialUnicodeMS-6e" transform="translate(133.300781 0)"/>
     <use xlink:href="#ArialUnicodeMS-20" transform="translate(188.916016 0)"/>
     <use xlink:href="#ArialUnicodeMS-3d" transform="translate(216.699219 0)"/>
     <use xlink:href="#ArialUnicodeMS-20" transform="translate(275.097656 0)"/>
     <use xlink:href="#ArialUnicodeMS-31" transform="translate(302.880859 0)"/>
     <use xlink:href="#ArialUnicodeMS-30" transform="translate(358.496094 0)"/>
     <use xlink:href="#ArialUnicodeMS-30" transform="translate(414.111328 0)"/>
     <use xlink:href="#ArialUnicodeMS-20" transform="translate(469.726562 0)"/>
     <use xlink:href="#ArialUnicodeMS-6b" transform="translate(497.509766 0)"/>
     <use xlink:href="#ArialUnicodeMS-67" transform="translate(547.509766 0)"/>
     <use xlink:href="#ArialUnicodeMS-2f" transform="translate(603.125 0)"/>
     <use xlink:href="#ArialUnicodeMS-6d" transform="translate(630.908203 0)"/>
     <use xlink:href="#ArialUnicodeMS-6f" transform="translate(714.208984 0)"/>
     <use xlink:href="#ArialUnicodeMS-6c" transform="translate(769.824219 0)"/>
    </g>
   </g>
   <g id="legend_1">
    <g id="line2d_31">
     <path d="M 77.1 32.067594 
L 88.1 32.067594 
L 99.1 32.067594 
" style="fill: none; stroke: #cbe3f3; stroke-width: 2.2; stroke-linecap: square"/>
    </g>
    <g id="text_17">
     <!-- D = 1.5 -->
     <g style="fill: #252525" transform="translate(107.9 35.917594) scale(0.11 -0.11)">
      <defs>
       <path id="ArialUnicodeMS-44" d="M 513 4581 
L 2094 4581 
Q 2509 4581 2809 4539 
Q 3109 4497 3382 4333 
Q 3656 4169 3861 3881 
Q 4066 3594 4183 3220 
Q 4300 2847 4300 2316 
Q 4300 1303 3819 651 
Q 3338 0 2163 0 
L 513 0 
L 513 4581 
z
M 1119 544 
L 2100 544 
Q 2400 544 2636 581 
Q 2872 619 3114 784 
Q 3356 950 3515 1328 
Q 3675 1706 3675 2328 
Q 3675 2672 3614 2970 
Q 3553 3269 3389 3514 
Q 3225 3759 3012 3873 
Q 2800 3988 2598 4013 
Q 2397 4038 2081 4038 
L 1119 4038 
L 1119 544 
z
" transform="scale(0.015625)"/>
      </defs>
      <use xlink:href="#ArialUnicodeMS-44"/>
      <use xlink:href="#ArialUnicodeMS-20" transform="translate(72.216797 0)"/>
      <use xlink:href="#ArialUnicodeMS-3d" transform="translate(100 0)"/>
      <use xlink:href="#ArialUnicodeMS-20" transform="translate(158.398438 0)"/>
      <use xlink:href="#ArialUnicodeMS-31" transform="translate(186.181641 0)"/>
      <use xlink:href="#ArialUnicodeMS-2e" transform="translate(241.796875 0)"/>
      <use xlink:href="#ArialUnicodeMS-35" transform="translate(269.580078 0)"/>
     </g>
    </g>
    <g id="line2d_32">
     <path d="M 77.1 47.632594 
L 88.1 47.632594 
L 99.1 47.632594 
" style="fill: none; stroke: #cfe8db; stroke-width: 2.2; stroke-linecap: square"/>
    </g>
    <g id="text_18">
     <!-- D = 2.0 -->
     <g style="fill: #252525" transform="translate(107.9 51.482594) scale(0.11 -0.11)">
      <use xlink:href="#ArialUnicodeMS-44"/>
      <use xlink:href="#ArialUnicodeMS-20" transform="translate(72.216797 0)"/>
      <use xlink:href="#ArialUnicodeMS-3d" transform="translate(100 0)"/>
      <use xlink:href="#ArialUnicodeMS-20" transform="translate(158.398438 0)"/>
      <use xlink:href="#ArialUnicodeMS-32" transform="translate(186.181641 0)"/>
      <use xlink:href="#ArialUnicodeMS-2e" transform="translate(241.796875 0)"/>
      <use xlink:href="#ArialUnicodeMS-30" transform="translate(269.580078 0)"/>
     </g>
    </g>
    <g id="line2d_33">
     <path d="M 77.1 63.197594 
L 88.1 63.197594 
L 99.1 63.197594 
" style="fill: none; stroke: #f9dec0; stroke-width: 2.2; stroke-linecap: square"/>
    </g>
    <g id="text_19">
     <!-- D = 4.0 -->
     <g style="fill: #252525" transform="translate(107.9 67.047594) scale(0.11 -0.11)">
      <use xlink:href="#ArialUnicodeMS-44"/>
      <use xlink:href="#ArialUnicodeMS-20" transform="translate(72.216797 0)"/>
      <use xlink:href="#ArialUnicodeMS-3d" transform="translate(100 0)"/>
      <use xlink:href="#ArialUnicodeMS-20" transform="translate(158.398438 0)"/>
      <use xlink:href="#ArialUnicodeMS-34" transform="translate(186.181641 0)"/>
      <use xlink:href="#ArialUnicodeMS-2e" transform="translate(241.796875 0)"/>
      <use xlink:href="#ArialUnicodeMS-30" transform="translate(269.580078 0)"/>
     </g>
    </g>
   </g>
  </g>
  <g id="patch_5">
   <path d="M 381.06 19.44 
L 413.04 19.44 
Q 416.4 19.44 416.4 17.3664 
L 416.4 5.6736 
Q 416.4 3.6 413.04 3.6 
L 381.06 3.6 
Q 377.7 3.6 377.7 5.6736 
L 377.7 17.3664 
Q 377.7 19.44 381.06 19.44 
z
" style="fill: #eeeeee; stroke: #454545; stroke-width: 0.9; stroke-linejoin: miter"/>
  </g>
  <g id="text_20">
   <!-- 示意图 -->
   <g style="fill: #252525" transform="translate(380.55 14.361094) scale(0.11 -0.11)">
    <defs>
     <path id="ArialUnicodeMS-793a" d="M 5253 4378 
L 1269 4378 
L 1269 4844 
L 5253 4844 
L 5253 4378 
z
M 5663 2988 
L 3525 2988 
L 3525 72 
Q 3525 -188 3342 -311 
Q 3159 -434 2876 -425 
Q 2594 -416 2259 -422 
L 2069 128 
Q 2475 81 2756 81 
Q 3022 81 3022 275 
L 3022 2988 
L 831 2988 
L 831 3456 
L 5663 3456 
L 5663 2988 
z
M 2369 2344 
Q 1934 1300 922 366 
L 581 716 
Q 984 1047 1406 1620 
Q 1828 2194 1959 2613 
L 2369 2344 
z
M 5966 697 
L 5569 366 
Q 4938 1575 4019 2253 
L 4397 2584 
Q 5231 2019 5966 697 
z
" transform="scale(0.015625)"/>
     <path id="ArialUnicodeMS-610f" d="M 5875 3278 
L 531 3278 
L 531 3744 
L 2247 3744 
Q 1875 4191 1819 4225 
L 2003 4341 
L 959 4341 
L 959 4806 
L 2956 4806 
L 2956 5375 
L 3444 5375 
L 3444 4806 
L 5441 4806 
L 5441 4341 
L 4422 4341 
L 4531 4263 
Q 4403 3984 4172 3744 
L 5875 3744 
L 5875 3278 
z
M 4000 4341 
L 2356 4341 
Q 2619 4113 2778 3744 
L 3584 3744 
Q 3863 3994 4000 4341 
z
M 5006 1222 
L 3244 1222 
Q 3597 1084 3903 738 
L 3525 416 
Q 3291 769 2675 1025 
L 2888 1222 
L 1403 1222 
L 1403 3028 
L 5006 3028 
L 5006 1222 
z
M 4525 2363 
L 4525 2584 
L 1881 2584 
L 1881 2363 
L 4525 2363 
z
M 4525 1691 
L 4525 1966 
L 1881 1966 
L 1881 1691 
L 4525 1691 
z
M 6138 153 
L 5772 -191 
Q 5372 419 4709 678 
L 5094 1006 
Q 5622 822 6138 153 
z
M 1806 653 
Q 1369 122 550 -178 
L 275 256 
Q 1081 459 1478 978 
L 1806 653 
z
M 4647 494 
Q 4525 28 4365 -139 
Q 4206 -306 3853 -306 
L 2503 -306 
Q 2009 -250 2009 372 
L 2009 884 
L 2491 884 
L 2491 341 
Q 2491 159 2650 159 
L 3891 159 
Q 4031 159 4097 366 
L 4191 672 
L 4647 494 
z
" transform="scale(0.015625)"/>
     <path id="ArialUnicodeMS-56fe" d="M 5544 -422 
L 5056 -422 
L 5056 19 
L 1184 19 
L 1184 -422 
L 703 -422 
L 703 5019 
L 5544 5019 
L 5544 -422 
z
M 5056 2400 
L 5056 4550 
L 2625 4550 
L 2625 4538 
L 2906 4416 
Q 2863 4322 2778 4178 
L 4513 4178 
L 4513 3781 
Q 4203 3203 3675 2778 
Q 4228 2456 5056 2400 
z
M 5056 459 
L 5056 2163 
L 5044 2163 
L 4831 1850 
Q 4013 1963 3188 2463 
Q 2713 2188 1516 1900 
L 1281 2388 
Q 2341 2584 2784 2834 
Q 2544 3022 2259 3413 
Q 1941 3031 1575 2869 
L 1253 3297 
Q 2072 3656 2419 4550 
L 1191 4550 
L 1191 459 
L 3231 459 
Q 2769 950 2125 1228 
L 2400 1606 
Q 3019 1372 3694 716 
L 3488 459 
L 5056 459 
z
M 3994 1491 
L 3628 1131 
Q 3197 1638 2613 1906 
L 2963 2241 
Q 3434 2072 3994 1491 
z
M 3903 3713 
L 2584 3713 
Q 2709 3513 3250 3053 
Q 3647 3328 3903 3713 
z
" transform="scale(0.015625)"/>
    </defs>
    <use xlink:href="#ArialUnicodeMS-793a"/>
    <use xlink:href="#ArialUnicodeMS-610f" transform="translate(100 0)"/>
    <use xlink:href="#ArialUnicodeMS-56fe" transform="translate(200 0)"/>
   </g>
  </g>
 </g>
 <defs>
  <clipPath id="p0a1e7d942b">
   <rect x="67.2" y="18.144" width="331.8" height="186.624"/>
  </clipPath>
 </defs>
</svg>
