<?xml version="1.0" encoding="utf-8" standalone="no"?>
<!DOCTYPE svg PUBLIC "-//W3C//DTD SVG 1.1//EN"
  "http://www.w3.org/Graphics/SVG/1.1/DTD/svg11.dtd">
<svg xmlns:xlink="http://www.w3.org/1999/xlink" width="420pt" height="266.4pt" viewBox="0 0 420 266.4" xmlns="http://www.w3.org/2000/svg" version="1.1">
 <metadata>
  <rdf:RDF xmlns:dc="http://purl.org/dc/elements/1.1/" xmlns:cc="http://creativecommons.org/ns#" xmlns:rdf="http://www.w3.org/1999/02/22-rdf-syntax-ns#">
   <cc:Work>
    <dc:type rdf:resource="http://purl.org/dc/dcmitype/StillImage"/>
    <dc:date>2026-09-17T22:00:22.357000</dc:date>
    <dc:format>image/svg+xml</dc:format>
    <dc:creator>
     <cc:Agent>
      <dc:title>Matplotlib v3.10.9, https://matplotlib.org/</dc:title>
     </cc:Agent>
    </dc:creator>
   </cc:Work>
  </rdf:RDF>
 </metadata>
 <defs>
  <style type="text/css">*{stroke-linejoin: round; stroke-linecap: butt}</style>
 </defs>
 <g id="figure_1">
  <g id="patch_1">
   <path d="M 0 266.4 
L 420 266.4 
L 420 0 
L 0 0 
z
" style="fill: #ffffff"/>
  </g>
  <g id="axes_1">
   <g id="patch_2">
    <path d="M 42 218.448 
L 196.830508 218.448 
L 196.830508 21.312 
L 42 21.312 
z
" style="fill: #ffffff"/>
   </g>
   <g id="matplotlib.axis_1">
    <g id="xtick_1">
     <g id="line2d_1">
      <defs>
       <path id="m5a45f1d364" d="M 0 0 
L 0 3.5 
" style="stroke: #252525; stroke-width: 0.8"/>
      </defs>
      <g>
       <use xlink:href="#m5a45f1d364" x="166.33359" y="218.448" style="fill: #252525; stroke: #252525; stroke-width: 0.8"/>
      </g>
     </g>
     <g id="text_1">
      <!-- 1000 -->
      <g style="fill: #252525" transform="translate(154.099528 233.321594) scale(0.11 -0.11)">
       <defs>
        <path id="ArialUnicodeMS-31" d="M 2400 0 
L 1838 0 
L 1838 3584 
Q 1416 3184 709 2906 
L 709 3450 
Q 1681 3916 2034 4603 
L 2400 4603 
L 2400 0 
z
" transform="scale(0.015625)"/>
        <path id="ArialUnicodeMS-30" d="M 1778 4603 
Q 3272 4603 3272 2259 
Q 3272 1075 2886 498 
Q 2500 -78 1778 -78 
Q 288 -78 288 2259 
Q 288 3444 673 4023 
Q 1059 4603 1778 4603 
z
M 1778 384 
Q 2231 384 2462 823 
Q 2694 1263 2694 2259 
Q 2694 2953 2592 3351 
Q 2491 3750 2286 3945 
Q 2081 4141 1772 4141 
Q 1319 4141 1091 3694 
Q 863 3247 863 2259 
Q 863 1575 966 1175 
Q 1069 775 1272 579 
Q 1475 384 1778 384 
z
" transform="scale(0.015625)"/>
       </defs>
       <use xlink:href="#ArialUnicodeMS-31"/>
       <use xlink:href="#ArialUnicodeMS-30" transform="translate(55.615234 0)"/>
       <use xlink:href="#ArialUnicodeMS-30" transform="translate(111.230469 0)"/>
       <use xlink:href="#ArialUnicodeMS-30" transform="translate(166.845703 0)"/>
      </g>
     </g>
    </g>
    <g id="xtick_2">
     <g id="line2d_2">
      <g>
       <use xlink:href="#m5a45f1d364" x="127.234977" y="218.448" style="fill: #252525; stroke: #252525; stroke-width: 0.8"/>
      </g>
     </g>
     <g id="text_2">
      <!-- 2000 -->
      <g style="fill: #252525" transform="translate(115.000914 233.321594) scale(0.11 -0.11)">
       <defs>
        <path id="ArialUnicodeMS-32" d="M 3231 0 
L 197 0 
Q 197 388 467 784 
Q 738 1181 1478 1778 
Q 1931 2141 2287 2539 
Q 2644 2938 2644 3341 
Q 2644 3688 2398 3914 
Q 2153 4141 1778 4141 
Q 1400 4141 1144 3908 
Q 888 3675 884 3213 
L 306 3278 
Q 359 3922 764 4262 
Q 1169 4603 1791 4603 
Q 2466 4603 2842 4229 
Q 3219 3856 3219 3328 
Q 3219 2888 2901 2436 
Q 2584 1984 1638 1228 
Q 1141 831 978 544 
L 3231 544 
L 3231 0 
z
" transform="scale(0.015625)"/>
       </defs>
       <use xlink:href="#ArialUnicodeMS-32"/>
       <use xlink:href="#ArialUnicodeMS-30" transform="translate(55.615234 0)"/>
       <use xlink:href="#ArialUnicodeMS-30" transform="translate(111.230469 0)"/>
       <use xlink:href="#ArialUnicodeMS-30" transform="translate(166.845703 0)"/>
      </g>
     </g>
    </g>
    <g id="xtick_3">
     <g id="line2d_3">
      <g>
       <use xlink:href="#m5a45f1d364" x="88.136364" y="218.448" style="fill: #252525; stroke: #252525; stroke-width: 0.8"/>
      </g>
     </g>
     <g id="text_3">
      <!-- 3000 -->
      <g style="fill: #252525" transform="translate(75.902301 233.321594) scale(0.11 -0.11)">
       <defs>
        <path id="ArialUnicodeMS-33" d="M 2425 2478 
Q 2850 2397 3067 2067 
Q 3284 1738 3284 1350 
Q 3284 725 2829 323 
Q 2375 -78 1741 -78 
Q 1134 -78 740 275 
Q 347 628 281 1209 
L 844 1288 
Q 928 834 1151 609 
Q 1375 384 1741 384 
Q 2134 384 2407 661 
Q 2681 938 2681 1338 
Q 2681 1722 2432 1975 
Q 2184 2228 1784 2228 
Q 1622 2228 1388 2169 
L 1453 2663 
Q 1678 2663 1809 2684 
Q 1941 2706 2103 2790 
Q 2266 2875 2372 3033 
Q 2478 3191 2478 3425 
Q 2478 3766 2251 3953 
Q 2025 4141 1728 4141 
Q 1388 4141 1173 3925 
Q 959 3709 903 3309 
L 341 3413 
Q 450 4009 823 4306 
Q 1197 4603 1716 4603 
Q 2288 4603 2670 4258 
Q 3053 3913 3053 3413 
Q 3053 2772 2425 2491 
L 2425 2478 
z
" transform="scale(0.015625)"/>
       </defs>
       <use xlink:href="#ArialUnicodeMS-33"/>
       <use xlink:href="#ArialUnicodeMS-30" transform="translate(55.615234 0)"/>
       <use xlink:href="#ArialUnicodeMS-30" transform="translate(111.230469 0)"/>
       <use xlink:href="#ArialUnicodeMS-30" transform="translate(166.845703 0)"/>
      </g>
     </g>
    </g>
    <g id="xtick_4">
     <g id="line2d_4">
      <g>
       <use xlink:href="#m5a45f1d364" x="49.03775" y="218.448" style="fill: #252525; stroke: #252525; stroke-width: 0.8"/>
      </g>
     </g>
     <g id="text_4">
      <!-- 4000 -->
      <g style="fill: #252525" transform="translate(36.803688 233.321594) scale(0.11 -0.11)">
       <defs>
        <path id="ArialUnicodeMS-34" d="M 3263 1094 
L 2644 1094 
L 2644 0 
L 2081 0 
L 2081 1094 
L 97 1094 
L 97 1613 
L 2181 4581 
L 2644 4581 
L 2644 1613 
L 3263 1613 
L 3263 1094 
z
M 2081 1613 
L 2081 3681 
L 2069 3681 
L 647 1613 
L 2081 1613 
z
" transform="scale(0.015625)"/>
       </defs>
       <use xlink:href="#ArialUnicodeMS-34"/>
       <use xlink:href="#ArialUnicodeMS-30" transform="translate(55.615234 0)"/>
       <use xlink:href="#ArialUnicodeMS-30" transform="translate(111.230469 0)"/>
       <use xlink:href="#ArialUnicodeMS-30" transform="translate(166.845703 0)"/>
      </g>
     </g>
    </g>
    <g id="text_5">
     <!-- 波数 (cm⁻¹) -->
     <g style="fill: #252525" transform="translate(92.230645 248.655031) scale(0.11 -0.11)">
      <defs>
       <path id="ArialUnicodeMS-6ce2" d="M 6150 -6 
L 5797 -403 
Q 4797 -47 4178 513 
Q 3497 -116 2591 -453 
L 2216 -84 
Q 3253 316 3828 831 
Q 3250 1438 2888 2425 
L 2681 2431 
L 2681 1484 
Q 2681 403 1759 -481 
L 1331 -159 
Q 2194 578 2194 1684 
L 2194 4475 
L 3763 4475 
L 3763 5319 
L 4250 5319 
L 4250 4475 
L 5875 4475 
Q 5903 3953 5538 3128 
L 5081 3272 
Q 5313 3813 5350 4006 
L 4250 4006 
L 4250 2894 
L 5538 2894 
Q 5428 1900 4525 844 
Q 5197 316 6150 -6 
z
M 3763 2894 
L 3763 4006 
L 2681 4006 
L 2681 2894 
L 3763 2894 
z
M 4953 2425 
L 3397 2425 
Q 3772 1509 4159 1159 
Q 4809 1844 4953 2425 
z
M 2100 4178 
L 1766 3794 
Q 1403 4438 738 4722 
L 1056 5044 
Q 1613 4850 2100 4178 
z
M 1766 2859 
L 1394 2534 
Q 1041 3159 319 3438 
L 647 3763 
Q 1256 3581 1766 2859 
z
M 1863 2075 
Q 1506 509 800 -397 
L 384 -116 
Q 1156 813 1422 2291 
L 1863 2075 
z
" transform="scale(0.015625)"/>
       <path id="ArialUnicodeMS-6570" d="M 6138 19 
L 5806 -378 
Q 5031 194 4697 716 
Q 4344 144 3328 -441 
L 2981 -50 
Q 3966 434 4403 1153 
Q 4038 1834 3866 2753 
Q 3678 2356 3353 1919 
L 2950 2203 
Q 3838 3172 3963 5253 
L 4409 5125 
Q 4341 4384 4269 4006 
L 5984 4006 
L 5984 3547 
L 5619 3541 
L 5594 3341 
Q 5441 2113 4978 1191 
Q 5281 672 6138 19 
z
M 5166 3541 
L 4172 3541 
Q 4297 2419 4691 1650 
Q 5038 2513 5166 3541 
z
M 3438 3653 
L 2209 3653 
L 2209 2338 
L 1919 2338 
Q 1900 2269 1753 1931 
L 3225 1931 
L 3225 1472 
L 2913 1472 
Q 2763 991 2503 666 
Q 2947 353 3103 184 
L 2747 -172 
Q 2463 138 2150 313 
Q 1322 -225 563 -428 
L 269 6 
Q 1106 163 1684 563 
Q 1291 756 703 884 
L 1038 1472 
L 403 1472 
L 403 1931 
L 1259 1931 
Q 1328 2056 1466 2553 
L 1747 2484 
L 1747 3653 
L 1716 3653 
Q 1413 2881 678 2456 
L 378 2803 
Q 938 3091 1241 3653 
L 403 3653 
L 403 4122 
L 1747 4122 
L 1747 5228 
L 2209 5228 
L 2209 4122 
L 3438 4122 
L 3438 3653 
z
M 2406 1472 
L 1538 1472 
Q 1422 1241 1369 1153 
Q 1388 1159 2069 884 
Q 2219 1031 2406 1472 
z
M 1625 4441 
L 1288 4159 
Q 1022 4547 575 4813 
L 878 5075 
Q 1394 4844 1625 4441 
z
M 3384 4844 
Q 3097 4409 2669 4172 
L 2322 4481 
Q 2806 4759 3047 5069 
L 3384 4844 
z
M 3303 2888 
L 2944 2578 
Q 2706 3025 2291 3297 
L 2584 3566 
Q 2988 3359 3303 2888 
z
" transform="scale(0.015625)"/>
       <path id="ArialUnicodeMS-20" transform="scale(0.015625)"/>
       <path id="ArialUnicodeMS-28" d="M 1900 -1344 
L 1497 -1344 
Q 978 -681 681 103 
Q 384 888 384 1656 
Q 384 2528 700 3275 
Q 1016 4022 1497 4659 
L 1900 4659 
Q 1344 3747 1155 3059 
Q 966 2372 966 1663 
Q 966 153 1900 -1344 
z
" transform="scale(0.015625)"/>
       <path id="ArialUnicodeMS-63" d="M 3144 1147 
Q 3034 513 2643 217 
Q 2253 -78 1759 -78 
Q 1038 -78 644 395 
Q 250 869 250 1650 
Q 250 2297 476 2686 
Q 703 3075 1043 3233 
Q 1384 3391 1759 3391 
Q 2272 3391 2636 3125 
Q 3000 2859 3084 2344 
L 2541 2259 
Q 2456 2594 2267 2762 
Q 2078 2931 1784 2931 
Q 1313 2931 1069 2597 
Q 825 2263 825 1663 
Q 825 1050 1064 717 
Q 1303 384 1753 384 
Q 2116 384 2323 592 
Q 2531 800 2584 1216 
L 3144 1147 
z
" transform="scale(0.015625)"/>
       <path id="ArialUnicodeMS-6d" d="M 4922 0 
L 4359 0 
L 4359 2094 
Q 4359 2325 4328 2489 
Q 4297 2653 4167 2779 
Q 4038 2906 3763 2906 
Q 3431 2906 3190 2675 
Q 2950 2444 2950 1925 
L 2950 0 
L 2388 0 
L 2388 2156 
Q 2388 2588 2236 2747 
Q 2084 2906 1806 2906 
Q 1444 2906 1211 2656 
Q 978 2406 978 1722 
L 978 0 
L 416 0 
L 416 3316 
L 922 3316 
L 922 2853 
L 934 2853 
Q 1272 3391 1925 3391 
Q 2291 3391 2527 3245 
Q 2763 3100 2869 2809 
Q 3238 3391 3891 3391 
Q 4406 3391 4664 3112 
Q 4922 2834 4922 2278 
L 4922 0 
z
" transform="scale(0.015625)"/>
       <path id="ArialUnicodeMS-207b" d="M 1894 3156 
L 238 3156 
L 238 3521 
L 1894 3521 
L 1894 3156 
z
" transform="scale(0.015625)"/>
       <path id="ArialUnicodeMS-b9" d="M 1484 2271 
L 1031 2271 
L 1031 4006 
Q 722 3756 331 3649 
L 331 4040 
Q 813 4206 1147 4621 
L 1484 4621 
L 1484 2271 
z
" transform="scale(0.015625)"/>
       <path id="ArialUnicodeMS-29" d="M 634 4659 
Q 1153 3997 1450 3212 
Q 1747 2428 1747 1656 
Q 1747 788 1431 41 
Q 1116 -706 634 -1344 
L 231 -1344 
Q 788 -431 977 255 
Q 1166 941 1166 1650 
Q 1166 3163 231 4659 
L 634 4659 
z
" transform="scale(0.015625)"/>
      </defs>
      <use xlink:href="#ArialUnicodeMS-6ce2"/>
      <use xlink:href="#ArialUnicodeMS-6570" transform="translate(100 0)"/>
      <use xlink:href="#ArialUnicodeMS-20" transform="translate(200 0)"/>
      <use xlink:href="#ArialUnicodeMS-28" transform="translate(227.783203 0)"/>
      <use xlink:href="#ArialUnicodeMS-63" transform="translate(261.083984 0)"/>
      <use xlink:href="#ArialUnicodeMS-6d" transform="translate(311.083984 0)"/>
      <use xlink:href="#ArialUnicodeMS-207b" transform="translate(394.384766 0)"/>
      <use xlink:href="#ArialUnicodeMS-b9" transform="translate(427.685547 0)"/>
      <use xlink:href="#ArialUnicodeMS-29" transform="translate(460.986328 0)"/>
     </g>
    </g>
   </g>
   <g id="matplotlib.axis_2">
    <g id="ytick_1">
     <g id="line2d_5">
      <defs>
       <path id="mff6e7e23f4" d="M 0 0 
L -3.5 0 
" style="stroke: #252525; stroke-width: 0.8"/>
      </defs>
      <g>
       <use xlink:href="#mff6e7e23f4" x="42" y="203.996252" style="fill: #252525; stroke: #252525; stroke-width: 0.8"/>
      </g>
     </g>
     <g id="text_6">
      <!-- 0.3 -->
      <g style="fill: #252525" transform="translate(19.71 207.933049) scale(0.11 -0.11)">
       <defs>
        <path id="ArialUnicodeMS-2e" d="M 1209 0 
L 569 0 
L 569 641 
L 1209 641 
L 1209 0 
z
" transform="scale(0.015625)"/>
       </defs>
       <use xlink:href="#ArialUnicodeMS-30"/>
       <use xlink:href="#ArialUnicodeMS-2e" transform="translate(55.615234 0)"/>
       <use xlink:href="#ArialUnicodeMS-33" transform="translate(83.398438 0)"/>
      </g>
     </g>
    </g>
    <g id="ytick_2">
     <g id="line2d_6">
      <g>
       <use xlink:href="#mff6e7e23f4" x="42" y="176.541148" style="fill: #252525; stroke: #252525; stroke-width: 0.8"/>
      </g>
     </g>
     <g id="text_7">
      <!-- 0.4 -->
      <g style="fill: #252525" transform="translate(19.71 180.477945) scale(0.11 -0.11)">
       <use xlink:href="#ArialUnicodeMS-30"/>
       <use xlink:href="#ArialUnicodeMS-2e" transform="translate(55.615234 0)"/>
       <use xlink:href="#ArialUnicodeMS-34" transform="translate(83.398438 0)"/>
      </g>
     </g>
    </g>
    <g id="ytick_3">
     <g id="line2d_7">
      <g>
       <use xlink:href="#mff6e7e23f4" x="42" y="149.086044" style="fill: #252525; stroke: #252525; stroke-width: 0.8"/>
      </g>
     </g>
     <g id="text_8">
      <!-- 0.5 -->
      <g style="fill: #252525" transform="translate(19.71 153.022841) scale(0.11 -0.11)">
       <defs>
        <path id="ArialUnicodeMS-35" d="M 1013 2753 
Q 1431 3041 1881 3041 
Q 2453 3041 2878 2636 
Q 3303 2231 3303 1556 
Q 3303 875 2872 398 
Q 2441 -78 1741 -78 
Q 1169 -78 750 245 
Q 331 569 269 1203 
L 856 1247 
Q 928 813 1162 598 
Q 1397 384 1741 384 
Q 2169 384 2434 707 
Q 2700 1031 2700 1503 
Q 2700 1984 2428 2262 
Q 2156 2541 1728 2541 
Q 1188 2541 897 2100 
L 366 2163 
L 813 4519 
L 3084 4519 
L 3084 3975 
L 1259 3975 
L 1013 2753 
z
" transform="scale(0.015625)"/>
       </defs>
       <use xlink:href="#ArialUnicodeMS-30"/>
       <use xlink:href="#ArialUnicodeMS-2e" transform="translate(55.615234 0)"/>
       <use xlink:href="#ArialUnicodeMS-35" transform="translate(83.398438 0)"/>
      </g>
     </g>
    </g>
    <g id="ytick_4">
     <g id="line2d_8">
      <g>
       <use xlink:href="#mff6e7e23f4" x="42" y="121.63094" style="fill: #252525; stroke: #252525; stroke-width: 0.8"/>
      </g>
     </g>
     <g id="text_9">
      <!-- 0.6 -->
      <g style="fill: #252525" transform="translate(19.71 125.567737) scale(0.11 -0.11)">
       <defs>
        <path id="ArialUnicodeMS-36" d="M 838 2363 
Q 1225 2969 1941 2969 
Q 2503 2969 2897 2553 
Q 3291 2138 3291 1491 
Q 3291 838 2898 380 
Q 2506 -78 1856 -78 
Q 1197 -78 733 409 
Q 269 897 269 2144 
Q 269 3369 689 3986 
Q 1109 4603 1906 4603 
Q 2422 4603 2778 4315 
Q 3134 4028 3213 3463 
L 2650 3413 
Q 2497 4141 1875 4141 
Q 1444 4141 1134 3712 
Q 825 3284 825 2363 
L 838 2363 
z
M 1844 384 
Q 2231 384 2472 696 
Q 2713 1009 2713 1453 
Q 2713 1897 2472 2187 
Q 2231 2478 1825 2478 
Q 1453 2478 1184 2204 
Q 916 1931 916 1484 
Q 916 1028 1180 706 
Q 1444 384 1844 384 
z
" transform="scale(0.015625)"/>
       </defs>
       <use xlink:href="#ArialUnicodeMS-30"/>
       <use xlink:href="#ArialUnicodeMS-2e" transform="translate(55.615234 0)"/>
       <use xlink:href="#ArialUnicodeMS-36" transform="translate(83.398438 0)"/>
      </g>
     </g>
    </g>
    <g id="ytick_5">
     <g id="line2d_9">
      <g>
       <use xlink:href="#mff6e7e23f4" x="42" y="94.175836" style="fill: #252525; stroke: #252525; stroke-width: 0.8"/>
      </g>
     </g>
     <g id="text_10">
      <!-- 0.7 -->
      <g style="fill: #252525" transform="translate(19.71 98.112633) scale(0.11 -0.11)">
       <defs>
        <path id="ArialUnicodeMS-37" d="M 3272 4084 
Q 2597 3344 2103 2253 
Q 1609 1163 1522 0 
L 947 0 
Q 969 934 1408 2051 
Q 1847 3169 2547 3975 
L 306 3975 
L 306 4519 
L 3272 4519 
L 3272 4084 
z
" transform="scale(0.015625)"/>
       </defs>
       <use xlink:href="#ArialUnicodeMS-30"/>
       <use xlink:href="#ArialUnicodeMS-2e" transform="translate(55.615234 0)"/>
       <use xlink:href="#ArialUnicodeMS-37" transform="translate(83.398438 0)"/>
      </g>
     </g>
    </g>
    <g id="ytick_6">
     <g id="line2d_10">
      <g>
       <use xlink:href="#mff6e7e23f4" x="42" y="66.720733" style="fill: #252525; stroke: #252525; stroke-width: 0.8"/>
      </g>
     </g>
     <g id="text_11">
      <!-- 0.8 -->
      <g style="fill: #252525" transform="translate(19.71 70.657529) scale(0.11 -0.11)">
       <defs>
        <path id="ArialUnicodeMS-38" d="M 2425 2478 
Q 3284 2203 3284 1306 
Q 3284 716 2862 319 
Q 2441 -78 1778 -78 
Q 1109 -78 689 322 
Q 269 722 269 1325 
Q 269 1759 505 2084 
Q 741 2409 1141 2478 
L 1141 2491 
Q 453 2703 453 3419 
Q 453 3925 815 4264 
Q 1178 4603 1766 4603 
Q 2363 4603 2730 4253 
Q 3097 3903 3097 3406 
Q 3097 2731 2425 2491 
L 2425 2478 
z
M 1778 2700 
Q 2094 2700 2308 2901 
Q 2522 3103 2522 3406 
Q 2522 3716 2305 3928 
Q 2088 4141 1772 4141 
Q 1450 4141 1240 3931 
Q 1031 3722 1031 3438 
Q 1031 3097 1247 2898 
Q 1463 2700 1778 2700 
z
M 1778 384 
Q 2175 384 2440 640 
Q 2706 897 2706 1306 
Q 2706 1716 2432 1978 
Q 2159 2241 1766 2241 
Q 1356 2241 1100 1970 
Q 844 1700 844 1319 
Q 844 922 1108 653 
Q 1372 384 1778 384 
z
" transform="scale(0.015625)"/>
       </defs>
       <use xlink:href="#ArialUnicodeMS-30"/>
       <use xlink:href="#ArialUnicodeMS-2e" transform="translate(55.615234 0)"/>
       <use xlink:href="#ArialUnicodeMS-38" transform="translate(83.398438 0)"/>
      </g>
     </g>
    </g>
    <g id="ytick_7">
     <g id="line2d_11">
      <g>
       <use xlink:href="#mff6e7e23f4" x="42" y="39.265629" style="fill: #252525; stroke: #252525; stroke-width: 0.8"/>
      </g>
     </g>
     <g id="text_12">
      <!-- 0.9 -->
      <g style="fill: #252525" transform="translate(19.71 43.202426) scale(0.11 -0.11)">
       <defs>
        <path id="ArialUnicodeMS-39" d="M 2713 2156 
Q 2547 1888 2258 1722 
Q 1969 1556 1631 1556 
Q 1066 1556 670 1970 
Q 275 2384 275 3053 
Q 275 3734 678 4168 
Q 1081 4603 1716 4603 
Q 2353 4603 2818 4106 
Q 3284 3609 3284 2388 
Q 3284 1147 2859 534 
Q 2434 -78 1644 -78 
Q 1128 -78 781 205 
Q 434 488 359 1063 
L 897 1106 
Q 1025 384 1656 384 
Q 2175 384 2450 857 
Q 2725 1331 2725 2156 
L 2713 2156 
z
M 1766 2047 
Q 2178 2047 2420 2339 
Q 2663 2631 2663 3078 
Q 2663 3531 2414 3836 
Q 2166 4141 1778 4141 
Q 1388 4141 1119 3817 
Q 850 3494 850 3034 
Q 850 2600 1114 2323 
Q 1378 2047 1766 2047 
z
" transform="scale(0.015625)"/>
       </defs>
       <use xlink:href="#ArialUnicodeMS-30"/>
       <use xlink:href="#ArialUnicodeMS-2e" transform="translate(55.615234 0)"/>
       <use xlink:href="#ArialUnicodeMS-39" transform="translate(83.398438 0)"/>
      </g>
     </g>
    </g>
    <g id="text_13">
     <!-- 强度 (a.u.) -->
     <g style="fill: #252525" transform="translate(13.4 145.243594) rotate(-90) scale(0.11 -0.11)">
      <defs>
       <path id="ArialUnicodeMS-5f3a" d="M 2478 2316 
Q 2313 159 2092 -158 
Q 1872 -475 1594 -475 
Q 1431 -475 897 -384 
L 769 116 
L 1497 6 
Q 1650 -41 1745 342 
Q 1841 725 1966 1850 
L 1013 1850 
L 891 1434 
L 403 1528 
Q 684 2422 775 3634 
L 1978 3634 
L 1978 4441 
L 422 4441 
L 422 4903 
L 2463 4903 
L 2463 3175 
L 1222 3175 
L 1100 2316 
L 2478 2316 
z
M 6016 -206 
L 5613 -469 
Q 5363 -78 5306 0 
L 2700 -341 
L 2438 141 
Q 3069 175 3884 269 
L 3884 1234 
L 3144 1234 
L 3144 831 
L 2656 831 
L 2656 3022 
L 3884 3022 
L 3884 3284 
L 2944 3284 
L 2944 4838 
L 5394 4838 
L 5394 3284 
L 4372 3284 
L 4372 3022 
L 5631 3022 
L 5631 916 
L 5147 916 
L 5147 1234 
L 4372 1234 
L 4372 313 
L 4941 409 
Q 4872 453 4739 570 
Q 4606 688 4544 728 
L 4966 947 
Q 5709 425 6016 -206 
z
M 4909 3744 
L 4909 4378 
L 3406 4378 
L 3406 3744 
L 4909 3744 
z
M 5147 1697 
L 5147 2559 
L 4372 2559 
L 4372 1697 
L 5147 1697 
z
M 3884 1697 
L 3884 2559 
L 3144 2559 
L 3144 1697 
L 3884 1697 
z
" transform="scale(0.015625)"/>
       <path id="ArialUnicodeMS-5ea6" d="M 5913 4269 
L 1363 4269 
L 1363 2278 
Q 1363 1144 1180 528 
Q 997 -88 684 -434 
L 294 -147 
Q 669 378 773 940 
Q 878 1503 878 2350 
L 878 4738 
L 3200 4738 
L 3200 5288 
L 3706 5288 
L 3706 4738 
L 5913 4738 
L 5913 4269 
z
M 5778 3194 
L 4728 3194 
L 4728 2303 
L 2350 2303 
L 2350 3194 
L 1472 3194 
L 1472 3659 
L 2350 3659 
L 2350 4147 
L 2828 4147 
L 2828 3659 
L 4244 3659 
L 4244 4147 
L 4728 4147 
L 4728 3659 
L 5778 3659 
L 5778 3194 
z
M 4244 2747 
L 4244 3194 
L 2834 3194 
L 2834 2747 
L 4244 2747 
z
M 6081 72 
L 5819 -397 
Q 4484 -216 3531 263 
Q 2494 -234 1388 -397 
L 1088 44 
Q 2078 134 3034 550 
Q 2509 934 2113 1528 
L 1625 1528 
L 1625 1972 
L 5159 1972 
L 5159 1544 
Q 4819 1025 4044 538 
Q 4963 166 6081 72 
z
M 4544 1528 
L 2700 1528 
Q 3125 1038 3531 781 
Q 4194 1159 4544 1528 
z
" transform="scale(0.015625)"/>
       <path id="ArialUnicodeMS-61" d="M 3303 0 
L 2713 0 
Q 2631 156 2597 409 
Q 2031 -78 1375 -78 
Q 850 -78 547 184 
Q 244 447 244 878 
Q 244 1291 536 1558 
Q 828 1825 1550 1913 
L 2075 1991 
Q 2369 2038 2559 2106 
Q 2559 2359 2543 2464 
Q 2528 2569 2451 2681 
Q 2375 2794 2206 2862 
Q 2038 2931 1753 2931 
Q 1391 2931 1180 2797 
Q 969 2663 891 2297 
L 341 2369 
Q 431 2878 806 3134 
Q 1181 3391 1838 3391 
Q 2434 3391 2714 3214 
Q 2994 3038 3058 2788 
Q 3122 2538 3122 2144 
L 3122 1388 
Q 3122 697 3148 461 
Q 3175 225 3303 0 
z
M 2559 1459 
L 2559 1663 
Q 2119 1516 1481 1430 
Q 844 1344 844 891 
Q 844 663 1016 514 
Q 1188 366 1509 366 
Q 1925 366 2242 614 
Q 2559 863 2559 1459 
z
" transform="scale(0.015625)"/>
       <path id="ArialUnicodeMS-75" d="M 3116 0 
L 2613 0 
L 2613 488 
L 2597 488 
Q 2216 -78 1556 -78 
Q 1209 -78 914 83 
Q 619 244 520 526 
Q 422 809 422 1259 
L 422 3316 
L 984 3316 
L 984 1478 
Q 984 1038 1026 847 
Q 1069 656 1247 532 
Q 1425 409 1672 409 
Q 1991 409 2272 629 
Q 2553 850 2553 1544 
L 2553 3316 
L 3116 3316 
L 3116 0 
z
" transform="scale(0.015625)"/>
      </defs>
      <use xlink:href="#ArialUnicodeMS-5f3a"/>
      <use xlink:href="#ArialUnicodeMS-5ea6" transform="translate(100 0)"/>
      <use xlink:href="#ArialUnicodeMS-20" transform="translate(200 0)"/>
      <use xlink:href="#ArialUnicodeMS-28" transform="translate(227.783203 0)"/>
      <use xlink:href="#ArialUnicodeMS-61" transform="translate(261.083984 0)"/>
      <use xlink:href="#ArialUnicodeMS-2e" transform="translate(316.699219 0)"/>
      <use xlink:href="#ArialUnicodeMS-75" transform="translate(344.482422 0)"/>
      <use xlink:href="#ArialUnicodeMS-2e" transform="translate(400.097656 0)"/>
      <use xlink:href="#ArialUnicodeMS-29" transform="translate(427.880859 0)"/>
     </g>
    </g>
   </g>
   <g id="line2d_12">
    <path d="M 189.792758 209.487273 
L 162.697419 194.166963 
L 161.993644 193.435029 
L 161.641757 192.819383 
L 161.289869 191.876449 
L 160.937982 190.414742 
L 160.586094 188.179378 
L 160.234206 184.86287 
L 159.882319 180.138985 
L 159.178544 165.463087 
L 158.474769 143.981224 
L 157.419106 109.696621 
L 157.067219 102.036854 
L 156.715331 97.972262 
L 156.363444 98.006628 
L 156.011556 102.109324 
L 155.659669 109.721943 
L 154.604006 143.10643 
L 153.900231 163.485294 
L 153.196456 176.965119 
L 152.844569 181.121824 
L 152.492681 183.906656 
L 152.140794 185.646286 
L 151.788906 186.643547 
L 151.437018 187.146464 
L 151.085131 187.339548 
L 150.381356 187.256588 
L 148.973806 186.55408 
L 142.639831 182.953773 
L 142.287943 182.6473 
L 141.936055 182.127407 
L 141.584168 181.073567 
L 141.23228 178.838261 
L 140.880393 174.306702 
L 140.528505 165.896921 
L 140.176618 151.899162 
L 139.472843 104.766574 
L 138.769068 49.630402 
L 138.41718 32.983028 
L 138.065293 30.272727 
L 137.713405 42.224698 
L 137.00963 93.796804 
L 136.305855 143.663588 
L 135.953968 159.423054 
L 135.60208 169.1226 
L 135.250193 174.358174 
L 134.898305 176.814231 
L 134.546418 177.773831 
L 134.19453 178.027889 
L 133.490755 177.840358 
L 129.97188 175.882226 
L 100.061441 158.979277 
L 99.357666 158.3819 
L 98.653891 157.465825 
L 97.950116 155.86897 
L 97.598228 154.638951 
L 96.894453 150.841036 
L 96.190678 144.570285 
L 95.486903 135.223607 
L 94.43124 116.005662 
L 93.375578 95.736778 
L 92.671803 86.344198 
L 92.319915 83.891985 
L 91.968028 83.194467 
L 91.61614 84.289102 
L 91.264253 87.079407 
L 90.560478 96.777345 
L 88.449153 133.534991 
L 87.745378 141.383754 
L 87.041602 146.247397 
L 86.337827 148.816876 
L 85.98594 149.500403 
L 85.634052 149.907195 
L 85.282165 150.112528 
L 84.57839 150.143116 
L 83.522727 149.746366 
L 80.707627 148.207341 
L 49.03775 130.416574 
L 49.03775 130.416574 
" clip-path="url(#pb86dda3b84)" style="fill: none; stroke: #454545; stroke-linecap: square"/>
   </g>
   <g id="line2d_13">
    <path d="M 189.792758 209.487273 
L 49.03775 130.416574 
L 49.03775 130.416574 
" clip-path="url(#pb86dda3b84)" style="fill: none; stroke-dasharray: 3.7,1.6; stroke-dashoffset: 0; stroke: #c0392b"/>
   </g>
   <g id="patch_3">
    <path d="M 42 218.448 
L 42 21.312 
" style="fill: none; stroke: #454545; stroke-width: 0.8; stroke-linejoin: miter; stroke-linecap: square"/>
   </g>
   <g id="patch_4">
    <path d="M 42 218.448 
L 196.830508 218.448 
" style="fill: none; stroke: #454545; stroke-width: 0.8; stroke-linejoin: miter; stroke-linecap: square"/>
   </g>
   <g id="text_14">
    <!-- (a) -->
    <g style="fill: #252525" transform="translate(45.09661 14.84928) scale(0.12 -0.12)">
     <use xlink:href="#ArialUnicodeMS-28"/>
     <use xlink:href="#ArialUnicodeMS-61" transform="translate(33.300781 0)"/>
     <use xlink:href="#ArialUnicodeMS-29" transform="translate(88.916016 0)"/>
    </g>
   </g>
   <g id="text_15">
    <!-- 原始谱 + 基线漂移 -->
    <g style="fill: #252525" transform="translate(49.741525 48.937006) scale(0.11 -0.11)">
     <defs>
      <path id="ArialUnicodeMS-539f" d="M 5888 4569 
L 4063 4569 
Q 4006 4288 3909 4063 
L 5269 4078 
L 5269 1797 
L 3969 1797 
L 3969 38 
Q 3944 -213 3717 -316 
Q 3491 -419 3309 -409 
L 2853 -391 
L 2700 84 
Q 2906 56 3103 56 
Q 3481 56 3481 219 
L 3481 1797 
L 2088 1797 
L 2088 4063 
L 3366 4078 
Q 3463 4225 3572 4569 
L 1600 4569 
L 1600 2328 
Q 1600 1400 1454 812 
Q 1309 225 831 -391 
L 378 -116 
Q 753 359 933 850 
Q 1113 1341 1113 2209 
L 1113 5038 
L 5888 5038 
L 5888 4569 
z
M 4781 3175 
L 4781 3609 
L 2572 3609 
L 2572 3175 
L 4781 3175 
z
M 4781 2266 
L 4781 2706 
L 2572 2706 
L 2572 2266 
L 4781 2266 
z
M 5966 403 
L 5613 56 
Q 5028 850 4238 1306 
L 4569 1613 
Q 5275 1303 5966 403 
z
M 3034 1331 
Q 2700 581 1734 0 
L 1403 341 
Q 2328 903 2669 1594 
L 3034 1331 
z
" transform="scale(0.015625)"/>
      <path id="ArialUnicodeMS-59cb" d="M 6047 2656 
L 5575 2456 
Q 5481 2788 5388 2975 
L 2719 2713 
L 2619 2981 
Q 2503 2059 2216 1331 
Q 2497 1147 2963 709 
L 2650 288 
Q 2131 825 1984 872 
Q 1525 13 709 -475 
L 347 -134 
Q 1250 472 1581 1106 
Q 1181 1356 588 1528 
Q 891 2266 1172 3591 
L 469 3591 
L 469 4056 
L 1253 4056 
Q 1381 4750 1409 5306 
L 1894 5147 
Q 1825 4497 1741 4056 
L 2731 4056 
L 2663 3244 
Q 2938 3244 3041 3272 
Q 3609 4163 4025 5344 
L 4525 5125 
Q 3866 3672 3566 3272 
L 5191 3391 
Q 4928 3825 4603 4116 
L 4997 4353 
Q 5722 3688 6047 2656 
z
M 2234 3591 
L 1656 3591 
Q 1444 2541 1172 1819 
Q 1459 1719 1784 1556 
Q 2078 2272 2234 3591 
z
M 5563 -416 
L 5075 -416 
L 5075 109 
L 3500 109 
L 3500 -416 
L 3016 -416 
L 3016 2328 
L 5563 2328 
L 5563 -416 
z
M 5075 575 
L 5075 1863 
L 3500 1863 
L 3500 575 
L 5075 575 
z
" transform="scale(0.015625)"/>
      <path id="ArialUnicodeMS-8c31" d="M 6022 2328 
L 2131 2328 
L 2131 2797 
L 3444 2797 
L 3444 4116 
L 2406 4116 
L 2406 4581 
L 3475 4581 
Q 3247 4919 2753 5141 
L 3116 5403 
Q 3631 5163 3903 4763 
L 3681 4588 
L 3694 4581 
L 4347 4581 
Q 4641 4869 4922 5381 
L 5338 5153 
Q 5097 4741 4884 4594 
L 4884 4581 
L 5772 4581 
L 5772 4116 
L 4744 4116 
L 4744 2797 
L 6022 2797 
L 6022 2328 
z
M 4256 2797 
L 4256 4116 
L 3928 4116 
L 3928 2797 
L 4256 2797 
z
M 2016 4359 
L 1606 4050 
Q 1303 4656 800 5019 
L 1141 5313 
Q 1681 4941 2016 4359 
z
M 3353 3169 
L 2925 2931 
Q 2847 3372 2431 3853 
L 2816 4031 
Q 3213 3659 3353 3169 
z
M 5678 3822 
Q 5509 3197 5253 2906 
L 4838 3138 
Q 5138 3419 5259 4025 
L 5678 3822 
z
M 2484 341 
L 1497 -197 
L 1209 219 
Q 1259 269 1259 475 
L 1259 2956 
L 384 2956 
L 384 3425 
L 1747 3425 
L 1747 459 
L 2484 863 
L 2484 341 
z
M 5516 -397 
L 5031 -397 
L 5031 -44 
L 3250 -44 
L 3250 -397 
L 2766 -397 
L 2766 2022 
L 5516 2022 
L 5516 -397 
z
M 5031 1234 
L 5031 1556 
L 3250 1556 
L 3250 1234 
L 5031 1234 
z
M 5031 422 
L 5031 794 
L 3250 794 
L 3250 422 
L 5031 422 
z
" transform="scale(0.015625)"/>
      <path id="ArialUnicodeMS-2b" d="M 3384 1997 
L 2131 1997 
L 2131 744 
L 1606 744 
L 1606 1997 
L 353 1997 
L 353 2522 
L 1606 2522 
L 1606 3775 
L 2131 3775 
L 2131 2522 
L 3384 2522 
L 3384 1997 
z
" transform="scale(0.015625)"/>
      <path id="ArialUnicodeMS-57fa" d="M 6272 1063 
L 5984 622 
Q 5247 847 4744 1147 
L 4738 744 
L 3450 744 
L 3450 281 
L 5831 281 
L 5831 -178 
L 666 -178 
L 666 281 
L 2963 281 
L 2963 744 
L 1759 744 
L 1759 1106 
Q 1269 772 544 563 
L 231 1006 
Q 1356 1247 1863 1778 
L 603 1778 
L 603 2241 
L 1613 2241 
L 1613 4341 
L 722 4341 
L 722 4775 
L 1613 4775 
L 1613 5306 
L 2100 5306 
L 2100 4775 
L 4313 4775 
L 4313 5325 
L 4800 5325 
L 4800 4775 
L 5691 4775 
L 5691 4341 
L 4800 4341 
L 4800 2241 
L 5831 2241 
L 5831 1778 
L 4628 1778 
Q 5178 1247 6272 1063 
z
M 4313 3950 
L 4313 4341 
L 2100 4341 
L 2100 3950 
L 4313 3950 
z
M 4313 3103 
L 4313 3513 
L 2100 3513 
L 2100 3103 
L 4313 3103 
z
M 4313 2241 
L 4313 2669 
L 2100 2669 
L 2100 2241 
L 4313 2241 
z
M 4697 1178 
Q 4294 1444 4072 1778 
L 2413 1778 
Q 2194 1425 1850 1178 
L 2963 1178 
L 2963 1650 
L 3450 1650 
L 3450 1178 
L 4697 1178 
z
" transform="scale(0.015625)"/>
      <path id="ArialUnicodeMS-7ebf" d="M 2503 3981 
Q 1903 2625 1141 1947 
L 1153 1931 
L 2444 2144 
L 2456 1709 
Q 1428 1534 575 1313 
L 341 1772 
Q 934 2234 1344 2919 
L 563 2725 
L 347 3206 
Q 1059 4156 1325 5319 
Q 1403 5288 1551 5209 
Q 1700 5131 1791 5100 
Q 1441 3947 959 3316 
Q 1597 3375 1650 3397 
Q 1944 3938 2059 4225 
L 2503 3981 
z
M 5997 481 
Q 5925 44 5808 -170 
Q 5691 -384 5497 -384 
Q 5319 -384 4869 -115 
Q 4419 153 4031 666 
Q 3594 188 2388 -341 
L 2088 72 
Q 3097 466 3763 1088 
Q 3503 1550 3406 2419 
L 2484 2272 
L 2406 2725 
L 3378 2900 
L 3378 3397 
L 2606 3278 
L 2522 3731 
L 3378 3891 
L 3378 5209 
Q 3763 5288 3866 5294 
L 3866 3975 
L 5409 4231 
L 5497 3781 
Q 4550 3622 3866 3481 
L 3866 2994 
L 5772 3341 
Q 5825 3150 5856 2875 
L 3884 2516 
Q 3988 1794 4147 1466 
Q 4731 1991 5075 2484 
L 5453 2222 
Q 4731 1353 4372 1025 
Q 4753 456 5403 153 
Q 5494 378 5509 750 
L 5997 481 
z
M 5166 4544 
L 4831 4225 
Q 4478 4656 4019 4856 
L 4306 5178 
Q 4784 4956 5166 4544 
z
M 2578 872 
L 531 134 
Q 500 197 412 347 
Q 325 497 281 603 
L 2578 1369 
L 2578 872 
z
" transform="scale(0.015625)"/>
      <path id="ArialUnicodeMS-6f02" d="M 1931 4225 
L 1588 3878 
Q 1113 4509 481 4750 
L 819 5088 
Q 1559 4753 1931 4225 
z
M 5900 4569 
L 4622 4569 
L 4622 4256 
L 5663 4256 
L 5663 2656 
L 2041 2656 
L 2041 4256 
L 3084 4256 
L 3084 4569 
L 1797 4569 
L 1797 5038 
L 5900 5038 
L 5900 4569 
z
M 4134 4256 
L 4134 4569 
L 3572 4569 
L 3572 4256 
L 4134 4256 
z
M 5178 3122 
L 5178 3788 
L 4622 3788 
L 4622 3122 
L 5178 3122 
z
M 4134 3122 
L 4134 3788 
L 3572 3788 
L 3572 3122 
L 4134 3122 
z
M 3084 3122 
L 3084 3788 
L 2528 3788 
L 2528 3122 
L 3084 3122 
z
M 1613 2988 
L 1269 2638 
Q 797 3247 166 3513 
L 494 3872 
Q 1094 3606 1613 2988 
z
M 5434 1953 
L 2356 1953 
L 2356 2419 
L 5434 2419 
L 5434 1953 
z
M 1650 2188 
Q 1478 894 666 -244 
L 147 0 
Q 1019 1075 1172 2356 
L 1650 2188 
z
M 5947 1178 
L 4147 1178 
L 4147 44 
Q 4053 -416 3609 -416 
L 3041 -416 
L 2881 78 
Q 3225 9 3413 9 
Q 3641 9 3641 225 
L 3641 1178 
L 1716 1178 
L 1716 1644 
L 5947 1644 
L 5947 1178 
z
M 6216 184 
L 5881 -178 
Q 5163 513 4366 722 
L 4666 1100 
Q 5584 847 6216 184 
z
M 3469 763 
Q 2881 203 1831 -128 
L 1497 275 
Q 2700 603 3138 1094 
L 3469 763 
z
" transform="scale(0.015625)"/>
      <path id="ArialUnicodeMS-79fb" d="M 5850 4738 
Q 5391 3000 2944 2216 
L 2613 2613 
Q 3381 2819 3922 3122 
Q 3778 3431 3366 3659 
L 3769 3969 
Q 4094 3703 4319 3353 
Q 4928 3797 5178 4269 
L 3944 4269 
Q 3500 3816 3009 3547 
L 2644 3847 
Q 3731 4491 4159 5369 
L 4538 5159 
Q 4456 4969 4294 4738 
L 5850 4738 
z
M 2963 1881 
L 2578 1606 
Q 2259 2219 1997 2369 
L 1997 -434 
L 1509 -434 
L 1509 2119 
Q 1288 1622 678 966 
L 313 1294 
Q 1256 2263 1484 3219 
L 628 3219 
L 628 3688 
L 1516 3688 
L 1516 4459 
Q 1300 4403 794 4347 
L 519 4775 
Q 1806 4909 2528 5281 
L 2784 4897 
Q 2313 4684 1997 4588 
L 1997 3688 
L 2747 3688 
L 2747 3219 
L 1997 3219 
L 1997 2747 
L 2125 2797 
Q 2606 2503 2963 1881 
z
M 5984 2450 
Q 5534 247 2450 -447 
L 2113 -13 
Q 3400 200 4084 628 
Q 3922 950 3559 1234 
L 3944 1503 
Q 4241 1294 4453 863 
Q 5084 1331 5375 1984 
L 4331 1984 
Q 3672 1322 2713 856 
L 2338 1203 
Q 3816 1831 4594 2963 
L 4959 2759 
L 4738 2450 
L 5984 2450 
z
" transform="scale(0.015625)"/>
     </defs>
     <use xlink:href="#ArialUnicodeMS-539f"/>
     <use xlink:href="#ArialUnicodeMS-59cb" transform="translate(100 0)"/>
     <use xlink:href="#ArialUnicodeMS-8c31" transform="translate(200 0)"/>
     <use xlink:href="#ArialUnicodeMS-20" transform="translate(300 0)"/>
     <use xlink:href="#ArialUnicodeMS-2b" transform="translate(327.783203 0)"/>
     <use xlink:href="#ArialUnicodeMS-20" transform="translate(386.181641 0)"/>
     <use xlink:href="#ArialUnicodeMS-57fa" transform="translate(413.964844 0)"/>
     <use xlink:href="#ArialUnicodeMS-7ebf" transform="translate(513.964844 0)"/>
     <use xlink:href="#ArialUnicodeMS-6f02" transform="translate(613.964844 0)"/>
     <use xlink:href="#ArialUnicodeMS-79fb" transform="translate(713.964844 0)"/>
    </g>
   </g>
   <g id="text_16">
    <!-- 虚线：拟合基线 -->
    <g style="fill: #252525" transform="translate(49.741525 72.744576) scale(0.11 -0.11)">
     <defs>
      <path id="ArialUnicodeMS-865a" d="M 5709 3891 
Q 5709 3869 5617 3642 
Q 5525 3416 5375 3156 
L 4978 3384 
Q 5206 3778 5228 3853 
L 1319 3853 
L 1306 1075 
Q 1306 256 653 -366 
L 191 -56 
Q 506 153 642 434 
Q 778 716 798 973 
Q 819 1231 819 1953 
L 819 4319 
L 2631 4319 
L 2631 5313 
L 3116 5313 
L 3116 5025 
L 5222 5025 
L 5222 4588 
L 3116 4588 
L 3116 4319 
L 5709 4319 
L 5709 3891 
z
M 5453 2919 
Q 5366 2291 4897 2291 
L 3053 2291 
Q 2869 2291 2751 2472 
Q 2634 2653 2638 2919 
L 1466 2803 
L 1422 3250 
L 2631 3378 
L 2631 3738 
L 3116 3738 
L 3116 3438 
Q 4203 3556 4653 3578 
L 4691 3144 
L 3109 2963 
Q 3109 2725 3278 2725 
L 4897 2725 
Q 4944 2725 4997 2851 
Q 5050 2978 5050 3103 
L 5453 2919 
z
M 5850 -141 
L 1247 -141 
L 1247 325 
L 2591 325 
L 2591 2100 
L 3047 2100 
L 3047 325 
L 3616 325 
L 3616 2100 
L 4103 2100 
L 4103 325 
L 5850 325 
L 5850 -141 
z
M 2419 728 
L 1966 475 
Q 1897 1113 1403 1703 
L 1797 1947 
Q 2297 1319 2419 728 
z
M 5403 1734 
Q 5156 975 4728 488 
L 4269 744 
Q 4809 1309 4978 1941 
L 5403 1734 
z
" transform="scale(0.015625)"/>
      <path id="ArialUnicodeMS-ff1a" d="M 3520 2675 
L 2879 2675 
L 2879 3316 
L 3520 3316 
L 3520 2675 
z
M 3520 0 
L 2879 0 
L 2879 641 
L 3520 641 
L 3520 0 
z
" transform="scale(0.015625)"/>
      <path id="ArialUnicodeMS-62df" d="M 5997 281 
L 5613 -6 
Q 5219 828 4750 1203 
Q 4222 241 2900 -359 
L 2597 31 
Q 3203 297 3689 686 
Q 4175 1075 4404 1548 
Q 4634 2022 4634 2706 
L 4634 5313 
L 5094 5313 
L 5094 2753 
Q 5094 2109 4941 1625 
Q 5600 1128 5997 281 
z
M 2247 2444 
L 1606 2069 
L 1606 141 
Q 1606 -94 1512 -233 
Q 1419 -372 1209 -381 
Q 1000 -391 581 -391 
L 441 91 
Q 809 63 1063 63 
Q 1119 63 1119 178 
L 1119 1759 
L 556 1422 
L 263 1888 
Q 728 2091 1119 2322 
L 1119 3609 
L 397 3609 
L 397 4078 
L 1119 4078 
L 1119 5281 
L 1606 5281 
L 1606 4078 
L 2209 4078 
L 2209 3609 
L 1606 3609 
L 1606 2584 
Q 2038 2850 2247 2994 
L 2247 2444 
z
M 4300 3547 
L 3872 3263 
Q 3478 4356 2925 4703 
L 3334 4959 
Q 4034 4428 4300 3547 
z
M 4153 1478 
L 2559 475 
L 2272 891 
Q 2325 928 2348 1020 
Q 2372 1113 2394 1147 
L 2394 4575 
L 2881 4575 
L 2881 1241 
L 4153 2016 
L 4153 1478 
z
" transform="scale(0.015625)"/>
      <path id="ArialUnicodeMS-5408" d="M 6119 2925 
L 5797 2497 
Q 5525 2603 5015 2934 
Q 4506 3266 4200 3555 
Q 3894 3844 3200 4659 
Q 2319 3578 603 2419 
L 256 2803 
Q 2228 4103 3175 5497 
L 3647 5178 
L 3450 4978 
Q 3994 4306 4803 3698 
Q 5613 3091 6119 2925 
z
M 4691 2597 
L 1638 2597 
L 1638 3084 
L 4691 3084 
L 4691 2597 
z
M 5063 -434 
L 4556 -434 
L 4556 -38 
L 1838 -38 
L 1838 -469 
L 1331 -469 
L 1331 1906 
L 5063 1906 
L 5063 -434 
z
M 4556 447 
L 4556 1441 
L 1838 1441 
L 1838 447 
L 4556 447 
z
" transform="scale(0.015625)"/>
     </defs>
     <use xlink:href="#ArialUnicodeMS-865a"/>
     <use xlink:href="#ArialUnicodeMS-7ebf" transform="translate(100 0)"/>
     <use xlink:href="#ArialUnicodeMS-ff1a" transform="translate(200 0)"/>
     <use xlink:href="#ArialUnicodeMS-62df" transform="translate(300 0)"/>
     <use xlink:href="#ArialUnicodeMS-5408" transform="translate(400 0)"/>
     <use xlink:href="#ArialUnicodeMS-57fa" transform="translate(500 0)"/>
     <use xlink:href="#ArialUnicodeMS-7ebf" transform="translate(600 0)"/>
    </g>
   </g>
  </g>
  <g id="axes_2">
   <g id="patch_5">
    <path d="M 252.569492 218.448 
L 407.4 218.448 
L 407.4 21.312 
L 252.569492 21.312 
z
" style="fill: #ffffff"/>
   </g>
   <g id="FillBetweenPolyCollection_1">
    <defs>
     <path id="m3499ef01fd" d="M 400.36225 -56.912727 
L 400.36225 -56.912727 
L 400.010362 -56.912727 
L 399.658475 -56.912727 
L 399.306587 -56.912727 
L 398.9547 -56.912727 
L 398.602812 -56.912727 
L 398.250924 -56.912727 
L 397.899037 -56.912727 
L 397.547149 -56.912727 
L 397.195262 -56.912727 
L 396.843374 -56.912727 
L 396.491487 -56.912727 
L 396.139599 -56.912727 
L 395.787712 -56.912727 
L 395.435824 -56.912727 
L 395.083937 -56.912727 
L 394.732049 -56.912727 
L 394.380162 -56.912727 
L 394.028274 -56.912727 
L 393.676387 -56.912727 
L 393.324499 -56.912727 
L 392.972612 -56.912727 
L 392.620724 -56.912727 
L 392.268837 -56.912727 
L 391.916949 -56.912727 
L 391.565062 -56.912727 
L 391.213174 -56.912727 
L 390.861287 -56.912727 
L 390.509399 -56.912727 
L 390.157512 -56.912727 
L 389.805624 -56.912727 
L 389.453737 -56.912727 
L 389.101849 -56.912727 
L 388.749961 -56.912727 
L 388.398074 -56.912727 
L 388.046186 -56.912727 
L 387.694299 -56.912727 
L 387.342411 -56.912727 
L 386.990524 -56.912727 
L 386.638636 -56.912727 
L 386.286749 -56.912727 
L 385.934861 -56.912727 
L 385.582974 -56.912727 
L 385.231086 -56.912727 
L 384.879199 -56.912727 
L 384.527311 -56.912727 
L 384.175424 -56.912727 
L 383.823536 -56.912727 
L 383.471649 -56.912727 
L 383.119761 -56.912727 
L 382.767874 -56.912727 
L 382.415986 -56.912727 
L 382.064099 -56.912727 
L 381.712211 -56.912727 
L 381.360324 -56.912727 
L 381.008436 -56.912727 
L 380.656549 -56.912727 
L 380.304661 -56.912727 
L 379.952773 -56.912727 
L 379.600886 -56.912727 
L 379.248998 -56.912727 
L 378.897111 -56.912727 
L 378.545223 -56.912727 
L 378.193336 -56.912727 
L 377.841448 -56.912727 
L 377.489561 -56.912727 
L 377.137673 -56.912727 
L 376.785786 -56.912727 
L 376.433898 -56.912727 
L 376.082011 -56.912727 
L 375.730123 -56.912727 
L 375.378236 -56.912727 
L 375.026348 -56.912727 
L 374.674461 -56.912727 
L 374.322573 -56.912727 
L 373.970686 -56.912727 
L 373.618798 -56.912727 
L 373.266911 -56.912727 
L 372.915023 -56.912727 
L 372.563136 -56.912727 
L 372.211248 -56.912727 
L 371.859361 -56.912727 
L 371.507473 -56.912727 
L 371.155586 -56.912727 
L 370.803698 -56.912727 
L 370.45181 -56.912727 
L 370.099923 -56.912727 
L 369.748035 -56.912727 
L 369.396148 -56.912727 
L 369.04426 -56.912727 
L 368.692373 -56.912727 
L 368.340485 -56.912727 
L 367.988598 -56.912727 
L 367.63671 -56.912727 
L 367.284823 -56.912727 
L 366.932935 -56.912727 
L 366.581048 -56.912727 
L 366.22916 -56.912727 
L 365.877273 -56.912727 
L 365.525385 -56.912727 
L 365.173498 -56.912727 
L 364.82161 -56.912727 
L 364.469723 -56.912727 
L 364.117835 -56.912727 
L 363.765948 -56.912727 
L 363.41406 -56.912727 
L 363.062173 -56.912727 
L 362.710285 -56.912727 
L 362.358398 -56.912727 
L 362.00651 -56.912727 
L 361.654622 -56.912727 
L 361.302735 -56.912727 
L 360.950847 -56.912727 
L 360.59896 -56.912727 
L 360.247072 -56.912727 
L 359.895185 -56.912727 
L 359.543297 -56.912727 
L 359.19141 -56.912727 
L 358.839522 -56.912727 
L 358.487635 -56.912727 
L 358.135747 -56.912727 
L 357.78386 -56.912727 
L 357.431972 -56.912727 
L 357.080085 -56.912727 
L 356.728197 -56.912727 
L 356.37631 -56.912727 
L 356.024422 -56.912727 
L 355.672535 -56.912727 
L 355.320647 -56.912727 
L 354.96876 -56.912727 
L 354.616872 -56.912727 
L 354.264985 -56.912727 
L 353.913097 -56.912727 
L 353.56121 -56.912727 
L 353.209322 -56.912727 
L 352.857435 -56.912727 
L 352.505547 -56.912727 
L 352.153659 -56.912727 
L 351.801772 -56.912727 
L 351.449884 -56.912727 
L 351.097997 -56.912727 
L 350.746109 -56.912727 
L 350.394222 -56.912727 
L 350.042334 -56.912727 
L 349.690447 -56.912727 
L 349.338559 -56.912727 
L 348.986672 -56.912727 
L 348.634784 -56.912727 
L 348.282897 -56.912727 
L 347.931009 -56.912727 
L 347.579122 -56.912727 
L 347.227234 -56.912727 
L 346.875347 -56.912727 
L 346.523459 -56.912727 
L 346.171572 -56.912727 
L 345.819684 -56.912727 
L 345.467797 -56.912727 
L 345.115909 -56.912727 
L 344.764022 -56.912727 
L 344.412134 -56.912727 
L 344.060247 -56.912727 
L 343.708359 -56.912727 
L 343.356471 -56.912727 
L 343.004584 -56.912727 
L 342.652696 -56.912727 
L 342.300809 -56.912727 
L 341.948921 -56.912727 
L 341.597034 -56.912727 
L 341.245146 -56.912727 
L 340.893259 -56.912727 
L 340.541371 -56.912727 
L 340.189484 -56.912727 
L 339.837596 -56.912727 
L 339.485709 -56.912727 
L 339.133821 -56.912727 
L 338.781934 -56.912727 
L 338.430046 -56.912727 
L 338.078159 -56.912727 
L 337.726271 -56.912727 
L 337.374384 -56.912727 
L 337.022496 -56.912727 
L 336.670609 -56.912727 
L 336.318721 -56.912727 
L 335.966834 -56.912727 
L 335.614946 -56.912727 
L 335.263059 -56.912727 
L 334.911171 -56.912727 
L 334.559284 -56.912727 
L 334.207396 -56.912727 
L 333.855508 -56.912727 
L 333.503621 -56.912727 
L 333.151733 -56.912727 
L 332.799846 -56.912727 
L 332.447958 -56.912727 
L 332.096071 -56.912727 
L 331.744183 -56.912727 
L 331.392296 -56.912727 
L 331.040408 -56.912727 
L 330.688521 -56.912727 
L 330.336633 -56.912727 
L 329.984746 -56.912727 
L 329.632858 -56.912727 
L 329.280971 -56.912727 
L 328.929083 -56.912727 
L 328.577196 -56.912727 
L 328.225308 -56.912727 
L 327.873421 -56.912727 
L 327.521533 -56.912727 
L 327.169646 -56.912727 
L 326.817758 -56.912727 
L 326.465871 -56.912727 
L 326.113983 -56.912727 
L 325.762096 -56.912727 
L 325.410208 -56.912727 
L 325.05832 -56.912727 
L 324.706433 -56.912727 
L 324.354545 -56.912727 
L 324.002658 -56.912727 
L 323.65077 -56.912727 
L 323.298883 -56.912727 
L 322.946995 -56.912727 
L 322.595108 -56.912727 
L 322.24322 -56.912727 
L 321.891333 -56.912727 
L 321.539445 -56.912727 
L 321.187558 -56.912727 
L 320.83567 -56.912727 
L 320.483783 -56.912727 
L 320.131895 -56.912727 
L 319.780008 -56.912727 
L 319.42812 -56.912727 
L 319.076233 -56.912727 
L 318.724345 -56.912727 
L 318.372458 -56.912727 
L 318.02057 -56.912727 
L 317.668683 -56.912727 
L 317.316795 -56.912727 
L 316.964908 -56.912727 
L 316.61302 -56.912727 
L 316.261133 -56.912727 
L 315.909245 -56.912727 
L 315.557357 -56.912727 
L 315.20547 -56.912727 
L 314.853582 -56.912727 
L 314.501695 -56.912727 
L 314.149807 -56.912727 
L 313.79792 -56.912727 
L 313.446032 -56.912727 
L 313.094145 -56.912727 
L 312.742257 -56.912727 
L 312.39037 -56.912727 
L 312.038482 -56.912727 
L 311.686595 -56.912727 
L 311.334707 -56.912727 
L 310.98282 -56.912727 
L 310.630932 -56.912727 
L 310.279045 -56.912727 
L 309.927157 -56.912727 
L 309.57527 -56.912727 
L 309.223382 -56.912727 
L 308.871495 -56.912727 
L 308.519607 -56.912727 
L 308.16772 -56.912727 
L 307.815832 -56.912727 
L 307.463945 -56.912727 
L 307.112057 -56.912727 
L 306.760169 -56.912727 
L 306.408282 -56.912727 
L 306.056394 -56.912727 
L 305.704507 -56.912727 
L 305.352619 -56.912727 
L 305.000732 -56.912727 
L 304.648844 -56.912727 
L 304.296957 -56.912727 
L 303.945069 -56.912727 
L 303.593182 -56.912727 
L 303.241294 -56.912727 
L 302.889407 -56.912727 
L 302.537519 -56.912727 
L 302.185632 -56.912727 
L 301.833744 -56.912727 
L 301.481857 -56.912727 
L 301.129969 -56.912727 
L 300.778082 -56.912727 
L 300.426194 -56.912727 
L 300.074307 -56.912727 
L 299.722419 -56.912727 
L 299.370532 -56.912727 
L 299.018644 -56.912727 
L 298.666757 -56.912727 
L 298.314869 -56.912727 
L 297.962982 -56.912727 
L 297.611094 -56.912727 
L 297.259206 -56.912727 
L 296.907319 -56.912727 
L 296.555431 -56.912727 
L 296.203544 -56.912727 
L 295.851656 -56.912727 
L 295.499769 -56.912727 
L 295.147881 -56.912727 
L 294.795994 -56.912727 
L 294.444106 -56.912727 
L 294.092219 -56.912727 
L 293.740331 -56.912727 
L 293.388444 -56.912727 
L 293.036556 -56.912727 
L 292.684669 -56.912727 
L 292.332781 -56.912727 
L 291.980894 -56.912727 
L 291.629006 -56.912727 
L 291.277119 -56.912727 
L 290.925231 -56.912727 
L 290.573344 -56.912727 
L 290.221456 -56.912727 
L 289.869569 -56.912727 
L 289.517681 -56.912727 
L 289.165794 -56.912727 
L 288.813906 -56.912727 
L 288.462018 -56.912727 
L 288.110131 -56.912727 
L 287.758243 -56.912727 
L 287.406356 -56.912727 
L 287.054468 -56.912727 
L 286.702581 -56.912727 
L 286.350693 -56.912727 
L 285.998806 -56.912727 
L 285.646918 -56.912727 
L 285.295031 -56.912727 
L 284.943143 -56.912727 
L 284.591256 -56.912727 
L 284.239368 -56.912727 
L 283.887481 -56.912727 
L 283.535593 -56.912727 
L 283.183706 -56.912727 
L 282.831818 -56.912727 
L 282.479931 -56.912727 
L 282.128043 -56.912727 
L 281.776156 -56.912727 
L 281.424268 -56.912727 
L 281.072381 -56.912727 
L 280.720493 -56.912727 
L 280.368606 -56.912727 
L 280.016718 -56.912727 
L 279.664831 -56.912727 
L 279.312943 -56.912727 
L 278.961055 -56.912727 
L 278.609168 -56.912727 
L 278.25728 -56.912727 
L 277.905393 -56.912727 
L 277.553505 -56.912727 
L 277.201618 -56.912727 
L 276.84973 -56.912727 
L 276.497843 -56.912727 
L 276.145955 -56.912727 
L 275.794068 -56.912727 
L 275.44218 -56.912727 
L 275.090293 -56.912727 
L 274.738405 -56.912727 
L 274.386518 -56.912727 
L 274.03463 -56.912727 
L 273.682743 -56.912727 
L 273.330855 -56.912727 
L 272.978968 -56.912727 
L 272.62708 -56.912727 
L 272.275193 -56.912727 
L 271.923305 -56.912727 
L 271.571418 -56.912727 
L 271.21953 -56.912727 
L 270.867643 -56.912727 
L 270.515755 -56.912727 
L 270.163867 -56.912727 
L 269.81198 -56.912727 
L 269.460092 -56.912727 
L 269.108205 -56.912727 
L 268.756317 -56.912727 
L 268.40443 -56.912727 
L 268.052542 -56.912727 
L 267.700655 -56.912727 
L 267.348767 -56.912727 
L 266.99688 -56.912727 
L 266.644992 -56.912727 
L 266.293105 -56.912727 
L 265.941217 -56.912727 
L 265.58933 -56.912727 
L 265.237442 -56.912727 
L 264.885555 -56.912727 
L 264.533667 -56.912727 
L 264.18178 -56.912727 
L 263.829892 -56.912727 
L 263.478005 -56.912727 
L 263.126117 -56.912727 
L 262.77423 -56.912727 
L 262.422342 -56.912727 
L 262.070455 -56.912727 
L 261.718567 -56.912727 
L 261.36668 -56.912727 
L 261.014792 -56.912727 
L 260.662904 -56.912727 
L 260.311017 -56.912727 
L 259.959129 -56.912727 
L 259.607242 -56.912727 
L 259.607242 -56.912727 
L 259.607242 -56.912727 
L 259.959129 -56.912727 
L 260.311017 -56.912727 
L 260.662904 -56.912727 
L 261.014792 -56.912727 
L 261.36668 -56.912727 
L 261.718567 -56.912727 
L 262.070455 -56.912727 
L 262.422342 -56.912727 
L 262.77423 -56.912727 
L 263.126117 -56.912727 
L 263.478005 -56.912727 
L 263.829892 -56.912727 
L 264.18178 -56.912727 
L 264.533667 -56.912727 
L 264.885555 -56.912727 
L 265.237442 -56.912727 
L 265.58933 -56.912727 
L 265.941217 -56.912727 
L 266.293105 -56.912727 
L 266.644992 -56.912727 
L 266.99688 -56.912727 
L 267.348767 -56.912727 
L 267.700655 -56.912727 
L 268.052542 -56.912727 
L 268.40443 -56.912727 
L 268.756317 -56.912727 
L 269.108205 -56.912727 
L 269.460092 -56.912727 
L 269.81198 -56.912727 
L 270.163867 -56.912727 
L 270.515755 -56.912727 
L 270.867643 -56.912727 
L 271.21953 -56.912727 
L 271.571418 -56.912727 
L 271.923305 -56.912727 
L 272.275193 -56.912727 
L 272.62708 -56.912727 
L 272.978968 -56.912727 
L 273.330855 -56.912727 
L 273.682743 -56.912727 
L 274.03463 -56.912727 
L 274.386518 -56.912727 
L 274.738405 -56.912727 
L 275.090293 -56.912727 
L 275.44218 -56.912727 
L 275.794068 -56.912727 
L 276.145955 -56.912727 
L 276.497843 -56.912727 
L 276.84973 -56.912727 
L 277.201618 -56.912727 
L 277.553505 -56.912727 
L 277.905393 -56.912727 
L 278.25728 -56.912727 
L 278.609168 -56.912727 
L 278.961055 -56.912727 
L 279.312943 -56.912727 
L 279.664831 -56.912727 
L 280.016718 -56.912727 
L 280.368606 -56.912727 
L 280.720493 -56.912727 
L 281.072381 -56.912727 
L 281.424268 -56.912727 
L 281.776156 -56.912727 
L 282.128043 -56.912727 
L 282.479931 -56.912727 
L 282.831818 -56.912727 
L 283.183706 -56.912727 
L 283.535593 -56.912727 
L 283.887481 -56.912727 
L 284.239368 -56.912727 
L 284.591256 -56.912727 
L 284.943143 -56.912727 
L 285.295031 -56.912727 
L 285.646918 -56.912727 
L 285.998806 -56.912727 
L 286.350693 -56.912727 
L 286.702581 -56.912727 
L 287.054468 -56.912727 
L 287.406356 -56.912727 
L 287.758243 -56.912727 
L 288.110131 -56.912727 
L 288.462018 -56.912727 
L 288.813906 -56.912728 
L 289.165794 -56.912728 
L 289.517681 -56.912729 
L 289.869569 -56.912733 
L 290.221456 -56.91274 
L 290.573344 -56.912758 
L 290.925231 -56.9128 
L 291.277119 -56.912895 
L 291.629006 -56.913101 
L 291.980894 -56.91354 
L 292.332781 -56.914452 
L 292.684669 -56.916296 
L 293.036556 -56.919925 
L 293.388444 -56.926885 
L 293.740331 -56.939876 
L 294.092219 -56.963487 
L 294.444106 -57.005261 
L 294.795994 -57.077197 
L 295.147881 -57.197751 
L 295.499769 -57.394322 
L 295.851656 -57.706122 
L 296.203544 -58.187123 
L 296.555431 -58.908569 
L 296.907319 -59.960305 
L 297.259206 -61.449953 
L 297.611094 -63.498897 
L 297.962982 -66.234155 
L 298.314869 -69.775625 
L 298.666757 -74.218944 
L 299.018644 -79.615158 
L 299.370532 -85.949579 
L 299.722419 -93.123151 
L 300.074307 -100.940286 
L 300.426194 -109.106961 
L 300.778082 -117.241899 
L 301.129969 -124.901801 
L 301.481857 -131.619128 
L 301.833744 -136.948366 
L 302.185632 -140.514587 
L 302.537519 -142.056989 
L 302.889407 -141.460419 
L 303.241294 -138.76958 
L 303.593182 -134.183499 
L 303.945069 -128.031193 
L 304.296957 -120.732673 
L 304.648844 -112.751698 
L 305.000732 -104.547631 
L 305.352619 -96.533241 
L 305.704507 -89.04355 
L 306.056394 -82.318388 
L 306.408282 -76.498742 
L 306.760169 -71.634787 
L 307.112057 -67.702145 
L 307.463945 -64.622371 
L 307.815832 -62.284005 
L 308.16772 -60.56134 
L 308.519607 -59.329217 
L 308.871495 -58.473174 
L 309.223382 -57.895198 
L 309.57527 -57.515839 
L 309.927157 -57.273707 
L 310.279045 -57.123383 
L 310.630932 -57.032587 
L 310.98282 -56.979221 
L 311.334707 -56.948693 
L 311.686595 -56.931695 
L 312.038482 -56.92248 
L 312.39037 -56.917617 
L 312.742257 -56.915117 
L 313.094145 -56.913866 
L 313.446032 -56.913257 
L 313.79792 -56.912967 
L 314.149807 -56.912833 
L 314.501695 -56.912773 
L 314.853582 -56.912746 
L 315.20547 -56.912735 
L 315.557357 -56.91273 
L 315.909245 -56.912728 
L 316.261133 -56.912728 
L 316.61302 -56.912727 
L 316.964908 -56.912727 
L 317.316795 -56.912727 
L 317.668683 -56.912727 
L 318.02057 -56.912727 
L 318.372458 -56.912727 
L 318.724345 -56.912727 
L 319.076233 -56.912727 
L 319.42812 -56.912727 
L 319.780008 -56.912727 
L 320.131895 -56.912727 
L 320.483783 -56.912727 
L 320.83567 -56.912727 
L 321.187558 -56.912727 
L 321.539445 -56.912727 
L 321.891333 -56.912727 
L 322.24322 -56.912727 
L 322.595108 -56.912727 
L 322.946995 -56.912727 
L 323.298883 -56.912727 
L 323.65077 -56.912727 
L 324.002658 -56.912727 
L 324.354545 -56.912727 
L 324.706433 -56.912727 
L 325.05832 -56.912727 
L 325.410208 -56.912727 
L 325.762096 -56.912727 
L 326.113983 -56.912727 
L 326.465871 -56.912727 
L 326.817758 -56.912727 
L 327.169646 -56.912727 
L 327.521533 -56.912727 
L 327.873421 -56.912727 
L 328.225308 -56.912727 
L 328.577196 -56.912727 
L 328.929083 -56.912727 
L 329.280971 -56.912727 
L 329.632858 -56.912727 
L 329.984746 -56.912727 
L 330.336633 -56.912727 
L 330.688521 -56.912727 
L 331.040408 -56.912727 
L 331.392296 -56.912727 
L 331.744183 -56.912727 
L 332.096071 -56.912727 
L 332.447958 -56.912727 
L 332.799846 -56.912727 
L 333.151733 -56.912727 
L 333.503621 -56.912727 
L 333.855508 -56.912727 
L 334.207396 -56.912727 
L 334.559284 -56.912727 
L 334.911171 -56.912727 
L 335.263059 -56.912727 
L 335.614946 -56.912727 
L 335.966834 -56.912727 
L 336.318721 -56.912727 
L 336.670609 -56.912727 
L 337.022496 -56.912727 
L 337.374384 -56.912727 
L 337.726271 -56.912727 
L 338.078159 -56.912727 
L 338.430046 -56.912727 
L 338.781934 -56.912727 
L 339.133821 -56.912727 
L 339.485709 -56.912727 
L 339.837596 -56.912727 
L 340.189484 -56.912727 
L 340.541371 -56.912727 
L 340.893259 -56.912727 
L 341.245146 -56.912727 
L 341.597034 -56.912727 
L 341.948921 -56.912728 
L 342.300809 -56.912735 
L 342.652696 -56.912772 
L 343.004584 -56.912973 
L 343.356471 -56.913948 
L 343.708359 -56.918209 
L 344.060247 -56.934969 
L 344.412134 -56.994287 
L 344.764022 -57.183009 
L 345.115909 -57.722164 
L 345.467797 -59.1034 
L 345.819684 -62.270689 
L 346.171572 -68.755392 
L 346.523459 -80.567944 
L 346.875347 -99.613143 
L 347.227234 -126.56976 
L 347.579122 -159.602103 
L 347.931009 -193.721436 
L 348.282897 -221.626403 
L 348.634784 -236.127273 
L 348.986672 -233.128401 
L 349.338559 -213.495327 
L 349.690447 -182.65177 
L 350.042334 -148.160964 
L 350.394222 -116.754782 
L 350.746109 -92.379053 
L 351.097997 -75.908352 
L 351.449884 -66.107027 
L 351.801772 -60.934443 
L 352.153659 -58.502488 
L 352.505547 -57.480638 
L 352.857435 -57.096067 
L 353.209322 -56.966216 
L 353.56121 -56.92683 
L 353.913097 -56.916087 
L 354.264985 -56.913451 
L 354.616872 -56.912868 
L 354.96876 -56.912752 
L 355.320647 -56.912731 
L 355.672535 -56.912728 
L 356.024422 -56.912727 
L 356.37631 -56.912727 
L 356.728197 -56.912728 
L 357.080085 -56.912728 
L 357.431972 -56.912732 
L 357.78386 -56.912742 
L 358.135747 -56.912774 
L 358.487635 -56.91287 
L 358.839522 -56.913149 
L 359.19141 -56.913917 
L 359.543297 -56.915938 
L 359.895185 -56.921009 
L 360.247072 -56.933148 
L 360.59896 -56.960864 
L 360.950847 -57.021205 
L 361.302735 -57.146429 
L 361.654622 -57.394054 
L 362.00651 -57.860436 
L 362.358398 -58.696609 
L 362.710285 -60.122793 
L 363.062173 -62.435011 
L 363.41406 -65.994701 
L 363.765948 -71.191751 
L 364.117835 -78.374891 
L 364.469723 -87.75208 
L 364.82161 -99.276414 
L 365.173498 -112.546562 
L 365.525385 -126.758639 
L 365.877273 -140.742779 
L 366.22916 -153.099472 
L 366.581048 -162.421232 
L 366.932935 -167.55382 
L 367.284823 -167.830768 
L 367.63671 -163.21552 
L 367.988598 -154.309352 
L 368.340485 -142.222717 
L 368.692373 -128.347986 
L 369.04426 -114.097724 
L 369.396148 -100.675852 
L 369.748035 -88.930513 
L 370.099923 -79.306694 
L 370.45181 -71.886371 
L 370.803698 -66.484243 
L 371.155586 -62.761849 
L 371.507473 -60.329825 
L 371.859361 -58.821178 
L 372.211248 -57.931697 
L 372.563136 -57.432841 
L 372.915023 -57.166527 
L 373.266911 -57.031125 
L 373.618798 -56.965529 
L 373.970686 -56.935239 
L 374.322573 -56.921903 
L 374.674461 -56.916303 
L 375.026348 -56.914059 
L 375.378236 -56.913202 
L 375.730123 -56.912889 
L 376.082011 -56.91278 
L 376.433898 -56.912744 
L 376.785786 -56.912732 
L 377.137673 -56.912729 
L 377.489561 -56.912728 
L 377.841448 -56.912727 
L 378.193336 -56.912727 
L 378.545223 -56.912727 
L 378.897111 -56.912727 
L 379.248998 -56.912727 
L 379.600886 -56.912727 
L 379.952773 -56.912727 
L 380.304661 -56.912727 
L 380.656549 -56.912727 
L 381.008436 -56.912727 
L 381.360324 -56.912727 
L 381.712211 -56.912727 
L 382.064099 -56.912727 
L 382.415986 -56.912727 
L 382.767874 -56.912727 
L 383.119761 -56.912727 
L 383.471649 -56.912727 
L 383.823536 -56.912727 
L 384.175424 -56.912727 
L 384.527311 -56.912727 
L 384.879199 -56.912727 
L 385.231086 -56.912727 
L 385.582974 -56.912727 
L 385.934861 -56.912727 
L 386.286749 -56.912727 
L 386.638636 -56.912727 
L 386.990524 -56.912727 
L 387.342411 -56.912727 
L 387.694299 -56.912727 
L 388.046186 -56.912727 
L 388.398074 -56.912727 
L 388.749961 -56.912727 
L 389.101849 -56.912727 
L 389.453737 -56.912727 
L 389.805624 -56.912727 
L 390.157512 -56.912727 
L 390.509399 -56.912727 
L 390.861287 -56.912727 
L 391.213174 -56.912727 
L 391.565062 -56.912727 
L 391.916949 -56.912727 
L 392.268837 -56.912727 
L 392.620724 -56.912727 
L 392.972612 -56.912727 
L 393.324499 -56.912727 
L 393.676387 -56.912727 
L 394.028274 -56.912727 
L 394.380162 -56.912727 
L 394.732049 -56.912727 
L 395.083937 -56.912727 
L 395.435824 -56.912727 
L 395.787712 -56.912727 
L 396.139599 -56.912727 
L 396.491487 -56.912727 
L 396.843374 -56.912727 
L 397.195262 -56.912727 
L 397.547149 -56.912727 
L 397.899037 -56.912727 
L 398.250924 -56.912727 
L 398.602812 -56.912727 
L 398.9547 -56.912727 
L 399.306587 -56.912727 
L 399.658475 -56.912727 
L 400.010362 -56.912727 
L 400.36225 -56.912727 
z
" style="stroke: #cbe3f3; stroke-opacity: 0.5"/>
    </defs>
    <g clip-path="url(#p84072ecb17)">
     <use xlink:href="#m3499ef01fd" x="0" y="266.4" style="fill: #cbe3f3; fill-opacity: 0.5; stroke: #cbe3f3; stroke-opacity: 0.5"/>
    </g>
   </g>
   <g id="matplotlib.axis_3">
    <g id="xtick_5">
     <g id="line2d_14">
      <g>
       <use xlink:href="#m5a45f1d364" x="376.903082" y="218.448" style="fill: #252525; stroke: #252525; stroke-width: 0.8"/>
      </g>
     </g>
     <g id="text_17">
      <!-- 1000 -->
      <g style="fill: #252525" transform="translate(364.669019 233.321594) scale(0.11 -0.11)">
       <use xlink:href="#ArialUnicodeMS-31"/>
       <use xlink:href="#ArialUnicodeMS-30" transform="translate(55.615234 0)"/>
       <use xlink:href="#ArialUnicodeMS-30" transform="translate(111.230469 0)"/>
       <use xlink:href="#ArialUnicodeMS-30" transform="translate(166.845703 0)"/>
      </g>
     </g>
    </g>
    <g id="xtick_6">
     <g id="line2d_15">
      <g>
       <use xlink:href="#m5a45f1d364" x="337.804468" y="218.448" style="fill: #252525; stroke: #252525; stroke-width: 0.8"/>
      </g>
     </g>
     <g id="text_18">
      <!-- 2000 -->
      <g style="fill: #252525" transform="translate(325.570406 233.321594) scale(0.11 -0.11)">
       <use xlink:href="#ArialUnicodeMS-32"/>
       <use xlink:href="#ArialUnicodeMS-30" transform="translate(55.615234 0)"/>
       <use xlink:href="#ArialUnicodeMS-30" transform="translate(111.230469 0)"/>
       <use xlink:href="#ArialUnicodeMS-30" transform="translate(166.845703 0)"/>
      </g>
     </g>
    </g>
    <g id="xtick_7">
     <g id="line2d_16">
      <g>
       <use xlink:href="#m5a45f1d364" x="298.705855" y="218.448" style="fill: #252525; stroke: #252525; stroke-width: 0.8"/>
      </g>
     </g>
     <g id="text_19">
      <!-- 3000 -->
      <g style="fill: #252525" transform="translate(286.471793 233.321594) scale(0.11 -0.11)">
       <use xlink:href="#ArialUnicodeMS-33"/>
       <use xlink:href="#ArialUnicodeMS-30" transform="translate(55.615234 0)"/>
       <use xlink:href="#ArialUnicodeMS-30" transform="translate(111.230469 0)"/>
       <use xlink:href="#ArialUnicodeMS-30" transform="translate(166.845703 0)"/>
      </g>
     </g>
    </g>
    <g id="xtick_8">
     <g id="line2d_17">
      <g>
       <use xlink:href="#m5a45f1d364" x="259.607242" y="218.448" style="fill: #252525; stroke: #252525; stroke-width: 0.8"/>
      </g>
     </g>
     <g id="text_20">
      <!-- 4000 -->
      <g style="fill: #252525" transform="translate(247.373179 233.321594) scale(0.11 -0.11)">
       <use xlink:href="#ArialUnicodeMS-34"/>
       <use xlink:href="#ArialUnicodeMS-30" transform="translate(55.615234 0)"/>
       <use xlink:href="#ArialUnicodeMS-30" transform="translate(111.230469 0)"/>
       <use xlink:href="#ArialUnicodeMS-30" transform="translate(166.845703 0)"/>
      </g>
     </g>
    </g>
    <g id="text_21">
     <!-- 波数 (cm⁻¹) -->
     <g style="fill: #252525" transform="translate(302.800136 248.655031) scale(0.11 -0.11)">
      <use xlink:href="#ArialUnicodeMS-6ce2"/>
      <use xlink:href="#ArialUnicodeMS-6570" transform="translate(100 0)"/>
      <use xlink:href="#ArialUnicodeMS-20" transform="translate(200 0)"/>
      <use xlink:href="#ArialUnicodeMS-28" transform="translate(227.783203 0)"/>
      <use xlink:href="#ArialUnicodeMS-63" transform="translate(261.083984 0)"/>
      <use xlink:href="#ArialUnicodeMS-6d" transform="translate(311.083984 0)"/>
      <use xlink:href="#ArialUnicodeMS-207b" transform="translate(394.384766 0)"/>
      <use xlink:href="#ArialUnicodeMS-b9" transform="translate(427.685547 0)"/>
      <use xlink:href="#ArialUnicodeMS-29" transform="translate(460.986328 0)"/>
     </g>
    </g>
   </g>
   <g id="matplotlib.axis_4">
    <g id="ytick_8">
     <g id="line2d_18">
      <g>
       <use xlink:href="#mff6e7e23f4" x="252.569492" y="209.487273" style="fill: #252525; stroke: #252525; stroke-width: 0.8"/>
      </g>
     </g>
     <g id="text_22">
      <!-- 0.0 -->
      <g style="fill: #252525" transform="translate(230.279492 213.42407) scale(0.11 -0.11)">
       <use xlink:href="#ArialUnicodeMS-30"/>
       <use xlink:href="#ArialUnicodeMS-2e" transform="translate(55.615234 0)"/>
       <use xlink:href="#ArialUnicodeMS-30" transform="translate(83.398438 0)"/>
      </g>
     </g>
    </g>
    <g id="ytick_9">
     <g id="line2d_19">
      <g>
       <use xlink:href="#mff6e7e23f4" x="252.569492" y="173.644364" style="fill: #252525; stroke: #252525; stroke-width: 0.8"/>
      </g>
     </g>
     <g id="text_23">
      <!-- 0.2 -->
      <g style="fill: #252525" transform="translate(230.279492 177.581161) scale(0.11 -0.11)">
       <use xlink:href="#ArialUnicodeMS-30"/>
       <use xlink:href="#ArialUnicodeMS-2e" transform="translate(55.615234 0)"/>
       <use xlink:href="#ArialUnicodeMS-32" transform="translate(83.398438 0)"/>
      </g>
     </g>
    </g>
    <g id="ytick_10">
     <g id="line2d_20">
      <g>
       <use xlink:href="#mff6e7e23f4" x="252.569492" y="137.801455" style="fill: #252525; stroke: #252525; stroke-width: 0.8"/>
      </g>
     </g>
     <g id="text_24">
      <!-- 0.4 -->
      <g style="fill: #252525" transform="translate(230.279492 141.738251) scale(0.11 -0.11)">
       <use xlink:href="#ArialUnicodeMS-30"/>
       <use xlink:href="#ArialUnicodeMS-2e" transform="translate(55.615234 0)"/>
       <use xlink:href="#ArialUnicodeMS-34" transform="translate(83.398438 0)"/>
      </g>
     </g>
    </g>
    <g id="ytick_11">
     <g id="line2d_21">
      <g>
       <use xlink:href="#mff6e7e23f4" x="252.569492" y="101.958545" style="fill: #252525; stroke: #252525; stroke-width: 0.8"/>
      </g>
     </g>
     <g id="text_25">
      <!-- 0.6 -->
      <g style="fill: #252525" transform="translate(230.279492 105.895342) scale(0.11 -0.11)">
       <use xlink:href="#ArialUnicodeMS-30"/>
       <use xlink:href="#ArialUnicodeMS-2e" transform="translate(55.615234 0)"/>
       <use xlink:href="#ArialUnicodeMS-36" transform="translate(83.398438 0)"/>
      </g>
     </g>
    </g>
    <g id="ytick_12">
     <g id="line2d_22">
      <g>
       <use xlink:href="#mff6e7e23f4" x="252.569492" y="66.115636" style="fill: #252525; stroke: #252525; stroke-width: 0.8"/>
      </g>
     </g>
     <g id="text_26">
      <!-- 0.8 -->
      <g style="fill: #252525" transform="translate(230.279492 70.052433) scale(0.11 -0.11)">
       <use xlink:href="#ArialUnicodeMS-30"/>
       <use xlink:href="#ArialUnicodeMS-2e" transform="translate(55.615234 0)"/>
       <use xlink:href="#ArialUnicodeMS-38" transform="translate(83.398438 0)"/>
      </g>
     </g>
    </g>
    <g id="ytick_13">
     <g id="line2d_23">
      <g>
       <use xlink:href="#mff6e7e23f4" x="252.569492" y="30.272727" style="fill: #252525; stroke: #252525; stroke-width: 0.8"/>
      </g>
     </g>
     <g id="text_27">
      <!-- 1.0 -->
      <g style="fill: #252525" transform="translate(230.279492 34.209524) scale(0.11 -0.11)">
       <use xlink:href="#ArialUnicodeMS-31"/>
       <use xlink:href="#ArialUnicodeMS-2e" transform="translate(55.615234 0)"/>
       <use xlink:href="#ArialUnicodeMS-30" transform="translate(83.398438 0)"/>
      </g>
     </g>
    </g>
    <g id="text_28">
     <!-- 归一化强度 -->
     <g style="fill: #252525" transform="translate(224.088085 147.38) rotate(-90) scale(0.11 -0.11)">
      <defs>
       <path id="ArialUnicodeMS-5f52" d="M 2450 5325 
Q 2463 4616 2463 3953 
Q 2463 2844 2439 2359 
Q 2416 1875 2173 1336 
Q 1931 797 1501 345 
Q 1072 -106 544 -397 
L 172 -72 
Q 1978 1047 1978 2572 
L 1978 5325 
L 2450 5325 
z
M 5509 -244 
L 5056 -244 
L 5056 184 
L 2022 184 
L 2022 653 
L 5056 653 
L 5056 2350 
L 2747 2350 
L 2747 2816 
L 5056 2816 
L 5056 4469 
L 2619 4469 
L 2619 4934 
L 5509 4934 
L 5509 -244 
z
M 1209 1088 
L 756 1088 
L 756 4763 
L 1209 4763 
L 1209 1088 
z
" transform="scale(0.015625)"/>
       <path id="ArialUnicodeMS-4e00" d="M 5734 2278 
L 775 2278 
L 775 2809 
L 5734 2809 
L 5734 2278 
z
" transform="scale(0.015625)"/>
       <path id="ArialUnicodeMS-5316" d="M 2431 5147 
Q 2322 4731 2081 4159 
L 1844 3603 
L 1844 -366 
L 1350 -366 
L 1350 2834 
Q 1006 2356 653 2075 
L 306 2444 
Q 1350 3319 2003 5350 
L 2431 5147 
z
M 6081 1325 
Q 5994 419 5786 114 
Q 5578 -191 5203 -191 
L 3872 -191 
Q 3534 -191 3339 -12 
Q 3144 166 3144 469 
L 3144 5178 
L 3628 5178 
L 3628 2853 
Q 4478 3413 5288 4488 
L 5709 4197 
Q 4800 2984 3628 2272 
L 3628 550 
Q 3628 288 3981 288 
L 5113 288 
Q 5553 288 5581 1503 
L 6081 1325 
z
" transform="scale(0.015625)"/>
      </defs>
      <use xlink:href="#ArialUnicodeMS-5f52"/>
      <use xlink:href="#ArialUnicodeMS-4e00" transform="translate(100 0)"/>
      <use xlink:href="#ArialUnicodeMS-5316" transform="translate(200 0)"/>
      <use xlink:href="#ArialUnicodeMS-5f3a" transform="translate(300 0)"/>
      <use xlink:href="#ArialUnicodeMS-5ea6" transform="translate(400 0)"/>
     </g>
    </g>
   </g>
   <g id="line2d_24">
    <path d="M 400.36225 209.487273 
L 373.618798 209.434471 
L 372.915023 209.233473 
L 372.563136 208.967159 
L 372.211248 208.468303 
L 371.859361 207.578822 
L 371.507473 206.070175 
L 371.155586 203.638151 
L 370.803698 199.915757 
L 370.45181 194.513629 
L 369.748035 177.469487 
L 369.04426 152.302276 
L 367.988598 112.090648 
L 367.63671 103.18448 
L 367.284823 98.569232 
L 366.932935 98.84618 
L 366.581048 103.978768 
L 366.22916 113.300528 
L 365.173498 153.853438 
L 364.469723 178.64792 
L 363.765948 195.208249 
L 363.062173 203.964989 
L 362.710285 206.277207 
L 362.358398 207.703391 
L 362.00651 208.539564 
L 361.654622 209.005946 
L 360.950847 209.378795 
L 359.895185 209.478991 
L 353.56121 209.47317 
L 352.857435 209.303933 
L 352.505547 208.919362 
L 352.153659 207.897512 
L 351.801772 205.465557 
L 351.449884 200.292973 
L 351.097997 190.491648 
L 350.746109 174.020947 
L 350.042334 118.239036 
L 349.338559 52.904673 
L 348.986672 33.271599 
L 348.634784 30.272727 
L 348.282897 44.773597 
L 347.579122 106.797897 
L 346.875347 166.786857 
L 346.523459 185.832056 
L 346.171572 197.644608 
L 345.819684 204.129311 
L 345.467797 207.2966 
L 345.115909 208.677836 
L 344.764022 209.216991 
L 344.412134 209.405713 
L 343.356471 209.486052 
L 311.686595 209.468305 
L 310.630932 209.367413 
L 309.927157 209.126293 
L 309.57527 208.884161 
L 309.223382 208.504802 
L 308.871495 207.926826 
L 308.519607 207.070783 
L 308.16772 205.83866 
L 307.815832 204.115995 
L 307.112057 198.697855 
L 306.408282 189.901258 
L 305.704507 177.35645 
L 303.593182 132.216501 
L 303.241294 127.63042 
L 302.889407 124.939581 
L 302.537519 124.343011 
L 302.185632 125.885413 
L 301.833744 129.451634 
L 301.129969 141.498199 
L 299.018644 186.784842 
L 298.314869 196.624375 
L 297.611094 202.901103 
L 296.907319 206.439695 
L 296.203544 208.212877 
L 295.499769 209.005678 
L 294.795994 209.322803 
L 293.740331 209.460124 
L 290.221456 209.48726 
L 259.607242 209.487273 
L 259.607242 209.487273 
" clip-path="url(#p84072ecb17)" style="fill: none; stroke: #cbe3f3; stroke-width: 1.2; stroke-linecap: square"/>
   </g>
   <g id="patch_6">
    <path d="M 252.569492 218.448 
L 252.569492 21.312 
" style="fill: none; stroke: #454545; stroke-width: 0.8; stroke-linejoin: miter; stroke-linecap: square"/>
   </g>
   <g id="patch_7">
    <path d="M 252.569492 218.448 
L 407.4 218.448 
" style="fill: none; stroke: #454545; stroke-width: 0.8; stroke-linejoin: miter; stroke-linecap: square"/>
   </g>
   <g id="text_29">
    <!-- (b) -->
    <g style="fill: #252525" transform="translate(255.666102 14.84928) scale(0.12 -0.12)">
     <defs>
      <path id="ArialUnicodeMS-62" d="M 1006 2944 
Q 1319 3391 1900 3391 
Q 2541 3391 2925 2925 
Q 3309 2459 3309 1709 
Q 3309 844 2879 383 
Q 2450 -78 1875 -78 
Q 1291 -78 966 416 
L 953 416 
L 953 0 
L 428 0 
L 428 4581 
L 991 4581 
L 991 2944 
L 1006 2944 
z
M 1831 384 
Q 2222 384 2476 720 
Q 2731 1056 2731 1663 
Q 2731 2247 2497 2589 
Q 2263 2931 1850 2931 
Q 1444 2931 1195 2578 
Q 947 2225 947 1684 
Q 947 1156 1050 932 
Q 1153 709 1361 546 
Q 1569 384 1831 384 
z
" transform="scale(0.015625)"/>
     </defs>
     <use xlink:href="#ArialUnicodeMS-28"/>
     <use xlink:href="#ArialUnicodeMS-62" transform="translate(33.300781 0)"/>
     <use xlink:href="#ArialUnicodeMS-29" transform="translate(88.916016 0)"/>
    </g>
   </g>
   <g id="text_30">
    <!-- 1720 -->
    <g style="fill: #252525" transform="translate(336.518018 128.385812) scale(0.11 -0.11)">
     <use xlink:href="#ArialUnicodeMS-31"/>
     <use xlink:href="#ArialUnicodeMS-37" transform="translate(55.615234 0)"/>
     <use xlink:href="#ArialUnicodeMS-32" transform="translate(111.230469 0)"/>
     <use xlink:href="#ArialUnicodeMS-30" transform="translate(166.845703 0)"/>
    </g>
   </g>
   <g id="text_31">
    <!-- 1250 -->
    <g style="fill: #252525" transform="translate(354.894366 159.351824) scale(0.11 -0.11)">
     <use xlink:href="#ArialUnicodeMS-31"/>
     <use xlink:href="#ArialUnicodeMS-32" transform="translate(55.615234 0)"/>
     <use xlink:href="#ArialUnicodeMS-35" transform="translate(111.230469 0)"/>
     <use xlink:href="#ArialUnicodeMS-30" transform="translate(166.845703 0)"/>
    </g>
   </g>
   <g id="text_32">
    <!-- 2900 -->
    <g style="fill: #252525" transform="translate(290.381654 171.1484) scale(0.11 -0.11)">
     <use xlink:href="#ArialUnicodeMS-32"/>
     <use xlink:href="#ArialUnicodeMS-39" transform="translate(55.615234 0)"/>
     <use xlink:href="#ArialUnicodeMS-30" transform="translate(111.230469 0)"/>
     <use xlink:href="#ArialUnicodeMS-30" transform="translate(166.845703 0)"/>
    </g>
   </g>
   <g id="text_33">
    <!-- 扣基线 · 归一化后 -->
    <g style="fill: #252525" transform="translate(260.311017 48.899194) scale(0.11 -0.11)">
     <defs>
      <path id="ArialUnicodeMS-6263" d="M 3041 2169 
L 2125 1875 
L 2125 97 
Q 2094 -150 1922 -294 
Q 1750 -438 1113 -403 
L 947 91 
Q 1253 63 1331 63 
Q 1550 63 1584 102 
Q 1619 141 1619 366 
L 1619 1709 
L 781 1388 
L 453 1825 
Q 653 1866 1619 2169 
L 1619 3609 
L 603 3609 
L 603 4078 
L 1619 4078 
L 1619 5313 
L 2125 5313 
L 2125 4078 
L 3041 4078 
L 3041 3609 
L 2125 3609 
L 2125 2356 
L 3041 2656 
L 3041 2169 
z
M 5716 -275 
L 5228 -275 
L 5228 294 
L 3681 294 
L 3681 -275 
L 3194 -275 
L 3194 4800 
L 5716 4800 
L 5716 -275 
z
M 5228 763 
L 5228 4331 
L 3681 4331 
L 3681 763 
L 5228 763 
z
" transform="scale(0.015625)"/>
      <path id="ArialUnicodeMS-b7" d="M 1209 1931 
L 569 1931 
L 569 2572 
L 1209 2572 
L 1209 1931 
z
" transform="scale(0.015625)"/>
      <path id="ArialUnicodeMS-540e" d="M 5925 3138 
L 1631 3138 
L 1631 1850 
Q 1631 747 709 -384 
L 281 -56 
Q 1147 881 1147 1869 
L 1147 4666 
Q 3191 4666 5275 5403 
L 5613 5025 
Q 3828 4219 1631 4178 
L 1631 3603 
L 5925 3603 
L 5925 3138 
z
M 5388 -409 
L 4903 -409 
L 4903 97 
L 2644 97 
L 2644 -409 
L 2156 -409 
L 2156 2338 
L 5388 2338 
L 5388 -409 
z
M 4903 563 
L 4903 1869 
L 2644 1869 
L 2644 563 
L 4903 563 
z
" transform="scale(0.015625)"/>
     </defs>
     <use xlink:href="#ArialUnicodeMS-6263"/>
     <use xlink:href="#ArialUnicodeMS-57fa" transform="translate(100 0)"/>
     <use xlink:href="#ArialUnicodeMS-7ebf" transform="translate(200 0)"/>
     <use xlink:href="#ArialUnicodeMS-20" transform="translate(300 0)"/>
     <use xlink:href="#ArialUnicodeMS-b7" transform="translate(327.783203 0)"/>
     <use xlink:href="#ArialUnicodeMS-20" transform="translate(355.566406 0)"/>
     <use xlink:href="#ArialUnicodeMS-5f52" transform="translate(383.349609 0)"/>
     <use xlink:href="#ArialUnicodeMS-4e00" transform="translate(483.349609 0)"/>
     <use xlink:href="#ArialUnicodeMS-5316" transform="translate(583.349609 0)"/>
     <use xlink:href="#ArialUnicodeMS-540e" transform="translate(683.349609 0)"/>
    </g>
   </g>
  </g>
  <g id="patch_8">
   <path d="M 381.06 19.44 
L 413.04 19.44 
Q 416.4 19.44 416.4 17.3088 
L 416.4 5.7312 
Q 416.4 3.6 413.04 3.6 
L 381.06 3.6 
Q 377.7 3.6 377.7 5.7312 
L 377.7 17.3088 
Q 377.7 19.44 381.06 19.44 
z
" style="fill: #eeeeee; stroke: #454545; stroke-width: 0.9; stroke-linejoin: miter"/>
  </g>
  <g id="text_34">
   <!-- 示意图 -->
   <g style="fill: #252525" transform="translate(380.55 14.361094) scale(0.11 -0.11)">
    <defs>
     <path id="ArialUnicodeMS-793a" d="M 5253 4378 
L 1269 4378 
L 1269 4844 
L 5253 4844 
L 5253 4378 
z
M 5663 2988 
L 3525 2988 
L 3525 72 
Q 3525 -188 3342 -311 
Q 3159 -434 2876 -425 
Q 2594 -416 2259 -422 
L 2069 128 
Q 2475 81 2756 81 
Q 3022 81 3022 275 
L 3022 2988 
L 831 2988 
L 831 3456 
L 5663 3456 
L 5663 2988 
z
M 2369 2344 
Q 1934 1300 922 366 
L 581 716 
Q 984 1047 1406 1620 
Q 1828 2194 1959 2613 
L 2369 2344 
z
M 5966 697 
L 5569 366 
Q 4938 1575 4019 2253 
L 4397 2584 
Q 5231 2019 5966 697 
z
" transform="scale(0.015625)"/>
     <path id="ArialUnicodeMS-610f" d="M 5875 3278 
L 531 3278 
L 531 3744 
L 2247 3744 
Q 1875 4191 1819 4225 
L 2003 4341 
L 959 4341 
L 959 4806 
L 2956 4806 
L 2956 5375 
L 3444 5375 
L 3444 4806 
L 5441 4806 
L 5441 4341 
L 4422 4341 
L 4531 4263 
Q 4403 3984 4172 3744 
L 5875 3744 
L 5875 3278 
z
M 4000 4341 
L 2356 4341 
Q 2619 4113 2778 3744 
L 3584 3744 
Q 3863 3994 4000 4341 
z
M 5006 1222 
L 3244 1222 
Q 3597 1084 3903 738 
L 3525 416 
Q 3291 769 2675 1025 
L 2888 1222 
L 1403 1222 
L 1403 3028 
L 5006 3028 
L 5006 1222 
z
M 4525 2363 
L 4525 2584 
L 1881 2584 
L 1881 2363 
L 4525 2363 
z
M 4525 1691 
L 4525 1966 
L 1881 1966 
L 1881 1691 
L 4525 1691 
z
M 6138 153 
L 5772 -191 
Q 5372 419 4709 678 
L 5094 1006 
Q 5622 822 6138 153 
z
M 1806 653 
Q 1369 122 550 -178 
L 275 256 
Q 1081 459 1478 978 
L 1806 653 
z
M 4647 494 
Q 4525 28 4365 -139 
Q 4206 -306 3853 -306 
L 2503 -306 
Q 2009 -250 2009 372 
L 2009 884 
L 2491 884 
L 2491 341 
Q 2491 159 2650 159 
L 3891 159 
Q 4031 159 4097 366 
L 4191 672 
L 4647 494 
z
" transform="scale(0.015625)"/>
     <path id="ArialUnicodeMS-56fe" d="M 5544 -422 
L 5056 -422 
L 5056 19 
L 1184 19 
L 1184 -422 
L 703 -422 
L 703 5019 
L 5544 5019 
L 5544 -422 
z
M 5056 2400 
L 5056 4550 
L 2625 4550 
L 2625 4538 
L 2906 4416 
Q 2863 4322 2778 4178 
L 4513 4178 
L 4513 3781 
Q 4203 3203 3675 2778 
Q 4228 2456 5056 2400 
z
M 5056 459 
L 5056 2163 
L 5044 2163 
L 4831 1850 
Q 4013 1963 3188 2463 
Q 2713 2188 1516 1900 
L 1281 2388 
Q 2341 2584 2784 2834 
Q 2544 3022 2259 3413 
Q 1941 3031 1575 2869 
L 1253 3297 
Q 2072 3656 2419 4550 
L 1191 4550 
L 1191 459 
L 3231 459 
Q 2769 950 2125 1228 
L 2400 1606 
Q 3019 1372 3694 716 
L 3488 459 
L 5056 459 
z
M 3994 1491 
L 3628 1131 
Q 3197 1638 2613 1906 
L 2963 2241 
Q 3434 2072 3994 1491 
z
M 3903 3713 
L 2584 3713 
Q 2709 3513 3250 3053 
Q 3647 3328 3903 3713 
z
" transform="scale(0.015625)"/>
    </defs>
    <use xlink:href="#ArialUnicodeMS-793a"/>
    <use xlink:href="#ArialUnicodeMS-610f" transform="translate(100 0)"/>
    <use xlink:href="#ArialUnicodeMS-56fe" transform="translate(200 0)"/>
   </g>
  </g>
 </g>
 <defs>
  <clipPath id="pb86dda3b84">
   <rect x="42" y="21.312" width="154.830508" height="197.136"/>
  </clipPath>
  <clipPath id="p84072ecb17">
   <rect x="252.569492" y="21.312" width="154.830508" height="197.136"/>
  </clipPath>
 </defs>
</svg>
